<?xml version="1.0" encoding="UTF-8" standalone="no"?>
<!DOCTYPE svg PUBLIC "-//W3C//DTD SVG 1.1//EN"
 "http://www.w3.org/Graphics/SVG/1.1/DTD/svg11.dtd">
<!-- Generated by graphviz version 2.43.0 (0)
 -->
<!-- Title: SMS_STS::SyncWriteSpe Pages: 1 -->
<svg width="520pt" height="156pt"
 viewBox="0.00 0.00 520.00 156.12" xmlns="http://www.w3.org/2000/svg" xmlns:xlink="http://www.w3.org/1999/xlink">
<g id="graph0" class="graph" transform="scale(1 1) rotate(0) translate(4 152.12)">
<title>SMS_STS::SyncWriteSpe</title>
<polygon fill="white" stroke="transparent" points="-4,4 -4,-152.12 516,-152.12 516,4 -4,4"/>
<!-- Node1 -->
<g id="node1" class="node">
<title>Node1</title>
<g id="a_node1"><a xlink:title=" ">
<polygon fill="#bfbfbf" stroke="black" points="0,-76.5 0,-95.5 131,-95.5 131,-76.5 0,-76.5"/>
<text text-anchor="middle" x="65.5" y="-83.5" font-family="Helvetica,sans-Serif" font-size="10.00">SMS_STS::SyncWriteSpe</text>
</a>
</g>
</g>
<!-- Node2 -->
<g id="node2" class="node">
<title>Node2</title>
<g id="a_node2"><a xlink:href="classSCS.html#ad604a21d07533c58acbb18c78c885626" target="_top" xlink:title=" ">
<polygon fill="white" stroke="black" points="171.5,-76.5 171.5,-95.5 253.5,-95.5 253.5,-76.5 171.5,-76.5"/>
<text text-anchor="middle" x="212.5" y="-83.5" font-family="Helvetica,sans-Serif" font-size="10.00">SCS::genWrite</text>
</a>
</g>
</g>
<!-- Node1&#45;&gt;Node2 -->
<g id="edge1" class="edge">
<title>Node1&#45;&gt;Node2</title>
<path fill="none" stroke="midnightblue" d="M131.37,-86C141.33,-86 151.5,-86 161.09,-86"/>
<polygon fill="midnightblue" stroke="midnightblue" points="161.24,-89.5 171.24,-86 161.24,-82.5 161.24,-89.5"/>
</g>
<!-- Node9 -->
<g id="node9" class="node">
<title>Node9</title>
<g id="a_node9"><a xlink:href="classSCS.html#a4b91c0fcfaec1c55ef885ae2facaa0e7" target="_top" xlink:title=" ">
<polygon fill="white" stroke="black" points="167,-38.5 167,-57.5 258,-57.5 258,-38.5 167,-38.5"/>
<text text-anchor="middle" x="212.5" y="-45.5" font-family="Helvetica,sans-Serif" font-size="10.00">SCS::Host2SCS</text>
</a>
</g>
</g>
<!-- Node1&#45;&gt;Node9 -->
<g id="edge8" class="edge">
<title>Node1&#45;&gt;Node9</title>
<path fill="none" stroke="midnightblue" d="M103.09,-76.41C121.97,-71.46 145.19,-65.38 165.29,-60.11"/>
<polygon fill="midnightblue" stroke="midnightblue" points="166.39,-63.44 175.17,-57.52 164.61,-56.67 166.39,-63.44"/>
</g>
<!-- Node10 -->
<g id="node10" class="node">
<title>Node10</title>
<g id="a_node10"><a xlink:href="classSCS.html#a09c5261159f42f17d0a6003af7a3aedd" target="_top" xlink:title=" ">
<polygon fill="white" stroke="black" points="169,-114.5 169,-133.5 256,-133.5 256,-114.5 169,-114.5"/>
<text text-anchor="middle" x="212.5" y="-121.5" font-family="Helvetica,sans-Serif" font-size="10.00">SCS::syncWrite</text>
</a>
</g>
</g>
<!-- Node1&#45;&gt;Node10 -->
<g id="edge9" class="edge">
<title>Node1&#45;&gt;Node10</title>
<path fill="none" stroke="midnightblue" d="M103.09,-95.59C121.97,-100.54 145.19,-106.62 165.29,-111.89"/>
<polygon fill="midnightblue" stroke="midnightblue" points="164.61,-115.33 175.17,-114.48 166.39,-108.56 164.61,-115.33"/>
</g>
<!-- Node3 -->
<g id="node3" class="node">
<title>Node3</title>
<g id="a_node3"><a xlink:href="classSCS.html#ab03bd31949e28794360e70a67723affe" target="_top" xlink:title=" ">
<polygon fill="white" stroke="black" points="311.5,-0.5 311.5,-19.5 372.5,-19.5 372.5,-0.5 311.5,-0.5"/>
<text text-anchor="middle" x="342" y="-7.5" font-family="Helvetica,sans-Serif" font-size="10.00">SCS::Ack</text>
</a>
</g>
</g>
<!-- Node2&#45;&gt;Node3 -->
<g id="edge2" class="edge">
<title>Node2&#45;&gt;Node3</title>
<path fill="none" stroke="midnightblue" d="M240.79,-76.44C246.71,-73.8 252.76,-70.65 258,-67 277.1,-53.71 274.78,-42.1 294,-29 296.69,-27.17 299.59,-25.46 302.57,-23.9"/>
<polygon fill="midnightblue" stroke="midnightblue" points="304.13,-27.03 311.67,-19.59 301.13,-20.7 304.13,-27.03"/>
</g>
<!-- Node5 -->
<g id="node5" class="node">
<title>Node5</title>
<g id="a_node5"><a xlink:href="classSCS.html#a856da9cc4c2a6d86984c3a314bfd87c9" target="_top" xlink:title=" ">
<polygon fill="white" stroke="black" points="296,-114.5 296,-133.5 388,-133.5 388,-114.5 296,-114.5"/>
<text text-anchor="middle" x="342" y="-121.5" font-family="Helvetica,sans-Serif" font-size="10.00">SCS::rFlushSCS</text>
</a>
</g>
</g>
<!-- Node2&#45;&gt;Node5 -->
<g id="edge4" class="edge">
<title>Node2&#45;&gt;Node5</title>
<path fill="none" stroke="midnightblue" d="M245.67,-95.59C261.83,-100.4 281.61,-106.3 298.95,-111.47"/>
<polygon fill="midnightblue" stroke="midnightblue" points="298.25,-114.91 308.84,-114.41 300.25,-108.2 298.25,-114.91"/>
</g>
<!-- Node6 -->
<g id="node6" class="node">
<title>Node6</title>
<g id="a_node6"><a xlink:href="classSCS.html#ad860b40280cba5d8ea5214cca6c70119" target="_top" xlink:title=" ">
<polygon fill="white" stroke="black" points="294,-76.5 294,-95.5 390,-95.5 390,-76.5 294,-76.5"/>
<text text-anchor="middle" x="342" y="-83.5" font-family="Helvetica,sans-Serif" font-size="10.00">SCS::wFlushSCS</text>
</a>
</g>
</g>
<!-- Node2&#45;&gt;Node6 -->
<g id="edge5" class="edge">
<title>Node2&#45;&gt;Node6</title>
<path fill="none" stroke="midnightblue" d="M253.84,-86C263.26,-86 273.48,-86 283.48,-86"/>
<polygon fill="midnightblue" stroke="midnightblue" points="283.8,-89.5 293.8,-86 283.8,-82.5 283.8,-89.5"/>
</g>
<!-- Node7 -->
<g id="node7" class="node">
<title>Node7</title>
<g id="a_node7"><a xlink:href="classSCS.html#aa4af18b8b9f34649cd1e8aadde6d9b1f" target="_top" xlink:title=" ">
<polygon fill="white" stroke="black" points="302,-38.5 302,-57.5 382,-57.5 382,-38.5 302,-38.5"/>
<text text-anchor="middle" x="342" y="-45.5" font-family="Helvetica,sans-Serif" font-size="10.00">SCS::writeBuf</text>
</a>
</g>
</g>
<!-- Node2&#45;&gt;Node7 -->
<g id="edge6" class="edge">
<title>Node2&#45;&gt;Node7</title>
<path fill="none" stroke="midnightblue" d="M245.67,-76.41C261.83,-71.6 281.61,-65.7 298.95,-60.53"/>
<polygon fill="midnightblue" stroke="midnightblue" points="300.25,-63.8 308.84,-57.59 298.25,-57.09 300.25,-63.8"/>
</g>
<!-- Node4 -->
<g id="node4" class="node">
<title>Node4</title>
<g id="a_node4"><a xlink:href="classSCS.html#a7e23a5d866557da06108d326cb2055b9" target="_top" xlink:title=" ">
<polygon fill="white" stroke="black" points="427.5,-0.5 427.5,-19.5 510.5,-19.5 510.5,-0.5 427.5,-0.5"/>
<text text-anchor="middle" x="469" y="-7.5" font-family="Helvetica,sans-Serif" font-size="10.00">SCS::readSCS</text>
</a>
</g>
</g>
<!-- Node3&#45;&gt;Node4 -->
<g id="edge3" class="edge">
<title>Node3&#45;&gt;Node4</title>
<path fill="none" stroke="midnightblue" d="M372.62,-10C385.88,-10 401.9,-10 416.99,-10"/>
<polygon fill="midnightblue" stroke="midnightblue" points="417.24,-13.5 427.24,-10 417.24,-6.5 417.24,-13.5"/>
</g>
<!-- Node8 -->
<g id="node8" class="node">
<title>Node8</title>
<g id="a_node8"><a xlink:href="classSCS.html#a863a8f5eabdddf9d7500698d4ccff05e" target="_top" xlink:title=" ">
<polygon fill="white" stroke="black" points="426,-95.5 426,-114.5 512,-114.5 512,-95.5 426,-95.5"/>
<text text-anchor="middle" x="469" y="-102.5" font-family="Helvetica,sans-Serif" font-size="10.00">SCS::writeSCS</text>
</a>
</g>
</g>
<!-- Node7&#45;&gt;Node8 -->
<g id="edge7" class="edge">
<title>Node7&#45;&gt;Node8</title>
<path fill="none" stroke="midnightblue" d="M367.53,-57.54C374.81,-60.47 382.76,-63.78 390,-67 406.82,-74.49 425.36,-83.49 440.14,-90.85"/>
<polygon fill="midnightblue" stroke="midnightblue" points="438.75,-94.07 449.26,-95.42 441.89,-87.81 438.75,-94.07"/>
</g>
<!-- Node10&#45;&gt;Node5 -->
<g id="edge10" class="edge">
<title>Node10&#45;&gt;Node5</title>
<path fill="none" stroke="midnightblue" d="M256.31,-124C265.76,-124 275.9,-124 285.76,-124"/>
<polygon fill="midnightblue" stroke="midnightblue" points="285.9,-127.5 295.9,-124 285.9,-120.5 285.9,-127.5"/>
</g>
<!-- Node10&#45;&gt;Node6 -->
<g id="edge11" class="edge">
<title>Node10&#45;&gt;Node6</title>
<path fill="none" stroke="midnightblue" d="M245.67,-114.41C261.83,-109.6 281.61,-103.7 298.95,-98.53"/>
<polygon fill="midnightblue" stroke="midnightblue" points="300.25,-101.8 308.84,-95.59 298.25,-95.09 300.25,-101.8"/>
</g>
<!-- Node10&#45;&gt;Node8 -->
<g id="edge12" class="edge">
<title>Node10&#45;&gt;Node8</title>
<path fill="none" stroke="midnightblue" d="M244.8,-133.57C280.38,-143.03 340,-154.53 390,-143 409.57,-138.49 429.91,-128.37 444.91,-119.71"/>
<polygon fill="midnightblue" stroke="midnightblue" points="446.73,-122.7 453.51,-114.56 443.13,-116.69 446.73,-122.7"/>
</g>
</g>
</svg>
