<?xml version="1.0" encoding="UTF-8" standalone="no"?>
<!DOCTYPE svg PUBLIC "-//W3C//DTD SVG 1.1//EN"
 "http://www.w3.org/Graphics/SVG/1.1/DTD/svg11.dtd">
<!-- Generated by graphviz version 2.43.0 (0)
 -->
<!-- Title: SMS_STS::unLockEprom Pages: 1 -->
<svg width="512pt" height="142pt"
 viewBox="0.00 0.00 512.00 142.00" xmlns="http://www.w3.org/2000/svg" xmlns:xlink="http://www.w3.org/1999/xlink">
<g id="graph0" class="graph" transform="scale(1 1) rotate(0) translate(4 138)">
<title>SMS_STS::unLockEprom</title>
<polygon fill="white" stroke="transparent" points="-4,4 -4,-138 508,-138 508,4 -4,4"/>
<!-- Node1 -->
<g id="node1" class="node">
<title>Node1</title>
<g id="a_node1"><a xlink:title=" ">
<polygon fill="#bfbfbf" stroke="black" points="0,-57.5 0,-76.5 129,-76.5 129,-57.5 0,-57.5"/>
<text text-anchor="middle" x="64.5" y="-64.5" font-family="Helvetica,sans-Serif" font-size="10.00">SMS_STS::unLockEprom</text>
</a>
</g>
</g>
<!-- Node2 -->
<g id="node2" class="node">
<title>Node2</title>
<g id="a_node2"><a xlink:href="classSCS.html#a48b5d1256a84b4c5a7e55b0b3af6a4e3" target="_top" xlink:title=" ">
<polygon fill="white" stroke="black" points="165,-57.5 165,-76.5 250,-76.5 250,-57.5 165,-57.5"/>
<text text-anchor="middle" x="207.5" y="-64.5" font-family="Helvetica,sans-Serif" font-size="10.00">SCS::writeByte</text>
</a>
</g>
</g>
<!-- Node1&#45;&gt;Node2 -->
<g id="edge1" class="edge">
<title>Node1&#45;&gt;Node2</title>
<path fill="none" stroke="midnightblue" d="M129.4,-67C137.8,-67 146.33,-67 154.5,-67"/>
<polygon fill="midnightblue" stroke="midnightblue" points="154.62,-70.5 164.62,-67 154.62,-63.5 154.62,-70.5"/>
</g>
<!-- Node3 -->
<g id="node3" class="node">
<title>Node3</title>
<g id="a_node3"><a xlink:href="classSCS.html#ab03bd31949e28794360e70a67723affe" target="_top" xlink:title=" ">
<polygon fill="white" stroke="black" points="303.5,-114.5 303.5,-133.5 364.5,-133.5 364.5,-114.5 303.5,-114.5"/>
<text text-anchor="middle" x="334" y="-121.5" font-family="Helvetica,sans-Serif" font-size="10.00">SCS::Ack</text>
</a>
</g>
</g>
<!-- Node2&#45;&gt;Node3 -->
<g id="edge2" class="edge">
<title>Node2&#45;&gt;Node3</title>
<path fill="none" stroke="midnightblue" d="M227.11,-76.59C242.7,-84.52 265.61,-95.9 286,-105 290.18,-106.87 294.6,-108.76 299,-110.59"/>
<polygon fill="midnightblue" stroke="midnightblue" points="297.89,-113.92 308.47,-114.47 300.54,-107.44 297.89,-113.92"/>
</g>
<!-- Node5 -->
<g id="node5" class="node">
<title>Node5</title>
<g id="a_node5"><a xlink:href="classSCS.html#a856da9cc4c2a6d86984c3a314bfd87c9" target="_top" xlink:title=" ">
<polygon fill="white" stroke="black" points="288,-76.5 288,-95.5 380,-95.5 380,-76.5 288,-76.5"/>
<text text-anchor="middle" x="334" y="-83.5" font-family="Helvetica,sans-Serif" font-size="10.00">SCS::rFlushSCS</text>
</a>
</g>
</g>
<!-- Node2&#45;&gt;Node5 -->
<g id="edge4" class="edge">
<title>Node2&#45;&gt;Node5</title>
<path fill="none" stroke="midnightblue" d="M250.3,-73.38C259.12,-74.73 268.56,-76.17 277.78,-77.57"/>
<polygon fill="midnightblue" stroke="midnightblue" points="277.26,-81.03 287.67,-79.08 278.32,-74.11 277.26,-81.03"/>
</g>
<!-- Node6 -->
<g id="node6" class="node">
<title>Node6</title>
<g id="a_node6"><a xlink:href="classSCS.html#ad860b40280cba5d8ea5214cca6c70119" target="_top" xlink:title=" ">
<polygon fill="white" stroke="black" points="286,-38.5 286,-57.5 382,-57.5 382,-38.5 286,-38.5"/>
<text text-anchor="middle" x="334" y="-45.5" font-family="Helvetica,sans-Serif" font-size="10.00">SCS::wFlushSCS</text>
</a>
</g>
</g>
<!-- Node2&#45;&gt;Node6 -->
<g id="edge5" class="edge">
<title>Node2&#45;&gt;Node6</title>
<path fill="none" stroke="midnightblue" d="M250.3,-60.62C258.53,-59.37 267.29,-58.03 275.92,-56.71"/>
<polygon fill="midnightblue" stroke="midnightblue" points="276.59,-60.15 285.94,-55.18 275.53,-53.23 276.59,-60.15"/>
</g>
<!-- Node7 -->
<g id="node7" class="node">
<title>Node7</title>
<g id="a_node7"><a xlink:href="classSCS.html#aa4af18b8b9f34649cd1e8aadde6d9b1f" target="_top" xlink:title=" ">
<polygon fill="white" stroke="black" points="294,-0.5 294,-19.5 374,-19.5 374,-0.5 294,-0.5"/>
<text text-anchor="middle" x="334" y="-7.5" font-family="Helvetica,sans-Serif" font-size="10.00">SCS::writeBuf</text>
</a>
</g>
</g>
<!-- Node2&#45;&gt;Node7 -->
<g id="edge6" class="edge">
<title>Node2&#45;&gt;Node7</title>
<path fill="none" stroke="midnightblue" d="M227.11,-57.41C242.7,-49.48 265.61,-38.1 286,-29 290.18,-27.13 294.6,-25.24 299,-23.41"/>
<polygon fill="midnightblue" stroke="midnightblue" points="300.54,-26.56 308.47,-19.53 297.89,-20.08 300.54,-26.56"/>
</g>
<!-- Node4 -->
<g id="node4" class="node">
<title>Node4</title>
<g id="a_node4"><a xlink:href="classSCS.html#a7e23a5d866557da06108d326cb2055b9" target="_top" xlink:title=" ">
<polygon fill="white" stroke="black" points="419.5,-114.5 419.5,-133.5 502.5,-133.5 502.5,-114.5 419.5,-114.5"/>
<text text-anchor="middle" x="461" y="-121.5" font-family="Helvetica,sans-Serif" font-size="10.00">SCS::readSCS</text>
</a>
</g>
</g>
<!-- Node3&#45;&gt;Node4 -->
<g id="edge3" class="edge">
<title>Node3&#45;&gt;Node4</title>
<path fill="none" stroke="midnightblue" d="M364.62,-124C377.88,-124 393.9,-124 408.99,-124"/>
<polygon fill="midnightblue" stroke="midnightblue" points="409.24,-127.5 419.24,-124 409.24,-120.5 409.24,-127.5"/>
</g>
<!-- Node8 -->
<g id="node8" class="node">
<title>Node8</title>
<g id="a_node8"><a xlink:href="classSCS.html#a863a8f5eabdddf9d7500698d4ccff05e" target="_top" xlink:title=" ">
<polygon fill="white" stroke="black" points="418,-0.5 418,-19.5 504,-19.5 504,-0.5 418,-0.5"/>
<text text-anchor="middle" x="461" y="-7.5" font-family="Helvetica,sans-Serif" font-size="10.00">SCS::writeSCS</text>
</a>
</g>
</g>
<!-- Node7&#45;&gt;Node8 -->
<g id="edge7" class="edge">
<title>Node7&#45;&gt;Node8</title>
<path fill="none" stroke="midnightblue" d="M374.21,-10C384.84,-10 396.53,-10 407.76,-10"/>
<polygon fill="midnightblue" stroke="midnightblue" points="407.9,-13.5 417.9,-10 407.9,-6.5 407.9,-13.5"/>
</g>
</g>
</svg>
