<?xml version="1.0" encoding="UTF-8" standalone="no"?>
<!DOCTYPE svg PUBLIC "-//W3C//DTD SVG 1.1//EN"
 "http://www.w3.org/Graphics/SVG/1.1/DTD/svg11.dtd">
<!-- Generated by graphviz version 2.43.0 (0)
 -->
<!-- Title: SCSCL::LockEprom Pages: 1 -->
<svg width="489pt" height="142pt"
 viewBox="0.00 0.00 489.00 142.00" xmlns="http://www.w3.org/2000/svg" xmlns:xlink="http://www.w3.org/1999/xlink">
<g id="graph0" class="graph" transform="scale(1 1) rotate(0) translate(4 138)">
<title>SCSCL::LockEprom</title>
<polygon fill="white" stroke="transparent" points="-4,4 -4,-138 485,-138 485,4 -4,4"/>
<!-- Node1 -->
<g id="node1" class="node">
<title>Node1</title>
<g id="a_node1"><a xlink:title=" ">
<polygon fill="#bfbfbf" stroke="black" points="0,-57.5 0,-76.5 106,-76.5 106,-57.5 0,-57.5"/>
<text text-anchor="middle" x="53" y="-64.5" font-family="Helvetica,sans-Serif" font-size="10.00">SCSCL::LockEprom</text>
</a>
</g>
</g>
<!-- Node2 -->
<g id="node2" class="node">
<title>Node2</title>
<g id="a_node2"><a xlink:href="classSCS.html#a48b5d1256a84b4c5a7e55b0b3af6a4e3" target="_top" xlink:title=" ">
<polygon fill="white" stroke="black" points="142,-57.5 142,-76.5 227,-76.5 227,-57.5 142,-57.5"/>
<text text-anchor="middle" x="184.5" y="-64.5" font-family="Helvetica,sans-Serif" font-size="10.00">SCS::writeByte</text>
</a>
</g>
</g>
<!-- Node1&#45;&gt;Node2 -->
<g id="edge1" class="edge">
<title>Node1&#45;&gt;Node2</title>
<path fill="none" stroke="midnightblue" d="M106.3,-67C114.68,-67 123.36,-67 131.73,-67"/>
<polygon fill="midnightblue" stroke="midnightblue" points="131.75,-70.5 141.75,-67 131.75,-63.5 131.75,-70.5"/>
</g>
<!-- Node3 -->
<g id="node3" class="node">
<title>Node3</title>
<g id="a_node3"><a xlink:href="classSCS.html#ab03bd31949e28794360e70a67723affe" target="_top" xlink:title=" ">
<polygon fill="white" stroke="black" points="280.5,-114.5 280.5,-133.5 341.5,-133.5 341.5,-114.5 280.5,-114.5"/>
<text text-anchor="middle" x="311" y="-121.5" font-family="Helvetica,sans-Serif" font-size="10.00">SCS::Ack</text>
</a>
</g>
</g>
<!-- Node2&#45;&gt;Node3 -->
<g id="edge2" class="edge">
<title>Node2&#45;&gt;Node3</title>
<path fill="none" stroke="midnightblue" d="M204.11,-76.59C219.7,-84.52 242.61,-95.9 263,-105 267.18,-106.87 271.6,-108.76 276,-110.59"/>
<polygon fill="midnightblue" stroke="midnightblue" points="274.89,-113.92 285.47,-114.47 277.54,-107.44 274.89,-113.92"/>
</g>
<!-- Node5 -->
<g id="node5" class="node">
<title>Node5</title>
<g id="a_node5"><a xlink:href="classSCS.html#a856da9cc4c2a6d86984c3a314bfd87c9" target="_top" xlink:title=" ">
<polygon fill="white" stroke="black" points="265,-76.5 265,-95.5 357,-95.5 357,-76.5 265,-76.5"/>
<text text-anchor="middle" x="311" y="-83.5" font-family="Helvetica,sans-Serif" font-size="10.00">SCS::rFlushSCS</text>
</a>
</g>
</g>
<!-- Node2&#45;&gt;Node5 -->
<g id="edge4" class="edge">
<title>Node2&#45;&gt;Node5</title>
<path fill="none" stroke="midnightblue" d="M227.3,-73.38C236.12,-74.73 245.56,-76.17 254.78,-77.57"/>
<polygon fill="midnightblue" stroke="midnightblue" points="254.26,-81.03 264.67,-79.08 255.32,-74.11 254.26,-81.03"/>
</g>
<!-- Node6 -->
<g id="node6" class="node">
<title>Node6</title>
<g id="a_node6"><a xlink:href="classSCS.html#ad860b40280cba5d8ea5214cca6c70119" target="_top" xlink:title=" ">
<polygon fill="white" stroke="black" points="263,-38.5 263,-57.5 359,-57.5 359,-38.5 263,-38.5"/>
<text text-anchor="middle" x="311" y="-45.5" font-family="Helvetica,sans-Serif" font-size="10.00">SCS::wFlushSCS</text>
</a>
</g>
</g>
<!-- Node2&#45;&gt;Node6 -->
<g id="edge5" class="edge">
<title>Node2&#45;&gt;Node6</title>
<path fill="none" stroke="midnightblue" d="M227.3,-60.62C235.53,-59.37 244.29,-58.03 252.92,-56.71"/>
<polygon fill="midnightblue" stroke="midnightblue" points="253.59,-60.15 262.94,-55.18 252.53,-53.23 253.59,-60.15"/>
</g>
<!-- Node7 -->
<g id="node7" class="node">
<title>Node7</title>
<g id="a_node7"><a xlink:href="classSCS.html#aa4af18b8b9f34649cd1e8aadde6d9b1f" target="_top" xlink:title=" ">
<polygon fill="white" stroke="black" points="271,-0.5 271,-19.5 351,-19.5 351,-0.5 271,-0.5"/>
<text text-anchor="middle" x="311" y="-7.5" font-family="Helvetica,sans-Serif" font-size="10.00">SCS::writeBuf</text>
</a>
</g>
</g>
<!-- Node2&#45;&gt;Node7 -->
<g id="edge6" class="edge">
<title>Node2&#45;&gt;Node7</title>
<path fill="none" stroke="midnightblue" d="M204.11,-57.41C219.7,-49.48 242.61,-38.1 263,-29 267.18,-27.13 271.6,-25.24 276,-23.41"/>
<polygon fill="midnightblue" stroke="midnightblue" points="277.54,-26.56 285.47,-19.53 274.89,-20.08 277.54,-26.56"/>
</g>
<!-- Node4 -->
<g id="node4" class="node">
<title>Node4</title>
<g id="a_node4"><a xlink:href="classSCS.html#a7e23a5d866557da06108d326cb2055b9" target="_top" xlink:title=" ">
<polygon fill="white" stroke="black" points="396.5,-114.5 396.5,-133.5 479.5,-133.5 479.5,-114.5 396.5,-114.5"/>
<text text-anchor="middle" x="438" y="-121.5" font-family="Helvetica,sans-Serif" font-size="10.00">SCS::readSCS</text>
</a>
</g>
</g>
<!-- Node3&#45;&gt;Node4 -->
<g id="edge3" class="edge">
<title>Node3&#45;&gt;Node4</title>
<path fill="none" stroke="midnightblue" d="M341.62,-124C354.88,-124 370.9,-124 385.99,-124"/>
<polygon fill="midnightblue" stroke="midnightblue" points="386.24,-127.5 396.24,-124 386.24,-120.5 386.24,-127.5"/>
</g>
<!-- Node8 -->
<g id="node8" class="node">
<title>Node8</title>
<g id="a_node8"><a xlink:href="classSCS.html#a863a8f5eabdddf9d7500698d4ccff05e" target="_top" xlink:title=" ">
<polygon fill="white" stroke="black" points="395,-0.5 395,-19.5 481,-19.5 481,-0.5 395,-0.5"/>
<text text-anchor="middle" x="438" y="-7.5" font-family="Helvetica,sans-Serif" font-size="10.00">SCS::writeSCS</text>
</a>
</g>
</g>
<!-- Node7&#45;&gt;Node8 -->
<g id="edge7" class="edge">
<title>Node7&#45;&gt;Node8</title>
<path fill="none" stroke="midnightblue" d="M351.21,-10C361.84,-10 373.53,-10 384.76,-10"/>
<polygon fill="midnightblue" stroke="midnightblue" points="384.9,-13.5 394.9,-10 384.9,-6.5 384.9,-13.5"/>
</g>
</g>
</svg>
