<?xml version="1.0" encoding="UTF-8" standalone="no"?>
<!DOCTYPE svg PUBLIC "-//W3C//DTD SVG 1.1//EN"
 "http://www.w3.org/Graphics/SVG/1.1/DTD/svg11.dtd">
<!-- Generated by graphviz version 2.43.0 (0)
 -->
<!-- Title: SMS_STS::CalibrationOfs Pages: 1 -->
<svg width="514pt" height="142pt"
 viewBox="0.00 0.00 514.00 142.00" xmlns="http://www.w3.org/2000/svg" xmlns:xlink="http://www.w3.org/1999/xlink">
<g id="graph0" class="graph" transform="scale(1 1) rotate(0) translate(4 138)">
<title>SMS_STS::CalibrationOfs</title>
<polygon fill="white" stroke="transparent" points="-4,4 -4,-138 510,-138 510,4 -4,4"/>
<!-- Node1 -->
<g id="node1" class="node">
<title>Node1</title>
<g id="a_node1"><a xlink:title=" ">
<polygon fill="#bfbfbf" stroke="black" points="0,-57.5 0,-76.5 131,-76.5 131,-57.5 0,-57.5"/>
<text text-anchor="middle" x="65.5" y="-64.5" font-family="Helvetica,sans-Serif" font-size="10.00">SMS_STS::CalibrationOfs</text>
</a>
</g>
</g>
<!-- Node2 -->
<g id="node2" class="node">
<title>Node2</title>
<g id="a_node2"><a xlink:href="classSCS.html#a48b5d1256a84b4c5a7e55b0b3af6a4e3" target="_top" xlink:title=" ">
<polygon fill="white" stroke="black" points="167,-57.5 167,-76.5 252,-76.5 252,-57.5 167,-57.5"/>
<text text-anchor="middle" x="209.5" y="-64.5" font-family="Helvetica,sans-Serif" font-size="10.00">SCS::writeByte</text>
</a>
</g>
</g>
<!-- Node1&#45;&gt;Node2 -->
<g id="edge1" class="edge">
<title>Node1&#45;&gt;Node2</title>
<path fill="none" stroke="midnightblue" d="M131.27,-67C139.8,-67 148.46,-67 156.74,-67"/>
<polygon fill="midnightblue" stroke="midnightblue" points="156.99,-70.5 166.99,-67 156.99,-63.5 156.99,-70.5"/>
</g>
<!-- Node3 -->
<g id="node3" class="node">
<title>Node3</title>
<g id="a_node3"><a xlink:href="classSCS.html#ab03bd31949e28794360e70a67723affe" target="_top" xlink:title=" ">
<polygon fill="white" stroke="black" points="305.5,-114.5 305.5,-133.5 366.5,-133.5 366.5,-114.5 305.5,-114.5"/>
<text text-anchor="middle" x="336" y="-121.5" font-family="Helvetica,sans-Serif" font-size="10.00">SCS::Ack</text>
</a>
</g>
</g>
<!-- Node2&#45;&gt;Node3 -->
<g id="edge2" class="edge">
<title>Node2&#45;&gt;Node3</title>
<path fill="none" stroke="midnightblue" d="M229.11,-76.59C244.7,-84.52 267.61,-95.9 288,-105 292.18,-106.87 296.6,-108.76 301,-110.59"/>
<polygon fill="midnightblue" stroke="midnightblue" points="299.89,-113.92 310.47,-114.47 302.54,-107.44 299.89,-113.92"/>
</g>
<!-- Node5 -->
<g id="node5" class="node">
<title>Node5</title>
<g id="a_node5"><a xlink:href="classSCS.html#a856da9cc4c2a6d86984c3a314bfd87c9" target="_top" xlink:title=" ">
<polygon fill="white" stroke="black" points="290,-76.5 290,-95.5 382,-95.5 382,-76.5 290,-76.5"/>
<text text-anchor="middle" x="336" y="-83.5" font-family="Helvetica,sans-Serif" font-size="10.00">SCS::rFlushSCS</text>
</a>
</g>
</g>
<!-- Node2&#45;&gt;Node5 -->
<g id="edge4" class="edge">
<title>Node2&#45;&gt;Node5</title>
<path fill="none" stroke="midnightblue" d="M252.3,-73.38C261.12,-74.73 270.56,-76.17 279.78,-77.57"/>
<polygon fill="midnightblue" stroke="midnightblue" points="279.26,-81.03 289.67,-79.08 280.32,-74.11 279.26,-81.03"/>
</g>
<!-- Node6 -->
<g id="node6" class="node">
<title>Node6</title>
<g id="a_node6"><a xlink:href="classSCS.html#ad860b40280cba5d8ea5214cca6c70119" target="_top" xlink:title=" ">
<polygon fill="white" stroke="black" points="288,-38.5 288,-57.5 384,-57.5 384,-38.5 288,-38.5"/>
<text text-anchor="middle" x="336" y="-45.5" font-family="Helvetica,sans-Serif" font-size="10.00">SCS::wFlushSCS</text>
</a>
</g>
</g>
<!-- Node2&#45;&gt;Node6 -->
<g id="edge5" class="edge">
<title>Node2&#45;&gt;Node6</title>
<path fill="none" stroke="midnightblue" d="M252.3,-60.62C260.53,-59.37 269.29,-58.03 277.92,-56.71"/>
<polygon fill="midnightblue" stroke="midnightblue" points="278.59,-60.15 287.94,-55.18 277.53,-53.23 278.59,-60.15"/>
</g>
<!-- Node7 -->
<g id="node7" class="node">
<title>Node7</title>
<g id="a_node7"><a xlink:href="classSCS.html#aa4af18b8b9f34649cd1e8aadde6d9b1f" target="_top" xlink:title=" ">
<polygon fill="white" stroke="black" points="296,-0.5 296,-19.5 376,-19.5 376,-0.5 296,-0.5"/>
<text text-anchor="middle" x="336" y="-7.5" font-family="Helvetica,sans-Serif" font-size="10.00">SCS::writeBuf</text>
</a>
</g>
</g>
<!-- Node2&#45;&gt;Node7 -->
<g id="edge6" class="edge">
<title>Node2&#45;&gt;Node7</title>
<path fill="none" stroke="midnightblue" d="M229.11,-57.41C244.7,-49.48 267.61,-38.1 288,-29 292.18,-27.13 296.6,-25.24 301,-23.41"/>
<polygon fill="midnightblue" stroke="midnightblue" points="302.54,-26.56 310.47,-19.53 299.89,-20.08 302.54,-26.56"/>
</g>
<!-- Node4 -->
<g id="node4" class="node">
<title>Node4</title>
<g id="a_node4"><a xlink:href="classSCS.html#a7e23a5d866557da06108d326cb2055b9" target="_top" xlink:title=" ">
<polygon fill="white" stroke="black" points="421.5,-114.5 421.5,-133.5 504.5,-133.5 504.5,-114.5 421.5,-114.5"/>
<text text-anchor="middle" x="463" y="-121.5" font-family="Helvetica,sans-Serif" font-size="10.00">SCS::readSCS</text>
</a>
</g>
</g>
<!-- Node3&#45;&gt;Node4 -->
<g id="edge3" class="edge">
<title>Node3&#45;&gt;Node4</title>
<path fill="none" stroke="midnightblue" d="M366.62,-124C379.88,-124 395.9,-124 410.99,-124"/>
<polygon fill="midnightblue" stroke="midnightblue" points="411.24,-127.5 421.24,-124 411.24,-120.5 411.24,-127.5"/>
</g>
<!-- Node8 -->
<g id="node8" class="node">
<title>Node8</title>
<g id="a_node8"><a xlink:href="classSCS.html#a863a8f5eabdddf9d7500698d4ccff05e" target="_top" xlink:title=" ">
<polygon fill="white" stroke="black" points="420,-0.5 420,-19.5 506,-19.5 506,-0.5 420,-0.5"/>
<text text-anchor="middle" x="463" y="-7.5" font-family="Helvetica,sans-Serif" font-size="10.00">SCS::writeSCS</text>
</a>
</g>
</g>
<!-- Node7&#45;&gt;Node8 -->
<g id="edge7" class="edge">
<title>Node7&#45;&gt;Node8</title>
<path fill="none" stroke="midnightblue" d="M376.21,-10C386.84,-10 398.53,-10 409.76,-10"/>
<polygon fill="midnightblue" stroke="midnightblue" points="409.9,-13.5 419.9,-10 409.9,-6.5 409.9,-13.5"/>
</g>
</g>
</svg>
