<?xml version="1.0" encoding="UTF-8" standalone="no"?>
<!DOCTYPE svg PUBLIC "-//W3C//DTD SVG 1.1//EN"
 "http://www.w3.org/Graphics/SVG/1.1/DTD/svg11.dtd">
<!-- Generated by graphviz version 2.43.0 (0)
 -->
<!-- Title: SMS_STS::WritePwm Pages: 1 -->
<svg width="503pt" height="142pt"
 viewBox="0.00 0.00 503.00 142.00" xmlns="http://www.w3.org/2000/svg" xmlns:xlink="http://www.w3.org/1999/xlink">
<g id="graph0" class="graph" transform="scale(1 1) rotate(0) translate(4 138)">
<title>SMS_STS::WritePwm</title>
<polygon fill="white" stroke="transparent" points="-4,4 -4,-138 499,-138 499,4 -4,4"/>
<!-- Node1 -->
<g id="node1" class="node">
<title>Node1</title>
<g id="a_node1"><a xlink:title=" ">
<polygon fill="#bfbfbf" stroke="black" points="0,-38.5 0,-57.5 114,-57.5 114,-38.5 0,-38.5"/>
<text text-anchor="middle" x="57" y="-45.5" font-family="Helvetica,sans-Serif" font-size="10.00">SMS_STS::WritePwm</text>
</a>
</g>
</g>
<!-- Node2 -->
<g id="node2" class="node">
<title>Node2</title>
<g id="a_node2"><a xlink:href="classSCS.html#ad604a21d07533c58acbb18c78c885626" target="_top" xlink:title=" ">
<polygon fill="white" stroke="black" points="154.5,-57.5 154.5,-76.5 236.5,-76.5 236.5,-57.5 154.5,-57.5"/>
<text text-anchor="middle" x="195.5" y="-64.5" font-family="Helvetica,sans-Serif" font-size="10.00">SCS::genWrite</text>
</a>
</g>
</g>
<!-- Node1&#45;&gt;Node2 -->
<g id="edge1" class="edge">
<title>Node1&#45;&gt;Node2</title>
<path fill="none" stroke="midnightblue" d="M114.31,-55.84C124.23,-57.22 134.5,-58.65 144.24,-60"/>
<polygon fill="midnightblue" stroke="midnightblue" points="143.77,-63.47 154.16,-61.38 144.74,-56.54 143.77,-63.47"/>
</g>
<!-- Node9 -->
<g id="node9" class="node">
<title>Node9</title>
<g id="a_node9"><a xlink:href="classSCS.html#a4b91c0fcfaec1c55ef885ae2facaa0e7" target="_top" xlink:title=" ">
<polygon fill="white" stroke="black" points="150,-19.5 150,-38.5 241,-38.5 241,-19.5 150,-19.5"/>
<text text-anchor="middle" x="195.5" y="-26.5" font-family="Helvetica,sans-Serif" font-size="10.00">SCS::Host2SCS</text>
</a>
</g>
</g>
<!-- Node1&#45;&gt;Node9 -->
<g id="edge8" class="edge">
<title>Node1&#45;&gt;Node9</title>
<path fill="none" stroke="midnightblue" d="M114.31,-40.16C122.77,-38.98 131.48,-37.77 139.9,-36.6"/>
<polygon fill="midnightblue" stroke="midnightblue" points="140.57,-40.04 149.99,-35.2 139.6,-33.11 140.57,-40.04"/>
</g>
<!-- Node3 -->
<g id="node3" class="node">
<title>Node3</title>
<g id="a_node3"><a xlink:href="classSCS.html#ab03bd31949e28794360e70a67723affe" target="_top" xlink:title=" ">
<polygon fill="white" stroke="black" points="294.5,-114.5 294.5,-133.5 355.5,-133.5 355.5,-114.5 294.5,-114.5"/>
<text text-anchor="middle" x="325" y="-121.5" font-family="Helvetica,sans-Serif" font-size="10.00">SCS::Ack</text>
</a>
</g>
</g>
<!-- Node2&#45;&gt;Node3 -->
<g id="edge2" class="edge">
<title>Node2&#45;&gt;Node3</title>
<path fill="none" stroke="midnightblue" d="M215.88,-76.53C232.1,-84.41 255.91,-95.77 277,-105 281.2,-106.84 285.63,-108.71 290.02,-110.53"/>
<polygon fill="midnightblue" stroke="midnightblue" points="288.91,-113.86 299.5,-114.4 291.56,-107.38 288.91,-113.86"/>
</g>
<!-- Node5 -->
<g id="node5" class="node">
<title>Node5</title>
<g id="a_node5"><a xlink:href="classSCS.html#a856da9cc4c2a6d86984c3a314bfd87c9" target="_top" xlink:title=" ">
<polygon fill="white" stroke="black" points="279,-76.5 279,-95.5 371,-95.5 371,-76.5 279,-76.5"/>
<text text-anchor="middle" x="325" y="-83.5" font-family="Helvetica,sans-Serif" font-size="10.00">SCS::rFlushSCS</text>
</a>
</g>
</g>
<!-- Node2&#45;&gt;Node5 -->
<g id="edge4" class="edge">
<title>Node2&#45;&gt;Node5</title>
<path fill="none" stroke="midnightblue" d="M236.84,-73.01C246.9,-74.51 257.87,-76.15 268.52,-77.73"/>
<polygon fill="midnightblue" stroke="midnightblue" points="268.19,-81.22 278.6,-79.23 269.22,-74.3 268.19,-81.22"/>
</g>
<!-- Node6 -->
<g id="node6" class="node">
<title>Node6</title>
<g id="a_node6"><a xlink:href="classSCS.html#ad860b40280cba5d8ea5214cca6c70119" target="_top" xlink:title=" ">
<polygon fill="white" stroke="black" points="277,-38.5 277,-57.5 373,-57.5 373,-38.5 277,-38.5"/>
<text text-anchor="middle" x="325" y="-45.5" font-family="Helvetica,sans-Serif" font-size="10.00">SCS::wFlushSCS</text>
</a>
</g>
</g>
<!-- Node2&#45;&gt;Node6 -->
<g id="edge5" class="edge">
<title>Node2&#45;&gt;Node6</title>
<path fill="none" stroke="midnightblue" d="M236.84,-60.99C246.36,-59.57 256.69,-58.03 266.8,-56.52"/>
<polygon fill="midnightblue" stroke="midnightblue" points="267.42,-59.97 276.8,-55.03 266.39,-53.05 267.42,-59.97"/>
</g>
<!-- Node7 -->
<g id="node7" class="node">
<title>Node7</title>
<g id="a_node7"><a xlink:href="classSCS.html#aa4af18b8b9f34649cd1e8aadde6d9b1f" target="_top" xlink:title=" ">
<polygon fill="white" stroke="black" points="285,-0.5 285,-19.5 365,-19.5 365,-0.5 285,-0.5"/>
<text text-anchor="middle" x="325" y="-7.5" font-family="Helvetica,sans-Serif" font-size="10.00">SCS::writeBuf</text>
</a>
</g>
</g>
<!-- Node2&#45;&gt;Node7 -->
<g id="edge6" class="edge">
<title>Node2&#45;&gt;Node7</title>
<path fill="none" stroke="midnightblue" d="M219.76,-57.5C226.65,-54.57 234.17,-51.25 241,-48 257.33,-40.22 260.59,-36.62 277,-29 281.06,-27.11 285.36,-25.23 289.65,-23.41"/>
<polygon fill="midnightblue" stroke="midnightblue" points="291.01,-26.64 298.92,-19.59 288.34,-20.17 291.01,-26.64"/>
</g>
<!-- Node4 -->
<g id="node4" class="node">
<title>Node4</title>
<g id="a_node4"><a xlink:href="classSCS.html#a7e23a5d866557da06108d326cb2055b9" target="_top" xlink:title=" ">
<polygon fill="white" stroke="black" points="410.5,-114.5 410.5,-133.5 493.5,-133.5 493.5,-114.5 410.5,-114.5"/>
<text text-anchor="middle" x="452" y="-121.5" font-family="Helvetica,sans-Serif" font-size="10.00">SCS::readSCS</text>
</a>
</g>
</g>
<!-- Node3&#45;&gt;Node4 -->
<g id="edge3" class="edge">
<title>Node3&#45;&gt;Node4</title>
<path fill="none" stroke="midnightblue" d="M355.62,-124C368.88,-124 384.9,-124 399.99,-124"/>
<polygon fill="midnightblue" stroke="midnightblue" points="400.24,-127.5 410.24,-124 400.24,-120.5 400.24,-127.5"/>
</g>
<!-- Node8 -->
<g id="node8" class="node">
<title>Node8</title>
<g id="a_node8"><a xlink:href="classSCS.html#a863a8f5eabdddf9d7500698d4ccff05e" target="_top" xlink:title=" ">
<polygon fill="white" stroke="black" points="409,-0.5 409,-19.5 495,-19.5 495,-0.5 409,-0.5"/>
<text text-anchor="middle" x="452" y="-7.5" font-family="Helvetica,sans-Serif" font-size="10.00">SCS::writeSCS</text>
</a>
</g>
</g>
<!-- Node7&#45;&gt;Node8 -->
<g id="edge7" class="edge">
<title>Node7&#45;&gt;Node8</title>
<path fill="none" stroke="midnightblue" d="M365.21,-10C375.84,-10 387.53,-10 398.76,-10"/>
<polygon fill="midnightblue" stroke="midnightblue" points="398.9,-13.5 408.9,-10 398.9,-6.5 398.9,-13.5"/>
</g>
</g>
</svg>
