<?xml version="1.0" encoding="UTF-8" standalone="no"?>
<!DOCTYPE svg PUBLIC "-//W3C//DTD SVG 1.1//EN"
 "http://www.w3.org/Graphics/SVG/1.1/DTD/svg11.dtd">
<!-- Generated by graphviz version 2.43.0 (0)
 -->
<!-- Title: SMS_STS::ReadCurrent Pages: 1 -->
<svg width="635pt" height="142pt"
 viewBox="0.00 0.00 635.00 142.00" xmlns="http://www.w3.org/2000/svg" xmlns:xlink="http://www.w3.org/1999/xlink">
<g id="graph0" class="graph" transform="scale(1 1) rotate(0) translate(4 138)">
<title>SMS_STS::ReadCurrent</title>
<polygon fill="white" stroke="transparent" points="-4,4 -4,-138 631,-138 631,4 -4,4"/>
<!-- Node1 -->
<g id="node1" class="node">
<title>Node1</title>
<g id="a_node1"><a xlink:title=" ">
<polygon fill="#bfbfbf" stroke="black" points="0,-38.5 0,-57.5 125,-57.5 125,-38.5 0,-38.5"/>
<text text-anchor="middle" x="62.5" y="-45.5" font-family="Helvetica,sans-Serif" font-size="10.00">SMS_STS::ReadCurrent</text>
</a>
</g>
</g>
<!-- Node2 -->
<g id="node2" class="node">
<title>Node2</title>
<g id="a_node2"><a xlink:href="classSCS.html#a73580046b2ee5dc22b326d2d6d01bb35" target="_top" xlink:title=" ">
<polygon fill="white" stroke="black" points="161,-38.5 161,-57.5 246,-57.5 246,-38.5 161,-38.5"/>
<text text-anchor="middle" x="203.5" y="-45.5" font-family="Helvetica,sans-Serif" font-size="10.00">SCS::readWord</text>
</a>
</g>
</g>
<!-- Node1&#45;&gt;Node2 -->
<g id="edge1" class="edge">
<title>Node1&#45;&gt;Node2</title>
<path fill="none" stroke="midnightblue" d="M125.28,-48C133.74,-48 142.36,-48 150.62,-48"/>
<polygon fill="midnightblue" stroke="midnightblue" points="150.86,-51.5 160.86,-48 150.86,-44.5 150.86,-51.5"/>
</g>
<!-- Node3 -->
<g id="node3" class="node">
<title>Node3</title>
<g id="a_node3"><a xlink:href="classSCS.html#a7d5573c3681d3afaa085f92f583a0dad" target="_top" xlink:title=" ">
<polygon fill="white" stroke="black" points="294,-57.5 294,-76.5 361,-76.5 361,-57.5 294,-57.5"/>
<text text-anchor="middle" x="327.5" y="-64.5" font-family="Helvetica,sans-Serif" font-size="10.00">SCS::Read</text>
</a>
</g>
</g>
<!-- Node2&#45;&gt;Node3 -->
<g id="edge2" class="edge">
<title>Node2&#45;&gt;Node3</title>
<path fill="none" stroke="midnightblue" d="M246.14,-54.49C258.33,-56.38 271.67,-58.46 283.92,-60.37"/>
<polygon fill="midnightblue" stroke="midnightblue" points="283.48,-63.84 293.9,-61.92 284.55,-56.92 283.48,-63.84"/>
</g>
<!-- Node9 -->
<g id="node9" class="node">
<title>Node9</title>
<g id="a_node9"><a xlink:href="classSCS.html#a67f5b9706b79ac85ef02fb9d3ec2f0b6" target="_top" xlink:title=" ">
<polygon fill="white" stroke="black" points="282,-19.5 282,-38.5 373,-38.5 373,-19.5 282,-19.5"/>
<text text-anchor="middle" x="327.5" y="-26.5" font-family="Helvetica,sans-Serif" font-size="10.00">SCS::SCS2Host</text>
</a>
</g>
</g>
<!-- Node2&#45;&gt;Node9 -->
<g id="edge8" class="edge">
<title>Node2&#45;&gt;Node9</title>
<path fill="none" stroke="midnightblue" d="M246.14,-41.51C254.38,-40.23 263.14,-38.87 271.74,-37.53"/>
<polygon fill="midnightblue" stroke="midnightblue" points="272.36,-40.97 281.71,-35.98 271.29,-34.06 272.36,-40.97"/>
</g>
<!-- Node4 -->
<g id="node4" class="node">
<title>Node4</title>
<g id="a_node4"><a xlink:href="classSCS.html#a7e23a5d866557da06108d326cb2055b9" target="_top" xlink:title=" ">
<polygon fill="white" stroke="black" points="415.5,-114.5 415.5,-133.5 498.5,-133.5 498.5,-114.5 415.5,-114.5"/>
<text text-anchor="middle" x="457" y="-121.5" font-family="Helvetica,sans-Serif" font-size="10.00">SCS::readSCS</text>
</a>
</g>
</g>
<!-- Node3&#45;&gt;Node4 -->
<g id="edge3" class="edge">
<title>Node3&#45;&gt;Node4</title>
<path fill="none" stroke="midnightblue" d="M347.88,-76.53C364.1,-84.41 387.91,-95.77 409,-105 413.2,-106.84 417.63,-108.71 422.02,-110.53"/>
<polygon fill="midnightblue" stroke="midnightblue" points="420.91,-113.86 431.5,-114.4 423.56,-107.38 420.91,-113.86"/>
</g>
<!-- Node5 -->
<g id="node5" class="node">
<title>Node5</title>
<g id="a_node5"><a xlink:href="classSCS.html#a856da9cc4c2a6d86984c3a314bfd87c9" target="_top" xlink:title=" ">
<polygon fill="white" stroke="black" points="411,-76.5 411,-95.5 503,-95.5 503,-76.5 411,-76.5"/>
<text text-anchor="middle" x="457" y="-83.5" font-family="Helvetica,sans-Serif" font-size="10.00">SCS::rFlushSCS</text>
</a>
</g>
</g>
<!-- Node3&#45;&gt;Node5 -->
<g id="edge4" class="edge">
<title>Node3&#45;&gt;Node5</title>
<path fill="none" stroke="midnightblue" d="M361,-71.84C373,-73.63 386.95,-75.71 400.41,-77.72"/>
<polygon fill="midnightblue" stroke="midnightblue" points="400.16,-81.22 410.57,-79.23 401.19,-74.29 400.16,-81.22"/>
</g>
<!-- Node6 -->
<g id="node6" class="node">
<title>Node6</title>
<g id="a_node6"><a xlink:href="classSCS.html#ad860b40280cba5d8ea5214cca6c70119" target="_top" xlink:title=" ">
<polygon fill="white" stroke="black" points="409,-38.5 409,-57.5 505,-57.5 505,-38.5 409,-38.5"/>
<text text-anchor="middle" x="457" y="-45.5" font-family="Helvetica,sans-Serif" font-size="10.00">SCS::wFlushSCS</text>
</a>
</g>
</g>
<!-- Node3&#45;&gt;Node6 -->
<g id="edge5" class="edge">
<title>Node3&#45;&gt;Node6</title>
<path fill="none" stroke="midnightblue" d="M361,-62.16C372.41,-60.46 385.6,-58.49 398.44,-56.58"/>
<polygon fill="midnightblue" stroke="midnightblue" points="399.26,-59.99 408.63,-55.06 398.23,-53.07 399.26,-59.99"/>
</g>
<!-- Node7 -->
<g id="node7" class="node">
<title>Node7</title>
<g id="a_node7"><a xlink:href="classSCS.html#aa4af18b8b9f34649cd1e8aadde6d9b1f" target="_top" xlink:title=" ">
<polygon fill="white" stroke="black" points="417,-0.5 417,-19.5 497,-19.5 497,-0.5 417,-0.5"/>
<text text-anchor="middle" x="457" y="-7.5" font-family="Helvetica,sans-Serif" font-size="10.00">SCS::writeBuf</text>
</a>
</g>
</g>
<!-- Node3&#45;&gt;Node7 -->
<g id="edge6" class="edge">
<title>Node3&#45;&gt;Node7</title>
<path fill="none" stroke="midnightblue" d="M351.76,-57.5C358.65,-54.57 366.17,-51.25 373,-48 389.33,-40.22 392.59,-36.62 409,-29 413.06,-27.11 417.36,-25.23 421.65,-23.41"/>
<polygon fill="midnightblue" stroke="midnightblue" points="423.01,-26.64 430.92,-19.59 420.34,-20.17 423.01,-26.64"/>
</g>
<!-- Node8 -->
<g id="node8" class="node">
<title>Node8</title>
<g id="a_node8"><a xlink:href="classSCS.html#a863a8f5eabdddf9d7500698d4ccff05e" target="_top" xlink:title=" ">
<polygon fill="white" stroke="black" points="541,-0.5 541,-19.5 627,-19.5 627,-0.5 541,-0.5"/>
<text text-anchor="middle" x="584" y="-7.5" font-family="Helvetica,sans-Serif" font-size="10.00">SCS::writeSCS</text>
</a>
</g>
</g>
<!-- Node7&#45;&gt;Node8 -->
<g id="edge7" class="edge">
<title>Node7&#45;&gt;Node8</title>
<path fill="none" stroke="midnightblue" d="M497.21,-10C507.84,-10 519.53,-10 530.76,-10"/>
<polygon fill="midnightblue" stroke="midnightblue" points="530.9,-13.5 540.9,-10 530.9,-6.5 530.9,-13.5"/>
</g>
</g>
</svg>
