<?xml version="1.0" encoding="UTF-8" standalone="no"?>
<!DOCTYPE svg PUBLIC "-//W3C//DTD SVG 1.1//EN"
 "http://www.w3.org/Graphics/SVG/1.1/DTD/svg11.dtd">
<!-- Generated by graphviz version 2.43.0 (0)
 -->
<!-- Title: SMS_STS::RegWriteSpe Pages: 1 -->
<svg width="516pt" height="142pt"
 viewBox="0.00 0.00 516.00 142.00" xmlns="http://www.w3.org/2000/svg" xmlns:xlink="http://www.w3.org/1999/xlink">
<g id="graph0" class="graph" transform="scale(1 1) rotate(0) translate(4 138)">
<title>SMS_STS::RegWriteSpe</title>
<polygon fill="white" stroke="transparent" points="-4,4 -4,-138 512,-138 512,4 -4,4"/>
<!-- Node1 -->
<g id="node1" class="node">
<title>Node1</title>
<g id="a_node1"><a xlink:title=" ">
<polygon fill="#bfbfbf" stroke="black" points="0,-76.5 0,-95.5 127,-95.5 127,-76.5 0,-76.5"/>
<text text-anchor="middle" x="63.5" y="-83.5" font-family="Helvetica,sans-Serif" font-size="10.00">SMS_STS::RegWriteSpe</text>
</a>
</g>
</g>
<!-- Node2 -->
<g id="node2" class="node">
<title>Node2</title>
<g id="a_node2"><a xlink:href="classSCS.html#a4b91c0fcfaec1c55ef885ae2facaa0e7" target="_top" xlink:title=" ">
<polygon fill="white" stroke="black" points="163,-95.5 163,-114.5 254,-114.5 254,-95.5 163,-95.5"/>
<text text-anchor="middle" x="208.5" y="-102.5" font-family="Helvetica,sans-Serif" font-size="10.00">SCS::Host2SCS</text>
</a>
</g>
</g>
<!-- Node1&#45;&gt;Node2 -->
<g id="edge1" class="edge">
<title>Node1&#45;&gt;Node2</title>
<path fill="none" stroke="midnightblue" d="M127.22,-94.33C135.76,-95.47 144.46,-96.62 152.84,-97.74"/>
<polygon fill="midnightblue" stroke="midnightblue" points="152.49,-101.22 162.87,-99.07 153.41,-94.28 152.49,-101.22"/>
</g>
<!-- Node3 -->
<g id="node3" class="node">
<title>Node3</title>
<g id="a_node3"><a xlink:href="classSCS.html#a6bfc828497a52d12bd09b6f37de80c62" target="_top" xlink:title=" ">
<polygon fill="white" stroke="black" points="168.5,-57.5 168.5,-76.5 248.5,-76.5 248.5,-57.5 168.5,-57.5"/>
<text text-anchor="middle" x="208.5" y="-64.5" font-family="Helvetica,sans-Serif" font-size="10.00">SCS::regWrite</text>
</a>
</g>
</g>
<!-- Node1&#45;&gt;Node3 -->
<g id="edge2" class="edge">
<title>Node1&#45;&gt;Node3</title>
<path fill="none" stroke="midnightblue" d="M127.22,-77.67C137.58,-76.29 148.19,-74.88 158.16,-73.56"/>
<polygon fill="midnightblue" stroke="midnightblue" points="158.83,-77 168.28,-72.21 157.91,-70.06 158.83,-77"/>
</g>
<!-- Node4 -->
<g id="node4" class="node">
<title>Node4</title>
<g id="a_node4"><a xlink:href="classSCS.html#ab03bd31949e28794360e70a67723affe" target="_top" xlink:title=" ">
<polygon fill="white" stroke="black" points="307.5,-114.5 307.5,-133.5 368.5,-133.5 368.5,-114.5 307.5,-114.5"/>
<text text-anchor="middle" x="338" y="-121.5" font-family="Helvetica,sans-Serif" font-size="10.00">SCS::Ack</text>
</a>
</g>
</g>
<!-- Node3&#45;&gt;Node4 -->
<g id="edge3" class="edge">
<title>Node3&#45;&gt;Node4</title>
<path fill="none" stroke="midnightblue" d="M232.76,-76.5C239.65,-79.43 247.17,-82.75 254,-86 270.33,-93.78 273.59,-97.38 290,-105 294.06,-106.89 298.36,-108.77 302.65,-110.59"/>
<polygon fill="midnightblue" stroke="midnightblue" points="301.34,-113.83 311.92,-114.41 304.01,-107.36 301.34,-113.83"/>
</g>
<!-- Node6 -->
<g id="node6" class="node">
<title>Node6</title>
<g id="a_node6"><a xlink:href="classSCS.html#a856da9cc4c2a6d86984c3a314bfd87c9" target="_top" xlink:title=" ">
<polygon fill="white" stroke="black" points="292,-76.5 292,-95.5 384,-95.5 384,-76.5 292,-76.5"/>
<text text-anchor="middle" x="338" y="-83.5" font-family="Helvetica,sans-Serif" font-size="10.00">SCS::rFlushSCS</text>
</a>
</g>
</g>
<!-- Node3&#45;&gt;Node6 -->
<g id="edge5" class="edge">
<title>Node3&#45;&gt;Node6</title>
<path fill="none" stroke="midnightblue" d="M248.79,-72.86C259.21,-74.41 270.66,-76.11 281.76,-77.77"/>
<polygon fill="midnightblue" stroke="midnightblue" points="281.4,-81.25 291.81,-79.27 282.44,-74.33 281.4,-81.25"/>
</g>
<!-- Node7 -->
<g id="node7" class="node">
<title>Node7</title>
<g id="a_node7"><a xlink:href="classSCS.html#ad860b40280cba5d8ea5214cca6c70119" target="_top" xlink:title=" ">
<polygon fill="white" stroke="black" points="290,-38.5 290,-57.5 386,-57.5 386,-38.5 290,-38.5"/>
<text text-anchor="middle" x="338" y="-45.5" font-family="Helvetica,sans-Serif" font-size="10.00">SCS::wFlushSCS</text>
</a>
</g>
</g>
<!-- Node3&#45;&gt;Node7 -->
<g id="edge6" class="edge">
<title>Node3&#45;&gt;Node7</title>
<path fill="none" stroke="midnightblue" d="M248.79,-61.14C258.66,-59.67 269.46,-58.07 280,-56.49"/>
<polygon fill="midnightblue" stroke="midnightblue" points="280.62,-59.94 289.99,-55.01 279.59,-53.02 280.62,-59.94"/>
</g>
<!-- Node8 -->
<g id="node8" class="node">
<title>Node8</title>
<g id="a_node8"><a xlink:href="classSCS.html#aa4af18b8b9f34649cd1e8aadde6d9b1f" target="_top" xlink:title=" ">
<polygon fill="white" stroke="black" points="298,-0.5 298,-19.5 378,-19.5 378,-0.5 298,-0.5"/>
<text text-anchor="middle" x="338" y="-7.5" font-family="Helvetica,sans-Serif" font-size="10.00">SCS::writeBuf</text>
</a>
</g>
</g>
<!-- Node3&#45;&gt;Node8 -->
<g id="edge7" class="edge">
<title>Node3&#45;&gt;Node8</title>
<path fill="none" stroke="midnightblue" d="M228.88,-57.47C245.1,-49.59 268.91,-38.23 290,-29 294.2,-27.16 298.63,-25.29 303.02,-23.47"/>
<polygon fill="midnightblue" stroke="midnightblue" points="304.56,-26.62 312.5,-19.6 301.91,-20.14 304.56,-26.62"/>
</g>
<!-- Node5 -->
<g id="node5" class="node">
<title>Node5</title>
<g id="a_node5"><a xlink:href="classSCS.html#a7e23a5d866557da06108d326cb2055b9" target="_top" xlink:title=" ">
<polygon fill="white" stroke="black" points="423.5,-114.5 423.5,-133.5 506.5,-133.5 506.5,-114.5 423.5,-114.5"/>
<text text-anchor="middle" x="465" y="-121.5" font-family="Helvetica,sans-Serif" font-size="10.00">SCS::readSCS</text>
</a>
</g>
</g>
<!-- Node4&#45;&gt;Node5 -->
<g id="edge4" class="edge">
<title>Node4&#45;&gt;Node5</title>
<path fill="none" stroke="midnightblue" d="M368.62,-124C381.88,-124 397.9,-124 412.99,-124"/>
<polygon fill="midnightblue" stroke="midnightblue" points="413.24,-127.5 423.24,-124 413.24,-120.5 413.24,-127.5"/>
</g>
<!-- Node9 -->
<g id="node9" class="node">
<title>Node9</title>
<g id="a_node9"><a xlink:href="classSCS.html#a863a8f5eabdddf9d7500698d4ccff05e" target="_top" xlink:title=" ">
<polygon fill="white" stroke="black" points="422,-0.5 422,-19.5 508,-19.5 508,-0.5 422,-0.5"/>
<text text-anchor="middle" x="465" y="-7.5" font-family="Helvetica,sans-Serif" font-size="10.00">SCS::writeSCS</text>
</a>
</g>
</g>
<!-- Node8&#45;&gt;Node9 -->
<g id="edge8" class="edge">
<title>Node8&#45;&gt;Node9</title>
<path fill="none" stroke="midnightblue" d="M378.21,-10C388.84,-10 400.53,-10 411.76,-10"/>
<polygon fill="midnightblue" stroke="midnightblue" points="411.9,-13.5 421.9,-10 411.9,-6.5 411.9,-13.5"/>
</g>
</g>
</svg>
