<?xml version="1.0" encoding="UTF-8" standalone="no"?>
<!DOCTYPE svg PUBLIC "-//W3C//DTD SVG 1.1//EN"
 "http://www.w3.org/Graphics/SVG/1.1/DTD/svg11.dtd">
<!-- Generated by graphviz version 2.43.0 (0)
 -->
<!-- Title: SCS::writeByte Pages: 1 -->
<!--zoomable 674 -->
<svg id="main" version="1.1" xmlns="http://www.w3.org/2000/svg" xmlns:xlink="http://www.w3.org/1999/xlink" xml:space="preserve" onload="init(evt)">
<style type="text/css"><![CDATA[
.edge:hover path { stroke: red; }
.edge:hover polygon { stroke: red; fill: red; }
]]></style>
<script type="text/javascript"><![CDATA[
var edges = document.getElementsByTagName('g');
if (edges && edges.length) {
  for (var i=0;i<edges.length;i++) {
    if (edges[i].id.substr(0,4)=='edge') {
      edges[i].setAttribute('class','edge');
    }
  }
}
]]></script>
        <defs>
                <circle id="rim" cx="0" cy="0" r="7"/>
                <circle id="rim2" cx="0" cy="0" r="3.5"/>
                <g id="zoomPlus">
                        <use xlink:href="#rim" fill="#404040">
                                <set attributeName="fill" to="#808080" begin="zoomplus.mouseover" end="zoomplus.mouseout"/>
                        </use>
                        <path d="M-4,0h8M0,-4v8" fill="none" stroke="white" stroke-width="1.5" pointer-events="none"/>
                </g>
                <g id="zoomMin">
                        <use xlink:href="#rim" fill="#404040">
                                <set attributeName="fill" to="#808080" begin="zoomminus.mouseover" end="zoomminus.mouseout"/>
                        </use>
                        <path d="M-4,0h8" fill="none" stroke="white" stroke-width="1.5" pointer-events="none"/>
                </g>
                <g id="dirArrow">
                        <path fill="none" stroke="white" stroke-width="1.5" d="M0,-3.0v7 M-2.5,-0.5L0,-3.0L2.5,-0.5"/>
                </g>
               <g id="resetDef">
                       <use xlink:href="#rim2" fill="#404040">
                               <set attributeName="fill" to="#808080" begin="reset.mouseover" end="reset.mouseout"/>
                       </use>
               </g>
        </defs>

<script type="text/javascript">
var viewWidth = 260;
var viewHeight = 674;
var sectionId = 'dynsection-28';
</script>
<script xlink:href="svgpan.js"/>
<svg id="graph" class="graph">
<g id="viewport">
<title>SCS::writeByte</title>
<polygon fill="white" stroke="transparent" points="-4,4 -4,-670 256,-670 256,4 -4,4"/>
<!-- Node1 -->
<g id="node1" class="node">
<title>Node1</title>
<g id="a_node1"><a xlink:title=" ">
<polygon fill="#bfbfbf" stroke="black" points="167,-323.5 167,-342.5 252,-342.5 252,-323.5 167,-323.5"/>
<text text-anchor="middle" x="209.5" y="-330.5" font-family="Helvetica,sans-Serif" font-size="10.00">SCS::writeByte</text>
</a>
</g>
</g>
<!-- Node2 -->
<g id="node2" class="node">
<title>Node2</title>
<g id="a_node2"><a xlink:href="classSMS__STS.html#a8195a0ac4884d4724bdda1d688faf5f1" target="_top" xlink:title=" ">
<polygon fill="white" stroke="black" points="0,-646.5 0,-665.5 131,-665.5 131,-646.5 0,-646.5"/>
<text text-anchor="middle" x="65.5" y="-653.5" font-family="Helvetica,sans-Serif" font-size="10.00">SMS_STS::CalibrationOfs</text>
</a>
</g>
</g>
<!-- Node1&#45;&gt;Node2 -->
<g id="edge1" class="edge">
<title>Node1&#45;&gt;Node2</title>
<path fill="none" stroke="midnightblue" d="M206.01,-352.9C198,-413.69 171.12,-595.37 131,-637 127.27,-640.87 122.8,-643.96 117.98,-646.43"/>
<polygon fill="midnightblue" stroke="midnightblue" points="209.51,-353.09 207.32,-342.72 202.57,-352.19 209.51,-353.09"/>
</g>
<!-- Node3 -->
<g id="node3" class="node">
<title>Node3</title>
<g id="a_node3"><a xlink:href="classSMSBL.html#a73c537c03b98e99429486d22a40482f8" target="_top" xlink:title=" ">
<polygon fill="white" stroke="black" points="6,-608.5 6,-627.5 125,-627.5 125,-608.5 6,-608.5"/>
<text text-anchor="middle" x="65.5" y="-615.5" font-family="Helvetica,sans-Serif" font-size="10.00">SMSBL::CalibrationOfs</text>
</a>
</g>
</g>
<!-- Node1&#45;&gt;Node3 -->
<g id="edge2" class="edge">
<title>Node1&#45;&gt;Node3</title>
<path fill="none" stroke="midnightblue" d="M208.78,-352.77C208.37,-401.69 200.33,-529.47 131,-599 127.13,-602.89 122.5,-605.98 117.53,-608.46"/>
<polygon fill="midnightblue" stroke="midnightblue" points="212.28,-352.59 208.76,-342.59 205.28,-352.6 212.28,-352.59"/>
</g>
<!-- Node4 -->
<g id="node4" class="node">
<title>Node4</title>
<g id="a_node4"><a xlink:href="classSMSCL.html#a8a935c8c2fa9590df892ec4a2cfd70e8" target="_top" xlink:title=" ">
<polygon fill="white" stroke="black" points="6,-570.5 6,-589.5 125,-589.5 125,-570.5 6,-570.5"/>
<text text-anchor="middle" x="65.5" y="-577.5" font-family="Helvetica,sans-Serif" font-size="10.00">SMSCL::CalibrationOfs</text>
</a>
</g>
</g>
<!-- Node1&#45;&gt;Node4 -->
<g id="edge3" class="edge">
<title>Node1&#45;&gt;Node4</title>
<path fill="none" stroke="midnightblue" d="M207.64,-352.89C204.65,-396.91 191.22,-503.21 131,-561 126.96,-564.88 122.16,-567.97 117.04,-570.44"/>
<polygon fill="midnightblue" stroke="midnightblue" points="211.14,-353.07 208.21,-342.89 204.15,-352.67 211.14,-353.07"/>
</g>
<!-- Node5 -->
<g id="node5" class="node">
<title>Node5</title>
<g id="a_node5"><a xlink:href="classSCSCL.html#aa63b939c1baf157137c9bd14ca65f1fe" target="_top" xlink:title=" ">
<polygon fill="white" stroke="black" points="7.5,-532.5 7.5,-551.5 123.5,-551.5 123.5,-532.5 7.5,-532.5"/>
<text text-anchor="middle" x="65.5" y="-539.5" font-family="Helvetica,sans-Serif" font-size="10.00">SCSCL::EnableTorque</text>
</a>
</g>
</g>
<!-- Node1&#45;&gt;Node5 -->
<g id="edge4" class="edge">
<title>Node1&#45;&gt;Node5</title>
<path fill="none" stroke="midnightblue" d="M206.08,-352.92C200.33,-391.49 182.25,-476.67 131,-523 126.67,-526.91 121.57,-530.02 116.17,-532.49"/>
<polygon fill="midnightblue" stroke="midnightblue" points="209.61,-352.92 207.49,-342.54 202.68,-351.97 209.61,-352.92"/>
</g>
<!-- Node6 -->
<g id="node6" class="node">
<title>Node6</title>
<g id="a_node6"><a xlink:href="classSMS__STS.html#a50b5750f93d53f13f93526c68ccbd866" target="_top" xlink:title=" ">
<polygon fill="white" stroke="black" points="1.5,-494.5 1.5,-513.5 129.5,-513.5 129.5,-494.5 1.5,-494.5"/>
<text text-anchor="middle" x="65.5" y="-501.5" font-family="Helvetica,sans-Serif" font-size="10.00">SMS_STS::EnableTorque</text>
</a>
</g>
</g>
<!-- Node1&#45;&gt;Node6 -->
<g id="edge5" class="edge">
<title>Node1&#45;&gt;Node6</title>
<path fill="none" stroke="midnightblue" d="M203.8,-352.95C195.11,-385.47 173.41,-449.8 131,-485 126.33,-488.88 120.9,-491.96 115.2,-494.42"/>
<polygon fill="midnightblue" stroke="midnightblue" points="207.29,-353.43 206.35,-342.88 200.51,-351.71 207.29,-353.43"/>
</g>
<!-- Node7 -->
<g id="node7" class="node">
<title>Node7</title>
<g id="a_node7"><a xlink:href="classSMSBL.html#adc36b44867884029a13b63b3b41c3a8d" target="_top" xlink:title=" ">
<polygon fill="white" stroke="black" points="7.5,-456.5 7.5,-475.5 123.5,-475.5 123.5,-456.5 7.5,-456.5"/>
<text text-anchor="middle" x="65.5" y="-463.5" font-family="Helvetica,sans-Serif" font-size="10.00">SMSBL::EnableTorque</text>
</a>
</g>
</g>
<!-- Node1&#45;&gt;Node7 -->
<g id="edge6" class="edge">
<title>Node1&#45;&gt;Node7</title>
<path fill="none" stroke="midnightblue" d="M200.63,-351.88C189.08,-377.27 165.16,-422.09 131,-447 125.72,-450.85 119.66,-453.93 113.42,-456.38"/>
<polygon fill="midnightblue" stroke="midnightblue" points="203.89,-353.16 204.69,-342.6 197.47,-350.36 203.89,-353.16"/>
</g>
<!-- Node8 -->
<g id="node8" class="node">
<title>Node8</title>
<g id="a_node8"><a xlink:href="classSMSCL.html#a2f2e8e8ac960501339943da8af0a62d5" target="_top" xlink:title=" ">
<polygon fill="white" stroke="black" points="7.5,-418.5 7.5,-437.5 123.5,-437.5 123.5,-418.5 7.5,-418.5"/>
<text text-anchor="middle" x="65.5" y="-425.5" font-family="Helvetica,sans-Serif" font-size="10.00">SMSCL::EnableTorque</text>
</a>
</g>
</g>
<!-- Node1&#45;&gt;Node8 -->
<g id="edge7" class="edge">
<title>Node1&#45;&gt;Node8</title>
<path fill="none" stroke="midnightblue" d="M194.74,-350.85C180.55,-368.1 156.88,-393.8 131,-409 124.46,-412.84 117.08,-415.96 109.71,-418.47"/>
<polygon fill="midnightblue" stroke="midnightblue" points="197.75,-352.69 201.27,-342.7 192.29,-348.32 197.75,-352.69"/>
</g>
<!-- Node9 -->
<g id="node9" class="node">
<title>Node9</title>
<g id="a_node9"><a xlink:href="classSCSCL.html#ae144ca811ae2c155665d2dee5ffc1fc5" target="_top" xlink:title=" ">
<polygon fill="white" stroke="black" points="12.5,-380.5 12.5,-399.5 118.5,-399.5 118.5,-380.5 12.5,-380.5"/>
<text text-anchor="middle" x="65.5" y="-387.5" font-family="Helvetica,sans-Serif" font-size="10.00">SCSCL::LockEprom</text>
</a>
</g>
</g>
<!-- Node1&#45;&gt;Node9 -->
<g id="edge8" class="edge">
<title>Node1&#45;&gt;Node9</title>
<path fill="none" stroke="midnightblue" d="M181.99,-347.39C167.25,-355.03 148.41,-364.22 131,-371 122.08,-374.47 112.26,-377.67 103.02,-380.41"/>
<polygon fill="midnightblue" stroke="midnightblue" points="183.81,-350.38 191.03,-342.63 180.55,-344.19 183.81,-350.38"/>
</g>
<!-- Node10 -->
<g id="node10" class="node">
<title>Node10</title>
<g id="a_node10"><a xlink:href="classSMS__STS.html#a53179f61d0b954ee04af0e4e5a778879" target="_top" xlink:title=" ">
<polygon fill="white" stroke="black" points="6,-342.5 6,-361.5 125,-361.5 125,-342.5 6,-342.5"/>
<text text-anchor="middle" x="65.5" y="-349.5" font-family="Helvetica,sans-Serif" font-size="10.00">SMS_STS::LockEprom</text>
</a>
</g>
</g>
<!-- Node1&#45;&gt;Node10 -->
<g id="edge9" class="edge">
<title>Node1&#45;&gt;Node10</title>
<path fill="none" stroke="midnightblue" d="M156.65,-339.94C146.4,-341.31 135.58,-342.76 125.13,-344.15"/>
<polygon fill="midnightblue" stroke="midnightblue" points="157.22,-343.39 166.66,-338.6 156.29,-336.46 157.22,-343.39"/>
</g>
<!-- Node11 -->
<g id="node11" class="node">
<title>Node11</title>
<g id="a_node11"><a xlink:href="classSMSBL.html#ab8679c5c1d2fcf0c6f27162b6d4b3545" target="_top" xlink:title=" ">
<polygon fill="white" stroke="black" points="12.5,-304.5 12.5,-323.5 118.5,-323.5 118.5,-304.5 12.5,-304.5"/>
<text text-anchor="middle" x="65.5" y="-311.5" font-family="Helvetica,sans-Serif" font-size="10.00">SMSBL::LockEprom</text>
</a>
</g>
</g>
<!-- Node1&#45;&gt;Node11 -->
<g id="edge10" class="edge">
<title>Node1&#45;&gt;Node11</title>
<path fill="none" stroke="midnightblue" d="M156.52,-326.04C144.16,-324.39 130.98,-322.63 118.62,-320.97"/>
<polygon fill="midnightblue" stroke="midnightblue" points="156.29,-329.54 166.66,-327.4 157.22,-322.61 156.29,-329.54"/>
</g>
<!-- Node12 -->
<g id="node12" class="node">
<title>Node12</title>
<g id="a_node12"><a xlink:href="classSMSCL.html#a6c127ca914bff0198ec8277ffa213752" target="_top" xlink:title=" ">
<polygon fill="white" stroke="black" points="12,-266.5 12,-285.5 119,-285.5 119,-266.5 12,-266.5"/>
<text text-anchor="middle" x="65.5" y="-273.5" font-family="Helvetica,sans-Serif" font-size="10.00">SMSCL::LockEprom</text>
</a>
</g>
</g>
<!-- Node1&#45;&gt;Node12 -->
<g id="edge11" class="edge">
<title>Node1&#45;&gt;Node12</title>
<path fill="none" stroke="midnightblue" d="M181.99,-318.61C167.25,-310.97 148.41,-301.78 131,-295 122.08,-291.53 112.26,-288.33 103.02,-285.59"/>
<polygon fill="midnightblue" stroke="midnightblue" points="180.55,-321.81 191.03,-323.37 183.81,-315.62 180.55,-321.81"/>
</g>
<!-- Node13 -->
<g id="node13" class="node">
<title>Node13</title>
<g id="a_node13"><a xlink:href="classSMS__STS.html#abb804df208a277343f1f3b44b5b23381" target="_top" xlink:title=" ">
<polygon fill="white" stroke="black" points="19,-228.5 19,-247.5 112,-247.5 112,-228.5 19,-228.5"/>
<text text-anchor="middle" x="65.5" y="-235.5" font-family="Helvetica,sans-Serif" font-size="10.00">SMS_STS::Mode</text>
</a>
</g>
</g>
<!-- Node1&#45;&gt;Node13 -->
<g id="edge12" class="edge">
<title>Node1&#45;&gt;Node13</title>
<path fill="none" stroke="midnightblue" d="M194.74,-315.15C180.55,-297.9 156.88,-272.2 131,-257 124.46,-253.16 117.08,-250.04 109.71,-247.53"/>
<polygon fill="midnightblue" stroke="midnightblue" points="192.29,-317.68 201.27,-323.3 197.75,-313.31 192.29,-317.68"/>
</g>
<!-- Node14 -->
<g id="node14" class="node">
<title>Node14</title>
<g id="a_node14"><a xlink:href="classSCSCL.html#aaa64e542e7560f479c086541d04bd8aa" target="_top" xlink:title=" ">
<polygon fill="white" stroke="black" points="7.5,-190.5 7.5,-209.5 123.5,-209.5 123.5,-190.5 7.5,-190.5"/>
<text text-anchor="middle" x="65.5" y="-197.5" font-family="Helvetica,sans-Serif" font-size="10.00">SCSCL::unLockEprom</text>
</a>
</g>
</g>
<!-- Node1&#45;&gt;Node14 -->
<g id="edge13" class="edge">
<title>Node1&#45;&gt;Node14</title>
<path fill="none" stroke="midnightblue" d="M200.63,-314.12C189.08,-288.73 165.16,-243.91 131,-219 125.72,-215.15 119.66,-212.07 113.42,-209.62"/>
<polygon fill="midnightblue" stroke="midnightblue" points="197.47,-315.64 204.69,-323.4 203.89,-312.84 197.47,-315.64"/>
</g>
<!-- Node15 -->
<g id="node15" class="node">
<title>Node15</title>
<g id="a_node15"><a xlink:href="classSMS__STS.html#a5d2043ecf3f257b39fcf785a29771484" target="_top" xlink:title=" ">
<polygon fill="white" stroke="black" points="1,-152.5 1,-171.5 130,-171.5 130,-152.5 1,-152.5"/>
<text text-anchor="middle" x="65.5" y="-159.5" font-family="Helvetica,sans-Serif" font-size="10.00">SMS_STS::unLockEprom</text>
</a>
</g>
</g>
<!-- Node1&#45;&gt;Node15 -->
<g id="edge14" class="edge">
<title>Node1&#45;&gt;Node15</title>
<path fill="none" stroke="midnightblue" d="M203.8,-313.05C195.11,-280.53 173.41,-216.2 131,-181 126.33,-177.12 120.9,-174.04 115.2,-171.58"/>
<polygon fill="midnightblue" stroke="midnightblue" points="200.51,-314.29 206.35,-323.12 207.29,-312.57 200.51,-314.29"/>
</g>
<!-- Node16 -->
<g id="node16" class="node">
<title>Node16</title>
<g id="a_node16"><a xlink:href="classSMSBL.html#abe2cf9254e6ddc79e4bbfd71b0725ea9" target="_top" xlink:title=" ">
<polygon fill="white" stroke="black" points="7.5,-114.5 7.5,-133.5 123.5,-133.5 123.5,-114.5 7.5,-114.5"/>
<text text-anchor="middle" x="65.5" y="-121.5" font-family="Helvetica,sans-Serif" font-size="10.00">SMSBL::unLockEprom</text>
</a>
</g>
</g>
<!-- Node1&#45;&gt;Node16 -->
<g id="edge15" class="edge">
<title>Node1&#45;&gt;Node16</title>
<path fill="none" stroke="midnightblue" d="M206.08,-313.08C200.33,-274.51 182.25,-189.33 131,-143 126.67,-139.09 121.57,-135.98 116.17,-133.51"/>
<polygon fill="midnightblue" stroke="midnightblue" points="202.68,-314.03 207.49,-323.46 209.61,-313.08 202.68,-314.03"/>
</g>
<!-- Node17 -->
<g id="node17" class="node">
<title>Node17</title>
<g id="a_node17"><a xlink:href="classSMSCL.html#a8f37c3529b0facfa1314c363ff39639b" target="_top" xlink:title=" ">
<polygon fill="white" stroke="black" points="7,-76.5 7,-95.5 124,-95.5 124,-76.5 7,-76.5"/>
<text text-anchor="middle" x="65.5" y="-83.5" font-family="Helvetica,sans-Serif" font-size="10.00">SMSCL::unLockEprom</text>
</a>
</g>
</g>
<!-- Node1&#45;&gt;Node17 -->
<g id="edge16" class="edge">
<title>Node1&#45;&gt;Node17</title>
<path fill="none" stroke="midnightblue" d="M207.64,-313.11C204.65,-269.09 191.22,-162.79 131,-105 126.96,-101.12 122.16,-98.03 117.04,-95.56"/>
<polygon fill="midnightblue" stroke="midnightblue" points="204.15,-313.33 208.21,-323.11 211.14,-312.93 204.15,-313.33"/>
</g>
<!-- Node18 -->
<g id="node18" class="node">
<title>Node18</title>
<g id="a_node18"><a xlink:href="classSMSBL.html#a0a136f721c8792fc6183225f62e4e318" target="_top" xlink:title=" ">
<polygon fill="white" stroke="black" points="11.5,-38.5 11.5,-57.5 119.5,-57.5 119.5,-38.5 11.5,-38.5"/>
<text text-anchor="middle" x="65.5" y="-45.5" font-family="Helvetica,sans-Serif" font-size="10.00">SMSBL::WheelMode</text>
</a>
</g>
</g>
<!-- Node1&#45;&gt;Node18 -->
<g id="edge17" class="edge">
<title>Node1&#45;&gt;Node18</title>
<path fill="none" stroke="midnightblue" d="M208.78,-313.23C208.37,-264.31 200.33,-136.53 131,-67 127.13,-63.11 122.5,-60.02 117.53,-57.54"/>
<polygon fill="midnightblue" stroke="midnightblue" points="205.28,-313.4 208.76,-323.41 212.28,-313.41 205.28,-313.4"/>
</g>
<!-- Node19 -->
<g id="node19" class="node">
<title>Node19</title>
<g id="a_node19"><a xlink:href="classSMSCL.html#a9dfb5e0ceed8058e8227897d3e859223" target="_top" xlink:title=" ">
<polygon fill="white" stroke="black" points="11,-0.5 11,-19.5 120,-19.5 120,-0.5 11,-0.5"/>
<text text-anchor="middle" x="65.5" y="-7.5" font-family="Helvetica,sans-Serif" font-size="10.00">SMSCL::WheelMode</text>
</a>
</g>
</g>
<!-- Node1&#45;&gt;Node19 -->
<g id="edge18" class="edge">
<title>Node1&#45;&gt;Node19</title>
<path fill="none" stroke="midnightblue" d="M206.01,-313.1C198,-252.31 171.12,-70.63 131,-29 127.27,-25.13 122.8,-22.04 117.98,-19.57"/>
<polygon fill="midnightblue" stroke="midnightblue" points="202.57,-313.81 207.32,-323.28 209.51,-312.91 202.57,-313.81"/>
</g>
</g>
</svg>
        <g id="navigator" transform="translate(0 0)" fill="#404254">
                <rect fill="#f2f5e9" fill-opacity="0.5" stroke="#606060" stroke-width=".5" x="0" y="0" width="60" height="60"/>
                <use id="zoomplus" xlink:href="#zoomPlus" x="17" y="9" onmousedown="handleZoom(evt,'in')"/>
                <use id="zoomminus" xlink:href="#zoomMin" x="42" y="9" onmousedown="handleZoom(evt,'out')"/>
                <use id="reset" xlink:href="#resetDef" x="30" y="36" onmousedown="handleReset()"/>
                <g id="arrowUp" xlink:href="#dirArrow" transform="translate(30 24)" onmousedown="handlePan(0,-1)">
                  <use xlink:href="#rim" fill="#404040">
                        <set attributeName="fill" to="#808080" begin="arrowUp.mouseover" end="arrowUp.mouseout"/>
                  </use>
                  <path fill="none" stroke="white" stroke-width="1.5" d="M0,-3.0v7 M-2.5,-0.5L0,-3.0L2.5,-0.5"/>
                </g>
                <g id="arrowRight" xlink:href="#dirArrow" transform="rotate(90) translate(36 -43)" onmousedown="handlePan(1,0)">
                  <use xlink:href="#rim" fill="#404040">
                        <set attributeName="fill" to="#808080" begin="arrowRight.mouseover" end="arrowRight.mouseout"/>
                  </use>
                  <path fill="none" stroke="white" stroke-width="1.5" d="M0,-3.0v7 M-2.5,-0.5L0,-3.0L2.5,-0.5"/>
                </g>
                <g id="arrowDown" xlink:href="#dirArrow" transform="rotate(180) translate(-30 -48)" onmousedown="handlePan(0,1)">
                  <use xlink:href="#rim" fill="#404040">
                        <set attributeName="fill" to="#808080" begin="arrowDown.mouseover" end="arrowDown.mouseout"/>
                  </use>
                  <path fill="none" stroke="white" stroke-width="1.5" d="M0,-3.0v7 M-2.5,-0.5L0,-3.0L2.5,-0.5"/>
                </g>
                <g id="arrowLeft" xlink:href="#dirArrow" transform="rotate(270) translate(-36 17)" onmousedown="handlePan(-1,0)">
                  <use xlink:href="#rim" fill="#404040">
                        <set attributeName="fill" to="#808080" begin="arrowLeft.mouseover" end="arrowLeft.mouseout"/>
                  </use>
                  <path fill="none" stroke="white" stroke-width="1.5" d="M0,-3.0v7 M-2.5,-0.5L0,-3.0L2.5,-0.5"/>
                </g>
        </g>
        <svg viewBox="0 0 15 15" width="100%" height="30px" preserveAspectRatio="xMaxYMin meet">
         <g id="arrow_out" transform="scale(0.3 0.3)">
          <a xlink:href="classSCS_a48b5d1256a84b4c5a7e55b0b3af6a4e3_icgraph_org.svg" target="_base">
           <rect id="button" ry="5" rx="5" y="6" x="6" height="38" width="38"
                fill="#f2f5e9" fill-opacity="0.5" stroke="#606060" stroke-width="1.0"/>
           <path id="arrow"
             d="M 11.500037,31.436501 C 11.940474,20.09759 22.043105,11.32322 32.158766,21.979434 L 37.068811,17.246167 C 37.068811,17.246167 37.088388,32 37.088388,32 L 22.160133,31.978069 C 22.160133,31.978069 26.997745,27.140456 26.997745,27.140456 C 18.528582,18.264221 13.291696,25.230495 11.500037,31.436501 z"
             style="fill:#404040;"/>
          </a>
         </g>
        </svg>
</svg>
