<?xml version="1.0" encoding="UTF-8" standalone="no"?>
<!DOCTYPE svg PUBLIC "-//W3C//DTD SVG 1.1//EN"
 "http://www.w3.org/Graphics/SVG/1.1/DTD/svg11.dtd">
<!-- Generated by graphviz version 2.43.0 (0)
 -->
<!-- Title: SCS::genWrite Pages: 1 -->
<svg width="344pt" height="142pt"
 viewBox="0.00 0.00 344.00 142.00" xmlns="http://www.w3.org/2000/svg" xmlns:xlink="http://www.w3.org/1999/xlink">
<g id="graph0" class="graph" transform="scale(1 1) rotate(0) translate(4 138)">
<title>SCS::genWrite</title>
<polygon fill="white" stroke="transparent" points="-4,4 -4,-138 340,-138 340,4 -4,4"/>
<!-- Node1 -->
<g id="node1" class="node">
<title>Node1</title>
<g id="a_node1"><a xlink:title=" ">
<polygon fill="#bfbfbf" stroke="black" points="0,-57.5 0,-76.5 82,-76.5 82,-57.5 0,-57.5"/>
<text text-anchor="middle" x="41" y="-64.5" font-family="Helvetica,sans-Serif" font-size="10.00">SCS::genWrite</text>
</a>
</g>
</g>
<!-- Node2 -->
<g id="node2" class="node">
<title>Node2</title>
<g id="a_node2"><a xlink:href="classSCS.html#ab03bd31949e28794360e70a67723affe" target="_top" xlink:title=" ">
<polygon fill="white" stroke="black" points="135.5,-114.5 135.5,-133.5 196.5,-133.5 196.5,-114.5 135.5,-114.5"/>
<text text-anchor="middle" x="166" y="-121.5" font-family="Helvetica,sans-Serif" font-size="10.00">SCS::Ack</text>
</a>
</g>
</g>
<!-- Node1&#45;&gt;Node2 -->
<g id="edge1" class="edge">
<title>Node1&#45;&gt;Node2</title>
<path fill="none" stroke="midnightblue" d="M60.23,-76.63C75.51,-84.57 97.97,-95.96 118,-105 122.08,-106.84 126.4,-108.7 130.69,-110.5"/>
<polygon fill="midnightblue" stroke="midnightblue" points="129.38,-113.75 139.96,-114.31 132.04,-107.27 129.38,-113.75"/>
</g>
<!-- Node4 -->
<g id="node4" class="node">
<title>Node4</title>
<g id="a_node4"><a xlink:href="classSCS.html#a856da9cc4c2a6d86984c3a314bfd87c9" target="_top" xlink:title=" ">
<polygon fill="white" stroke="black" points="120,-76.5 120,-95.5 212,-95.5 212,-76.5 120,-76.5"/>
<text text-anchor="middle" x="166" y="-83.5" font-family="Helvetica,sans-Serif" font-size="10.00">SCS::rFlushSCS</text>
</a>
</g>
</g>
<!-- Node1&#45;&gt;Node4 -->
<g id="edge3" class="edge">
<title>Node1&#45;&gt;Node4</title>
<path fill="none" stroke="midnightblue" d="M82.27,-73.22C91.12,-74.59 100.64,-76.06 109.96,-77.5"/>
<polygon fill="midnightblue" stroke="midnightblue" points="109.54,-80.97 119.95,-79.04 110.6,-74.06 109.54,-80.97"/>
</g>
<!-- Node5 -->
<g id="node5" class="node">
<title>Node5</title>
<g id="a_node5"><a xlink:href="classSCS.html#ad860b40280cba5d8ea5214cca6c70119" target="_top" xlink:title=" ">
<polygon fill="white" stroke="black" points="118,-38.5 118,-57.5 214,-57.5 214,-38.5 118,-38.5"/>
<text text-anchor="middle" x="166" y="-45.5" font-family="Helvetica,sans-Serif" font-size="10.00">SCS::wFlushSCS</text>
</a>
</g>
</g>
<!-- Node1&#45;&gt;Node5 -->
<g id="edge4" class="edge">
<title>Node1&#45;&gt;Node5</title>
<path fill="none" stroke="midnightblue" d="M82.27,-60.78C90.43,-59.52 99.16,-58.17 107.77,-56.84"/>
<polygon fill="midnightblue" stroke="midnightblue" points="108.44,-60.28 117.79,-55.29 107.37,-53.36 108.44,-60.28"/>
</g>
<!-- Node6 -->
<g id="node6" class="node">
<title>Node6</title>
<g id="a_node6"><a xlink:href="classSCS.html#aa4af18b8b9f34649cd1e8aadde6d9b1f" target="_top" xlink:title=" ">
<polygon fill="white" stroke="black" points="126,-0.5 126,-19.5 206,-19.5 206,-0.5 126,-0.5"/>
<text text-anchor="middle" x="166" y="-7.5" font-family="Helvetica,sans-Serif" font-size="10.00">SCS::writeBuf</text>
</a>
</g>
</g>
<!-- Node1&#45;&gt;Node6 -->
<g id="edge5" class="edge">
<title>Node1&#45;&gt;Node6</title>
<path fill="none" stroke="midnightblue" d="M60.23,-57.37C75.51,-49.43 97.97,-38.04 118,-29 122.08,-27.16 126.4,-25.3 130.69,-23.5"/>
<polygon fill="midnightblue" stroke="midnightblue" points="132.04,-26.73 139.96,-19.69 129.38,-20.25 132.04,-26.73"/>
</g>
<!-- Node3 -->
<g id="node3" class="node">
<title>Node3</title>
<g id="a_node3"><a xlink:href="classSCS.html#a7e23a5d866557da06108d326cb2055b9" target="_top" xlink:title=" ">
<polygon fill="white" stroke="black" points="251.5,-114.5 251.5,-133.5 334.5,-133.5 334.5,-114.5 251.5,-114.5"/>
<text text-anchor="middle" x="293" y="-121.5" font-family="Helvetica,sans-Serif" font-size="10.00">SCS::readSCS</text>
</a>
</g>
</g>
<!-- Node2&#45;&gt;Node3 -->
<g id="edge2" class="edge">
<title>Node2&#45;&gt;Node3</title>
<path fill="none" stroke="midnightblue" d="M196.62,-124C209.88,-124 225.9,-124 240.99,-124"/>
<polygon fill="midnightblue" stroke="midnightblue" points="241.24,-127.5 251.24,-124 241.24,-120.5 241.24,-127.5"/>
</g>
<!-- Node7 -->
<g id="node7" class="node">
<title>Node7</title>
<g id="a_node7"><a xlink:href="classSCS.html#a863a8f5eabdddf9d7500698d4ccff05e" target="_top" xlink:title=" ">
<polygon fill="white" stroke="black" points="250,-0.5 250,-19.5 336,-19.5 336,-0.5 250,-0.5"/>
<text text-anchor="middle" x="293" y="-7.5" font-family="Helvetica,sans-Serif" font-size="10.00">SCS::writeSCS</text>
</a>
</g>
</g>
<!-- Node6&#45;&gt;Node7 -->
<g id="edge6" class="edge">
<title>Node6&#45;&gt;Node7</title>
<path fill="none" stroke="midnightblue" d="M206.21,-10C216.84,-10 228.53,-10 239.76,-10"/>
<polygon fill="midnightblue" stroke="midnightblue" points="239.9,-13.5 249.9,-10 239.9,-6.5 239.9,-13.5"/>
</g>
</g>
</svg>
