<?xml version="1.0" encoding="UTF-8" standalone="no"?>
<!DOCTYPE svg PUBLIC "-//W3C//DTD SVG 1.1//EN"
 "http://www.w3.org/Graphics/SVG/1.1/DTD/svg11.dtd">
<!-- Generated by graphviz version 2.43.0 (0)
 -->
<!-- Title: SCS::SCS2Host Pages: 1 -->
<!--zoomable 598 -->
<svg id="main" version="1.1" xmlns="http://www.w3.org/2000/svg" xmlns:xlink="http://www.w3.org/1999/xlink" xml:space="preserve" onload="init(evt)">
<style type="text/css"><![CDATA[
.edge:hover path { stroke: red; }
.edge:hover polygon { stroke: red; fill: red; }
]]></style>
<script type="text/javascript"><![CDATA[
var edges = document.getElementsByTagName('g');
if (edges && edges.length) {
  for (var i=0;i<edges.length;i++) {
    if (edges[i].id.substr(0,4)=='edge') {
      edges[i].setAttribute('class','edge');
    }
  }
}
]]></script>
        <defs>
                <circle id="rim" cx="0" cy="0" r="7"/>
                <circle id="rim2" cx="0" cy="0" r="3.5"/>
                <g id="zoomPlus">
                        <use xlink:href="#rim" fill="#404040">
                                <set attributeName="fill" to="#808080" begin="zoomplus.mouseover" end="zoomplus.mouseout"/>
                        </use>
                        <path d="M-4,0h8M0,-4v8" fill="none" stroke="white" stroke-width="1.5" pointer-events="none"/>
                </g>
                <g id="zoomMin">
                        <use xlink:href="#rim" fill="#404040">
                                <set attributeName="fill" to="#808080" begin="zoomminus.mouseover" end="zoomminus.mouseout"/>
                        </use>
                        <path d="M-4,0h8" fill="none" stroke="white" stroke-width="1.5" pointer-events="none"/>
                </g>
                <g id="dirArrow">
                        <path fill="none" stroke="white" stroke-width="1.5" d="M0,-3.0v7 M-2.5,-0.5L0,-3.0L2.5,-0.5"/>
                </g>
               <g id="resetDef">
                       <use xlink:href="#rim2" fill="#404040">
                               <set attributeName="fill" to="#808080" begin="reset.mouseover" end="reset.mouseout"/>
                       </use>
               </g>
        </defs>

<script type="text/javascript">
var viewWidth = 460;
var viewHeight = 598;
var sectionId = 'dynsection-19';
</script>
<script xlink:href="svgpan.js"/>
<svg id="graph" class="graph">
<g id="viewport">
<title>SCS::SCS2Host</title>
<polygon fill="white" stroke="transparent" points="-4,4 -4,-594 456,-594 456,4 -4,4"/>
<!-- Node1 -->
<g id="node1" class="node">
<title>Node1</title>
<g id="a_node1"><a xlink:title=" ">
<polygon fill="#bfbfbf" stroke="black" points="361,-266.5 361,-285.5 452,-285.5 452,-266.5 361,-266.5"/>
<text text-anchor="middle" x="406.5" y="-273.5" font-family="Helvetica,sans-Serif" font-size="10.00">SCS::SCS2Host</text>
</a>
</g>
</g>
<!-- Node2 -->
<g id="node2" class="node">
<title>Node2</title>
<g id="a_node2"><a xlink:href="classSCS.html#a73580046b2ee5dc22b326d2d6d01bb35" target="_top" xlink:title=" ">
<polygon fill="white" stroke="black" points="200.5,-285.5 200.5,-304.5 285.5,-304.5 285.5,-285.5 200.5,-285.5"/>
<text text-anchor="middle" x="243" y="-292.5" font-family="Helvetica,sans-Serif" font-size="10.00">SCS::readWord</text>
</a>
</g>
</g>
<!-- Node1&#45;&gt;Node2 -->
<g id="edge1" class="edge">
<title>Node1&#45;&gt;Node2</title>
<path fill="none" stroke="midnightblue" d="M350.74,-282.44C329.45,-284.95 305.47,-287.77 285.64,-290.1"/>
<polygon fill="midnightblue" stroke="midnightblue" points="351.42,-285.89 360.94,-281.24 350.6,-278.93 351.42,-285.89"/>
</g>
<!-- Node19 -->
<g id="node19" class="node">
<title>Node19</title>
<g id="a_node19"><a xlink:href="classSCS.html#ae093e39d6c091a2e81ffa62289cf9a43" target="_top" xlink:title=" ">
<polygon fill="white" stroke="black" points="161,-247.5 161,-266.5 325,-266.5 325,-247.5 161,-247.5"/>
<text text-anchor="middle" x="243" y="-254.5" font-family="Helvetica,sans-Serif" font-size="10.00">SCS::syncReadRxPacketToWrod</text>
</a>
</g>
</g>
<!-- Node1&#45;&gt;Node19 -->
<g id="edge18" class="edge">
<title>Node1&#45;&gt;Node19</title>
<path fill="none" stroke="midnightblue" d="M350.96,-269.58C342.58,-268.6 333.78,-267.56 324.98,-266.53"/>
<polygon fill="midnightblue" stroke="midnightblue" points="350.6,-273.07 360.94,-270.76 351.42,-266.11 350.6,-273.07"/>
</g>
<!-- Node3 -->
<g id="node3" class="node">
<title>Node3</title>
<g id="a_node3"><a xlink:href="classSCSCL.html#a045cbb3fbc583f96ddb3ee8a43d23e3e" target="_top" xlink:title=" ">
<polygon fill="white" stroke="black" points="6.5,-570.5 6.5,-589.5 118.5,-589.5 118.5,-570.5 6.5,-570.5"/>
<text text-anchor="middle" x="62.5" y="-577.5" font-family="Helvetica,sans-Serif" font-size="10.00">SCSCL::ReadCurrent</text>
</a>
</g>
</g>
<!-- Node2&#45;&gt;Node3 -->
<g id="edge2" class="edge">
<title>Node2&#45;&gt;Node3</title>
<path fill="none" stroke="midnightblue" d="M239.06,-314.58C230.67,-363.56 202.04,-492.33 125,-561 120.66,-564.87 115.55,-567.95 110.15,-570.4"/>
<polygon fill="midnightblue" stroke="midnightblue" points="242.52,-315.09 240.66,-304.66 235.61,-313.97 242.52,-315.09"/>
</g>
<!-- Node4 -->
<g id="node4" class="node">
<title>Node4</title>
<g id="a_node4"><a xlink:href="classSMS__STS.html#ad410720e748e4c006e1f0d85fc27823d" target="_top" xlink:title=" ">
<polygon fill="white" stroke="black" points="0,-532.5 0,-551.5 125,-551.5 125,-532.5 0,-532.5"/>
<text text-anchor="middle" x="62.5" y="-539.5" font-family="Helvetica,sans-Serif" font-size="10.00">SMS_STS::ReadCurrent</text>
</a>
</g>
</g>
<!-- Node2&#45;&gt;Node4 -->
<g id="edge3" class="edge">
<title>Node2&#45;&gt;Node4</title>
<path fill="none" stroke="midnightblue" d="M237.45,-314.72C226.25,-358.77 193.18,-465.79 125,-523 120.38,-526.88 114.97,-529.97 109.31,-532.43"/>
<polygon fill="midnightblue" stroke="midnightblue" points="240.86,-315.49 239.83,-304.94 234.06,-313.83 240.86,-315.49"/>
</g>
<!-- Node5 -->
<g id="node5" class="node">
<title>Node5</title>
<g id="a_node5"><a xlink:href="classSMSBL.html#a8a754ff66c53ab9d0ed4c58fabf9389a" target="_top" xlink:title=" ">
<polygon fill="white" stroke="black" points="6.5,-494.5 6.5,-513.5 118.5,-513.5 118.5,-494.5 6.5,-494.5"/>
<text text-anchor="middle" x="62.5" y="-501.5" font-family="Helvetica,sans-Serif" font-size="10.00">SMSBL::ReadCurrent</text>
</a>
</g>
</g>
<!-- Node2&#45;&gt;Node5 -->
<g id="edge4" class="edge">
<title>Node2&#45;&gt;Node5</title>
<path fill="none" stroke="midnightblue" d="M235.36,-314.47C221.26,-352.91 184.64,-438.78 125,-485 119.96,-488.9 114.12,-492.01 108.08,-494.48"/>
<polygon fill="midnightblue" stroke="midnightblue" points="238.83,-315.16 238.88,-304.56 232.23,-312.82 238.83,-315.16"/>
</g>
<!-- Node6 -->
<g id="node6" class="node">
<title>Node6</title>
<g id="a_node6"><a xlink:href="classSMSCL.html#acef30f8e74665d8d7686c0e87ce901fe" target="_top" xlink:title=" ">
<polygon fill="white" stroke="black" points="6,-456.5 6,-475.5 119,-475.5 119,-456.5 6,-456.5"/>
<text text-anchor="middle" x="62.5" y="-463.5" font-family="Helvetica,sans-Serif" font-size="10.00">SMSCL::ReadCurrent</text>
</a>
</g>
</g>
<!-- Node2&#45;&gt;Node6 -->
<g id="edge5" class="edge">
<title>Node2&#45;&gt;Node6</title>
<path fill="none" stroke="midnightblue" d="M232.42,-314.08C215.28,-346.26 176.33,-411.34 125,-447 119.4,-450.89 112.98,-454 106.44,-456.49"/>
<polygon fill="midnightblue" stroke="midnightblue" points="235.7,-315.35 237.2,-304.86 229.49,-312.12 235.7,-315.35"/>
</g>
<!-- Node7 -->
<g id="node7" class="node">
<title>Node7</title>
<g id="a_node7"><a xlink:href="classSCSCL.html#ac827054876e33e3a9087329970202c82" target="_top" xlink:title=" ">
<polygon fill="white" stroke="black" points="12,-418.5 12,-437.5 113,-437.5 113,-418.5 12,-418.5"/>
<text text-anchor="middle" x="62.5" y="-425.5" font-family="Helvetica,sans-Serif" font-size="10.00">SCSCL::ReadLoad</text>
</a>
</g>
</g>
<!-- Node2&#45;&gt;Node7 -->
<g id="edge6" class="edge">
<title>Node2&#45;&gt;Node7</title>
<path fill="none" stroke="midnightblue" d="M228.43,-312.74C208.42,-337.72 168.62,-383.09 125,-409 118.56,-412.82 111.28,-415.95 104.04,-418.48"/>
<polygon fill="midnightblue" stroke="midnightblue" points="231.22,-314.84 234.65,-304.82 225.72,-310.52 231.22,-314.84"/>
</g>
<!-- Node8 -->
<g id="node8" class="node">
<title>Node8</title>
<g id="a_node8"><a xlink:href="classSMS__STS.html#aa763dbfe9582317a2795f274f0d42f18" target="_top" xlink:title=" ">
<polygon fill="white" stroke="black" points="6,-380.5 6,-399.5 119,-399.5 119,-380.5 6,-380.5"/>
<text text-anchor="middle" x="62.5" y="-387.5" font-family="Helvetica,sans-Serif" font-size="10.00">SMS_STS::ReadLoad</text>
</a>
</g>
</g>
<!-- Node2&#45;&gt;Node8 -->
<g id="edge7" class="edge">
<title>Node2&#45;&gt;Node8</title>
<path fill="none" stroke="midnightblue" d="M221.55,-310.8C198.97,-327.64 161.02,-354.14 125,-371 117.21,-374.65 108.54,-377.82 100.23,-380.47"/>
<polygon fill="midnightblue" stroke="midnightblue" points="223.82,-313.47 229.69,-304.65 219.6,-307.89 223.82,-313.47"/>
</g>
<!-- Node9 -->
<g id="node9" class="node">
<title>Node9</title>
<g id="a_node9"><a xlink:href="classSMSBL.html#ada1711d273dd3f0e1851cc729d61d2e6" target="_top" xlink:title=" ">
<polygon fill="white" stroke="black" points="12,-342.5 12,-361.5 113,-361.5 113,-342.5 12,-342.5"/>
<text text-anchor="middle" x="62.5" y="-349.5" font-family="Helvetica,sans-Serif" font-size="10.00">SMSBL::ReadLoad</text>
</a>
</g>
</g>
<!-- Node2&#45;&gt;Node9 -->
<g id="edge8" class="edge">
<title>Node2&#45;&gt;Node9</title>
<path fill="none" stroke="midnightblue" d="M203.07,-307.8C180.33,-315.24 151.07,-324.74 125,-333 115.2,-336.11 104.5,-339.43 94.81,-342.42"/>
<polygon fill="midnightblue" stroke="midnightblue" points="204.29,-311.08 212.71,-304.64 202.11,-304.43 204.29,-311.08"/>
</g>
<!-- Node10 -->
<g id="node10" class="node">
<title>Node10</title>
<g id="a_node10"><a xlink:href="classSMSCL.html#a5399187c895c986998e599ba62a15c92" target="_top" xlink:title=" ">
<polygon fill="white" stroke="black" points="12,-304.5 12,-323.5 113,-323.5 113,-304.5 12,-304.5"/>
<text text-anchor="middle" x="62.5" y="-311.5" font-family="Helvetica,sans-Serif" font-size="10.00">SMSCL::ReadLoad</text>
</a>
</g>
</g>
<!-- Node2&#45;&gt;Node10 -->
<g id="edge9" class="edge">
<title>Node2&#45;&gt;Node10</title>
<path fill="none" stroke="midnightblue" d="M190.04,-300.53C165.76,-303.12 136.98,-306.18 113.01,-308.73"/>
<polygon fill="midnightblue" stroke="midnightblue" points="190.58,-303.99 200.15,-299.45 189.84,-297.03 190.58,-303.99"/>
</g>
<!-- Node11 -->
<g id="node11" class="node">
<title>Node11</title>
<g id="a_node11"><a xlink:href="classSCSCL.html#abd7f3481c6b7e726a08c50a80c49e9ef" target="_top" xlink:title=" ">
<polygon fill="white" stroke="black" points="14,-266.5 14,-285.5 111,-285.5 111,-266.5 14,-266.5"/>
<text text-anchor="middle" x="62.5" y="-273.5" font-family="Helvetica,sans-Serif" font-size="10.00">SCSCL::ReadPos</text>
</a>
</g>
</g>
<!-- Node2&#45;&gt;Node11 -->
<g id="edge10" class="edge">
<title>Node2&#45;&gt;Node11</title>
<path fill="none" stroke="midnightblue" d="M190.13,-289.48C165.17,-286.82 135.45,-283.66 111.07,-281.06"/>
<polygon fill="midnightblue" stroke="midnightblue" points="189.84,-292.97 200.15,-290.55 190.58,-286.01 189.84,-292.97"/>
</g>
<!-- Node12 -->
<g id="node12" class="node">
<title>Node12</title>
<g id="a_node12"><a xlink:href="classSMS__STS.html#a94904508db704e298b35c43c3abe8cf2" target="_top" xlink:title=" ">
<polygon fill="white" stroke="black" points="7.5,-228.5 7.5,-247.5 117.5,-247.5 117.5,-228.5 7.5,-228.5"/>
<text text-anchor="middle" x="62.5" y="-235.5" font-family="Helvetica,sans-Serif" font-size="10.00">SMS_STS::ReadPos</text>
</a>
</g>
</g>
<!-- Node2&#45;&gt;Node12 -->
<g id="edge11" class="edge">
<title>Node2&#45;&gt;Node12</title>
<path fill="none" stroke="midnightblue" d="M190.42,-284.99C180.52,-282.48 170.33,-279.49 161,-276 144.06,-269.66 141.71,-263.92 125,-257 116.53,-253.49 107.18,-250.28 98.38,-247.54"/>
<polygon fill="midnightblue" stroke="midnightblue" points="189.65,-288.4 200.19,-287.33 191.28,-281.59 189.65,-288.4"/>
</g>
<!-- Node13 -->
<g id="node13" class="node">
<title>Node13</title>
<g id="a_node13"><a xlink:href="classSMSBL.html#ab30182e17e24e06310858c14452a8225" target="_top" xlink:title=" ">
<polygon fill="white" stroke="black" points="14,-190.5 14,-209.5 111,-209.5 111,-190.5 14,-190.5"/>
<text text-anchor="middle" x="62.5" y="-197.5" font-family="Helvetica,sans-Serif" font-size="10.00">SMSBL::ReadPos</text>
</a>
</g>
</g>
<!-- Node2&#45;&gt;Node13 -->
<g id="edge12" class="edge">
<title>Node2&#45;&gt;Node13</title>
<path fill="none" stroke="midnightblue" d="M190.38,-289.19C180.01,-286.35 169.65,-282.16 161,-276 136.6,-258.62 148.79,-237.22 125,-219 119.94,-215.13 114.09,-212.04 108.04,-209.57"/>
<polygon fill="midnightblue" stroke="midnightblue" points="189.75,-292.64 200.28,-291.52 191.35,-285.82 189.75,-292.64"/>
</g>
<!-- Node14 -->
<g id="node14" class="node">
<title>Node14</title>
<g id="a_node14"><a xlink:href="classSMSCL.html#a9752b00d1c71089ea047376f5717d3d9" target="_top" xlink:title=" ">
<polygon fill="white" stroke="black" points="13.5,-152.5 13.5,-171.5 111.5,-171.5 111.5,-152.5 13.5,-152.5"/>
<text text-anchor="middle" x="62.5" y="-159.5" font-family="Helvetica,sans-Serif" font-size="10.00">SMSCL::ReadPos</text>
</a>
</g>
</g>
<!-- Node2&#45;&gt;Node14 -->
<g id="edge13" class="edge">
<title>Node2&#45;&gt;Node14</title>
<path fill="none" stroke="midnightblue" d="M190.34,-290.74C179.69,-287.82 169.23,-283.21 161,-276 127.04,-246.24 157.91,-211.91 125,-181 120.85,-177.1 115.91,-174 110.66,-171.53"/>
<polygon fill="midnightblue" stroke="midnightblue" points="189.58,-294.15 200.11,-292.96 191.13,-287.33 189.58,-294.15"/>
</g>
<!-- Node15 -->
<g id="node15" class="node">
<title>Node15</title>
<g id="a_node15"><a xlink:href="classSCSCL.html#a317a058c5e86e268379754c55cbdbb02" target="_top" xlink:title=" ">
<polygon fill="white" stroke="black" points="9,-114.5 9,-133.5 116,-133.5 116,-114.5 9,-114.5"/>
<text text-anchor="middle" x="62.5" y="-121.5" font-family="Helvetica,sans-Serif" font-size="10.00">SCSCL::ReadSpeed</text>
</a>
</g>
</g>
<!-- Node2&#45;&gt;Node15 -->
<g id="edge14" class="edge">
<title>Node2&#45;&gt;Node15</title>
<path fill="none" stroke="midnightblue" d="M190.44,-291.5C179.6,-288.57 169.03,-283.76 161,-276 116.97,-233.44 167.53,-187.06 125,-143 121.27,-139.14 116.78,-136.06 111.95,-133.6"/>
<polygon fill="midnightblue" stroke="midnightblue" points="189.89,-294.96 200.41,-293.69 191.4,-288.12 189.89,-294.96"/>
</g>
<!-- Node16 -->
<g id="node16" class="node">
<title>Node16</title>
<g id="a_node16"><a xlink:href="classSMS__STS.html#a95175bc74823453d27161f5550b82d72" target="_top" xlink:title=" ">
<polygon fill="white" stroke="black" points="2.5,-76.5 2.5,-95.5 122.5,-95.5 122.5,-76.5 2.5,-76.5"/>
<text text-anchor="middle" x="62.5" y="-83.5" font-family="Helvetica,sans-Serif" font-size="10.00">SMS_STS::ReadSpeed</text>
</a>
</g>
</g>
<!-- Node2&#45;&gt;Node16 -->
<g id="edge15" class="edge">
<title>Node2&#45;&gt;Node16</title>
<path fill="none" stroke="midnightblue" d="M190.12,-291.83C179.29,-288.88 168.81,-283.99 161,-276 106.71,-220.46 177.33,-162.39 125,-105 121.46,-101.12 117.15,-98.02 112.47,-95.55"/>
<polygon fill="midnightblue" stroke="midnightblue" points="189.57,-295.29 200.09,-294.01 191.07,-288.45 189.57,-295.29"/>
</g>
<!-- Node17 -->
<g id="node17" class="node">
<title>Node17</title>
<g id="a_node17"><a xlink:href="classSMSBL.html#a448f5b844c96922ec0c0b02d4a94e10e" target="_top" xlink:title=" ">
<polygon fill="white" stroke="black" points="9,-38.5 9,-57.5 116,-57.5 116,-38.5 9,-38.5"/>
<text text-anchor="middle" x="62.5" y="-45.5" font-family="Helvetica,sans-Serif" font-size="10.00">SMSBL::ReadSpeed</text>
</a>
</g>
</g>
<!-- Node2&#45;&gt;Node17 -->
<g id="edge16" class="edge">
<title>Node2&#45;&gt;Node17</title>
<path fill="none" stroke="midnightblue" d="M190.22,-292.12C179.29,-289.18 168.73,-284.21 161,-276 96.37,-207.39 187.21,-137.81 125,-67 121.61,-63.14 117.45,-60.05 112.91,-57.58"/>
<polygon fill="midnightblue" stroke="midnightblue" points="189.78,-295.61 200.3,-294.29 191.26,-288.76 189.78,-295.61"/>
</g>
<!-- Node18 -->
<g id="node18" class="node">
<title>Node18</title>
<g id="a_node18"><a xlink:href="classSMSCL.html#a2566b75189b470b656f35dcec399ad0f" target="_top" xlink:title=" ">
<polygon fill="white" stroke="black" points="8.5,-0.5 8.5,-19.5 116.5,-19.5 116.5,-0.5 8.5,-0.5"/>
<text text-anchor="middle" x="62.5" y="-7.5" font-family="Helvetica,sans-Serif" font-size="10.00">SMSCL::ReadSpeed</text>
</a>
</g>
</g>
<!-- Node2&#45;&gt;Node18 -->
<g id="edge17" class="edge">
<title>Node2&#45;&gt;Node18</title>
<path fill="none" stroke="midnightblue" d="M190.07,-292.27C179.14,-289.32 168.63,-284.31 161,-276 85.99,-194.27 197.14,-113.28 125,-29 121.73,-25.18 117.71,-22.12 113.3,-19.66"/>
<polygon fill="midnightblue" stroke="midnightblue" points="189.63,-295.75 200.15,-294.43 191.1,-288.91 189.63,-295.75"/>
</g>
</g>
</svg>
        <g id="navigator" transform="translate(0 0)" fill="#404254">
                <rect fill="#f2f5e9" fill-opacity="0.5" stroke="#606060" stroke-width=".5" x="0" y="0" width="60" height="60"/>
                <use id="zoomplus" xlink:href="#zoomPlus" x="17" y="9" onmousedown="handleZoom(evt,'in')"/>
                <use id="zoomminus" xlink:href="#zoomMin" x="42" y="9" onmousedown="handleZoom(evt,'out')"/>
                <use id="reset" xlink:href="#resetDef" x="30" y="36" onmousedown="handleReset()"/>
                <g id="arrowUp" xlink:href="#dirArrow" transform="translate(30 24)" onmousedown="handlePan(0,-1)">
                  <use xlink:href="#rim" fill="#404040">
                        <set attributeName="fill" to="#808080" begin="arrowUp.mouseover" end="arrowUp.mouseout"/>
                  </use>
                  <path fill="none" stroke="white" stroke-width="1.5" d="M0,-3.0v7 M-2.5,-0.5L0,-3.0L2.5,-0.5"/>
                </g>
                <g id="arrowRight" xlink:href="#dirArrow" transform="rotate(90) translate(36 -43)" onmousedown="handlePan(1,0)">
                  <use xlink:href="#rim" fill="#404040">
                        <set attributeName="fill" to="#808080" begin="arrowRight.mouseover" end="arrowRight.mouseout"/>
                  </use>
                  <path fill="none" stroke="white" stroke-width="1.5" d="M0,-3.0v7 M-2.5,-0.5L0,-3.0L2.5,-0.5"/>
                </g>
                <g id="arrowDown" xlink:href="#dirArrow" transform="rotate(180) translate(-30 -48)" onmousedown="handlePan(0,1)">
                  <use xlink:href="#rim" fill="#404040">
                        <set attributeName="fill" to="#808080" begin="arrowDown.mouseover" end="arrowDown.mouseout"/>
                  </use>
                  <path fill="none" stroke="white" stroke-width="1.5" d="M0,-3.0v7 M-2.5,-0.5L0,-3.0L2.5,-0.5"/>
                </g>
                <g id="arrowLeft" xlink:href="#dirArrow" transform="rotate(270) translate(-36 17)" onmousedown="handlePan(-1,0)">
                  <use xlink:href="#rim" fill="#404040">
                        <set attributeName="fill" to="#808080" begin="arrowLeft.mouseover" end="arrowLeft.mouseout"/>
                  </use>
                  <path fill="none" stroke="white" stroke-width="1.5" d="M0,-3.0v7 M-2.5,-0.5L0,-3.0L2.5,-0.5"/>
                </g>
        </g>
        <svg viewBox="0 0 15 15" width="100%" height="30px" preserveAspectRatio="xMaxYMin meet">
         <g id="arrow_out" transform="scale(0.3 0.3)">
          <a xlink:href="classSCS_a67f5b9706b79ac85ef02fb9d3ec2f0b6_icgraph_org.svg" target="_base">
           <rect id="button" ry="5" rx="5" y="6" x="6" height="38" width="38"
                fill="#f2f5e9" fill-opacity="0.5" stroke="#606060" stroke-width="1.0"/>
           <path id="arrow"
             d="M 11.500037,31.436501 C 11.940474,20.09759 22.043105,11.32322 32.158766,21.979434 L 37.068811,17.246167 C 37.068811,17.246167 37.088388,32 37.088388,32 L 22.160133,31.978069 C 22.160133,31.978069 26.997745,27.140456 26.997745,27.140456 C 18.528582,18.264221 13.291696,25.230495 11.500037,31.436501 z"
             style="fill:#404040;"/>
          </a>
         </g>
        </svg>
</svg>
