<?xml version="1.0" encoding="UTF-8" standalone="no"?>
<!DOCTYPE svg PUBLIC "-//W3C//DTD SVG 1.1//EN"
 "http://www.w3.org/Graphics/SVG/1.1/DTD/svg11.dtd">
<!-- Generated by graphviz version 2.43.0 (0)
 -->
<!-- Title: SCS::syncWrite Pages: 1 -->
<svg width="274pt" height="218pt"
 viewBox="0.00 0.00 274.00 218.00" xmlns="http://www.w3.org/2000/svg" xmlns:xlink="http://www.w3.org/1999/xlink">
<g id="graph0" class="graph" transform="scale(1 1) rotate(0) translate(4 214)">
<title>SCS::syncWrite</title>
<polygon fill="white" stroke="transparent" points="-4,4 -4,-214 270,-214 270,4 -4,4"/>
<!-- Node1 -->
<g id="node1" class="node">
<title>Node1</title>
<g id="a_node1"><a xlink:title=" ">
<polygon fill="#bfbfbf" stroke="black" points="179,-95.5 179,-114.5 266,-114.5 266,-95.5 179,-95.5"/>
<text text-anchor="middle" x="222.5" y="-102.5" font-family="Helvetica,sans-Serif" font-size="10.00">SCS::syncWrite</text>
</a>
</g>
</g>
<!-- Node2 -->
<g id="node2" class="node">
<title>Node2</title>
<g id="a_node2"><a xlink:href="classSCSCL.html#a8842a571f69fd2aa7df7325cba935887" target="_top" xlink:title=" ">
<polygon fill="white" stroke="black" points="12,-190.5 12,-209.5 131,-209.5 131,-190.5 12,-190.5"/>
<text text-anchor="middle" x="71.5" y="-197.5" font-family="Helvetica,sans-Serif" font-size="10.00">SCSCL::SyncWritePos</text>
</a>
</g>
</g>
<!-- Node1&#45;&gt;Node2 -->
<g id="edge1" class="edge">
<title>Node1&#45;&gt;Node2</title>
<path fill="none" stroke="midnightblue" d="M207.82,-122.7C193.49,-140.05 169.41,-166.01 143,-181 136.16,-184.88 128.51,-187.99 120.82,-190.49"/>
<polygon fill="midnightblue" stroke="midnightblue" points="210.86,-124.5 214.39,-114.51 205.4,-120.12 210.86,-124.5"/>
</g>
<!-- Node3 -->
<g id="node3" class="node">
<title>Node3</title>
<g id="a_node3"><a xlink:href="classSMS__STS.html#ae46cbc3f740119af06541dcda7de4efd" target="_top" xlink:title=" ">
<polygon fill="white" stroke="black" points="0,-152.5 0,-171.5 143,-171.5 143,-152.5 0,-152.5"/>
<text text-anchor="middle" x="71.5" y="-159.5" font-family="Helvetica,sans-Serif" font-size="10.00">SMS_STS::SyncWritePosEx</text>
</a>
</g>
</g>
<!-- Node1&#45;&gt;Node3 -->
<g id="edge2" class="edge">
<title>Node1&#45;&gt;Node3</title>
<path fill="none" stroke="midnightblue" d="M194.98,-119.38C180.02,-127.1 160.81,-136.36 143,-143 133.5,-146.54 123.05,-149.73 113.18,-152.43"/>
<polygon fill="midnightblue" stroke="midnightblue" points="196.91,-122.32 204.14,-114.57 193.66,-116.12 196.91,-122.32"/>
</g>
<!-- Node4 -->
<g id="node4" class="node">
<title>Node4</title>
<g id="a_node4"><a xlink:href="classSMSBL.html#a609e9dfce27e58f79dcbb61d5aa770aa" target="_top" xlink:title=" ">
<polygon fill="white" stroke="black" points="6,-114.5 6,-133.5 137,-133.5 137,-114.5 6,-114.5"/>
<text text-anchor="middle" x="71.5" y="-121.5" font-family="Helvetica,sans-Serif" font-size="10.00">SMSBL::SyncWritePosEx</text>
</a>
</g>
</g>
<!-- Node1&#45;&gt;Node4 -->
<g id="edge3" class="edge">
<title>Node1&#45;&gt;Node4</title>
<path fill="none" stroke="midnightblue" d="M168.8,-111.72C158.56,-113.03 147.72,-114.41 137.15,-115.76"/>
<polygon fill="midnightblue" stroke="midnightblue" points="169.33,-115.18 178.8,-110.44 168.44,-108.24 169.33,-115.18"/>
</g>
<!-- Node5 -->
<g id="node5" class="node">
<title>Node5</title>
<g id="a_node5"><a xlink:href="classSMSCL.html#a38223dcc9357b6501dae3fa3e6e0749e" target="_top" xlink:title=" ">
<polygon fill="white" stroke="black" points="6,-76.5 6,-95.5 137,-95.5 137,-76.5 6,-76.5"/>
<text text-anchor="middle" x="71.5" y="-83.5" font-family="Helvetica,sans-Serif" font-size="10.00">SMSCL::SyncWritePosEx</text>
</a>
</g>
</g>
<!-- Node1&#45;&gt;Node5 -->
<g id="edge4" class="edge">
<title>Node1&#45;&gt;Node5</title>
<path fill="none" stroke="midnightblue" d="M168.8,-98.28C158.56,-96.97 147.72,-95.59 137.15,-94.24"/>
<polygon fill="midnightblue" stroke="midnightblue" points="168.44,-101.76 178.8,-99.56 169.33,-94.82 168.44,-101.76"/>
</g>
<!-- Node6 -->
<g id="node6" class="node">
<title>Node6</title>
<g id="a_node6"><a xlink:href="classSMS__STS.html#af50b854cff7c2530d7431fd80a46cbc7" target="_top" xlink:title=" ">
<polygon fill="white" stroke="black" points="3,-38.5 3,-57.5 140,-57.5 140,-38.5 3,-38.5"/>
<text text-anchor="middle" x="71.5" y="-45.5" font-family="Helvetica,sans-Serif" font-size="10.00">SMS_STS::SyncWritePwm</text>
</a>
</g>
</g>
<!-- Node1&#45;&gt;Node6 -->
<g id="edge5" class="edge">
<title>Node1&#45;&gt;Node6</title>
<path fill="none" stroke="midnightblue" d="M194.98,-90.62C180.02,-82.9 160.81,-73.64 143,-67 133.5,-63.46 123.05,-60.27 113.18,-57.57"/>
<polygon fill="midnightblue" stroke="midnightblue" points="193.66,-93.88 204.14,-95.43 196.91,-87.68 193.66,-93.88"/>
</g>
<!-- Node7 -->
<g id="node7" class="node">
<title>Node7</title>
<g id="a_node7"><a xlink:href="classSMS__STS.html#a49f1260120eabb4ad999ab4615f37342" target="_top" xlink:title=" ">
<polygon fill="white" stroke="black" points="6,-0.5 6,-19.5 137,-19.5 137,-0.5 6,-0.5"/>
<text text-anchor="middle" x="71.5" y="-7.5" font-family="Helvetica,sans-Serif" font-size="10.00">SMS_STS::SyncWriteSpe</text>
</a>
</g>
</g>
<!-- Node1&#45;&gt;Node7 -->
<g id="edge6" class="edge">
<title>Node1&#45;&gt;Node7</title>
<path fill="none" stroke="midnightblue" d="M207.82,-87.3C193.49,-69.95 169.41,-43.99 143,-29 136.16,-25.12 128.51,-22.01 120.82,-19.51"/>
<polygon fill="midnightblue" stroke="midnightblue" points="205.4,-89.88 214.39,-95.49 210.86,-85.5 205.4,-89.88"/>
</g>
</g>
</svg>
