<?xml version="1.0" encoding="UTF-8" standalone="no"?>
<!DOCTYPE svg PUBLIC "-//W3C//DTD SVG 1.1//EN"
 "http://www.w3.org/Graphics/SVG/1.1/DTD/svg11.dtd">
<!-- Generated by graphviz version 2.43.0 (0)
 -->
<!-- Title: SMSBL::ReadSpeed Pages: 1 -->
<svg width="617pt" height="142pt"
 viewBox="0.00 0.00 617.00 142.00" xmlns="http://www.w3.org/2000/svg" xmlns:xlink="http://www.w3.org/1999/xlink">
<g id="graph0" class="graph" transform="scale(1 1) rotate(0) translate(4 138)">
<title>SMSBL::ReadSpeed</title>
<polygon fill="white" stroke="transparent" points="-4,4 -4,-138 613,-138 613,4 -4,4"/>
<!-- Node1 -->
<g id="node1" class="node">
<title>Node1</title>
<g id="a_node1"><a xlink:title=" ">
<polygon fill="#bfbfbf" stroke="black" points="0,-38.5 0,-57.5 107,-57.5 107,-38.5 0,-38.5"/>
<text text-anchor="middle" x="53.5" y="-45.5" font-family="Helvetica,sans-Serif" font-size="10.00">SMSBL::ReadSpeed</text>
</a>
</g>
</g>
<!-- Node2 -->
<g id="node2" class="node">
<title>Node2</title>
<g id="a_node2"><a xlink:href="classSCS.html#a73580046b2ee5dc22b326d2d6d01bb35" target="_top" xlink:title=" ">
<polygon fill="white" stroke="black" points="143,-38.5 143,-57.5 228,-57.5 228,-38.5 143,-38.5"/>
<text text-anchor="middle" x="185.5" y="-45.5" font-family="Helvetica,sans-Serif" font-size="10.00">SCS::readWord</text>
</a>
</g>
</g>
<!-- Node1&#45;&gt;Node2 -->
<g id="edge1" class="edge">
<title>Node1&#45;&gt;Node2</title>
<path fill="none" stroke="midnightblue" d="M107,-48C115.52,-48 124.33,-48 132.83,-48"/>
<polygon fill="midnightblue" stroke="midnightblue" points="132.99,-51.5 142.99,-48 132.99,-44.5 132.99,-51.5"/>
</g>
<!-- Node3 -->
<g id="node3" class="node">
<title>Node3</title>
<g id="a_node3"><a xlink:href="classSCS.html#a7d5573c3681d3afaa085f92f583a0dad" target="_top" xlink:title=" ">
<polygon fill="white" stroke="black" points="276,-57.5 276,-76.5 343,-76.5 343,-57.5 276,-57.5"/>
<text text-anchor="middle" x="309.5" y="-64.5" font-family="Helvetica,sans-Serif" font-size="10.00">SCS::Read</text>
</a>
</g>
</g>
<!-- Node2&#45;&gt;Node3 -->
<g id="edge2" class="edge">
<title>Node2&#45;&gt;Node3</title>
<path fill="none" stroke="midnightblue" d="M228.14,-54.49C240.33,-56.38 253.67,-58.46 265.92,-60.37"/>
<polygon fill="midnightblue" stroke="midnightblue" points="265.48,-63.84 275.9,-61.92 266.55,-56.92 265.48,-63.84"/>
</g>
<!-- Node9 -->
<g id="node9" class="node">
<title>Node9</title>
<g id="a_node9"><a xlink:href="classSCS.html#a67f5b9706b79ac85ef02fb9d3ec2f0b6" target="_top" xlink:title=" ">
<polygon fill="white" stroke="black" points="264,-19.5 264,-38.5 355,-38.5 355,-19.5 264,-19.5"/>
<text text-anchor="middle" x="309.5" y="-26.5" font-family="Helvetica,sans-Serif" font-size="10.00">SCS::SCS2Host</text>
</a>
</g>
</g>
<!-- Node2&#45;&gt;Node9 -->
<g id="edge8" class="edge">
<title>Node2&#45;&gt;Node9</title>
<path fill="none" stroke="midnightblue" d="M228.14,-41.51C236.38,-40.23 245.14,-38.87 253.74,-37.53"/>
<polygon fill="midnightblue" stroke="midnightblue" points="254.36,-40.97 263.71,-35.98 253.29,-34.06 254.36,-40.97"/>
</g>
<!-- Node4 -->
<g id="node4" class="node">
<title>Node4</title>
<g id="a_node4"><a xlink:href="classSCS.html#a7e23a5d866557da06108d326cb2055b9" target="_top" xlink:title=" ">
<polygon fill="white" stroke="black" points="397.5,-114.5 397.5,-133.5 480.5,-133.5 480.5,-114.5 397.5,-114.5"/>
<text text-anchor="middle" x="439" y="-121.5" font-family="Helvetica,sans-Serif" font-size="10.00">SCS::readSCS</text>
</a>
</g>
</g>
<!-- Node3&#45;&gt;Node4 -->
<g id="edge3" class="edge">
<title>Node3&#45;&gt;Node4</title>
<path fill="none" stroke="midnightblue" d="M329.88,-76.53C346.1,-84.41 369.91,-95.77 391,-105 395.2,-106.84 399.63,-108.71 404.02,-110.53"/>
<polygon fill="midnightblue" stroke="midnightblue" points="402.91,-113.86 413.5,-114.4 405.56,-107.38 402.91,-113.86"/>
</g>
<!-- Node5 -->
<g id="node5" class="node">
<title>Node5</title>
<g id="a_node5"><a xlink:href="classSCS.html#a856da9cc4c2a6d86984c3a314bfd87c9" target="_top" xlink:title=" ">
<polygon fill="white" stroke="black" points="393,-76.5 393,-95.5 485,-95.5 485,-76.5 393,-76.5"/>
<text text-anchor="middle" x="439" y="-83.5" font-family="Helvetica,sans-Serif" font-size="10.00">SCS::rFlushSCS</text>
</a>
</g>
</g>
<!-- Node3&#45;&gt;Node5 -->
<g id="edge4" class="edge">
<title>Node3&#45;&gt;Node5</title>
<path fill="none" stroke="midnightblue" d="M343,-71.84C355,-73.63 368.95,-75.71 382.41,-77.72"/>
<polygon fill="midnightblue" stroke="midnightblue" points="382.16,-81.22 392.57,-79.23 383.19,-74.29 382.16,-81.22"/>
</g>
<!-- Node6 -->
<g id="node6" class="node">
<title>Node6</title>
<g id="a_node6"><a xlink:href="classSCS.html#ad860b40280cba5d8ea5214cca6c70119" target="_top" xlink:title=" ">
<polygon fill="white" stroke="black" points="391,-38.5 391,-57.5 487,-57.5 487,-38.5 391,-38.5"/>
<text text-anchor="middle" x="439" y="-45.5" font-family="Helvetica,sans-Serif" font-size="10.00">SCS::wFlushSCS</text>
</a>
</g>
</g>
<!-- Node3&#45;&gt;Node6 -->
<g id="edge5" class="edge">
<title>Node3&#45;&gt;Node6</title>
<path fill="none" stroke="midnightblue" d="M343,-62.16C354.41,-60.46 367.6,-58.49 380.44,-56.58"/>
<polygon fill="midnightblue" stroke="midnightblue" points="381.26,-59.99 390.63,-55.06 380.23,-53.07 381.26,-59.99"/>
</g>
<!-- Node7 -->
<g id="node7" class="node">
<title>Node7</title>
<g id="a_node7"><a xlink:href="classSCS.html#aa4af18b8b9f34649cd1e8aadde6d9b1f" target="_top" xlink:title=" ">
<polygon fill="white" stroke="black" points="399,-0.5 399,-19.5 479,-19.5 479,-0.5 399,-0.5"/>
<text text-anchor="middle" x="439" y="-7.5" font-family="Helvetica,sans-Serif" font-size="10.00">SCS::writeBuf</text>
</a>
</g>
</g>
<!-- Node3&#45;&gt;Node7 -->
<g id="edge6" class="edge">
<title>Node3&#45;&gt;Node7</title>
<path fill="none" stroke="midnightblue" d="M333.76,-57.5C340.65,-54.57 348.17,-51.25 355,-48 371.33,-40.22 374.59,-36.62 391,-29 395.06,-27.11 399.36,-25.23 403.65,-23.41"/>
<polygon fill="midnightblue" stroke="midnightblue" points="405.01,-26.64 412.92,-19.59 402.34,-20.17 405.01,-26.64"/>
</g>
<!-- Node8 -->
<g id="node8" class="node">
<title>Node8</title>
<g id="a_node8"><a xlink:href="classSCS.html#a863a8f5eabdddf9d7500698d4ccff05e" target="_top" xlink:title=" ">
<polygon fill="white" stroke="black" points="523,-0.5 523,-19.5 609,-19.5 609,-0.5 523,-0.5"/>
<text text-anchor="middle" x="566" y="-7.5" font-family="Helvetica,sans-Serif" font-size="10.00">SCS::writeSCS</text>
</a>
</g>
</g>
<!-- Node7&#45;&gt;Node8 -->
<g id="edge7" class="edge">
<title>Node7&#45;&gt;Node8</title>
<path fill="none" stroke="midnightblue" d="M479.21,-10C489.84,-10 501.53,-10 512.76,-10"/>
<polygon fill="midnightblue" stroke="midnightblue" points="512.9,-13.5 522.9,-10 512.9,-6.5 512.9,-13.5"/>
</g>
</g>
</svg>
