<?xml version="1.0" encoding="UTF-8" standalone="no"?>
<!DOCTYPE svg PUBLIC "-//W3C//DTD SVG 1.1//EN"
 "http://www.w3.org/Graphics/SVG/1.1/DTD/svg11.dtd">
<!-- Generated by graphviz version 2.43.0 (0)
 -->
<!-- Title: SCS Pages: 1 -->
<svg width="276pt" height="161pt"
 viewBox="0.00 0.00 275.50 161.00" xmlns="http://www.w3.org/2000/svg" xmlns:xlink="http://www.w3.org/1999/xlink">
<g id="graph0" class="graph" transform="scale(1 1) rotate(0) translate(4 157)">
<title>SCS</title>
<polygon fill="white" stroke="transparent" points="-4,4 -4,-157 271.5,-157 271.5,4 -4,4"/>
<!-- Node1 -->
<g id="node1" class="node">
<title>Node1</title>
<g id="a_node1"><a xlink:title=" ">
<polygon fill="#bfbfbf" stroke="black" points="86.5,-0.5 86.5,-19.5 124.5,-19.5 124.5,-0.5 86.5,-0.5"/>
<text text-anchor="middle" x="105.5" y="-7.5" font-family="Helvetica,sans-Serif" font-size="10.00">SCS</text>
</a>
</g>
</g>
<!-- Node2 -->
<g id="node2" class="node">
<title>Node2</title>
<g id="a_node2"><a xlink:title=" ">
<polygon fill="white" stroke="#bfbfbf" points="0,-133.5 0,-152.5 77,-152.5 77,-133.5 0,-133.5"/>
<text text-anchor="middle" x="38.5" y="-140.5" font-family="Helvetica,sans-Serif" font-size="10.00">unsigned char</text>
</a>
</g>
</g>
<!-- Node2&#45;&gt;Node1 -->
<g id="edge1" class="edge">
<title>Node2&#45;&gt;Node1</title>
<path fill="none" stroke="#9a32cd" stroke-dasharray="5,2" d="M32.95,-123.37C27.5,-101.03 22.24,-63.44 39.5,-38 49.92,-22.63 70.79,-16 86.29,-13.15"/>
<polygon fill="#9a32cd" stroke="#9a32cd" points="29.64,-124.51 35.63,-133.25 36.39,-122.68 29.64,-124.51"/>
<text text-anchor="middle" x="95.5" y="-107" font-family="Helvetica,sans-Serif" font-size="10.00"> End</text>
<text text-anchor="middle" x="95.5" y="-96" font-family="Helvetica,sans-Serif" font-size="10.00">Error</text>
<text text-anchor="middle" x="95.5" y="-85" font-family="Helvetica,sans-Serif" font-size="10.00">Level</text>
<text text-anchor="middle" x="95.5" y="-74" font-family="Helvetica,sans-Serif" font-size="10.00">syncReadRxBuff</text>
<text text-anchor="middle" x="95.5" y="-63" font-family="Helvetica,sans-Serif" font-size="10.00">syncReadRxPacket</text>
<text text-anchor="middle" x="95.5" y="-52" font-family="Helvetica,sans-Serif" font-size="10.00">syncReadRxPacketIndex</text>
<text text-anchor="middle" x="95.5" y="-41" font-family="Helvetica,sans-Serif" font-size="10.00">syncReadRxPacketLen</text>
</g>
<!-- Node3 -->
<g id="node3" class="node">
<title>Node3</title>
<g id="a_node3"><a xlink:title=" ">
<polygon fill="white" stroke="#bfbfbf" points="133.5,-133.5 133.5,-152.5 213.5,-152.5 213.5,-133.5 133.5,-133.5"/>
<text text-anchor="middle" x="173.5" y="-140.5" font-family="Helvetica,sans-Serif" font-size="10.00">unsigned short</text>
</a>
</g>
</g>
<!-- Node3&#45;&gt;Node1 -->
<g id="edge2" class="edge">
<title>Node3&#45;&gt;Node1</title>
<path fill="none" stroke="#9a32cd" stroke-dasharray="5,2" d="M173.92,-123.08C173.5,-100.73 169.78,-63.38 151.5,-38 144.9,-28.83 134.14,-22.27 124.69,-17.91"/>
<polygon fill="#9a32cd" stroke="#9a32cd" points="170.42,-123.25 173.91,-133.26 177.42,-123.27 170.42,-123.25"/>
<text text-anchor="middle" x="220.5" y="-79.5" font-family="Helvetica,sans-Serif" font-size="10.00"> syncReadRxBuffLen</text>
<text text-anchor="middle" x="220.5" y="-68.5" font-family="Helvetica,sans-Serif" font-size="10.00">syncReadRxBuffMax</text>
</g>
</g>
</svg>
