<?xml version="1.0" encoding="UTF-8" standalone="no"?>
<!DOCTYPE svg PUBLIC "-//W3C//DTD SVG 1.1//EN"
 "http://www.w3.org/Graphics/SVG/1.1/DTD/svg11.dtd">
<!-- Generated by graphviz version 2.43.0 (0)
 -->
<!-- Title: SMS_STS::ReadVoltage Pages: 1 -->
<!--zoomable 142 -->
<svg id="main" version="1.1" xmlns="http://www.w3.org/2000/svg" xmlns:xlink="http://www.w3.org/1999/xlink" xml:space="preserve" onload="init(evt)">
<style type="text/css"><![CDATA[
.edge:hover path { stroke: red; }
.edge:hover polygon { stroke: red; fill: red; }
]]></style>
<script type="text/javascript"><![CDATA[
var edges = document.getElementsByTagName('g');
if (edges && edges.length) {
  for (var i=0;i<edges.length;i++) {
    if (edges[i].id.substr(0,4)=='edge') {
      edges[i].setAttribute('class','edge');
    }
  }
}
]]></script>
        <defs>
                <circle id="rim" cx="0" cy="0" r="7"/>
                <circle id="rim2" cx="0" cy="0" r="3.5"/>
                <g id="zoomPlus">
                        <use xlink:href="#rim" fill="#404040">
                                <set attributeName="fill" to="#808080" begin="zoomplus.mouseover" end="zoomplus.mouseout"/>
                        </use>
                        <path d="M-4,0h8M0,-4v8" fill="none" stroke="white" stroke-width="1.5" pointer-events="none"/>
                </g>
                <g id="zoomMin">
                        <use xlink:href="#rim" fill="#404040">
                                <set attributeName="fill" to="#808080" begin="zoomminus.mouseover" end="zoomminus.mouseout"/>
                        </use>
                        <path d="M-4,0h8" fill="none" stroke="white" stroke-width="1.5" pointer-events="none"/>
                </g>
                <g id="dirArrow">
                        <path fill="none" stroke="white" stroke-width="1.5" d="M0,-3.0v7 M-2.5,-0.5L0,-3.0L2.5,-0.5"/>
                </g>
               <g id="resetDef">
                       <use xlink:href="#rim2" fill="#404040">
                               <set attributeName="fill" to="#808080" begin="reset.mouseover" end="reset.mouseout"/>
                       </use>
               </g>
        </defs>

<script type="text/javascript">
var viewWidth = 609;
var viewHeight = 142;
var sectionId = 'dynsection-13';
</script>
<script xlink:href="svgpan.js"/>
<svg id="graph" class="graph">
<g id="viewport">
<title>SMS_STS::ReadVoltage</title>
<polygon fill="white" stroke="transparent" points="-4,4 -4,-138 605,-138 605,4 -4,4"/>
<!-- Node1 -->
<g id="node1" class="node">
<title>Node1</title>
<g id="a_node1"><a xlink:title=" ">
<polygon fill="#bfbfbf" stroke="black" points="0,-57.5 0,-76.5 125,-76.5 125,-57.5 0,-57.5"/>
<text text-anchor="middle" x="62.5" y="-64.5" font-family="Helvetica,sans-Serif" font-size="10.00">SMS_STS::ReadVoltage</text>
</a>
</g>
</g>
<!-- Node2 -->
<g id="node2" class="node">
<title>Node2</title>
<g id="a_node2"><a xlink:href="classSCS.html#a53f169d695ac021846b259abbe410d4f" target="_top" xlink:title=" ">
<polygon fill="white" stroke="black" points="161,-57.5 161,-76.5 244,-76.5 244,-57.5 161,-57.5"/>
<text text-anchor="middle" x="202.5" y="-64.5" font-family="Helvetica,sans-Serif" font-size="10.00">SCS::readByte</text>
</a>
</g>
</g>
<!-- Node1&#45;&gt;Node2 -->
<g id="edge1" class="edge">
<title>Node1&#45;&gt;Node2</title>
<path fill="none" stroke="midnightblue" d="M125.23,-67C133.71,-67 142.34,-67 150.59,-67"/>
<polygon fill="midnightblue" stroke="midnightblue" points="150.81,-70.5 160.81,-67 150.81,-63.5 150.81,-70.5"/>
</g>
<!-- Node3 -->
<g id="node3" class="node">
<title>Node3</title>
<g id="a_node3"><a xlink:href="classSCS.html#a7d5573c3681d3afaa085f92f583a0dad" target="_top" xlink:title=" ">
<polygon fill="white" stroke="black" points="280,-57.5 280,-76.5 347,-76.5 347,-57.5 280,-57.5"/>
<text text-anchor="middle" x="313.5" y="-64.5" font-family="Helvetica,sans-Serif" font-size="10.00">SCS::Read</text>
</a>
</g>
</g>
<!-- Node2&#45;&gt;Node3 -->
<g id="edge2" class="edge">
<title>Node2&#45;&gt;Node3</title>
<path fill="none" stroke="midnightblue" d="M244.09,-67C252.44,-67 261.25,-67 269.67,-67"/>
<polygon fill="midnightblue" stroke="midnightblue" points="269.7,-70.5 279.7,-67 269.7,-63.5 269.7,-70.5"/>
</g>
<!-- Node4 -->
<g id="node4" class="node">
<title>Node4</title>
<g id="a_node4"><a xlink:href="classSCS.html#a7e23a5d866557da06108d326cb2055b9" target="_top" xlink:title=" ">
<polygon fill="white" stroke="black" points="389.5,-114.5 389.5,-133.5 472.5,-133.5 472.5,-114.5 389.5,-114.5"/>
<text text-anchor="middle" x="431" y="-121.5" font-family="Helvetica,sans-Serif" font-size="10.00">SCS::readSCS</text>
</a>
</g>
</g>
<!-- Node3&#45;&gt;Node4 -->
<g id="edge3" class="edge">
<title>Node3&#45;&gt;Node4</title>
<path fill="none" stroke="midnightblue" d="M330.54,-76.63C344.24,-84.68 364.59,-96.21 383,-105 386.84,-106.83 390.91,-108.65 394.98,-110.4"/>
<polygon fill="midnightblue" stroke="midnightblue" points="393.81,-113.7 404.39,-114.31 396.49,-107.24 393.81,-113.7"/>
</g>
<!-- Node5 -->
<g id="node5" class="node">
<title>Node5</title>
<g id="a_node5"><a xlink:href="classSCS.html#a856da9cc4c2a6d86984c3a314bfd87c9" target="_top" xlink:title=" ">
<polygon fill="white" stroke="black" points="385,-76.5 385,-95.5 477,-95.5 477,-76.5 385,-76.5"/>
<text text-anchor="middle" x="431" y="-83.5" font-family="Helvetica,sans-Serif" font-size="10.00">SCS::rFlushSCS</text>
</a>
</g>
</g>
<!-- Node3&#45;&gt;Node5 -->
<g id="edge4" class="edge">
<title>Node3&#45;&gt;Node5</title>
<path fill="none" stroke="midnightblue" d="M347.29,-72.39C355.81,-73.8 365.23,-75.35 374.57,-76.88"/>
<polygon fill="midnightblue" stroke="midnightblue" points="374.19,-80.37 384.63,-78.54 375.33,-73.46 374.19,-80.37"/>
</g>
<!-- Node6 -->
<g id="node6" class="node">
<title>Node6</title>
<g id="a_node6"><a xlink:href="classSCS.html#ad860b40280cba5d8ea5214cca6c70119" target="_top" xlink:title=" ">
<polygon fill="white" stroke="black" points="383,-38.5 383,-57.5 479,-57.5 479,-38.5 383,-38.5"/>
<text text-anchor="middle" x="431" y="-45.5" font-family="Helvetica,sans-Serif" font-size="10.00">SCS::wFlushSCS</text>
</a>
</g>
</g>
<!-- Node3&#45;&gt;Node6 -->
<g id="edge5" class="edge">
<title>Node3&#45;&gt;Node6</title>
<path fill="none" stroke="midnightblue" d="M347.29,-61.61C355.33,-60.28 364.18,-58.83 373,-57.38"/>
<polygon fill="midnightblue" stroke="midnightblue" points="373.6,-60.82 382.9,-55.75 372.47,-53.92 373.6,-60.82"/>
</g>
<!-- Node7 -->
<g id="node7" class="node">
<title>Node7</title>
<g id="a_node7"><a xlink:href="classSCS.html#aa4af18b8b9f34649cd1e8aadde6d9b1f" target="_top" xlink:title=" ">
<polygon fill="white" stroke="black" points="391,-0.5 391,-19.5 471,-19.5 471,-0.5 391,-0.5"/>
<text text-anchor="middle" x="431" y="-7.5" font-family="Helvetica,sans-Serif" font-size="10.00">SCS::writeBuf</text>
</a>
</g>
</g>
<!-- Node3&#45;&gt;Node7 -->
<g id="edge6" class="edge">
<title>Node3&#45;&gt;Node7</title>
<path fill="none" stroke="midnightblue" d="M330.54,-57.37C344.24,-49.32 364.59,-37.79 383,-29 386.84,-27.17 390.91,-25.35 394.98,-23.6"/>
<polygon fill="midnightblue" stroke="midnightblue" points="396.49,-26.76 404.39,-19.69 393.81,-20.3 396.49,-26.76"/>
</g>
<!-- Node8 -->
<g id="node8" class="node">
<title>Node8</title>
<g id="a_node8"><a xlink:href="classSCS.html#a863a8f5eabdddf9d7500698d4ccff05e" target="_top" xlink:title=" ">
<polygon fill="white" stroke="black" points="515,-0.5 515,-19.5 601,-19.5 601,-0.5 515,-0.5"/>
<text text-anchor="middle" x="558" y="-7.5" font-family="Helvetica,sans-Serif" font-size="10.00">SCS::writeSCS</text>
</a>
</g>
</g>
<!-- Node7&#45;&gt;Node8 -->
<g id="edge7" class="edge">
<title>Node7&#45;&gt;Node8</title>
<path fill="none" stroke="midnightblue" d="M471.21,-10C481.84,-10 493.53,-10 504.76,-10"/>
<polygon fill="midnightblue" stroke="midnightblue" points="504.9,-13.5 514.9,-10 504.9,-6.5 504.9,-13.5"/>
</g>
</g>
</svg>
        <g id="navigator" transform="translate(0 0)" fill="#404254">
                <rect fill="#f2f5e9" fill-opacity="0.5" stroke="#606060" stroke-width=".5" x="0" y="0" width="60" height="60"/>
                <use id="zoomplus" xlink:href="#zoomPlus" x="17" y="9" onmousedown="handleZoom(evt,'in')"/>
                <use id="zoomminus" xlink:href="#zoomMin" x="42" y="9" onmousedown="handleZoom(evt,'out')"/>
                <use id="reset" xlink:href="#resetDef" x="30" y="36" onmousedown="handleReset()"/>
                <g id="arrowUp" xlink:href="#dirArrow" transform="translate(30 24)" onmousedown="handlePan(0,-1)">
                  <use xlink:href="#rim" fill="#404040">
                        <set attributeName="fill" to="#808080" begin="arrowUp.mouseover" end="arrowUp.mouseout"/>
                  </use>
                  <path fill="none" stroke="white" stroke-width="1.5" d="M0,-3.0v7 M-2.5,-0.5L0,-3.0L2.5,-0.5"/>
                </g>
                <g id="arrowRight" xlink:href="#dirArrow" transform="rotate(90) translate(36 -43)" onmousedown="handlePan(1,0)">
                  <use xlink:href="#rim" fill="#404040">
                        <set attributeName="fill" to="#808080" begin="arrowRight.mouseover" end="arrowRight.mouseout"/>
                  </use>
                  <path fill="none" stroke="white" stroke-width="1.5" d="M0,-3.0v7 M-2.5,-0.5L0,-3.0L2.5,-0.5"/>
                </g>
                <g id="arrowDown" xlink:href="#dirArrow" transform="rotate(180) translate(-30 -48)" onmousedown="handlePan(0,1)">
                  <use xlink:href="#rim" fill="#404040">
                        <set attributeName="fill" to="#808080" begin="arrowDown.mouseover" end="arrowDown.mouseout"/>
                  </use>
                  <path fill="none" stroke="white" stroke-width="1.5" d="M0,-3.0v7 M-2.5,-0.5L0,-3.0L2.5,-0.5"/>
                </g>
                <g id="arrowLeft" xlink:href="#dirArrow" transform="rotate(270) translate(-36 17)" onmousedown="handlePan(-1,0)">
                  <use xlink:href="#rim" fill="#404040">
                        <set attributeName="fill" to="#808080" begin="arrowLeft.mouseover" end="arrowLeft.mouseout"/>
                  </use>
                  <path fill="none" stroke="white" stroke-width="1.5" d="M0,-3.0v7 M-2.5,-0.5L0,-3.0L2.5,-0.5"/>
                </g>
        </g>
        <svg viewBox="0 0 15 15" width="100%" height="30px" preserveAspectRatio="xMaxYMin meet">
         <g id="arrow_out" transform="scale(0.3 0.3)">
          <a xlink:href="classSMS__STS_a8fa74300d8fd8a59b3c60bd2206698db_cgraph_org.svg" target="_base">
           <rect id="button" ry="5" rx="5" y="6" x="6" height="38" width="38"
                fill="#f2f5e9" fill-opacity="0.5" stroke="#606060" stroke-width="1.0"/>
           <path id="arrow"
             d="M 11.500037,31.436501 C 11.940474,20.09759 22.043105,11.32322 32.158766,21.979434 L 37.068811,17.246167 C 37.068811,17.246167 37.088388,32 37.088388,32 L 22.160133,31.978069 C 22.160133,31.978069 26.997745,27.140456 26.997745,27.140456 C 18.528582,18.264221 13.291696,25.230495 11.500037,31.436501 z"
             style="fill:#404040;"/>
          </a>
         </g>
        </svg>
</svg>
