<?xml version="1.0" encoding="UTF-8" standalone="no"?>
<!DOCTYPE svg PUBLIC "-//W3C//DTD SVG 1.1//EN"
 "http://www.w3.org/Graphics/SVG/1.1/DTD/svg11.dtd">
<!-- Generated by graphviz version 2.43.0 (0)
 -->
<!-- Title: SCSCL::PWMMode Pages: 1 -->
<svg width="485pt" height="142pt"
 viewBox="0.00 0.00 485.00 142.00" xmlns="http://www.w3.org/2000/svg" xmlns:xlink="http://www.w3.org/1999/xlink">
<g id="graph0" class="graph" transform="scale(1 1) rotate(0) translate(4 138)">
<title>SCSCL::PWMMode</title>
<polygon fill="white" stroke="transparent" points="-4,4 -4,-138 481,-138 481,4 -4,4"/>
<!-- Node1 -->
<g id="node1" class="node">
<title>Node1</title>
<g id="a_node1"><a xlink:title=" ">
<polygon fill="#bfbfbf" stroke="black" points="0,-57.5 0,-76.5 105,-76.5 105,-57.5 0,-57.5"/>
<text text-anchor="middle" x="52.5" y="-64.5" font-family="Helvetica,sans-Serif" font-size="10.00">SCSCL::PWMMode</text>
</a>
</g>
</g>
<!-- Node2 -->
<g id="node2" class="node">
<title>Node2</title>
<g id="a_node2"><a xlink:href="classSCS.html#ad604a21d07533c58acbb18c78c885626" target="_top" xlink:title=" ">
<polygon fill="white" stroke="black" points="141,-57.5 141,-76.5 223,-76.5 223,-57.5 141,-57.5"/>
<text text-anchor="middle" x="182" y="-64.5" font-family="Helvetica,sans-Serif" font-size="10.00">SCS::genWrite</text>
</a>
</g>
</g>
<!-- Node1&#45;&gt;Node2 -->
<g id="edge1" class="edge">
<title>Node1&#45;&gt;Node2</title>
<path fill="none" stroke="midnightblue" d="M105.36,-67C113.79,-67 122.51,-67 130.9,-67"/>
<polygon fill="midnightblue" stroke="midnightblue" points="130.92,-70.5 140.92,-67 130.92,-63.5 130.92,-70.5"/>
</g>
<!-- Node3 -->
<g id="node3" class="node">
<title>Node3</title>
<g id="a_node3"><a xlink:href="classSCS.html#ab03bd31949e28794360e70a67723affe" target="_top" xlink:title=" ">
<polygon fill="white" stroke="black" points="276.5,-114.5 276.5,-133.5 337.5,-133.5 337.5,-114.5 276.5,-114.5"/>
<text text-anchor="middle" x="307" y="-121.5" font-family="Helvetica,sans-Serif" font-size="10.00">SCS::Ack</text>
</a>
</g>
</g>
<!-- Node2&#45;&gt;Node3 -->
<g id="edge2" class="edge">
<title>Node2&#45;&gt;Node3</title>
<path fill="none" stroke="midnightblue" d="M201.23,-76.63C216.51,-84.57 238.97,-95.96 259,-105 263.08,-106.84 267.4,-108.7 271.69,-110.5"/>
<polygon fill="midnightblue" stroke="midnightblue" points="270.38,-113.75 280.96,-114.31 273.04,-107.27 270.38,-113.75"/>
</g>
<!-- Node5 -->
<g id="node5" class="node">
<title>Node5</title>
<g id="a_node5"><a xlink:href="classSCS.html#a856da9cc4c2a6d86984c3a314bfd87c9" target="_top" xlink:title=" ">
<polygon fill="white" stroke="black" points="261,-76.5 261,-95.5 353,-95.5 353,-76.5 261,-76.5"/>
<text text-anchor="middle" x="307" y="-83.5" font-family="Helvetica,sans-Serif" font-size="10.00">SCS::rFlushSCS</text>
</a>
</g>
</g>
<!-- Node2&#45;&gt;Node5 -->
<g id="edge4" class="edge">
<title>Node2&#45;&gt;Node5</title>
<path fill="none" stroke="midnightblue" d="M223.27,-73.22C232.12,-74.59 241.64,-76.06 250.96,-77.5"/>
<polygon fill="midnightblue" stroke="midnightblue" points="250.54,-80.97 260.95,-79.04 251.6,-74.06 250.54,-80.97"/>
</g>
<!-- Node6 -->
<g id="node6" class="node">
<title>Node6</title>
<g id="a_node6"><a xlink:href="classSCS.html#ad860b40280cba5d8ea5214cca6c70119" target="_top" xlink:title=" ">
<polygon fill="white" stroke="black" points="259,-38.5 259,-57.5 355,-57.5 355,-38.5 259,-38.5"/>
<text text-anchor="middle" x="307" y="-45.5" font-family="Helvetica,sans-Serif" font-size="10.00">SCS::wFlushSCS</text>
</a>
</g>
</g>
<!-- Node2&#45;&gt;Node6 -->
<g id="edge5" class="edge">
<title>Node2&#45;&gt;Node6</title>
<path fill="none" stroke="midnightblue" d="M223.27,-60.78C231.43,-59.52 240.16,-58.17 248.77,-56.84"/>
<polygon fill="midnightblue" stroke="midnightblue" points="249.44,-60.28 258.79,-55.29 248.37,-53.36 249.44,-60.28"/>
</g>
<!-- Node7 -->
<g id="node7" class="node">
<title>Node7</title>
<g id="a_node7"><a xlink:href="classSCS.html#aa4af18b8b9f34649cd1e8aadde6d9b1f" target="_top" xlink:title=" ">
<polygon fill="white" stroke="black" points="267,-0.5 267,-19.5 347,-19.5 347,-0.5 267,-0.5"/>
<text text-anchor="middle" x="307" y="-7.5" font-family="Helvetica,sans-Serif" font-size="10.00">SCS::writeBuf</text>
</a>
</g>
</g>
<!-- Node2&#45;&gt;Node7 -->
<g id="edge6" class="edge">
<title>Node2&#45;&gt;Node7</title>
<path fill="none" stroke="midnightblue" d="M201.23,-57.37C216.51,-49.43 238.97,-38.04 259,-29 263.08,-27.16 267.4,-25.3 271.69,-23.5"/>
<polygon fill="midnightblue" stroke="midnightblue" points="273.04,-26.73 280.96,-19.69 270.38,-20.25 273.04,-26.73"/>
</g>
<!-- Node4 -->
<g id="node4" class="node">
<title>Node4</title>
<g id="a_node4"><a xlink:href="classSCS.html#a7e23a5d866557da06108d326cb2055b9" target="_top" xlink:title=" ">
<polygon fill="white" stroke="black" points="392.5,-114.5 392.5,-133.5 475.5,-133.5 475.5,-114.5 392.5,-114.5"/>
<text text-anchor="middle" x="434" y="-121.5" font-family="Helvetica,sans-Serif" font-size="10.00">SCS::readSCS</text>
</a>
</g>
</g>
<!-- Node3&#45;&gt;Node4 -->
<g id="edge3" class="edge">
<title>Node3&#45;&gt;Node4</title>
<path fill="none" stroke="midnightblue" d="M337.62,-124C350.88,-124 366.9,-124 381.99,-124"/>
<polygon fill="midnightblue" stroke="midnightblue" points="382.24,-127.5 392.24,-124 382.24,-120.5 382.24,-127.5"/>
</g>
<!-- Node8 -->
<g id="node8" class="node">
<title>Node8</title>
<g id="a_node8"><a xlink:href="classSCS.html#a863a8f5eabdddf9d7500698d4ccff05e" target="_top" xlink:title=" ">
<polygon fill="white" stroke="black" points="391,-0.5 391,-19.5 477,-19.5 477,-0.5 391,-0.5"/>
<text text-anchor="middle" x="434" y="-7.5" font-family="Helvetica,sans-Serif" font-size="10.00">SCS::writeSCS</text>
</a>
</g>
</g>
<!-- Node7&#45;&gt;Node8 -->
<g id="edge7" class="edge">
<title>Node7&#45;&gt;Node8</title>
<path fill="none" stroke="midnightblue" d="M347.21,-10C357.84,-10 369.53,-10 380.76,-10"/>
<polygon fill="midnightblue" stroke="midnightblue" points="380.9,-13.5 390.9,-10 380.9,-6.5 380.9,-13.5"/>
</g>
</g>
</svg>
