<?xml version="1.0" encoding="UTF-8" standalone="no"?>
<!DOCTYPE svg PUBLIC "-//W3C//DTD SVG 1.1//EN"
 "http://www.w3.org/Graphics/SVG/1.1/DTD/svg11.dtd">
<!-- Generated by graphviz version 2.43.0 (0)
 -->
<!-- Title: SMSBL::WritePosEx Pages: 1 -->
<svg width="497pt" height="142pt"
 viewBox="0.00 0.00 497.00 142.00" xmlns="http://www.w3.org/2000/svg" xmlns:xlink="http://www.w3.org/1999/xlink">
<g id="graph0" class="graph" transform="scale(1 1) rotate(0) translate(4 138)">
<title>SMSBL::WritePosEx</title>
<polygon fill="white" stroke="transparent" points="-4,4 -4,-138 493,-138 493,4 -4,4"/>
<!-- Node1 -->
<g id="node1" class="node">
<title>Node1</title>
<g id="a_node1"><a xlink:title=" ">
<polygon fill="#bfbfbf" stroke="black" points="0,-38.5 0,-57.5 108,-57.5 108,-38.5 0,-38.5"/>
<text text-anchor="middle" x="54" y="-45.5" font-family="Helvetica,sans-Serif" font-size="10.00">SMSBL::WritePosEx</text>
</a>
</g>
</g>
<!-- Node2 -->
<g id="node2" class="node">
<title>Node2</title>
<g id="a_node2"><a xlink:href="classSCS.html#ad604a21d07533c58acbb18c78c885626" target="_top" xlink:title=" ">
<polygon fill="white" stroke="black" points="148.5,-57.5 148.5,-76.5 230.5,-76.5 230.5,-57.5 148.5,-57.5"/>
<text text-anchor="middle" x="189.5" y="-64.5" font-family="Helvetica,sans-Serif" font-size="10.00">SCS::genWrite</text>
</a>
</g>
</g>
<!-- Node1&#45;&gt;Node2 -->
<g id="edge1" class="edge">
<title>Node1&#45;&gt;Node2</title>
<path fill="none" stroke="midnightblue" d="M108.15,-55.56C118.08,-56.98 128.43,-58.45 138.26,-59.85"/>
<polygon fill="midnightblue" stroke="midnightblue" points="137.9,-63.33 148.29,-61.28 138.89,-56.4 137.9,-63.33"/>
</g>
<!-- Node9 -->
<g id="node9" class="node">
<title>Node9</title>
<g id="a_node9"><a xlink:href="classSCS.html#a4b91c0fcfaec1c55ef885ae2facaa0e7" target="_top" xlink:title=" ">
<polygon fill="white" stroke="black" points="144,-19.5 144,-38.5 235,-38.5 235,-19.5 144,-19.5"/>
<text text-anchor="middle" x="189.5" y="-26.5" font-family="Helvetica,sans-Serif" font-size="10.00">SCS::Host2SCS</text>
</a>
</g>
</g>
<!-- Node1&#45;&gt;Node9 -->
<g id="edge8" class="edge">
<title>Node1&#45;&gt;Node9</title>
<path fill="none" stroke="midnightblue" d="M108.15,-40.44C116.52,-39.24 125.19,-38.01 133.61,-36.81"/>
<polygon fill="midnightblue" stroke="midnightblue" points="134.3,-40.25 143.7,-35.38 133.31,-33.32 134.3,-40.25"/>
</g>
<!-- Node3 -->
<g id="node3" class="node">
<title>Node3</title>
<g id="a_node3"><a xlink:href="classSCS.html#ab03bd31949e28794360e70a67723affe" target="_top" xlink:title=" ">
<polygon fill="white" stroke="black" points="288.5,-114.5 288.5,-133.5 349.5,-133.5 349.5,-114.5 288.5,-114.5"/>
<text text-anchor="middle" x="319" y="-121.5" font-family="Helvetica,sans-Serif" font-size="10.00">SCS::Ack</text>
</a>
</g>
</g>
<!-- Node2&#45;&gt;Node3 -->
<g id="edge2" class="edge">
<title>Node2&#45;&gt;Node3</title>
<path fill="none" stroke="midnightblue" d="M209.88,-76.53C226.1,-84.41 249.91,-95.77 271,-105 275.2,-106.84 279.63,-108.71 284.02,-110.53"/>
<polygon fill="midnightblue" stroke="midnightblue" points="282.91,-113.86 293.5,-114.4 285.56,-107.38 282.91,-113.86"/>
</g>
<!-- Node5 -->
<g id="node5" class="node">
<title>Node5</title>
<g id="a_node5"><a xlink:href="classSCS.html#a856da9cc4c2a6d86984c3a314bfd87c9" target="_top" xlink:title=" ">
<polygon fill="white" stroke="black" points="273,-76.5 273,-95.5 365,-95.5 365,-76.5 273,-76.5"/>
<text text-anchor="middle" x="319" y="-83.5" font-family="Helvetica,sans-Serif" font-size="10.00">SCS::rFlushSCS</text>
</a>
</g>
</g>
<!-- Node2&#45;&gt;Node5 -->
<g id="edge4" class="edge">
<title>Node2&#45;&gt;Node5</title>
<path fill="none" stroke="midnightblue" d="M230.84,-73.01C240.9,-74.51 251.87,-76.15 262.52,-77.73"/>
<polygon fill="midnightblue" stroke="midnightblue" points="262.19,-81.22 272.6,-79.23 263.22,-74.3 262.19,-81.22"/>
</g>
<!-- Node6 -->
<g id="node6" class="node">
<title>Node6</title>
<g id="a_node6"><a xlink:href="classSCS.html#ad860b40280cba5d8ea5214cca6c70119" target="_top" xlink:title=" ">
<polygon fill="white" stroke="black" points="271,-38.5 271,-57.5 367,-57.5 367,-38.5 271,-38.5"/>
<text text-anchor="middle" x="319" y="-45.5" font-family="Helvetica,sans-Serif" font-size="10.00">SCS::wFlushSCS</text>
</a>
</g>
</g>
<!-- Node2&#45;&gt;Node6 -->
<g id="edge5" class="edge">
<title>Node2&#45;&gt;Node6</title>
<path fill="none" stroke="midnightblue" d="M230.84,-60.99C240.36,-59.57 250.69,-58.03 260.8,-56.52"/>
<polygon fill="midnightblue" stroke="midnightblue" points="261.42,-59.97 270.8,-55.03 260.39,-53.05 261.42,-59.97"/>
</g>
<!-- Node7 -->
<g id="node7" class="node">
<title>Node7</title>
<g id="a_node7"><a xlink:href="classSCS.html#aa4af18b8b9f34649cd1e8aadde6d9b1f" target="_top" xlink:title=" ">
<polygon fill="white" stroke="black" points="279,-0.5 279,-19.5 359,-19.5 359,-0.5 279,-0.5"/>
<text text-anchor="middle" x="319" y="-7.5" font-family="Helvetica,sans-Serif" font-size="10.00">SCS::writeBuf</text>
</a>
</g>
</g>
<!-- Node2&#45;&gt;Node7 -->
<g id="edge6" class="edge">
<title>Node2&#45;&gt;Node7</title>
<path fill="none" stroke="midnightblue" d="M213.76,-57.5C220.65,-54.57 228.17,-51.25 235,-48 251.33,-40.22 254.59,-36.62 271,-29 275.06,-27.11 279.36,-25.23 283.65,-23.41"/>
<polygon fill="midnightblue" stroke="midnightblue" points="285.01,-26.64 292.92,-19.59 282.34,-20.17 285.01,-26.64"/>
</g>
<!-- Node4 -->
<g id="node4" class="node">
<title>Node4</title>
<g id="a_node4"><a xlink:href="classSCS.html#a7e23a5d866557da06108d326cb2055b9" target="_top" xlink:title=" ">
<polygon fill="white" stroke="black" points="404.5,-114.5 404.5,-133.5 487.5,-133.5 487.5,-114.5 404.5,-114.5"/>
<text text-anchor="middle" x="446" y="-121.5" font-family="Helvetica,sans-Serif" font-size="10.00">SCS::readSCS</text>
</a>
</g>
</g>
<!-- Node3&#45;&gt;Node4 -->
<g id="edge3" class="edge">
<title>Node3&#45;&gt;Node4</title>
<path fill="none" stroke="midnightblue" d="M349.62,-124C362.88,-124 378.9,-124 393.99,-124"/>
<polygon fill="midnightblue" stroke="midnightblue" points="394.24,-127.5 404.24,-124 394.24,-120.5 394.24,-127.5"/>
</g>
<!-- Node8 -->
<g id="node8" class="node">
<title>Node8</title>
<g id="a_node8"><a xlink:href="classSCS.html#a863a8f5eabdddf9d7500698d4ccff05e" target="_top" xlink:title=" ">
<polygon fill="white" stroke="black" points="403,-0.5 403,-19.5 489,-19.5 489,-0.5 403,-0.5"/>
<text text-anchor="middle" x="446" y="-7.5" font-family="Helvetica,sans-Serif" font-size="10.00">SCS::writeSCS</text>
</a>
</g>
</g>
<!-- Node7&#45;&gt;Node8 -->
<g id="edge7" class="edge">
<title>Node7&#45;&gt;Node8</title>
<path fill="none" stroke="midnightblue" d="M359.21,-10C369.84,-10 381.53,-10 392.76,-10"/>
<polygon fill="midnightblue" stroke="midnightblue" points="392.9,-13.5 402.9,-10 392.9,-6.5 392.9,-13.5"/>
</g>
</g>
</svg>
