<?xml version="1.0" encoding="UTF-8" standalone="no"?>
<!DOCTYPE svg PUBLIC "-//W3C//DTD SVG 1.1//EN"
 "http://www.w3.org/Graphics/SVG/1.1/DTD/svg11.dtd">
<!-- Generated by graphviz version 2.43.0 (0)
 -->
<!-- Title: SMS_STS::ReadPos Pages: 1 -->
<svg width="620pt" height="142pt"
 viewBox="0.00 0.00 620.00 142.00" xmlns="http://www.w3.org/2000/svg" xmlns:xlink="http://www.w3.org/1999/xlink">
<g id="graph0" class="graph" transform="scale(1 1) rotate(0) translate(4 138)">
<title>SMS_STS::ReadPos</title>
<polygon fill="white" stroke="transparent" points="-4,4 -4,-138 616,-138 616,4 -4,4"/>
<!-- Node1 -->
<g id="node1" class="node">
<title>Node1</title>
<g id="a_node1"><a xlink:title=" ">
<polygon fill="#bfbfbf" stroke="black" points="0,-38.5 0,-57.5 110,-57.5 110,-38.5 0,-38.5"/>
<text text-anchor="middle" x="55" y="-45.5" font-family="Helvetica,sans-Serif" font-size="10.00">SMS_STS::ReadPos</text>
</a>
</g>
</g>
<!-- Node2 -->
<g id="node2" class="node">
<title>Node2</title>
<g id="a_node2"><a xlink:href="classSCS.html#a73580046b2ee5dc22b326d2d6d01bb35" target="_top" xlink:title=" ">
<polygon fill="white" stroke="black" points="146,-38.5 146,-57.5 231,-57.5 231,-38.5 146,-38.5"/>
<text text-anchor="middle" x="188.5" y="-45.5" font-family="Helvetica,sans-Serif" font-size="10.00">SCS::readWord</text>
</a>
</g>
</g>
<!-- Node1&#45;&gt;Node2 -->
<g id="edge1" class="edge">
<title>Node1&#45;&gt;Node2</title>
<path fill="none" stroke="midnightblue" d="M110.25,-48C118.7,-48 127.41,-48 135.8,-48"/>
<polygon fill="midnightblue" stroke="midnightblue" points="135.84,-51.5 145.84,-48 135.84,-44.5 135.84,-51.5"/>
</g>
<!-- Node3 -->
<g id="node3" class="node">
<title>Node3</title>
<g id="a_node3"><a xlink:href="classSCS.html#a7d5573c3681d3afaa085f92f583a0dad" target="_top" xlink:title=" ">
<polygon fill="white" stroke="black" points="279,-57.5 279,-76.5 346,-76.5 346,-57.5 279,-57.5"/>
<text text-anchor="middle" x="312.5" y="-64.5" font-family="Helvetica,sans-Serif" font-size="10.00">SCS::Read</text>
</a>
</g>
</g>
<!-- Node2&#45;&gt;Node3 -->
<g id="edge2" class="edge">
<title>Node2&#45;&gt;Node3</title>
<path fill="none" stroke="midnightblue" d="M231.14,-54.49C243.33,-56.38 256.67,-58.46 268.92,-60.37"/>
<polygon fill="midnightblue" stroke="midnightblue" points="268.48,-63.84 278.9,-61.92 269.55,-56.92 268.48,-63.84"/>
</g>
<!-- Node9 -->
<g id="node9" class="node">
<title>Node9</title>
<g id="a_node9"><a xlink:href="classSCS.html#a67f5b9706b79ac85ef02fb9d3ec2f0b6" target="_top" xlink:title=" ">
<polygon fill="white" stroke="black" points="267,-19.5 267,-38.5 358,-38.5 358,-19.5 267,-19.5"/>
<text text-anchor="middle" x="312.5" y="-26.5" font-family="Helvetica,sans-Serif" font-size="10.00">SCS::SCS2Host</text>
</a>
</g>
</g>
<!-- Node2&#45;&gt;Node9 -->
<g id="edge8" class="edge">
<title>Node2&#45;&gt;Node9</title>
<path fill="none" stroke="midnightblue" d="M231.14,-41.51C239.38,-40.23 248.14,-38.87 256.74,-37.53"/>
<polygon fill="midnightblue" stroke="midnightblue" points="257.36,-40.97 266.71,-35.98 256.29,-34.06 257.36,-40.97"/>
</g>
<!-- Node4 -->
<g id="node4" class="node">
<title>Node4</title>
<g id="a_node4"><a xlink:href="classSCS.html#a7e23a5d866557da06108d326cb2055b9" target="_top" xlink:title=" ">
<polygon fill="white" stroke="black" points="400.5,-114.5 400.5,-133.5 483.5,-133.5 483.5,-114.5 400.5,-114.5"/>
<text text-anchor="middle" x="442" y="-121.5" font-family="Helvetica,sans-Serif" font-size="10.00">SCS::readSCS</text>
</a>
</g>
</g>
<!-- Node3&#45;&gt;Node4 -->
<g id="edge3" class="edge">
<title>Node3&#45;&gt;Node4</title>
<path fill="none" stroke="midnightblue" d="M332.88,-76.53C349.1,-84.41 372.91,-95.77 394,-105 398.2,-106.84 402.63,-108.71 407.02,-110.53"/>
<polygon fill="midnightblue" stroke="midnightblue" points="405.91,-113.86 416.5,-114.4 408.56,-107.38 405.91,-113.86"/>
</g>
<!-- Node5 -->
<g id="node5" class="node">
<title>Node5</title>
<g id="a_node5"><a xlink:href="classSCS.html#a856da9cc4c2a6d86984c3a314bfd87c9" target="_top" xlink:title=" ">
<polygon fill="white" stroke="black" points="396,-76.5 396,-95.5 488,-95.5 488,-76.5 396,-76.5"/>
<text text-anchor="middle" x="442" y="-83.5" font-family="Helvetica,sans-Serif" font-size="10.00">SCS::rFlushSCS</text>
</a>
</g>
</g>
<!-- Node3&#45;&gt;Node5 -->
<g id="edge4" class="edge">
<title>Node3&#45;&gt;Node5</title>
<path fill="none" stroke="midnightblue" d="M346,-71.84C358,-73.63 371.95,-75.71 385.41,-77.72"/>
<polygon fill="midnightblue" stroke="midnightblue" points="385.16,-81.22 395.57,-79.23 386.19,-74.29 385.16,-81.22"/>
</g>
<!-- Node6 -->
<g id="node6" class="node">
<title>Node6</title>
<g id="a_node6"><a xlink:href="classSCS.html#ad860b40280cba5d8ea5214cca6c70119" target="_top" xlink:title=" ">
<polygon fill="white" stroke="black" points="394,-38.5 394,-57.5 490,-57.5 490,-38.5 394,-38.5"/>
<text text-anchor="middle" x="442" y="-45.5" font-family="Helvetica,sans-Serif" font-size="10.00">SCS::wFlushSCS</text>
</a>
</g>
</g>
<!-- Node3&#45;&gt;Node6 -->
<g id="edge5" class="edge">
<title>Node3&#45;&gt;Node6</title>
<path fill="none" stroke="midnightblue" d="M346,-62.16C357.41,-60.46 370.6,-58.49 383.44,-56.58"/>
<polygon fill="midnightblue" stroke="midnightblue" points="384.26,-59.99 393.63,-55.06 383.23,-53.07 384.26,-59.99"/>
</g>
<!-- Node7 -->
<g id="node7" class="node">
<title>Node7</title>
<g id="a_node7"><a xlink:href="classSCS.html#aa4af18b8b9f34649cd1e8aadde6d9b1f" target="_top" xlink:title=" ">
<polygon fill="white" stroke="black" points="402,-0.5 402,-19.5 482,-19.5 482,-0.5 402,-0.5"/>
<text text-anchor="middle" x="442" y="-7.5" font-family="Helvetica,sans-Serif" font-size="10.00">SCS::writeBuf</text>
</a>
</g>
</g>
<!-- Node3&#45;&gt;Node7 -->
<g id="edge6" class="edge">
<title>Node3&#45;&gt;Node7</title>
<path fill="none" stroke="midnightblue" d="M336.76,-57.5C343.65,-54.57 351.17,-51.25 358,-48 374.33,-40.22 377.59,-36.62 394,-29 398.06,-27.11 402.36,-25.23 406.65,-23.41"/>
<polygon fill="midnightblue" stroke="midnightblue" points="408.01,-26.64 415.92,-19.59 405.34,-20.17 408.01,-26.64"/>
</g>
<!-- Node8 -->
<g id="node8" class="node">
<title>Node8</title>
<g id="a_node8"><a xlink:href="classSCS.html#a863a8f5eabdddf9d7500698d4ccff05e" target="_top" xlink:title=" ">
<polygon fill="white" stroke="black" points="526,-0.5 526,-19.5 612,-19.5 612,-0.5 526,-0.5"/>
<text text-anchor="middle" x="569" y="-7.5" font-family="Helvetica,sans-Serif" font-size="10.00">SCS::writeSCS</text>
</a>
</g>
</g>
<!-- Node7&#45;&gt;Node8 -->
<g id="edge7" class="edge">
<title>Node7&#45;&gt;Node8</title>
<path fill="none" stroke="midnightblue" d="M482.21,-10C492.84,-10 504.53,-10 515.76,-10"/>
<polygon fill="midnightblue" stroke="midnightblue" points="515.9,-13.5 525.9,-10 515.9,-6.5 515.9,-13.5"/>
</g>
</g>
</svg>
