<?xml version="1.0" encoding="UTF-8" standalone="no"?>
<!DOCTYPE svg PUBLIC "-//W3C//DTD SVG 1.1//EN"
 "http://www.w3.org/Graphics/SVG/1.1/DTD/svg11.dtd">
<!-- Generated by graphviz version 2.43.0 (0)
 -->
<!-- Title: SCS::genWrite Pages: 1 -->
<svg width="257pt" height="408pt"
 viewBox="0.00 0.00 257.00 408.00" xmlns="http://www.w3.org/2000/svg" xmlns:xlink="http://www.w3.org/1999/xlink">
<g id="graph0" class="graph" transform="scale(1 1) rotate(0) translate(4 404)">
<title>SCS::genWrite</title>
<polygon fill="white" stroke="transparent" points="-4,4 -4,-404 253,-404 253,4 -4,4"/>
<!-- Node1 -->
<g id="node1" class="node">
<title>Node1</title>
<g id="a_node1"><a xlink:title=" ">
<polygon fill="#bfbfbf" stroke="black" points="167,-190.5 167,-209.5 249,-209.5 249,-190.5 167,-190.5"/>
<text text-anchor="middle" x="208" y="-197.5" font-family="Helvetica,sans-Serif" font-size="10.00">SCS::genWrite</text>
</a>
</g>
</g>
<!-- Node2 -->
<g id="node2" class="node">
<title>Node2</title>
<g id="a_node2"><a xlink:href="classSCSCL.html#af52885307c46ef3d9253e16ceeda3402" target="_top" xlink:title=" ">
<polygon fill="white" stroke="black" points="13,-380.5 13,-399.5 118,-399.5 118,-380.5 13,-380.5"/>
<text text-anchor="middle" x="65.5" y="-387.5" font-family="Helvetica,sans-Serif" font-size="10.00">SCSCL::PWMMode</text>
</a>
</g>
</g>
<!-- Node1&#45;&gt;Node2 -->
<g id="edge1" class="edge">
<title>Node1&#45;&gt;Node2</title>
<path fill="none" stroke="midnightblue" d="M203.75,-219.9C196.88,-255.52 177.52,-330.24 131,-371 126.61,-374.85 121.47,-377.92 116.05,-380.36"/>
<polygon fill="midnightblue" stroke="midnightblue" points="207.24,-220.27 205.56,-209.81 200.35,-219.03 207.24,-220.27"/>
</g>
<!-- Node3 -->
<g id="node3" class="node">
<title>Node3</title>
<g id="a_node3"><a xlink:href="classSMS__STS.html#a49f1260120eabb4ad999ab4615f37342" target="_top" xlink:title=" ">
<polygon fill="white" stroke="black" points="0,-342.5 0,-361.5 131,-361.5 131,-342.5 0,-342.5"/>
<text text-anchor="middle" x="65.5" y="-349.5" font-family="Helvetica,sans-Serif" font-size="10.00">SMS_STS::SyncWriteSpe</text>
</a>
</g>
</g>
<!-- Node1&#45;&gt;Node3 -->
<g id="edge2" class="edge">
<title>Node1&#45;&gt;Node3</title>
<path fill="none" stroke="midnightblue" d="M201.1,-219.5C191.31,-248.56 168.92,-303.02 131,-333 126.06,-336.91 120.33,-340.02 114.37,-342.48"/>
<polygon fill="midnightblue" stroke="midnightblue" points="204.52,-220.3 204.24,-209.71 197.86,-218.16 204.52,-220.3"/>
</g>
<!-- Node4 -->
<g id="node4" class="node">
<title>Node4</title>
<g id="a_node4"><a xlink:href="classSCSCL.html#a4882d52674205a5abc593b78f9f81c50" target="_top" xlink:title=" ">
<polygon fill="white" stroke="black" points="17.5,-304.5 17.5,-323.5 113.5,-323.5 113.5,-304.5 17.5,-304.5"/>
<text text-anchor="middle" x="65.5" y="-311.5" font-family="Helvetica,sans-Serif" font-size="10.00">SCSCL::WritePos</text>
</a>
</g>
</g>
<!-- Node1&#45;&gt;Node4 -->
<g id="edge3" class="edge">
<title>Node1&#45;&gt;Node4</title>
<path fill="none" stroke="midnightblue" d="M196.92,-218.53C184.29,-240.03 160.65,-275.09 131,-295 125.28,-298.84 118.77,-301.92 112.14,-304.38"/>
<polygon fill="midnightblue" stroke="midnightblue" points="200.04,-220.12 201.94,-209.7 193.95,-216.67 200.04,-220.12"/>
</g>
<!-- Node5 -->
<g id="node5" class="node">
<title>Node5</title>
<g id="a_node5"><a xlink:href="classSMS__STS.html#a45a16d8560e8267770a4de848356da51" target="_top" xlink:title=" ">
<polygon fill="white" stroke="black" points="5,-266.5 5,-285.5 126,-285.5 126,-266.5 5,-266.5"/>
<text text-anchor="middle" x="65.5" y="-273.5" font-family="Helvetica,sans-Serif" font-size="10.00">SMS_STS::WritePosEx</text>
</a>
</g>
</g>
<!-- Node1&#45;&gt;Node5 -->
<g id="edge4" class="edge">
<title>Node1&#45;&gt;Node5</title>
<path fill="none" stroke="midnightblue" d="M188.72,-216.69C174.05,-229.31 152.44,-246.24 131,-257 123.59,-260.72 115.33,-263.83 107.26,-266.4"/>
<polygon fill="midnightblue" stroke="midnightblue" points="191.31,-219.07 196.5,-209.84 186.68,-213.82 191.31,-219.07"/>
</g>
<!-- Node6 -->
<g id="node6" class="node">
<title>Node6</title>
<g id="a_node6"><a xlink:href="classSMSBL.html#ae0e7fe9d3da55ee2065a024af2dc1563" target="_top" xlink:title=" ">
<polygon fill="white" stroke="black" points="11.5,-228.5 11.5,-247.5 119.5,-247.5 119.5,-228.5 11.5,-228.5"/>
<text text-anchor="middle" x="65.5" y="-235.5" font-family="Helvetica,sans-Serif" font-size="10.00">SMSBL::WritePosEx</text>
</a>
</g>
</g>
<!-- Node1&#45;&gt;Node6 -->
<g id="edge5" class="edge">
<title>Node1&#45;&gt;Node6</title>
<path fill="none" stroke="midnightblue" d="M161.72,-212.25C142.36,-217.48 120.08,-223.51 101.94,-228.41"/>
<polygon fill="midnightblue" stroke="midnightblue" points="162.81,-215.58 171.55,-209.59 160.98,-208.82 162.81,-215.58"/>
</g>
<!-- Node7 -->
<g id="node7" class="node">
<title>Node7</title>
<g id="a_node7"><a xlink:href="classSMSCL.html#a9fa6f85374721a87e16c913325225c98" target="_top" xlink:title=" ">
<polygon fill="white" stroke="black" points="11,-190.5 11,-209.5 120,-209.5 120,-190.5 11,-190.5"/>
<text text-anchor="middle" x="65.5" y="-197.5" font-family="Helvetica,sans-Serif" font-size="10.00">SMSCL::WritePosEx</text>
</a>
</g>
</g>
<!-- Node1&#45;&gt;Node7 -->
<g id="edge6" class="edge">
<title>Node1&#45;&gt;Node7</title>
<path fill="none" stroke="midnightblue" d="M156.59,-200C144.75,-200 132.1,-200 120.13,-200"/>
<polygon fill="midnightblue" stroke="midnightblue" points="156.74,-203.5 166.74,-200 156.74,-196.5 156.74,-203.5"/>
</g>
<!-- Node8 -->
<g id="node8" class="node">
<title>Node8</title>
<g id="a_node8"><a xlink:href="classSMS__STS.html#a78002513f351d644081ec91b4b058741" target="_top" xlink:title=" ">
<polygon fill="white" stroke="black" points="8.5,-152.5 8.5,-171.5 122.5,-171.5 122.5,-152.5 8.5,-152.5"/>
<text text-anchor="middle" x="65.5" y="-159.5" font-family="Helvetica,sans-Serif" font-size="10.00">SMS_STS::WritePwm</text>
</a>
</g>
</g>
<!-- Node1&#45;&gt;Node8 -->
<g id="edge7" class="edge">
<title>Node1&#45;&gt;Node8</title>
<path fill="none" stroke="midnightblue" d="M161.72,-187.75C142.36,-182.52 120.08,-176.49 101.94,-171.59"/>
<polygon fill="midnightblue" stroke="midnightblue" points="160.98,-191.18 171.55,-190.41 162.81,-184.42 160.98,-191.18"/>
</g>
<!-- Node9 -->
<g id="node9" class="node">
<title>Node9</title>
<g id="a_node9"><a xlink:href="classSCSCL.html#ab8504abcb365ab4bd0756f14c8c49c58" target="_top" xlink:title=" ">
<polygon fill="white" stroke="black" points="13.5,-114.5 13.5,-133.5 117.5,-133.5 117.5,-114.5 13.5,-114.5"/>
<text text-anchor="middle" x="65.5" y="-121.5" font-family="Helvetica,sans-Serif" font-size="10.00">SCSCL::WritePWM</text>
</a>
</g>
</g>
<!-- Node1&#45;&gt;Node9 -->
<g id="edge8" class="edge">
<title>Node1&#45;&gt;Node9</title>
<path fill="none" stroke="midnightblue" d="M188.72,-183.31C174.05,-170.69 152.44,-153.76 131,-143 123.59,-139.28 115.33,-136.17 107.26,-133.6"/>
<polygon fill="midnightblue" stroke="midnightblue" points="186.68,-186.18 196.5,-190.16 191.31,-180.93 186.68,-186.18"/>
</g>
<!-- Node10 -->
<g id="node10" class="node">
<title>Node10</title>
<g id="a_node10"><a xlink:href="classSMS__STS.html#a5ed19565b4ab24b45a3fabe9b1fa11b9" target="_top" xlink:title=" ">
<polygon fill="white" stroke="black" points="11,-76.5 11,-95.5 120,-95.5 120,-76.5 11,-76.5"/>
<text text-anchor="middle" x="65.5" y="-83.5" font-family="Helvetica,sans-Serif" font-size="10.00">SMS_STS::WriteSpe</text>
</a>
</g>
</g>
<!-- Node1&#45;&gt;Node10 -->
<g id="edge9" class="edge">
<title>Node1&#45;&gt;Node10</title>
<path fill="none" stroke="midnightblue" d="M196.92,-181.47C184.29,-159.97 160.65,-124.91 131,-105 125.28,-101.16 118.77,-98.08 112.14,-95.62"/>
<polygon fill="midnightblue" stroke="midnightblue" points="193.95,-183.33 201.94,-190.3 200.04,-179.88 193.95,-183.33"/>
</g>
<!-- Node11 -->
<g id="node11" class="node">
<title>Node11</title>
<g id="a_node11"><a xlink:href="classSMSBL.html#aaee8d1d76810cf8b200a60e50cc907f8" target="_top" xlink:title=" ">
<polygon fill="white" stroke="black" points="17.5,-38.5 17.5,-57.5 113.5,-57.5 113.5,-38.5 17.5,-38.5"/>
<text text-anchor="middle" x="65.5" y="-45.5" font-family="Helvetica,sans-Serif" font-size="10.00">SMSBL::WriteSpe</text>
</a>
</g>
</g>
<!-- Node1&#45;&gt;Node11 -->
<g id="edge10" class="edge">
<title>Node1&#45;&gt;Node11</title>
<path fill="none" stroke="midnightblue" d="M201.1,-180.5C191.31,-151.44 168.92,-96.98 131,-67 125.87,-62.95 119.9,-59.76 113.7,-57.25"/>
<polygon fill="midnightblue" stroke="midnightblue" points="197.86,-181.84 204.24,-190.29 204.52,-179.7 197.86,-181.84"/>
</g>
<!-- Node12 -->
<g id="node12" class="node">
<title>Node12</title>
<g id="a_node12"><a xlink:href="classSMSCL.html#a64ffd4a24864944b515319892cda0028" target="_top" xlink:title=" ">
<polygon fill="white" stroke="black" points="17,-0.5 17,-19.5 114,-19.5 114,-0.5 17,-0.5"/>
<text text-anchor="middle" x="65.5" y="-7.5" font-family="Helvetica,sans-Serif" font-size="10.00">SMSCL::WriteSpe</text>
</a>
</g>
</g>
<!-- Node1&#45;&gt;Node12 -->
<g id="edge11" class="edge">
<title>Node1&#45;&gt;Node12</title>
<path fill="none" stroke="midnightblue" d="M203.75,-180.1C196.88,-144.48 177.52,-69.76 131,-29 126.08,-24.69 120.23,-21.36 114.09,-18.78"/>
<polygon fill="midnightblue" stroke="midnightblue" points="200.35,-180.97 205.56,-190.19 207.24,-179.73 200.35,-180.97"/>
</g>
</g>
</svg>
