<?xml version="1.0" encoding="UTF-8" standalone="no"?>
<!DOCTYPE svg PUBLIC "-//W3C//DTD SVG 1.1//EN"
 "http://www.w3.org/Graphics/SVG/1.1/DTD/svg11.dtd">
<!-- Generated by graphviz version 2.43.0 (0)
 -->
<!-- Title: SCSerial Pages: 1 -->
<svg width="364pt" height="250pt"
 viewBox="0.00 0.00 364.00 250.00" xmlns="http://www.w3.org/2000/svg" xmlns:xlink="http://www.w3.org/1999/xlink">
<g id="graph0" class="graph" transform="scale(1 1) rotate(0) translate(4 246)">
<title>SCSerial</title>
<polygon fill="white" stroke="transparent" points="-4,4 -4,-246 360,-246 360,4 -4,4"/>
<!-- Node1 -->
<g id="node1" class="node">
<title>Node1</title>
<g id="a_node1"><a xlink:title=" ">
<polygon fill="#bfbfbf" stroke="black" points="109.5,-0.5 109.5,-19.5 165.5,-19.5 165.5,-0.5 109.5,-0.5"/>
<text text-anchor="middle" x="137.5" y="-7.5" font-family="Helvetica,sans-Serif" font-size="10.00">SCSerial</text>
</a>
</g>
</g>
<!-- Node2 -->
<g id="node2" class="node">
<title>Node2</title>
<g id="a_node2"><a xlink:href="classSCS.html" target="_top" xlink:title=" ">
<polygon fill="white" stroke="black" points="66.5,-89.5 66.5,-108.5 104.5,-108.5 104.5,-89.5 66.5,-89.5"/>
<text text-anchor="middle" x="85.5" y="-96.5" font-family="Helvetica,sans-Serif" font-size="10.00">SCS</text>
</a>
</g>
</g>
<!-- Node2&#45;&gt;Node1 -->
<g id="edge1" class="edge">
<title>Node2&#45;&gt;Node1</title>
<path fill="none" stroke="midnightblue" d="M95.82,-80.74C106.84,-62.3 123.87,-33.8 132.34,-19.62"/>
<polygon fill="midnightblue" stroke="midnightblue" points="92.8,-78.96 90.68,-89.34 98.81,-82.55 92.8,-78.96"/>
</g>
<!-- Node3 -->
<g id="node3" class="node">
<title>Node3</title>
<g id="a_node3"><a xlink:title=" ">
<polygon fill="white" stroke="#bfbfbf" points="0,-222.5 0,-241.5 77,-241.5 77,-222.5 0,-222.5"/>
<text text-anchor="middle" x="38.5" y="-229.5" font-family="Helvetica,sans-Serif" font-size="10.00">unsigned char</text>
</a>
</g>
</g>
<!-- Node3&#45;&gt;Node1 -->
<g id="edge4" class="edge">
<title>Node3&#45;&gt;Node1</title>
<path fill="none" stroke="#9a32cd" stroke-dasharray="5,2" d="M31.95,-212.69C23.03,-184.46 10.32,-129.36 30.5,-89 47.98,-54.05 89.43,-31.12 115.3,-19.66"/>
<polygon fill="#9a32cd" stroke="#9a32cd" points="28.72,-214.05 35.22,-222.41 35.35,-211.82 28.72,-214.05"/>
<text text-anchor="middle" x="44" y="-96.5" font-family="Helvetica,sans-Serif" font-size="10.00"> txBuf</text>
</g>
<!-- Node3&#45;&gt;Node2 -->
<g id="edge2" class="edge">
<title>Node3&#45;&gt;Node2</title>
<path fill="none" stroke="#9a32cd" stroke-dasharray="5,2" d="M37.92,-212.08C38.05,-190.26 40.78,-153.95 55.5,-127 59.53,-119.62 66.38,-113.23 72.51,-108.52"/>
<polygon fill="#9a32cd" stroke="#9a32cd" points="34.42,-212.34 38.05,-222.3 41.42,-212.26 34.42,-212.34"/>
<text text-anchor="middle" x="111.5" y="-196" font-family="Helvetica,sans-Serif" font-size="10.00"> End</text>
<text text-anchor="middle" x="111.5" y="-185" font-family="Helvetica,sans-Serif" font-size="10.00">Error</text>
<text text-anchor="middle" x="111.5" y="-174" font-family="Helvetica,sans-Serif" font-size="10.00">Level</text>
<text text-anchor="middle" x="111.5" y="-163" font-family="Helvetica,sans-Serif" font-size="10.00">syncReadRxBuff</text>
<text text-anchor="middle" x="111.5" y="-152" font-family="Helvetica,sans-Serif" font-size="10.00">syncReadRxPacket</text>
<text text-anchor="middle" x="111.5" y="-141" font-family="Helvetica,sans-Serif" font-size="10.00">syncReadRxPacketIndex</text>
<text text-anchor="middle" x="111.5" y="-130" font-family="Helvetica,sans-Serif" font-size="10.00">syncReadRxPacketLen</text>
</g>
<!-- Node4 -->
<g id="node4" class="node">
<title>Node4</title>
<g id="a_node4"><a xlink:title=" ">
<polygon fill="white" stroke="#bfbfbf" points="149.5,-222.5 149.5,-241.5 229.5,-241.5 229.5,-222.5 149.5,-222.5"/>
<text text-anchor="middle" x="189.5" y="-229.5" font-family="Helvetica,sans-Serif" font-size="10.00">unsigned short</text>
</a>
</g>
</g>
<!-- Node4&#45;&gt;Node2 -->
<g id="edge3" class="edge">
<title>Node4&#45;&gt;Node2</title>
<path fill="none" stroke="#9a32cd" stroke-dasharray="5,2" d="M190.79,-212.37C191.33,-189.44 188.68,-150.63 167.5,-127 166.41,-125.78 128.49,-113.61 104.6,-106.03"/>
<polygon fill="#9a32cd" stroke="#9a32cd" points="187.29,-212.33 190.32,-222.49 194.28,-212.66 187.29,-212.33"/>
<text text-anchor="middle" x="237.5" y="-168.5" font-family="Helvetica,sans-Serif" font-size="10.00"> syncReadRxBuffLen</text>
<text text-anchor="middle" x="237.5" y="-157.5" font-family="Helvetica,sans-Serif" font-size="10.00">syncReadRxBuffMax</text>
</g>
<!-- Node5 -->
<g id="node5" class="node">
<title>Node5</title>
<g id="a_node5"><a xlink:title=" ">
<polygon fill="white" stroke="#bfbfbf" points="123,-89.5 123,-108.5 152,-108.5 152,-89.5 123,-89.5"/>
<text text-anchor="middle" x="137.5" y="-96.5" font-family="Helvetica,sans-Serif" font-size="10.00">int</text>
</a>
</g>
</g>
<!-- Node5&#45;&gt;Node1 -->
<g id="edge5" class="edge">
<title>Node5&#45;&gt;Node1</title>
<path fill="none" stroke="#9a32cd" stroke-dasharray="5,2" d="M137.5,-79.19C137.5,-60.74 137.5,-33.41 137.5,-19.62"/>
<polygon fill="#9a32cd" stroke="#9a32cd" points="134,-79.34 137.5,-89.34 141,-79.34 134,-79.34"/>
<text text-anchor="middle" x="157.5" y="-63" font-family="Helvetica,sans-Serif" font-size="10.00"> Err</text>
<text text-anchor="middle" x="157.5" y="-52" font-family="Helvetica,sans-Serif" font-size="10.00">fd</text>
<text text-anchor="middle" x="157.5" y="-41" font-family="Helvetica,sans-Serif" font-size="10.00">txBufLen</text>
</g>
<!-- Node6 -->
<g id="node6" class="node">
<title>Node6</title>
<g id="a_node6"><a xlink:title=" ">
<polygon fill="white" stroke="#bfbfbf" points="170.5,-89.5 170.5,-108.5 260.5,-108.5 260.5,-89.5 170.5,-89.5"/>
<text text-anchor="middle" x="215.5" y="-96.5" font-family="Helvetica,sans-Serif" font-size="10.00">unsigned long int</text>
</a>
</g>
</g>
<!-- Node6&#45;&gt;Node1 -->
<g id="edge6" class="edge">
<title>Node6&#45;&gt;Node1</title>
<path fill="none" stroke="#9a32cd" stroke-dasharray="5,2" d="M208.13,-79.8C202.3,-67.02 193.2,-50.11 181.5,-38 174.28,-30.52 164.57,-24.28 156.1,-19.68"/>
<polygon fill="#9a32cd" stroke="#9a32cd" points="205.08,-81.57 212.25,-89.37 211.51,-78.8 205.08,-81.57"/>
<text text-anchor="middle" x="228.5" y="-52" font-family="Helvetica,sans-Serif" font-size="10.00"> IOTimeOut</text>
</g>
<!-- Node7 -->
<g id="node7" class="node">
<title>Node7</title>
<g id="a_node7"><a xlink:title=" ">
<polygon fill="white" stroke="#bfbfbf" points="279,-89.5 279,-108.5 356,-108.5 356,-89.5 279,-89.5"/>
<text text-anchor="middle" x="317.5" y="-96.5" font-family="Helvetica,sans-Serif" font-size="10.00">struct termios</text>
</a>
</g>
</g>
<!-- Node7&#45;&gt;Node1 -->
<g id="edge7" class="edge">
<title>Node7&#45;&gt;Node1</title>
<path fill="none" stroke="#9a32cd" stroke-dasharray="5,2" d="M305.23,-80.93C294.46,-67.23 277.57,-48.58 258.5,-38 229.33,-21.81 191.13,-15.33 165.52,-12.73"/>
<polygon fill="#9a32cd" stroke="#9a32cd" points="302.57,-83.22 311.39,-89.09 308.16,-79 302.57,-83.22"/>
<text text-anchor="middle" x="311" y="-57.5" font-family="Helvetica,sans-Serif" font-size="10.00"> curopt</text>
<text text-anchor="middle" x="311" y="-46.5" font-family="Helvetica,sans-Serif" font-size="10.00">orgopt</text>
</g>
</g>
</svg>
