<?xml version="1.0" encoding="UTF-8" standalone="no"?>
<!DOCTYPE svg PUBLIC "-//W3C//DTD SVG 1.1//EN"
 "http://www.w3.org/Graphics/SVG/1.1/DTD/svg11.dtd">
<!-- Generated by graphviz version 2.43.0 (0)
 -->
<!-- Title: SCS::writeWord Pages: 1 -->
<svg width="349pt" height="180pt"
 viewBox="0.00 0.00 349.00 180.00" xmlns="http://www.w3.org/2000/svg" xmlns:xlink="http://www.w3.org/1999/xlink">
<g id="graph0" class="graph" transform="scale(1 1) rotate(0) translate(4 176)">
<title>SCS::writeWord</title>
<polygon fill="white" stroke="transparent" points="-4,4 -4,-176 345,-176 345,4 -4,4"/>
<!-- Node1 -->
<g id="node1" class="node">
<title>Node1</title>
<g id="a_node1"><a xlink:title=" ">
<polygon fill="#bfbfbf" stroke="black" points="0,-76.5 0,-95.5 87,-95.5 87,-76.5 0,-76.5"/>
<text text-anchor="middle" x="43.5" y="-83.5" font-family="Helvetica,sans-Serif" font-size="10.00">SCS::writeWord</text>
</a>
</g>
</g>
<!-- Node2 -->
<g id="node2" class="node">
<title>Node2</title>
<g id="a_node2"><a xlink:href="classSCS.html#ab03bd31949e28794360e70a67723affe" target="_top" xlink:title=" ">
<polygon fill="white" stroke="black" points="140.5,-152.5 140.5,-171.5 201.5,-171.5 201.5,-152.5 140.5,-152.5"/>
<text text-anchor="middle" x="171" y="-159.5" font-family="Helvetica,sans-Serif" font-size="10.00">SCS::Ack</text>
</a>
</g>
</g>
<!-- Node1&#45;&gt;Node2 -->
<g id="edge1" class="edge">
<title>Node1&#45;&gt;Node2</title>
<path fill="none" stroke="midnightblue" d="M55.87,-95.64C70.63,-107.81 97.52,-128.88 123,-143 126.45,-144.91 130.14,-146.74 133.87,-148.45"/>
<polygon fill="midnightblue" stroke="midnightblue" points="132.56,-151.7 143.13,-152.45 135.33,-145.27 132.56,-151.7"/>
</g>
<!-- Node4 -->
<g id="node4" class="node">
<title>Node4</title>
<g id="a_node4"><a xlink:href="classSCS.html#a4b91c0fcfaec1c55ef885ae2facaa0e7" target="_top" xlink:title=" ">
<polygon fill="white" stroke="black" points="125.5,-114.5 125.5,-133.5 216.5,-133.5 216.5,-114.5 125.5,-114.5"/>
<text text-anchor="middle" x="171" y="-121.5" font-family="Helvetica,sans-Serif" font-size="10.00">SCS::Host2SCS</text>
</a>
</g>
</g>
<!-- Node1&#45;&gt;Node4 -->
<g id="edge3" class="edge">
<title>Node1&#45;&gt;Node4</title>
<path fill="none" stroke="midnightblue" d="M76.17,-95.59C92.07,-100.4 111.54,-106.3 128.61,-111.47"/>
<polygon fill="midnightblue" stroke="midnightblue" points="127.76,-114.87 138.34,-114.41 129.78,-108.17 127.76,-114.87"/>
</g>
<!-- Node5 -->
<g id="node5" class="node">
<title>Node5</title>
<g id="a_node5"><a xlink:href="classSCS.html#a856da9cc4c2a6d86984c3a314bfd87c9" target="_top" xlink:title=" ">
<polygon fill="white" stroke="black" points="125,-76.5 125,-95.5 217,-95.5 217,-76.5 125,-76.5"/>
<text text-anchor="middle" x="171" y="-83.5" font-family="Helvetica,sans-Serif" font-size="10.00">SCS::rFlushSCS</text>
</a>
</g>
</g>
<!-- Node1&#45;&gt;Node5 -->
<g id="edge4" class="edge">
<title>Node1&#45;&gt;Node5</title>
<path fill="none" stroke="midnightblue" d="M87.34,-86C96.11,-86 105.46,-86 114.6,-86"/>
<polygon fill="midnightblue" stroke="midnightblue" points="114.78,-89.5 124.78,-86 114.78,-82.5 114.78,-89.5"/>
</g>
<!-- Node6 -->
<g id="node6" class="node">
<title>Node6</title>
<g id="a_node6"><a xlink:href="classSCS.html#ad860b40280cba5d8ea5214cca6c70119" target="_top" xlink:title=" ">
<polygon fill="white" stroke="black" points="123,-38.5 123,-57.5 219,-57.5 219,-38.5 123,-38.5"/>
<text text-anchor="middle" x="171" y="-45.5" font-family="Helvetica,sans-Serif" font-size="10.00">SCS::wFlushSCS</text>
</a>
</g>
</g>
<!-- Node1&#45;&gt;Node6 -->
<g id="edge5" class="edge">
<title>Node1&#45;&gt;Node6</title>
<path fill="none" stroke="midnightblue" d="M76.17,-76.41C92.07,-71.6 111.54,-65.7 128.61,-60.53"/>
<polygon fill="midnightblue" stroke="midnightblue" points="129.78,-63.83 138.34,-57.59 127.76,-57.13 129.78,-63.83"/>
</g>
<!-- Node7 -->
<g id="node7" class="node">
<title>Node7</title>
<g id="a_node7"><a xlink:href="classSCS.html#aa4af18b8b9f34649cd1e8aadde6d9b1f" target="_top" xlink:title=" ">
<polygon fill="white" stroke="black" points="131,-0.5 131,-19.5 211,-19.5 211,-0.5 131,-0.5"/>
<text text-anchor="middle" x="171" y="-7.5" font-family="Helvetica,sans-Serif" font-size="10.00">SCS::writeBuf</text>
</a>
</g>
</g>
<!-- Node1&#45;&gt;Node7 -->
<g id="edge6" class="edge">
<title>Node1&#45;&gt;Node7</title>
<path fill="none" stroke="midnightblue" d="M55.87,-76.36C70.63,-64.19 97.52,-43.12 123,-29 126.45,-27.09 130.14,-25.26 133.87,-23.55"/>
<polygon fill="midnightblue" stroke="midnightblue" points="135.33,-26.73 143.13,-19.55 132.56,-20.3 135.33,-26.73"/>
</g>
<!-- Node3 -->
<g id="node3" class="node">
<title>Node3</title>
<g id="a_node3"><a xlink:href="classSCS.html#a7e23a5d866557da06108d326cb2055b9" target="_top" xlink:title=" ">
<polygon fill="white" stroke="black" points="256.5,-152.5 256.5,-171.5 339.5,-171.5 339.5,-152.5 256.5,-152.5"/>
<text text-anchor="middle" x="298" y="-159.5" font-family="Helvetica,sans-Serif" font-size="10.00">SCS::readSCS</text>
</a>
</g>
</g>
<!-- Node2&#45;&gt;Node3 -->
<g id="edge2" class="edge">
<title>Node2&#45;&gt;Node3</title>
<path fill="none" stroke="midnightblue" d="M201.62,-162C214.88,-162 230.9,-162 245.99,-162"/>
<polygon fill="midnightblue" stroke="midnightblue" points="246.24,-165.5 256.24,-162 246.24,-158.5 246.24,-165.5"/>
</g>
<!-- Node8 -->
<g id="node8" class="node">
<title>Node8</title>
<g id="a_node8"><a xlink:href="classSCS.html#a863a8f5eabdddf9d7500698d4ccff05e" target="_top" xlink:title=" ">
<polygon fill="white" stroke="black" points="255,-0.5 255,-19.5 341,-19.5 341,-0.5 255,-0.5"/>
<text text-anchor="middle" x="298" y="-7.5" font-family="Helvetica,sans-Serif" font-size="10.00">SCS::writeSCS</text>
</a>
</g>
</g>
<!-- Node7&#45;&gt;Node8 -->
<g id="edge7" class="edge">
<title>Node7&#45;&gt;Node8</title>
<path fill="none" stroke="midnightblue" d="M211.21,-10C221.84,-10 233.53,-10 244.76,-10"/>
<polygon fill="midnightblue" stroke="midnightblue" points="244.9,-13.5 254.9,-10 244.9,-6.5 244.9,-13.5"/>
</g>
</g>
</svg>
