<?xml version="1.0" encoding="UTF-8" standalone="no"?>
<!DOCTYPE svg PUBLIC "-//W3C//DTD SVG 1.1//EN"
 "http://www.w3.org/Graphics/SVG/1.1/DTD/svg11.dtd">
<!-- Generated by graphviz version 2.43.0 (0)
 -->
<!-- Title: SMSBL::RegWritePosEx Pages: 1 -->
<svg width="515pt" height="142pt"
 viewBox="0.00 0.00 515.00 142.00" xmlns="http://www.w3.org/2000/svg" xmlns:xlink="http://www.w3.org/1999/xlink">
<g id="graph0" class="graph" transform="scale(1 1) rotate(0) translate(4 138)">
<title>SMSBL::RegWritePosEx</title>
<polygon fill="white" stroke="transparent" points="-4,4 -4,-138 511,-138 511,4 -4,4"/>
<!-- Node1 -->
<g id="node1" class="node">
<title>Node1</title>
<g id="a_node1"><a xlink:title=" ">
<polygon fill="#bfbfbf" stroke="black" points="0,-76.5 0,-95.5 126,-95.5 126,-76.5 0,-76.5"/>
<text text-anchor="middle" x="63" y="-83.5" font-family="Helvetica,sans-Serif" font-size="10.00">SMSBL::RegWritePosEx</text>
</a>
</g>
</g>
<!-- Node2 -->
<g id="node2" class="node">
<title>Node2</title>
<g id="a_node2"><a xlink:href="classSCS.html#a4b91c0fcfaec1c55ef885ae2facaa0e7" target="_top" xlink:title=" ">
<polygon fill="white" stroke="black" points="162,-95.5 162,-114.5 253,-114.5 253,-95.5 162,-95.5"/>
<text text-anchor="middle" x="207.5" y="-102.5" font-family="Helvetica,sans-Serif" font-size="10.00">SCS::Host2SCS</text>
</a>
</g>
</g>
<!-- Node1&#45;&gt;Node2 -->
<g id="edge1" class="edge">
<title>Node1&#45;&gt;Node2</title>
<path fill="none" stroke="midnightblue" d="M126.09,-94.28C134.62,-95.42 143.33,-96.58 151.72,-97.7"/>
<polygon fill="midnightblue" stroke="midnightblue" points="151.38,-101.18 161.75,-99.03 152.3,-94.24 151.38,-101.18"/>
</g>
<!-- Node3 -->
<g id="node3" class="node">
<title>Node3</title>
<g id="a_node3"><a xlink:href="classSCS.html#a6bfc828497a52d12bd09b6f37de80c62" target="_top" xlink:title=" ">
<polygon fill="white" stroke="black" points="167.5,-57.5 167.5,-76.5 247.5,-76.5 247.5,-57.5 167.5,-57.5"/>
<text text-anchor="middle" x="207.5" y="-64.5" font-family="Helvetica,sans-Serif" font-size="10.00">SCS::regWrite</text>
</a>
</g>
</g>
<!-- Node1&#45;&gt;Node3 -->
<g id="edge2" class="edge">
<title>Node1&#45;&gt;Node3</title>
<path fill="none" stroke="midnightblue" d="M126.09,-77.72C136.44,-76.34 147.06,-74.93 157.04,-73.59"/>
<polygon fill="midnightblue" stroke="midnightblue" points="157.73,-77.03 167.18,-72.24 156.81,-70.09 157.73,-77.03"/>
</g>
<!-- Node4 -->
<g id="node4" class="node">
<title>Node4</title>
<g id="a_node4"><a xlink:href="classSCS.html#ab03bd31949e28794360e70a67723affe" target="_top" xlink:title=" ">
<polygon fill="white" stroke="black" points="306.5,-114.5 306.5,-133.5 367.5,-133.5 367.5,-114.5 306.5,-114.5"/>
<text text-anchor="middle" x="337" y="-121.5" font-family="Helvetica,sans-Serif" font-size="10.00">SCS::Ack</text>
</a>
</g>
</g>
<!-- Node3&#45;&gt;Node4 -->
<g id="edge3" class="edge">
<title>Node3&#45;&gt;Node4</title>
<path fill="none" stroke="midnightblue" d="M231.76,-76.5C238.65,-79.43 246.17,-82.75 253,-86 269.33,-93.78 272.59,-97.38 289,-105 293.06,-106.89 297.36,-108.77 301.65,-110.59"/>
<polygon fill="midnightblue" stroke="midnightblue" points="300.34,-113.83 310.92,-114.41 303.01,-107.36 300.34,-113.83"/>
</g>
<!-- Node6 -->
<g id="node6" class="node">
<title>Node6</title>
<g id="a_node6"><a xlink:href="classSCS.html#a856da9cc4c2a6d86984c3a314bfd87c9" target="_top" xlink:title=" ">
<polygon fill="white" stroke="black" points="291,-76.5 291,-95.5 383,-95.5 383,-76.5 291,-76.5"/>
<text text-anchor="middle" x="337" y="-83.5" font-family="Helvetica,sans-Serif" font-size="10.00">SCS::rFlushSCS</text>
</a>
</g>
</g>
<!-- Node3&#45;&gt;Node6 -->
<g id="edge5" class="edge">
<title>Node3&#45;&gt;Node6</title>
<path fill="none" stroke="midnightblue" d="M247.79,-72.86C258.21,-74.41 269.66,-76.11 280.76,-77.77"/>
<polygon fill="midnightblue" stroke="midnightblue" points="280.4,-81.25 290.81,-79.27 281.44,-74.33 280.4,-81.25"/>
</g>
<!-- Node7 -->
<g id="node7" class="node">
<title>Node7</title>
<g id="a_node7"><a xlink:href="classSCS.html#ad860b40280cba5d8ea5214cca6c70119" target="_top" xlink:title=" ">
<polygon fill="white" stroke="black" points="289,-38.5 289,-57.5 385,-57.5 385,-38.5 289,-38.5"/>
<text text-anchor="middle" x="337" y="-45.5" font-family="Helvetica,sans-Serif" font-size="10.00">SCS::wFlushSCS</text>
</a>
</g>
</g>
<!-- Node3&#45;&gt;Node7 -->
<g id="edge6" class="edge">
<title>Node3&#45;&gt;Node7</title>
<path fill="none" stroke="midnightblue" d="M247.79,-61.14C257.66,-59.67 268.46,-58.07 279,-56.49"/>
<polygon fill="midnightblue" stroke="midnightblue" points="279.62,-59.94 288.99,-55.01 278.59,-53.02 279.62,-59.94"/>
</g>
<!-- Node8 -->
<g id="node8" class="node">
<title>Node8</title>
<g id="a_node8"><a xlink:href="classSCS.html#aa4af18b8b9f34649cd1e8aadde6d9b1f" target="_top" xlink:title=" ">
<polygon fill="white" stroke="black" points="297,-0.5 297,-19.5 377,-19.5 377,-0.5 297,-0.5"/>
<text text-anchor="middle" x="337" y="-7.5" font-family="Helvetica,sans-Serif" font-size="10.00">SCS::writeBuf</text>
</a>
</g>
</g>
<!-- Node3&#45;&gt;Node8 -->
<g id="edge7" class="edge">
<title>Node3&#45;&gt;Node8</title>
<path fill="none" stroke="midnightblue" d="M227.88,-57.47C244.1,-49.59 267.91,-38.23 289,-29 293.2,-27.16 297.63,-25.29 302.02,-23.47"/>
<polygon fill="midnightblue" stroke="midnightblue" points="303.56,-26.62 311.5,-19.6 300.91,-20.14 303.56,-26.62"/>
</g>
<!-- Node5 -->
<g id="node5" class="node">
<title>Node5</title>
<g id="a_node5"><a xlink:href="classSCS.html#a7e23a5d866557da06108d326cb2055b9" target="_top" xlink:title=" ">
<polygon fill="white" stroke="black" points="422.5,-114.5 422.5,-133.5 505.5,-133.5 505.5,-114.5 422.5,-114.5"/>
<text text-anchor="middle" x="464" y="-121.5" font-family="Helvetica,sans-Serif" font-size="10.00">SCS::readSCS</text>
</a>
</g>
</g>
<!-- Node4&#45;&gt;Node5 -->
<g id="edge4" class="edge">
<title>Node4&#45;&gt;Node5</title>
<path fill="none" stroke="midnightblue" d="M367.62,-124C380.88,-124 396.9,-124 411.99,-124"/>
<polygon fill="midnightblue" stroke="midnightblue" points="412.24,-127.5 422.24,-124 412.24,-120.5 412.24,-127.5"/>
</g>
<!-- Node9 -->
<g id="node9" class="node">
<title>Node9</title>
<g id="a_node9"><a xlink:href="classSCS.html#a863a8f5eabdddf9d7500698d4ccff05e" target="_top" xlink:title=" ">
<polygon fill="white" stroke="black" points="421,-0.5 421,-19.5 507,-19.5 507,-0.5 421,-0.5"/>
<text text-anchor="middle" x="464" y="-7.5" font-family="Helvetica,sans-Serif" font-size="10.00">SCS::writeSCS</text>
</a>
</g>
</g>
<!-- Node8&#45;&gt;Node9 -->
<g id="edge8" class="edge">
<title>Node8&#45;&gt;Node9</title>
<path fill="none" stroke="midnightblue" d="M377.21,-10C387.84,-10 399.53,-10 410.76,-10"/>
<polygon fill="midnightblue" stroke="midnightblue" points="410.9,-13.5 420.9,-10 410.9,-6.5 410.9,-13.5"/>
</g>
</g>
</svg>
