<?xml version="1.0" encoding="UTF-8" standalone="no"?>
<!DOCTYPE svg PUBLIC "-//W3C//DTD SVG 1.1//EN"
 "http://www.w3.org/Graphics/SVG/1.1/DTD/svg11.dtd">
<!-- Generated by graphviz version 2.43.0 (0)
 -->
<!-- Title: SCS::readByte Pages: 1 -->
<svg width="252pt" height="446pt"
 viewBox="0.00 0.00 252.00 446.00" xmlns="http://www.w3.org/2000/svg" xmlns:xlink="http://www.w3.org/1999/xlink">
<g id="graph0" class="graph" transform="scale(1 1) rotate(0) translate(4 442)">
<title>SCS::readByte</title>
<polygon fill="white" stroke="transparent" points="-4,4 -4,-442 248,-442 248,4 -4,4"/>
<!-- Node1 -->
<g id="node1" class="node">
<title>Node1</title>
<g id="a_node1"><a xlink:title=" ">
<polygon fill="#bfbfbf" stroke="black" points="161,-209.5 161,-228.5 244,-228.5 244,-209.5 161,-209.5"/>
<text text-anchor="middle" x="202.5" y="-216.5" font-family="Helvetica,sans-Serif" font-size="10.00">SCS::readByte</text>
</a>
</g>
</g>
<!-- Node2 -->
<g id="node2" class="node">
<title>Node2</title>
<g id="a_node2"><a xlink:href="classSCSCL.html#a12e3b619ee64b8b179bb5b391ed16479" target="_top" xlink:title=" ">
<polygon fill="white" stroke="black" points="10.5,-418.5 10.5,-437.5 114.5,-437.5 114.5,-418.5 10.5,-418.5"/>
<text text-anchor="middle" x="62.5" y="-425.5" font-family="Helvetica,sans-Serif" font-size="10.00">SCSCL::ReadMove</text>
</a>
</g>
</g>
<!-- Node1&#45;&gt;Node2 -->
<g id="edge1" class="edge">
<title>Node1&#45;&gt;Node2</title>
<path fill="none" stroke="midnightblue" d="M199.14,-238.85C193.51,-277.32 175.75,-362.3 125,-409 120.81,-412.86 115.84,-415.93 110.58,-418.39"/>
<polygon fill="midnightblue" stroke="midnightblue" points="202.67,-238.88 200.52,-228.5 195.73,-237.95 202.67,-238.88"/>
</g>
<!-- Node3 -->
<g id="node3" class="node">
<title>Node3</title>
<g id="a_node3"><a xlink:href="classSMS__STS.html#a0e500708d853b4e772fe99c801486287" target="_top" xlink:title=" ">
<polygon fill="white" stroke="black" points="4.5,-380.5 4.5,-399.5 120.5,-399.5 120.5,-380.5 4.5,-380.5"/>
<text text-anchor="middle" x="62.5" y="-387.5" font-family="Helvetica,sans-Serif" font-size="10.00">SMS_STS::ReadMove</text>
</a>
</g>
</g>
<!-- Node1&#45;&gt;Node3 -->
<g id="edge2" class="edge">
<title>Node1&#45;&gt;Node3</title>
<path fill="none" stroke="midnightblue" d="M196.89,-238.89C188.34,-271.31 166.97,-335.5 125,-371 120.39,-374.9 114.99,-378 109.34,-380.46"/>
<polygon fill="midnightblue" stroke="midnightblue" points="200.37,-239.39 199.39,-228.84 193.58,-237.7 200.37,-239.39"/>
</g>
<!-- Node4 -->
<g id="node4" class="node">
<title>Node4</title>
<g id="a_node4"><a xlink:href="classSMSBL.html#af98a280ded75dd9d1e7853c17fa6863d" target="_top" xlink:title=" ">
<polygon fill="white" stroke="black" points="10.5,-342.5 10.5,-361.5 114.5,-361.5 114.5,-342.5 10.5,-342.5"/>
<text text-anchor="middle" x="62.5" y="-349.5" font-family="Helvetica,sans-Serif" font-size="10.00">SMSBL::ReadMove</text>
</a>
</g>
</g>
<!-- Node1&#45;&gt;Node4 -->
<g id="edge3" class="edge">
<title>Node1&#45;&gt;Node4</title>
<path fill="none" stroke="midnightblue" d="M193.74,-237.82C182.37,-263.13 158.78,-307.86 125,-333 119.8,-336.87 113.8,-339.96 107.63,-342.43"/>
<polygon fill="midnightblue" stroke="midnightblue" points="196.99,-239.13 197.75,-228.56 190.57,-236.35 196.99,-239.13"/>
</g>
<!-- Node5 -->
<g id="node5" class="node">
<title>Node5</title>
<g id="a_node5"><a xlink:href="classSMSCL.html#a9a980c152bee05aa4c97a83f30cb14e7" target="_top" xlink:title=" ">
<polygon fill="white" stroke="black" points="10.5,-304.5 10.5,-323.5 114.5,-323.5 114.5,-304.5 10.5,-304.5"/>
<text text-anchor="middle" x="62.5" y="-311.5" font-family="Helvetica,sans-Serif" font-size="10.00">SMSCL::ReadMove</text>
</a>
</g>
</g>
<!-- Node1&#45;&gt;Node5 -->
<g id="edge4" class="edge">
<title>Node1&#45;&gt;Node5</title>
<path fill="none" stroke="midnightblue" d="M187.93,-236.79C173.92,-253.99 150.56,-279.65 125,-295 118.68,-298.8 111.53,-301.9 104.4,-304.41"/>
<polygon fill="midnightblue" stroke="midnightblue" points="190.9,-238.67 194.36,-228.66 185.41,-234.33 190.9,-238.67"/>
</g>
<!-- Node6 -->
<g id="node6" class="node">
<title>Node6</title>
<g id="a_node6"><a xlink:href="classSCSCL.html#a84457530a5f8685b71e494dd44dc6ad9" target="_top" xlink:title=" ">
<polygon fill="white" stroke="black" points="6.5,-266.5 6.5,-285.5 118.5,-285.5 118.5,-266.5 6.5,-266.5"/>
<text text-anchor="middle" x="62.5" y="-273.5" font-family="Helvetica,sans-Serif" font-size="10.00">SCSCL::ReadTemper</text>
</a>
</g>
</g>
<!-- Node1&#45;&gt;Node6 -->
<g id="edge5" class="edge">
<title>Node1&#45;&gt;Node6</title>
<path fill="none" stroke="midnightblue" d="M175.32,-233.32C160.76,-240.94 142.17,-250.14 125,-257 116.39,-260.44 106.89,-263.65 98,-266.41"/>
<polygon fill="midnightblue" stroke="midnightblue" points="177.06,-236.36 184.24,-228.58 173.77,-230.18 177.06,-236.36"/>
</g>
<!-- Node7 -->
<g id="node7" class="node">
<title>Node7</title>
<g id="a_node7"><a xlink:href="classSMS__STS.html#affc260eb8fe0efda22ff8b68c7544312" target="_top" xlink:title=" ">
<polygon fill="white" stroke="black" points="0,-228.5 0,-247.5 125,-247.5 125,-228.5 0,-228.5"/>
<text text-anchor="middle" x="62.5" y="-235.5" font-family="Helvetica,sans-Serif" font-size="10.00">SMS_STS::ReadTemper</text>
</a>
</g>
</g>
<!-- Node1&#45;&gt;Node7 -->
<g id="edge6" class="edge">
<title>Node1&#45;&gt;Node7</title>
<path fill="none" stroke="midnightblue" d="M150.85,-225.97C142.48,-227.13 133.71,-228.33 125.1,-229.52"/>
<polygon fill="midnightblue" stroke="midnightblue" points="151.41,-229.43 160.84,-224.6 150.46,-222.49 151.41,-229.43"/>
</g>
<!-- Node8 -->
<g id="node8" class="node">
<title>Node8</title>
<g id="a_node8"><a xlink:href="classSMSBL.html#a499d35723ea918fd3c3f9a3ddbd52b7d" target="_top" xlink:title=" ">
<polygon fill="white" stroke="black" points="6.5,-190.5 6.5,-209.5 118.5,-209.5 118.5,-190.5 6.5,-190.5"/>
<text text-anchor="middle" x="62.5" y="-197.5" font-family="Helvetica,sans-Serif" font-size="10.00">SMSBL::ReadTemper</text>
</a>
</g>
</g>
<!-- Node1&#45;&gt;Node8 -->
<g id="edge7" class="edge">
<title>Node1&#45;&gt;Node8</title>
<path fill="none" stroke="midnightblue" d="M150.67,-212C140.26,-210.57 129.25,-209.05 118.7,-207.6"/>
<polygon fill="midnightblue" stroke="midnightblue" points="150.46,-215.51 160.84,-213.4 151.41,-208.57 150.46,-215.51"/>
</g>
<!-- Node9 -->
<g id="node9" class="node">
<title>Node9</title>
<g id="a_node9"><a xlink:href="classSMSCL.html#af541fd24d9e3dde6d884977f6b3c168e" target="_top" xlink:title=" ">
<polygon fill="white" stroke="black" points="6,-152.5 6,-171.5 119,-171.5 119,-152.5 6,-152.5"/>
<text text-anchor="middle" x="62.5" y="-159.5" font-family="Helvetica,sans-Serif" font-size="10.00">SMSCL::ReadTemper</text>
</a>
</g>
</g>
<!-- Node1&#45;&gt;Node9 -->
<g id="edge8" class="edge">
<title>Node1&#45;&gt;Node9</title>
<path fill="none" stroke="midnightblue" d="M175.32,-204.68C160.76,-197.06 142.17,-187.86 125,-181 116.39,-177.56 106.89,-174.35 98,-171.59"/>
<polygon fill="midnightblue" stroke="midnightblue" points="173.77,-207.82 184.24,-209.42 177.06,-201.64 173.77,-207.82"/>
</g>
<!-- Node10 -->
<g id="node10" class="node">
<title>Node10</title>
<g id="a_node10"><a xlink:href="classSCSCL.html#adf6d13814b09ba166927a4125ef11ae9" target="_top" xlink:title=" ">
<polygon fill="white" stroke="black" points="6.5,-114.5 6.5,-133.5 118.5,-133.5 118.5,-114.5 6.5,-114.5"/>
<text text-anchor="middle" x="62.5" y="-121.5" font-family="Helvetica,sans-Serif" font-size="10.00">SCSCL::ReadVoltage</text>
</a>
</g>
</g>
<!-- Node1&#45;&gt;Node10 -->
<g id="edge9" class="edge">
<title>Node1&#45;&gt;Node10</title>
<path fill="none" stroke="midnightblue" d="M187.93,-201.21C173.92,-184.01 150.56,-158.35 125,-143 118.68,-139.2 111.53,-136.1 104.4,-133.59"/>
<polygon fill="midnightblue" stroke="midnightblue" points="185.41,-203.67 194.36,-209.34 190.9,-199.33 185.41,-203.67"/>
</g>
<!-- Node11 -->
<g id="node11" class="node">
<title>Node11</title>
<g id="a_node11"><a xlink:href="classSMS__STS.html#a8fa74300d8fd8a59b3c60bd2206698db" target="_top" xlink:title=" ">
<polygon fill="white" stroke="black" points="0,-76.5 0,-95.5 125,-95.5 125,-76.5 0,-76.5"/>
<text text-anchor="middle" x="62.5" y="-83.5" font-family="Helvetica,sans-Serif" font-size="10.00">SMS_STS::ReadVoltage</text>
</a>
</g>
</g>
<!-- Node1&#45;&gt;Node11 -->
<g id="edge10" class="edge">
<title>Node1&#45;&gt;Node11</title>
<path fill="none" stroke="midnightblue" d="M193.74,-200.18C182.37,-174.87 158.78,-130.14 125,-105 119.8,-101.13 113.8,-98.04 107.63,-95.57"/>
<polygon fill="midnightblue" stroke="midnightblue" points="190.57,-201.65 197.75,-209.44 196.99,-198.87 190.57,-201.65"/>
</g>
<!-- Node12 -->
<g id="node12" class="node">
<title>Node12</title>
<g id="a_node12"><a xlink:href="classSMSBL.html#ae7f03e2f859d62ce1eeab487305c3fc4" target="_top" xlink:title=" ">
<polygon fill="white" stroke="black" points="6.5,-38.5 6.5,-57.5 118.5,-57.5 118.5,-38.5 6.5,-38.5"/>
<text text-anchor="middle" x="62.5" y="-45.5" font-family="Helvetica,sans-Serif" font-size="10.00">SMSBL::ReadVoltage</text>
</a>
</g>
</g>
<!-- Node1&#45;&gt;Node12 -->
<g id="edge11" class="edge">
<title>Node1&#45;&gt;Node12</title>
<path fill="none" stroke="midnightblue" d="M196.89,-199.11C188.34,-166.69 166.97,-102.5 125,-67 120.39,-63.1 114.99,-60 109.34,-57.54"/>
<polygon fill="midnightblue" stroke="midnightblue" points="193.58,-200.3 199.39,-209.16 200.37,-198.61 193.58,-200.3"/>
</g>
<!-- Node13 -->
<g id="node13" class="node">
<title>Node13</title>
<g id="a_node13"><a xlink:href="classSMSCL.html#a98a5d93ddedcde7e89f6443fd2377950" target="_top" xlink:title=" ">
<polygon fill="white" stroke="black" points="6,-0.5 6,-19.5 119,-19.5 119,-0.5 6,-0.5"/>
<text text-anchor="middle" x="62.5" y="-7.5" font-family="Helvetica,sans-Serif" font-size="10.00">SMSCL::ReadVoltage</text>
</a>
</g>
</g>
<!-- Node1&#45;&gt;Node13 -->
<g id="edge12" class="edge">
<title>Node1&#45;&gt;Node13</title>
<path fill="none" stroke="midnightblue" d="M199.14,-199.15C193.51,-160.68 175.75,-75.7 125,-29 120.81,-25.14 115.84,-22.07 110.58,-19.61"/>
<polygon fill="midnightblue" stroke="midnightblue" points="195.73,-200.05 200.52,-209.5 202.67,-199.12 195.73,-200.05"/>
</g>
</g>
</svg>
