<?xml version="1.0" encoding="UTF-8" standalone="no"?>
<!DOCTYPE svg PUBLIC "-//W3C//DTD SVG 1.1//EN"
 "http://www.w3.org/Graphics/SVG/1.1/DTD/svg11.dtd">
<!-- Generated by graphviz version 2.43.0 (0)
 -->
<!-- Title: SMS_STS::RegWritePosEx Pages: 1 -->
<svg width="528pt" height="142pt"
 viewBox="0.00 0.00 528.00 142.00" xmlns="http://www.w3.org/2000/svg" xmlns:xlink="http://www.w3.org/1999/xlink">
<g id="graph0" class="graph" transform="scale(1 1) rotate(0) translate(4 138)">
<title>SMS_STS::RegWritePosEx</title>
<polygon fill="white" stroke="transparent" points="-4,4 -4,-138 524,-138 524,4 -4,4"/>
<!-- Node1 -->
<g id="node1" class="node">
<title>Node1</title>
<g id="a_node1"><a xlink:title=" ">
<polygon fill="#bfbfbf" stroke="black" points="0,-76.5 0,-95.5 139,-95.5 139,-76.5 0,-76.5"/>
<text text-anchor="middle" x="69.5" y="-83.5" font-family="Helvetica,sans-Serif" font-size="10.00">SMS_STS::RegWritePosEx</text>
</a>
</g>
</g>
<!-- Node2 -->
<g id="node2" class="node">
<title>Node2</title>
<g id="a_node2"><a xlink:href="classSCS.html#a4b91c0fcfaec1c55ef885ae2facaa0e7" target="_top" xlink:title=" ">
<polygon fill="white" stroke="black" points="175,-95.5 175,-114.5 266,-114.5 266,-95.5 175,-95.5"/>
<text text-anchor="middle" x="220.5" y="-102.5" font-family="Helvetica,sans-Serif" font-size="10.00">SCS::Host2SCS</text>
</a>
</g>
</g>
<!-- Node1&#45;&gt;Node2 -->
<g id="edge1" class="edge">
<title>Node1&#45;&gt;Node2</title>
<path fill="none" stroke="midnightblue" d="M139.33,-94.78C147.9,-95.87 156.56,-96.97 164.87,-98.03"/>
<polygon fill="midnightblue" stroke="midnightblue" points="164.44,-101.51 174.8,-99.3 165.32,-94.56 164.44,-101.51"/>
</g>
<!-- Node3 -->
<g id="node3" class="node">
<title>Node3</title>
<g id="a_node3"><a xlink:href="classSCS.html#a6bfc828497a52d12bd09b6f37de80c62" target="_top" xlink:title=" ">
<polygon fill="white" stroke="black" points="180.5,-57.5 180.5,-76.5 260.5,-76.5 260.5,-57.5 180.5,-57.5"/>
<text text-anchor="middle" x="220.5" y="-64.5" font-family="Helvetica,sans-Serif" font-size="10.00">SCS::regWrite</text>
</a>
</g>
</g>
<!-- Node1&#45;&gt;Node3 -->
<g id="edge2" class="edge">
<title>Node1&#45;&gt;Node3</title>
<path fill="none" stroke="midnightblue" d="M139.33,-77.22C149.74,-75.9 160.3,-74.55 170.19,-73.29"/>
<polygon fill="midnightblue" stroke="midnightblue" points="170.75,-76.75 180.22,-72.01 169.86,-69.8 170.75,-76.75"/>
</g>
<!-- Node4 -->
<g id="node4" class="node">
<title>Node4</title>
<g id="a_node4"><a xlink:href="classSCS.html#ab03bd31949e28794360e70a67723affe" target="_top" xlink:title=" ">
<polygon fill="white" stroke="black" points="319.5,-114.5 319.5,-133.5 380.5,-133.5 380.5,-114.5 319.5,-114.5"/>
<text text-anchor="middle" x="350" y="-121.5" font-family="Helvetica,sans-Serif" font-size="10.00">SCS::Ack</text>
</a>
</g>
</g>
<!-- Node3&#45;&gt;Node4 -->
<g id="edge3" class="edge">
<title>Node3&#45;&gt;Node4</title>
<path fill="none" stroke="midnightblue" d="M244.76,-76.5C251.65,-79.43 259.17,-82.75 266,-86 282.33,-93.78 285.59,-97.38 302,-105 306.06,-106.89 310.36,-108.77 314.65,-110.59"/>
<polygon fill="midnightblue" stroke="midnightblue" points="313.34,-113.83 323.92,-114.41 316.01,-107.36 313.34,-113.83"/>
</g>
<!-- Node6 -->
<g id="node6" class="node">
<title>Node6</title>
<g id="a_node6"><a xlink:href="classSCS.html#a856da9cc4c2a6d86984c3a314bfd87c9" target="_top" xlink:title=" ">
<polygon fill="white" stroke="black" points="304,-76.5 304,-95.5 396,-95.5 396,-76.5 304,-76.5"/>
<text text-anchor="middle" x="350" y="-83.5" font-family="Helvetica,sans-Serif" font-size="10.00">SCS::rFlushSCS</text>
</a>
</g>
</g>
<!-- Node3&#45;&gt;Node6 -->
<g id="edge5" class="edge">
<title>Node3&#45;&gt;Node6</title>
<path fill="none" stroke="midnightblue" d="M260.79,-72.86C271.21,-74.41 282.66,-76.11 293.76,-77.77"/>
<polygon fill="midnightblue" stroke="midnightblue" points="293.4,-81.25 303.81,-79.27 294.44,-74.33 293.4,-81.25"/>
</g>
<!-- Node7 -->
<g id="node7" class="node">
<title>Node7</title>
<g id="a_node7"><a xlink:href="classSCS.html#ad860b40280cba5d8ea5214cca6c70119" target="_top" xlink:title=" ">
<polygon fill="white" stroke="black" points="302,-38.5 302,-57.5 398,-57.5 398,-38.5 302,-38.5"/>
<text text-anchor="middle" x="350" y="-45.5" font-family="Helvetica,sans-Serif" font-size="10.00">SCS::wFlushSCS</text>
</a>
</g>
</g>
<!-- Node3&#45;&gt;Node7 -->
<g id="edge6" class="edge">
<title>Node3&#45;&gt;Node7</title>
<path fill="none" stroke="midnightblue" d="M260.79,-61.14C270.66,-59.67 281.46,-58.07 292,-56.49"/>
<polygon fill="midnightblue" stroke="midnightblue" points="292.62,-59.94 301.99,-55.01 291.59,-53.02 292.62,-59.94"/>
</g>
<!-- Node8 -->
<g id="node8" class="node">
<title>Node8</title>
<g id="a_node8"><a xlink:href="classSCS.html#aa4af18b8b9f34649cd1e8aadde6d9b1f" target="_top" xlink:title=" ">
<polygon fill="white" stroke="black" points="310,-0.5 310,-19.5 390,-19.5 390,-0.5 310,-0.5"/>
<text text-anchor="middle" x="350" y="-7.5" font-family="Helvetica,sans-Serif" font-size="10.00">SCS::writeBuf</text>
</a>
</g>
</g>
<!-- Node3&#45;&gt;Node8 -->
<g id="edge7" class="edge">
<title>Node3&#45;&gt;Node8</title>
<path fill="none" stroke="midnightblue" d="M240.88,-57.47C257.1,-49.59 280.91,-38.23 302,-29 306.2,-27.16 310.63,-25.29 315.02,-23.47"/>
<polygon fill="midnightblue" stroke="midnightblue" points="316.56,-26.62 324.5,-19.6 313.91,-20.14 316.56,-26.62"/>
</g>
<!-- Node5 -->
<g id="node5" class="node">
<title>Node5</title>
<g id="a_node5"><a xlink:href="classSCS.html#a7e23a5d866557da06108d326cb2055b9" target="_top" xlink:title=" ">
<polygon fill="white" stroke="black" points="435.5,-114.5 435.5,-133.5 518.5,-133.5 518.5,-114.5 435.5,-114.5"/>
<text text-anchor="middle" x="477" y="-121.5" font-family="Helvetica,sans-Serif" font-size="10.00">SCS::readSCS</text>
</a>
</g>
</g>
<!-- Node4&#45;&gt;Node5 -->
<g id="edge4" class="edge">
<title>Node4&#45;&gt;Node5</title>
<path fill="none" stroke="midnightblue" d="M380.62,-124C393.88,-124 409.9,-124 424.99,-124"/>
<polygon fill="midnightblue" stroke="midnightblue" points="425.24,-127.5 435.24,-124 425.24,-120.5 425.24,-127.5"/>
</g>
<!-- Node9 -->
<g id="node9" class="node">
<title>Node9</title>
<g id="a_node9"><a xlink:href="classSCS.html#a863a8f5eabdddf9d7500698d4ccff05e" target="_top" xlink:title=" ">
<polygon fill="white" stroke="black" points="434,-0.5 434,-19.5 520,-19.5 520,-0.5 434,-0.5"/>
<text text-anchor="middle" x="477" y="-7.5" font-family="Helvetica,sans-Serif" font-size="10.00">SCS::writeSCS</text>
</a>
</g>
</g>
<!-- Node8&#45;&gt;Node9 -->
<g id="edge8" class="edge">
<title>Node8&#45;&gt;Node9</title>
<path fill="none" stroke="midnightblue" d="M390.21,-10C400.84,-10 412.53,-10 423.76,-10"/>
<polygon fill="midnightblue" stroke="midnightblue" points="423.9,-13.5 433.9,-10 423.9,-6.5 423.9,-13.5"/>
</g>
</g>
</svg>
