<?xml version="1.0" encoding="UTF-8" standalone="no"?>
<!DOCTYPE svg PUBLIC "-//W3C//DTD SVG 1.1//EN"
 "http://www.w3.org/Graphics/SVG/1.1/DTD/svg11.dtd">
<!-- Generated by graphviz version 2.43.0 (0)
 -->
<!-- Title: SCS::Ack Pages: 1 -->
<svg width="392pt" height="1320pt"
 viewBox="0.00 0.00 392.00 1320.00" xmlns="http://www.w3.org/2000/svg" xmlns:xlink="http://www.w3.org/1999/xlink">
<g id="graph0" class="graph" transform="scale(1 1) rotate(0) translate(4 1316)">
<title>SCS::Ack</title>
<polygon fill="white" stroke="transparent" points="-4,4 -4,-1316 388,-1316 388,4 -4,4"/>
<!-- Node1 -->
<g id="node1" class="node">
<title>Node1</title>
<g id="a_node1"><a xlink:title=" ">
<polygon fill="#bfbfbf" stroke="black" points="323,-560.5 323,-579.5 384,-579.5 384,-560.5 323,-560.5"/>
<text text-anchor="middle" x="353.5" y="-567.5" font-family="Helvetica,sans-Serif" font-size="10.00">SCS::Ack</text>
</a>
</g>
</g>
<!-- Node2 -->
<g id="node2" class="node">
<title>Node2</title>
<g id="a_node2"><a xlink:href="classSCS.html#ad604a21d07533c58acbb18c78c885626" target="_top" xlink:title=" ">
<polygon fill="white" stroke="black" points="190,-1083.5 190,-1102.5 272,-1102.5 272,-1083.5 190,-1083.5"/>
<text text-anchor="middle" x="231" y="-1090.5" font-family="Helvetica,sans-Serif" font-size="10.00">SCS::genWrite</text>
</a>
</g>
</g>
<!-- Node1&#45;&gt;Node2 -->
<g id="edge1" class="edge">
<title>Node1&#45;&gt;Node2</title>
<path fill="none" stroke="midnightblue" d="M348,-589.52C328.14,-675.74 248.62,-1020.87 234.24,-1083.3"/>
<polygon fill="midnightblue" stroke="midnightblue" points="351.47,-590.05 350.31,-579.52 344.65,-588.48 351.47,-590.05"/>
</g>
<!-- Node14 -->
<g id="node14" class="node">
<title>Node14</title>
<g id="a_node14"><a xlink:href="classSCS.html#a6bfc828497a52d12bd09b6f37de80c62" target="_top" xlink:title=" ">
<polygon fill="white" stroke="black" points="191,-760.5 191,-779.5 271,-779.5 271,-760.5 191,-760.5"/>
<text text-anchor="middle" x="231" y="-767.5" font-family="Helvetica,sans-Serif" font-size="10.00">SCS::regWrite</text>
</a>
</g>
</g>
<!-- Node1&#45;&gt;Node14 -->
<g id="edge13" class="edge">
<title>Node1&#45;&gt;Node14</title>
<path fill="none" stroke="midnightblue" d="M341.39,-588.43C316.42,-629.88 256.56,-729.24 237.75,-760.45"/>
<polygon fill="midnightblue" stroke="midnightblue" points="344.53,-590.02 346.69,-579.65 338.53,-586.41 344.53,-590.02"/>
</g>
<!-- Node21 -->
<g id="node21" class="node">
<title>Node21</title>
<g id="a_node21"><a xlink:href="classSCS.html#a512f48b6f3bc10bc17d1125aa3e3a8be" target="_top" xlink:title=" ">
<polygon fill="white" stroke="black" points="175,-560.5 175,-579.5 287,-579.5 287,-560.5 175,-560.5"/>
<text text-anchor="middle" x="231" y="-567.5" font-family="Helvetica,sans-Serif" font-size="10.00">SCS::RegWriteAction</text>
</a>
</g>
</g>
<!-- Node1&#45;&gt;Node21 -->
<g id="edge20" class="edge">
<title>Node1&#45;&gt;Node21</title>
<path fill="none" stroke="midnightblue" d="M312.47,-570C304.4,-570 295.78,-570 287.29,-570"/>
<polygon fill="midnightblue" stroke="midnightblue" points="312.71,-573.5 322.71,-570 312.71,-566.5 312.71,-573.5"/>
</g>
<!-- Node22 -->
<g id="node22" class="node">
<title>Node22</title>
<g id="a_node22"><a xlink:href="classSCS.html#a48b5d1256a84b4c5a7e55b0b3af6a4e3" target="_top" xlink:title=" ">
<polygon fill="white" stroke="black" points="188.5,-361.5 188.5,-380.5 273.5,-380.5 273.5,-361.5 188.5,-361.5"/>
<text text-anchor="middle" x="231" y="-368.5" font-family="Helvetica,sans-Serif" font-size="10.00">SCS::writeByte</text>
</a>
</g>
</g>
<!-- Node1&#45;&gt;Node22 -->
<g id="edge21" class="edge">
<title>Node1&#45;&gt;Node22</title>
<path fill="none" stroke="midnightblue" d="M341.39,-551.66C316.42,-510.42 256.56,-411.56 237.75,-380.5"/>
<polygon fill="midnightblue" stroke="midnightblue" points="338.51,-553.66 346.69,-560.4 344.5,-550.03 338.51,-553.66"/>
</g>
<!-- Node41 -->
<g id="node41" class="node">
<title>Node41</title>
<g id="a_node41"><a xlink:href="classSCS.html#a04395f04b587c2f206c18cce822d928b" target="_top" xlink:title=" ">
<polygon fill="white" stroke="black" points="187.5,-323.5 187.5,-342.5 274.5,-342.5 274.5,-323.5 187.5,-323.5"/>
<text text-anchor="middle" x="231" y="-330.5" font-family="Helvetica,sans-Serif" font-size="10.00">SCS::writeWord</text>
</a>
</g>
</g>
<!-- Node1&#45;&gt;Node41 -->
<g id="edge40" class="edge">
<title>Node1&#45;&gt;Node41</title>
<path fill="none" stroke="midnightblue" d="M352.28,-550.1C350.72,-507.84 341.15,-408.4 287,-352 283.29,-348.14 278.76,-345.06 273.91,-342.61"/>
<polygon fill="midnightblue" stroke="midnightblue" points="348.78,-550.3 352.53,-560.21 355.78,-550.12 348.78,-550.3"/>
</g>
<!-- Node3 -->
<g id="node3" class="node">
<title>Node3</title>
<g id="a_node3"><a xlink:href="classSCSCL.html#af52885307c46ef3d9253e16ceeda3402" target="_top" xlink:title=" ">
<polygon fill="white" stroke="black" points="17,-1292.5 17,-1311.5 122,-1311.5 122,-1292.5 17,-1292.5"/>
<text text-anchor="middle" x="69.5" y="-1299.5" font-family="Helvetica,sans-Serif" font-size="10.00">SCSCL::PWMMode</text>
</a>
</g>
</g>
<!-- Node2&#45;&gt;Node3 -->
<g id="edge2" class="edge">
<title>Node2&#45;&gt;Node3</title>
<path fill="none" stroke="midnightblue" d="M226.24,-1112.56C217.8,-1151.13 193.61,-1237.25 139,-1283 134.08,-1287.12 128.33,-1290.35 122.3,-1292.88"/>
<polygon fill="midnightblue" stroke="midnightblue" points="229.7,-1113.11 228.3,-1102.61 222.85,-1111.69 229.7,-1113.11"/>
</g>
<!-- Node4 -->
<g id="node4" class="node">
<title>Node4</title>
<g id="a_node4"><a xlink:href="classSMS__STS.html#a49f1260120eabb4ad999ab4615f37342" target="_top" xlink:title=" ">
<polygon fill="white" stroke="black" points="4,-1254.5 4,-1273.5 135,-1273.5 135,-1254.5 4,-1254.5"/>
<text text-anchor="middle" x="69.5" y="-1261.5" font-family="Helvetica,sans-Serif" font-size="10.00">SMS_STS::SyncWriteSpe</text>
</a>
</g>
</g>
<!-- Node2&#45;&gt;Node4 -->
<g id="edge3" class="edge">
<title>Node2&#45;&gt;Node4</title>
<path fill="none" stroke="midnightblue" d="M223.84,-1112.18C212.45,-1144.57 184.94,-1210 139,-1245 133.89,-1248.89 128.04,-1251.98 121.94,-1254.44"/>
<polygon fill="midnightblue" stroke="midnightblue" points="227.21,-1113.14 227.1,-1102.55 220.58,-1110.9 227.21,-1113.14"/>
</g>
<!-- Node5 -->
<g id="node5" class="node">
<title>Node5</title>
<g id="a_node5"><a xlink:href="classSCSCL.html#a4882d52674205a5abc593b78f9f81c50" target="_top" xlink:title=" ">
<polygon fill="white" stroke="black" points="21.5,-1216.5 21.5,-1235.5 117.5,-1235.5 117.5,-1216.5 21.5,-1216.5"/>
<text text-anchor="middle" x="69.5" y="-1223.5" font-family="Helvetica,sans-Serif" font-size="10.00">SCSCL::WritePos</text>
</a>
</g>
</g>
<!-- Node2&#45;&gt;Node5 -->
<g id="edge4" class="edge">
<title>Node2&#45;&gt;Node5</title>
<path fill="none" stroke="midnightblue" d="M220.14,-1111.62C205.73,-1137.03 176.49,-1182.23 139,-1207 132.51,-1211.29 125.07,-1214.61 117.54,-1217.19"/>
<polygon fill="midnightblue" stroke="midnightblue" points="223.33,-1113.09 225.08,-1102.64 217.2,-1109.71 223.33,-1113.09"/>
</g>
<!-- Node6 -->
<g id="node6" class="node">
<title>Node6</title>
<g id="a_node6"><a xlink:href="classSMS__STS.html#a45a16d8560e8267770a4de848356da51" target="_top" xlink:title=" ">
<polygon fill="white" stroke="black" points="9,-1178.5 9,-1197.5 130,-1197.5 130,-1178.5 9,-1178.5"/>
<text text-anchor="middle" x="69.5" y="-1185.5" font-family="Helvetica,sans-Serif" font-size="10.00">SMS_STS::WritePosEx</text>
</a>
</g>
</g>
<!-- Node2&#45;&gt;Node6 -->
<g id="edge5" class="edge">
<title>Node2&#45;&gt;Node6</title>
<path fill="none" stroke="midnightblue" d="M214.2,-1109.9C197.18,-1127.13 168.56,-1153.49 139,-1169 131.79,-1172.78 123.74,-1175.88 115.77,-1178.39"/>
<polygon fill="midnightblue" stroke="midnightblue" points="216.73,-1112.31 221.16,-1102.69 211.69,-1107.45 216.73,-1112.31"/>
</g>
<!-- Node7 -->
<g id="node7" class="node">
<title>Node7</title>
<g id="a_node7"><a xlink:href="classSMSBL.html#ae0e7fe9d3da55ee2065a024af2dc1563" target="_top" xlink:title=" ">
<polygon fill="white" stroke="black" points="15.5,-1140.5 15.5,-1159.5 123.5,-1159.5 123.5,-1140.5 15.5,-1140.5"/>
<text text-anchor="middle" x="69.5" y="-1147.5" font-family="Helvetica,sans-Serif" font-size="10.00">SMSBL::WritePosEx</text>
</a>
</g>
</g>
<!-- Node2&#45;&gt;Node7 -->
<g id="edge6" class="edge">
<title>Node2&#45;&gt;Node7</title>
<path fill="none" stroke="midnightblue" d="M200.14,-1106.58C182.55,-1114.3 159.75,-1123.82 139,-1131 129.09,-1134.43 118.2,-1137.68 108.09,-1140.48"/>
<polygon fill="midnightblue" stroke="midnightblue" points="201.6,-1109.76 209.32,-1102.51 198.76,-1103.36 201.6,-1109.76"/>
</g>
<!-- Node8 -->
<g id="node8" class="node">
<title>Node8</title>
<g id="a_node8"><a xlink:href="classSMSCL.html#a9fa6f85374721a87e16c913325225c98" target="_top" xlink:title=" ">
<polygon fill="white" stroke="black" points="15,-1102.5 15,-1121.5 124,-1121.5 124,-1102.5 15,-1102.5"/>
<text text-anchor="middle" x="69.5" y="-1109.5" font-family="Helvetica,sans-Serif" font-size="10.00">SMSCL::WritePosEx</text>
</a>
</g>
</g>
<!-- Node2&#45;&gt;Node8 -->
<g id="edge7" class="edge">
<title>Node2&#45;&gt;Node8</title>
<path fill="none" stroke="midnightblue" d="M179.66,-1099C162.04,-1101.1 142.19,-1103.46 124.3,-1105.59"/>
<polygon fill="midnightblue" stroke="midnightblue" points="180.24,-1102.45 189.75,-1097.79 179.41,-1095.5 180.24,-1102.45"/>
</g>
<!-- Node9 -->
<g id="node9" class="node">
<title>Node9</title>
<g id="a_node9"><a xlink:href="classSMS__STS.html#a78002513f351d644081ec91b4b058741" target="_top" xlink:title=" ">
<polygon fill="white" stroke="black" points="12.5,-1064.5 12.5,-1083.5 126.5,-1083.5 126.5,-1064.5 12.5,-1064.5"/>
<text text-anchor="middle" x="69.5" y="-1071.5" font-family="Helvetica,sans-Serif" font-size="10.00">SMS_STS::WritePwm</text>
</a>
</g>
</g>
<!-- Node2&#45;&gt;Node9 -->
<g id="edge8" class="edge">
<title>Node2&#45;&gt;Node9</title>
<path fill="none" stroke="midnightblue" d="M179.58,-1086.99C162.76,-1084.99 143.92,-1082.75 126.7,-1080.69"/>
<polygon fill="midnightblue" stroke="midnightblue" points="179.41,-1090.5 189.75,-1088.21 180.24,-1083.55 179.41,-1090.5"/>
</g>
<!-- Node10 -->
<g id="node10" class="node">
<title>Node10</title>
<g id="a_node10"><a xlink:href="classSCSCL.html#ab8504abcb365ab4bd0756f14c8c49c58" target="_top" xlink:title=" ">
<polygon fill="white" stroke="black" points="17.5,-1026.5 17.5,-1045.5 121.5,-1045.5 121.5,-1026.5 17.5,-1026.5"/>
<text text-anchor="middle" x="69.5" y="-1033.5" font-family="Helvetica,sans-Serif" font-size="10.00">SCSCL::WritePWM</text>
</a>
</g>
</g>
<!-- Node2&#45;&gt;Node10 -->
<g id="edge9" class="edge">
<title>Node2&#45;&gt;Node10</title>
<path fill="none" stroke="midnightblue" d="M200.14,-1079.42C182.55,-1071.7 159.75,-1062.18 139,-1055 129.09,-1051.57 118.2,-1048.32 108.09,-1045.52"/>
<polygon fill="midnightblue" stroke="midnightblue" points="198.76,-1082.64 209.32,-1083.49 201.6,-1076.24 198.76,-1082.64"/>
</g>
<!-- Node11 -->
<g id="node11" class="node">
<title>Node11</title>
<g id="a_node11"><a xlink:href="classSMS__STS.html#a5ed19565b4ab24b45a3fabe9b1fa11b9" target="_top" xlink:title=" ">
<polygon fill="white" stroke="black" points="15,-988.5 15,-1007.5 124,-1007.5 124,-988.5 15,-988.5"/>
<text text-anchor="middle" x="69.5" y="-995.5" font-family="Helvetica,sans-Serif" font-size="10.00">SMS_STS::WriteSpe</text>
</a>
</g>
</g>
<!-- Node2&#45;&gt;Node11 -->
<g id="edge10" class="edge">
<title>Node2&#45;&gt;Node11</title>
<path fill="none" stroke="midnightblue" d="M214.2,-1076.1C197.18,-1058.87 168.56,-1032.51 139,-1017 131.79,-1013.22 123.74,-1010.12 115.77,-1007.61"/>
<polygon fill="midnightblue" stroke="midnightblue" points="211.69,-1078.55 221.16,-1083.31 216.73,-1073.69 211.69,-1078.55"/>
</g>
<!-- Node12 -->
<g id="node12" class="node">
<title>Node12</title>
<g id="a_node12"><a xlink:href="classSMSBL.html#aaee8d1d76810cf8b200a60e50cc907f8" target="_top" xlink:title=" ">
<polygon fill="white" stroke="black" points="21.5,-950.5 21.5,-969.5 117.5,-969.5 117.5,-950.5 21.5,-950.5"/>
<text text-anchor="middle" x="69.5" y="-957.5" font-family="Helvetica,sans-Serif" font-size="10.00">SMSBL::WriteSpe</text>
</a>
</g>
</g>
<!-- Node2&#45;&gt;Node12 -->
<g id="edge11" class="edge">
<title>Node2&#45;&gt;Node12</title>
<path fill="none" stroke="midnightblue" d="M220.14,-1074.38C205.73,-1048.97 176.49,-1003.77 139,-979 132.51,-974.71 125.07,-971.39 117.54,-968.81"/>
<polygon fill="midnightblue" stroke="midnightblue" points="217.2,-1076.29 225.08,-1083.36 223.33,-1072.91 217.2,-1076.29"/>
</g>
<!-- Node13 -->
<g id="node13" class="node">
<title>Node13</title>
<g id="a_node13"><a xlink:href="classSMSCL.html#a64ffd4a24864944b515319892cda0028" target="_top" xlink:title=" ">
<polygon fill="white" stroke="black" points="21,-912.5 21,-931.5 118,-931.5 118,-912.5 21,-912.5"/>
<text text-anchor="middle" x="69.5" y="-919.5" font-family="Helvetica,sans-Serif" font-size="10.00">SMSCL::WriteSpe</text>
</a>
</g>
</g>
<!-- Node2&#45;&gt;Node13 -->
<g id="edge12" class="edge">
<title>Node2&#45;&gt;Node13</title>
<path fill="none" stroke="midnightblue" d="M223.84,-1073.82C212.45,-1041.43 184.94,-976 139,-941 132.81,-936.29 125.53,-932.75 118.05,-930.08"/>
<polygon fill="midnightblue" stroke="midnightblue" points="220.58,-1075.1 227.1,-1083.45 227.21,-1072.86 220.58,-1075.1"/>
</g>
<!-- Node15 -->
<g id="node15" class="node">
<title>Node15</title>
<g id="a_node15"><a xlink:href="classSCSCL.html#aa3506a4b76259bc859544c83b64b1c01" target="_top" xlink:title=" ">
<polygon fill="white" stroke="black" points="12.5,-874.5 12.5,-893.5 126.5,-893.5 126.5,-874.5 12.5,-874.5"/>
<text text-anchor="middle" x="69.5" y="-881.5" font-family="Helvetica,sans-Serif" font-size="10.00">SCSCL::RegWritePos</text>
</a>
</g>
</g>
<!-- Node14&#45;&gt;Node15 -->
<g id="edge14" class="edge">
<title>Node14&#45;&gt;Node15</title>
<path fill="none" stroke="midnightblue" d="M217.55,-787.98C201.74,-809.46 172.45,-845.01 139,-865 132.54,-868.86 125.27,-871.96 117.94,-874.45"/>
<polygon fill="midnightblue" stroke="midnightblue" points="220.49,-789.88 223.47,-779.72 214.8,-785.8 220.49,-789.88"/>
</g>
<!-- Node16 -->
<g id="node16" class="node">
<title>Node16</title>
<g id="a_node16"><a xlink:href="classSMS__STS.html#abc5996ea19a51493c4fb2a991dd710bc" target="_top" xlink:title=" ">
<polygon fill="white" stroke="black" points="0,-836.5 0,-855.5 139,-855.5 139,-836.5 0,-836.5"/>
<text text-anchor="middle" x="69.5" y="-843.5" font-family="Helvetica,sans-Serif" font-size="10.00">SMS_STS::RegWritePosEx</text>
</a>
</g>
</g>
<!-- Node14&#45;&gt;Node16 -->
<g id="edge15" class="edge">
<title>Node14&#45;&gt;Node16</title>
<path fill="none" stroke="midnightblue" d="M208.93,-785.67C191.08,-798.32 164.42,-815.8 139,-827 130.64,-830.68 121.39,-833.82 112.47,-836.43"/>
<polygon fill="midnightblue" stroke="midnightblue" points="211.34,-788.25 217.4,-779.56 207.24,-782.57 211.34,-788.25"/>
</g>
<!-- Node17 -->
<g id="node17" class="node">
<title>Node17</title>
<g id="a_node17"><a xlink:href="classSMSBL.html#a499cfa7e56879d68d237f7ce44358302" target="_top" xlink:title=" ">
<polygon fill="white" stroke="black" points="6.5,-798.5 6.5,-817.5 132.5,-817.5 132.5,-798.5 6.5,-798.5"/>
<text text-anchor="middle" x="69.5" y="-805.5" font-family="Helvetica,sans-Serif" font-size="10.00">SMSBL::RegWritePosEx</text>
</a>
</g>
</g>
<!-- Node14&#45;&gt;Node17 -->
<g id="edge16" class="edge">
<title>Node14&#45;&gt;Node17</title>
<path fill="none" stroke="midnightblue" d="M181.21,-781.62C158.56,-787.02 131.95,-793.36 110.5,-798.47"/>
<polygon fill="midnightblue" stroke="midnightblue" points="182.07,-785.02 190.98,-779.3 180.44,-778.21 182.07,-785.02"/>
</g>
<!-- Node18 -->
<g id="node18" class="node">
<title>Node18</title>
<g id="a_node18"><a xlink:href="classSMSCL.html#aa9395f6a9d9032740ac3e312a7205c7c" target="_top" xlink:title=" ">
<polygon fill="white" stroke="black" points="6,-760.5 6,-779.5 133,-779.5 133,-760.5 6,-760.5"/>
<text text-anchor="middle" x="69.5" y="-767.5" font-family="Helvetica,sans-Serif" font-size="10.00">SMSCL::RegWritePosEx</text>
</a>
</g>
</g>
<!-- Node14&#45;&gt;Node18 -->
<g id="edge17" class="edge">
<title>Node14&#45;&gt;Node18</title>
<path fill="none" stroke="midnightblue" d="M180.84,-770C165.73,-770 148.91,-770 133.04,-770"/>
<polygon fill="midnightblue" stroke="midnightblue" points="180.98,-773.5 190.98,-770 180.98,-766.5 180.98,-773.5"/>
</g>
<!-- Node19 -->
<g id="node19" class="node">
<title>Node19</title>
<g id="a_node19"><a xlink:href="classSMS__STS.html#a26d3353e8e46edab51f400e74e75f3e5" target="_top" xlink:title=" ">
<polygon fill="white" stroke="black" points="3.5,-722.5 3.5,-741.5 135.5,-741.5 135.5,-722.5 3.5,-722.5"/>
<text text-anchor="middle" x="69.5" y="-729.5" font-family="Helvetica,sans-Serif" font-size="10.00">SMS_STS::RegWritePwm</text>
</a>
</g>
</g>
<!-- Node14&#45;&gt;Node19 -->
<g id="edge18" class="edge">
<title>Node14&#45;&gt;Node19</title>
<path fill="none" stroke="midnightblue" d="M181.21,-758.38C158.56,-752.98 131.95,-746.64 110.5,-741.53"/>
<polygon fill="midnightblue" stroke="midnightblue" points="180.44,-761.79 190.98,-760.7 182.07,-754.98 180.44,-761.79"/>
</g>
<!-- Node20 -->
<g id="node20" class="node">
<title>Node20</title>
<g id="a_node20"><a xlink:href="classSMS__STS.html#ac80d59c2006b9c13b380e392e1d381fe" target="_top" xlink:title=" ">
<polygon fill="white" stroke="black" points="6,-684.5 6,-703.5 133,-703.5 133,-684.5 6,-684.5"/>
<text text-anchor="middle" x="69.5" y="-691.5" font-family="Helvetica,sans-Serif" font-size="10.00">SMS_STS::RegWriteSpe</text>
</a>
</g>
</g>
<!-- Node14&#45;&gt;Node20 -->
<g id="edge19" class="edge">
<title>Node14&#45;&gt;Node20</title>
<path fill="none" stroke="midnightblue" d="M208.93,-754.33C191.08,-741.68 164.42,-724.2 139,-713 130.64,-709.32 121.39,-706.18 112.47,-703.57"/>
<polygon fill="midnightblue" stroke="midnightblue" points="207.24,-757.43 217.4,-760.44 211.34,-751.75 207.24,-757.43"/>
</g>
<!-- Node23 -->
<g id="node23" class="node">
<title>Node23</title>
<g id="a_node23"><a xlink:href="classSMS__STS.html#a8195a0ac4884d4724bdda1d688faf5f1" target="_top" xlink:title=" ">
<polygon fill="white" stroke="black" points="4,-646.5 4,-665.5 135,-665.5 135,-646.5 4,-646.5"/>
<text text-anchor="middle" x="69.5" y="-653.5" font-family="Helvetica,sans-Serif" font-size="10.00">SMS_STS::CalibrationOfs</text>
</a>
</g>
</g>
<!-- Node22&#45;&gt;Node23 -->
<g id="edge22" class="edge">
<title>Node22&#45;&gt;Node23</title>
<path fill="none" stroke="midnightblue" d="M223.9,-390.44C205.04,-450.27 148.45,-628.1 139,-637 134.87,-640.89 130.01,-644 124.82,-646.48"/>
<polygon fill="midnightblue" stroke="midnightblue" points="227.29,-391.3 226.96,-380.71 220.62,-389.2 227.29,-391.3"/>
</g>
<!-- Node24 -->
<g id="node24" class="node">
<title>Node24</title>
<g id="a_node24"><a xlink:href="classSMSBL.html#a73c537c03b98e99429486d22a40482f8" target="_top" xlink:title=" ">
<polygon fill="white" stroke="black" points="10,-608.5 10,-627.5 129,-627.5 129,-608.5 10,-608.5"/>
<text text-anchor="middle" x="69.5" y="-615.5" font-family="Helvetica,sans-Serif" font-size="10.00">SMSBL::CalibrationOfs</text>
</a>
</g>
</g>
<!-- Node22&#45;&gt;Node24 -->
<g id="edge23" class="edge">
<title>Node22&#45;&gt;Node24</title>
<path fill="none" stroke="midnightblue" d="M224.67,-390.4C210.67,-440.01 171.68,-569.71 139,-599 134.68,-602.87 129.64,-605.96 124.28,-608.43"/>
<polygon fill="midnightblue" stroke="midnightblue" points="228.09,-391.16 227.4,-380.59 221.34,-389.28 228.09,-391.16"/>
</g>
<!-- Node25 -->
<g id="node25" class="node">
<title>Node25</title>
<g id="a_node25"><a xlink:href="classSMSCL.html#a8a935c8c2fa9590df892ec4a2cfd70e8" target="_top" xlink:title=" ">
<polygon fill="white" stroke="black" points="10,-570.5 10,-589.5 129,-589.5 129,-570.5 10,-570.5"/>
<text text-anchor="middle" x="69.5" y="-577.5" font-family="Helvetica,sans-Serif" font-size="10.00">SMSCL::CalibrationOfs</text>
</a>
</g>
</g>
<!-- Node22&#45;&gt;Node25 -->
<g id="edge24" class="edge">
<title>Node22&#45;&gt;Node25</title>
<path fill="none" stroke="midnightblue" d="M226.24,-390.56C217.8,-429.13 193.61,-515.25 139,-561 134.36,-564.88 128.99,-567.98 123.34,-570.44"/>
<polygon fill="midnightblue" stroke="midnightblue" points="229.7,-391.11 228.3,-380.61 222.85,-389.69 229.7,-391.11"/>
</g>
<!-- Node26 -->
<g id="node26" class="node">
<title>Node26</title>
<g id="a_node26"><a xlink:href="classSCSCL.html#aa63b939c1baf157137c9bd14ca65f1fe" target="_top" xlink:title=" ">
<polygon fill="white" stroke="black" points="11.5,-532.5 11.5,-551.5 127.5,-551.5 127.5,-532.5 11.5,-532.5"/>
<text text-anchor="middle" x="69.5" y="-539.5" font-family="Helvetica,sans-Serif" font-size="10.00">SCSCL::EnableTorque</text>
</a>
</g>
</g>
<!-- Node22&#45;&gt;Node26 -->
<g id="edge25" class="edge">
<title>Node22&#45;&gt;Node26</title>
<path fill="none" stroke="midnightblue" d="M223.84,-390.18C212.45,-422.57 184.94,-488 139,-523 133.89,-526.89 128.04,-529.98 121.94,-532.44"/>
<polygon fill="midnightblue" stroke="midnightblue" points="227.21,-391.14 227.1,-380.55 220.58,-388.9 227.21,-391.14"/>
</g>
<!-- Node27 -->
<g id="node27" class="node">
<title>Node27</title>
<g id="a_node27"><a xlink:href="classSMS__STS.html#a50b5750f93d53f13f93526c68ccbd866" target="_top" xlink:title=" ">
<polygon fill="white" stroke="black" points="5.5,-494.5 5.5,-513.5 133.5,-513.5 133.5,-494.5 5.5,-494.5"/>
<text text-anchor="middle" x="69.5" y="-501.5" font-family="Helvetica,sans-Serif" font-size="10.00">SMS_STS::EnableTorque</text>
</a>
</g>
</g>
<!-- Node22&#45;&gt;Node27 -->
<g id="edge26" class="edge">
<title>Node22&#45;&gt;Node27</title>
<path fill="none" stroke="midnightblue" d="M220.14,-389.62C205.73,-415.03 176.49,-460.23 139,-485 133.13,-488.88 126.48,-491.97 119.68,-494.44"/>
<polygon fill="midnightblue" stroke="midnightblue" points="223.33,-391.09 225.08,-380.64 217.2,-387.71 223.33,-391.09"/>
</g>
<!-- Node28 -->
<g id="node28" class="node">
<title>Node28</title>
<g id="a_node28"><a xlink:href="classSMSBL.html#adc36b44867884029a13b63b3b41c3a8d" target="_top" xlink:title=" ">
<polygon fill="white" stroke="black" points="11.5,-456.5 11.5,-475.5 127.5,-475.5 127.5,-456.5 11.5,-456.5"/>
<text text-anchor="middle" x="69.5" y="-463.5" font-family="Helvetica,sans-Serif" font-size="10.00">SMSBL::EnableTorque</text>
</a>
</g>
</g>
<!-- Node22&#45;&gt;Node28 -->
<g id="edge27" class="edge">
<title>Node22&#45;&gt;Node28</title>
<path fill="none" stroke="midnightblue" d="M214.2,-387.9C197.18,-405.13 168.56,-431.49 139,-447 131.79,-450.78 123.74,-453.88 115.77,-456.39"/>
<polygon fill="midnightblue" stroke="midnightblue" points="216.73,-390.31 221.16,-380.69 211.69,-385.45 216.73,-390.31"/>
</g>
<!-- Node29 -->
<g id="node29" class="node">
<title>Node29</title>
<g id="a_node29"><a xlink:href="classSMSCL.html#a2f2e8e8ac960501339943da8af0a62d5" target="_top" xlink:title=" ">
<polygon fill="white" stroke="black" points="11.5,-418.5 11.5,-437.5 127.5,-437.5 127.5,-418.5 11.5,-418.5"/>
<text text-anchor="middle" x="69.5" y="-425.5" font-family="Helvetica,sans-Serif" font-size="10.00">SMSCL::EnableTorque</text>
</a>
</g>
</g>
<!-- Node22&#45;&gt;Node29 -->
<g id="edge28" class="edge">
<title>Node22&#45;&gt;Node29</title>
<path fill="none" stroke="midnightblue" d="M200.14,-384.58C182.55,-392.3 159.75,-401.82 139,-409 129.09,-412.43 118.2,-415.68 108.09,-418.48"/>
<polygon fill="midnightblue" stroke="midnightblue" points="201.6,-387.76 209.32,-380.51 198.76,-381.36 201.6,-387.76"/>
</g>
<!-- Node30 -->
<g id="node30" class="node">
<title>Node30</title>
<g id="a_node30"><a xlink:href="classSCSCL.html#ae144ca811ae2c155665d2dee5ffc1fc5" target="_top" xlink:title=" ">
<polygon fill="white" stroke="black" points="16.5,-380.5 16.5,-399.5 122.5,-399.5 122.5,-380.5 16.5,-380.5"/>
<text text-anchor="middle" x="69.5" y="-387.5" font-family="Helvetica,sans-Serif" font-size="10.00">SCSCL::LockEprom</text>
</a>
</g>
</g>
<!-- Node22&#45;&gt;Node30 -->
<g id="edge29" class="edge">
<title>Node22&#45;&gt;Node30</title>
<path fill="none" stroke="midnightblue" d="M177.93,-377.2C160.21,-379.31 140.41,-381.67 122.68,-383.78"/>
<polygon fill="midnightblue" stroke="midnightblue" points="178.58,-380.65 188.09,-375.99 177.75,-373.7 178.58,-380.65"/>
</g>
<!-- Node31 -->
<g id="node31" class="node">
<title>Node31</title>
<g id="a_node31"><a xlink:href="classSMS__STS.html#a53179f61d0b954ee04af0e4e5a778879" target="_top" xlink:title=" ">
<polygon fill="white" stroke="black" points="10,-342.5 10,-361.5 129,-361.5 129,-342.5 10,-342.5"/>
<text text-anchor="middle" x="69.5" y="-349.5" font-family="Helvetica,sans-Serif" font-size="10.00">SMS_STS::LockEprom</text>
</a>
</g>
</g>
<!-- Node22&#45;&gt;Node31 -->
<g id="edge30" class="edge">
<title>Node22&#45;&gt;Node31</title>
<path fill="none" stroke="midnightblue" d="M178.1,-364.82C162.48,-362.96 145.24,-360.9 129.22,-358.99"/>
<polygon fill="midnightblue" stroke="midnightblue" points="177.75,-368.3 188.09,-366.01 178.58,-361.35 177.75,-368.3"/>
</g>
<!-- Node32 -->
<g id="node32" class="node">
<title>Node32</title>
<g id="a_node32"><a xlink:href="classSMSBL.html#ab8679c5c1d2fcf0c6f27162b6d4b3545" target="_top" xlink:title=" ">
<polygon fill="white" stroke="black" points="16.5,-304.5 16.5,-323.5 122.5,-323.5 122.5,-304.5 16.5,-304.5"/>
<text text-anchor="middle" x="69.5" y="-311.5" font-family="Helvetica,sans-Serif" font-size="10.00">SMSBL::LockEprom</text>
</a>
</g>
</g>
<!-- Node22&#45;&gt;Node32 -->
<g id="edge31" class="edge">
<title>Node22&#45;&gt;Node32</title>
<path fill="none" stroke="midnightblue" d="M190.01,-357.99C184.91,-356.1 179.8,-354.08 175,-352 158.4,-344.8 155.81,-339.68 139,-333 129.94,-329.4 119.95,-326.21 110.46,-323.53"/>
<polygon fill="midnightblue" stroke="midnightblue" points="189.11,-361.39 199.71,-361.47 191.47,-354.8 189.11,-361.39"/>
</g>
<!-- Node33 -->
<g id="node33" class="node">
<title>Node33</title>
<g id="a_node33"><a xlink:href="classSMSCL.html#a6c127ca914bff0198ec8277ffa213752" target="_top" xlink:title=" ">
<polygon fill="white" stroke="black" points="16,-266.5 16,-285.5 123,-285.5 123,-266.5 16,-266.5"/>
<text text-anchor="middle" x="69.5" y="-273.5" font-family="Helvetica,sans-Serif" font-size="10.00">SMSCL::LockEprom</text>
</a>
</g>
</g>
<!-- Node22&#45;&gt;Node33 -->
<g id="edge32" class="edge">
<title>Node22&#45;&gt;Node33</title>
<path fill="none" stroke="midnightblue" d="M182.26,-356.9C179.71,-355.42 177.26,-353.79 175,-352 151.52,-333.39 163.05,-312.87 139,-295 133.75,-291.1 127.74,-288 121.5,-285.54"/>
<polygon fill="midnightblue" stroke="midnightblue" points="180.77,-360.07 191.29,-361.38 183.89,-353.8 180.77,-360.07"/>
</g>
<!-- Node34 -->
<g id="node34" class="node">
<title>Node34</title>
<g id="a_node34"><a xlink:href="classSMS__STS.html#abb804df208a277343f1f3b44b5b23381" target="_top" xlink:title=" ">
<polygon fill="white" stroke="black" points="23,-228.5 23,-247.5 116,-247.5 116,-228.5 23,-228.5"/>
<text text-anchor="middle" x="69.5" y="-235.5" font-family="Helvetica,sans-Serif" font-size="10.00">SMS_STS::Mode</text>
</a>
</g>
</g>
<!-- Node22&#45;&gt;Node34 -->
<g id="edge33" class="edge">
<title>Node22&#45;&gt;Node34</title>
<path fill="none" stroke="midnightblue" d="M180.23,-356.34C178.38,-355.01 176.62,-353.57 175,-352 142.6,-320.55 172.36,-287.43 139,-257 132.62,-251.18 124.6,-247.12 116.33,-244.29"/>
<polygon fill="midnightblue" stroke="midnightblue" points="178.5,-359.38 188.9,-361.41 182.04,-353.34 178.5,-359.38"/>
</g>
<!-- Node35 -->
<g id="node35" class="node">
<title>Node35</title>
<g id="a_node35"><a xlink:href="classSCSCL.html#aaa64e542e7560f479c086541d04bd8aa" target="_top" xlink:title=" ">
<polygon fill="white" stroke="black" points="11.5,-190.5 11.5,-209.5 127.5,-209.5 127.5,-190.5 11.5,-190.5"/>
<text text-anchor="middle" x="69.5" y="-197.5" font-family="Helvetica,sans-Serif" font-size="10.00">SCSCL::unLockEprom</text>
</a>
</g>
</g>
<!-- Node22&#45;&gt;Node35 -->
<g id="edge34" class="edge">
<title>Node22&#45;&gt;Node35</title>
<path fill="none" stroke="midnightblue" d="M179.53,-356.14C177.92,-354.87 176.4,-353.5 175,-352 133.2,-307.25 182.17,-262.44 139,-219 135.17,-215.15 130.64,-212.06 125.75,-209.58"/>
<polygon fill="midnightblue" stroke="midnightblue" points="177.93,-359.27 188.26,-361.63 181.66,-353.34 177.93,-359.27"/>
</g>
<!-- Node36 -->
<g id="node36" class="node">
<title>Node36</title>
<g id="a_node36"><a xlink:href="classSMS__STS.html#a5d2043ecf3f257b39fcf785a29771484" target="_top" xlink:title=" ">
<polygon fill="white" stroke="black" points="5,-152.5 5,-171.5 134,-171.5 134,-152.5 5,-152.5"/>
<text text-anchor="middle" x="69.5" y="-159.5" font-family="Helvetica,sans-Serif" font-size="10.00">SMS_STS::unLockEprom</text>
</a>
</g>
</g>
<!-- Node22&#45;&gt;Node36 -->
<g id="edge35" class="edge">
<title>Node22&#45;&gt;Node36</title>
<path fill="none" stroke="midnightblue" d="M179.51,-356.31C177.89,-355 176.38,-353.56 175,-352 123.62,-293.76 192.16,-237.62 139,-181 135.37,-177.13 131.02,-174.03 126.31,-171.54"/>
<polygon fill="midnightblue" stroke="midnightblue" points="178.01,-359.51 188.32,-361.96 181.79,-353.62 178.01,-359.51"/>
</g>
<!-- Node37 -->
<g id="node37" class="node">
<title>Node37</title>
<g id="a_node37"><a xlink:href="classSMSBL.html#abe2cf9254e6ddc79e4bbfd71b0725ea9" target="_top" xlink:title=" ">
<polygon fill="white" stroke="black" points="11.5,-114.5 11.5,-133.5 127.5,-133.5 127.5,-114.5 11.5,-114.5"/>
<text text-anchor="middle" x="69.5" y="-121.5" font-family="Helvetica,sans-Serif" font-size="10.00">SMSBL::unLockEprom</text>
</a>
</g>
</g>
<!-- Node22&#45;&gt;Node37 -->
<g id="edge36" class="edge">
<title>Node22&#45;&gt;Node37</title>
<path fill="none" stroke="midnightblue" d="M179.93,-356.79C178.15,-355.34 176.49,-353.75 175,-352 113.96,-280.17 202.24,-212.9 139,-143 135.52,-139.16 131.34,-136.06 126.78,-133.58"/>
<polygon fill="midnightblue" stroke="midnightblue" points="178.14,-359.79 188.45,-362.22 181.91,-353.89 178.14,-359.79"/>
</g>
<!-- Node38 -->
<g id="node38" class="node">
<title>Node38</title>
<g id="a_node38"><a xlink:href="classSMSCL.html#a8f37c3529b0facfa1314c363ff39639b" target="_top" xlink:title=" ">
<polygon fill="white" stroke="black" points="11,-76.5 11,-95.5 128,-95.5 128,-76.5 11,-76.5"/>
<text text-anchor="middle" x="69.5" y="-83.5" font-family="Helvetica,sans-Serif" font-size="10.00">SMSCL::unLockEprom</text>
</a>
</g>
</g>
<!-- Node22&#45;&gt;Node38 -->
<g id="edge37" class="edge">
<title>Node22&#45;&gt;Node38</title>
<path fill="none" stroke="midnightblue" d="M179.88,-356.83C178.1,-355.38 176.47,-353.77 175,-352 104.26,-266.54 212.36,-188.22 139,-105 135.65,-101.2 131.62,-98.14 127.21,-95.66"/>
<polygon fill="midnightblue" stroke="midnightblue" points="178.05,-359.82 188.35,-362.31 181.85,-353.94 178.05,-359.82"/>
</g>
<!-- Node39 -->
<g id="node39" class="node">
<title>Node39</title>
<g id="a_node39"><a xlink:href="classSMSBL.html#a0a136f721c8792fc6183225f62e4e318" target="_top" xlink:title=" ">
<polygon fill="white" stroke="black" points="15.5,-38.5 15.5,-57.5 123.5,-57.5 123.5,-38.5 15.5,-38.5"/>
<text text-anchor="middle" x="69.5" y="-45.5" font-family="Helvetica,sans-Serif" font-size="10.00">SMSBL::WheelMode</text>
</a>
</g>
</g>
<!-- Node22&#45;&gt;Node39 -->
<g id="edge38" class="edge">
<title>Node22&#45;&gt;Node39</title>
<path fill="none" stroke="midnightblue" d="M179.83,-356.87C178.07,-355.4 176.45,-353.78 175,-352 94.53,-252.88 222.51,-163.58 139,-67 134.8,-62.15 129.48,-58.48 123.67,-55.72"/>
<polygon fill="midnightblue" stroke="midnightblue" points="177.99,-359.84 188.27,-362.37 181.81,-353.98 177.99,-359.84"/>
</g>
<!-- Node40 -->
<g id="node40" class="node">
<title>Node40</title>
<g id="a_node40"><a xlink:href="classSMSCL.html#a9dfb5e0ceed8058e8227897d3e859223" target="_top" xlink:title=" ">
<polygon fill="white" stroke="black" points="15,-0.5 15,-19.5 124,-19.5 124,-0.5 15,-0.5"/>
<text text-anchor="middle" x="69.5" y="-7.5" font-family="Helvetica,sans-Serif" font-size="10.00">SMSCL::WheelMode</text>
</a>
</g>
</g>
<!-- Node22&#45;&gt;Node40 -->
<g id="edge39" class="edge">
<title>Node22&#45;&gt;Node40</title>
<path fill="none" stroke="midnightblue" d="M179.89,-356.97C178.11,-355.48 176.46,-353.83 175,-352 84.78,-239.19 232.67,-138.95 139,-29 134.92,-24.21 129.74,-20.57 124.08,-17.82"/>
<polygon fill="midnightblue" stroke="midnightblue" points="178.19,-360.04 188.49,-362.56 182.01,-354.17 178.19,-360.04"/>
</g>
</g>
</svg>
