<?xml version="1.0" encoding="UTF-8" standalone="no"?>
<!DOCTYPE svg PUBLIC "-//W3C//DTD SVG 1.1//EN"
 "http://www.w3.org/Graphics/SVG/1.1/DTD/svg11.dtd">
<!-- Generated by graphviz version 2.43.0 (0)
 -->
<!-- Title: SMSBL::ReadVoltage Pages: 1 -->
<svg width="596pt" height="142pt"
 viewBox="0.00 0.00 596.00 142.00" xmlns="http://www.w3.org/2000/svg" xmlns:xlink="http://www.w3.org/1999/xlink">
<g id="graph0" class="graph" transform="scale(1 1) rotate(0) translate(4 138)">
<title>SMSBL::ReadVoltage</title>
<polygon fill="white" stroke="transparent" points="-4,4 -4,-138 592,-138 592,4 -4,4"/>
<!-- Node1 -->
<g id="node1" class="node">
<title>Node1</title>
<g id="a_node1"><a xlink:title=" ">
<polygon fill="#bfbfbf" stroke="black" points="0,-57.5 0,-76.5 112,-76.5 112,-57.5 0,-57.5"/>
<text text-anchor="middle" x="56" y="-64.5" font-family="Helvetica,sans-Serif" font-size="10.00">SMSBL::ReadVoltage</text>
</a>
</g>
</g>
<!-- Node2 -->
<g id="node2" class="node">
<title>Node2</title>
<g id="a_node2"><a xlink:href="classSCS.html#a53f169d695ac021846b259abbe410d4f" target="_top" xlink:title=" ">
<polygon fill="white" stroke="black" points="148,-57.5 148,-76.5 231,-76.5 231,-57.5 148,-57.5"/>
<text text-anchor="middle" x="189.5" y="-64.5" font-family="Helvetica,sans-Serif" font-size="10.00">SCS::readByte</text>
</a>
</g>
</g>
<!-- Node1&#45;&gt;Node2 -->
<g id="edge1" class="edge">
<title>Node1&#45;&gt;Node2</title>
<path fill="none" stroke="midnightblue" d="M112.01,-67C120.51,-67 129.26,-67 137.67,-67"/>
<polygon fill="midnightblue" stroke="midnightblue" points="137.72,-70.5 147.72,-67 137.72,-63.5 137.72,-70.5"/>
</g>
<!-- Node3 -->
<g id="node3" class="node">
<title>Node3</title>
<g id="a_node3"><a xlink:href="classSCS.html#a7d5573c3681d3afaa085f92f583a0dad" target="_top" xlink:title=" ">
<polygon fill="white" stroke="black" points="267,-57.5 267,-76.5 334,-76.5 334,-57.5 267,-57.5"/>
<text text-anchor="middle" x="300.5" y="-64.5" font-family="Helvetica,sans-Serif" font-size="10.00">SCS::Read</text>
</a>
</g>
</g>
<!-- Node2&#45;&gt;Node3 -->
<g id="edge2" class="edge">
<title>Node2&#45;&gt;Node3</title>
<path fill="none" stroke="midnightblue" d="M231.09,-67C239.44,-67 248.25,-67 256.67,-67"/>
<polygon fill="midnightblue" stroke="midnightblue" points="256.7,-70.5 266.7,-67 256.7,-63.5 256.7,-70.5"/>
</g>
<!-- Node4 -->
<g id="node4" class="node">
<title>Node4</title>
<g id="a_node4"><a xlink:href="classSCS.html#a7e23a5d866557da06108d326cb2055b9" target="_top" xlink:title=" ">
<polygon fill="white" stroke="black" points="376.5,-114.5 376.5,-133.5 459.5,-133.5 459.5,-114.5 376.5,-114.5"/>
<text text-anchor="middle" x="418" y="-121.5" font-family="Helvetica,sans-Serif" font-size="10.00">SCS::readSCS</text>
</a>
</g>
</g>
<!-- Node3&#45;&gt;Node4 -->
<g id="edge3" class="edge">
<title>Node3&#45;&gt;Node4</title>
<path fill="none" stroke="midnightblue" d="M317.54,-76.63C331.24,-84.68 351.59,-96.21 370,-105 373.84,-106.83 377.91,-108.65 381.98,-110.4"/>
<polygon fill="midnightblue" stroke="midnightblue" points="380.81,-113.7 391.39,-114.31 383.49,-107.24 380.81,-113.7"/>
</g>
<!-- Node5 -->
<g id="node5" class="node">
<title>Node5</title>
<g id="a_node5"><a xlink:href="classSCS.html#a856da9cc4c2a6d86984c3a314bfd87c9" target="_top" xlink:title=" ">
<polygon fill="white" stroke="black" points="372,-76.5 372,-95.5 464,-95.5 464,-76.5 372,-76.5"/>
<text text-anchor="middle" x="418" y="-83.5" font-family="Helvetica,sans-Serif" font-size="10.00">SCS::rFlushSCS</text>
</a>
</g>
</g>
<!-- Node3&#45;&gt;Node5 -->
<g id="edge4" class="edge">
<title>Node3&#45;&gt;Node5</title>
<path fill="none" stroke="midnightblue" d="M334.29,-72.39C342.81,-73.8 352.23,-75.35 361.57,-76.88"/>
<polygon fill="midnightblue" stroke="midnightblue" points="361.19,-80.37 371.63,-78.54 362.33,-73.46 361.19,-80.37"/>
</g>
<!-- Node6 -->
<g id="node6" class="node">
<title>Node6</title>
<g id="a_node6"><a xlink:href="classSCS.html#ad860b40280cba5d8ea5214cca6c70119" target="_top" xlink:title=" ">
<polygon fill="white" stroke="black" points="370,-38.5 370,-57.5 466,-57.5 466,-38.5 370,-38.5"/>
<text text-anchor="middle" x="418" y="-45.5" font-family="Helvetica,sans-Serif" font-size="10.00">SCS::wFlushSCS</text>
</a>
</g>
</g>
<!-- Node3&#45;&gt;Node6 -->
<g id="edge5" class="edge">
<title>Node3&#45;&gt;Node6</title>
<path fill="none" stroke="midnightblue" d="M334.29,-61.61C342.33,-60.28 351.18,-58.83 360,-57.38"/>
<polygon fill="midnightblue" stroke="midnightblue" points="360.6,-60.82 369.9,-55.75 359.47,-53.92 360.6,-60.82"/>
</g>
<!-- Node7 -->
<g id="node7" class="node">
<title>Node7</title>
<g id="a_node7"><a xlink:href="classSCS.html#aa4af18b8b9f34649cd1e8aadde6d9b1f" target="_top" xlink:title=" ">
<polygon fill="white" stroke="black" points="378,-0.5 378,-19.5 458,-19.5 458,-0.5 378,-0.5"/>
<text text-anchor="middle" x="418" y="-7.5" font-family="Helvetica,sans-Serif" font-size="10.00">SCS::writeBuf</text>
</a>
</g>
</g>
<!-- Node3&#45;&gt;Node7 -->
<g id="edge6" class="edge">
<title>Node3&#45;&gt;Node7</title>
<path fill="none" stroke="midnightblue" d="M317.54,-57.37C331.24,-49.32 351.59,-37.79 370,-29 373.84,-27.17 377.91,-25.35 381.98,-23.6"/>
<polygon fill="midnightblue" stroke="midnightblue" points="383.49,-26.76 391.39,-19.69 380.81,-20.3 383.49,-26.76"/>
</g>
<!-- Node8 -->
<g id="node8" class="node">
<title>Node8</title>
<g id="a_node8"><a xlink:href="classSCS.html#a863a8f5eabdddf9d7500698d4ccff05e" target="_top" xlink:title=" ">
<polygon fill="white" stroke="black" points="502,-0.5 502,-19.5 588,-19.5 588,-0.5 502,-0.5"/>
<text text-anchor="middle" x="545" y="-7.5" font-family="Helvetica,sans-Serif" font-size="10.00">SCS::writeSCS</text>
</a>
</g>
</g>
<!-- Node7&#45;&gt;Node8 -->
<g id="edge7" class="edge">
<title>Node7&#45;&gt;Node8</title>
<path fill="none" stroke="midnightblue" d="M458.21,-10C468.84,-10 480.53,-10 491.76,-10"/>
<polygon fill="midnightblue" stroke="midnightblue" points="491.9,-13.5 501.9,-10 491.9,-6.5 491.9,-13.5"/>
</g>
</g>
</svg>
