<?xml version="1.0" encoding="UTF-8" standalone="no"?>
<!DOCTYPE svg PUBLIC "-//W3C//DTD SVG 1.1//EN"
 "http://www.w3.org/Graphics/SVG/1.1/DTD/svg11.dtd">
<!-- Generated by graphviz version 2.43.0 (0)
 -->
<!-- Title: SCS::readWord Pages: 1 -->
<svg width="474pt" height="142pt"
 viewBox="0.00 0.00 474.00 142.00" xmlns="http://www.w3.org/2000/svg" xmlns:xlink="http://www.w3.org/1999/xlink">
<g id="graph0" class="graph" transform="scale(1 1) rotate(0) translate(4 138)">
<title>SCS::readWord</title>
<polygon fill="white" stroke="transparent" points="-4,4 -4,-138 470,-138 470,4 -4,4"/>
<!-- Node1 -->
<g id="node1" class="node">
<title>Node1</title>
<g id="a_node1"><a xlink:title=" ">
<polygon fill="#bfbfbf" stroke="black" points="0,-38.5 0,-57.5 85,-57.5 85,-38.5 0,-38.5"/>
<text text-anchor="middle" x="42.5" y="-45.5" font-family="Helvetica,sans-Serif" font-size="10.00">SCS::readWord</text>
</a>
</g>
</g>
<!-- Node2 -->
<g id="node2" class="node">
<title>Node2</title>
<g id="a_node2"><a xlink:href="classSCS.html#a7d5573c3681d3afaa085f92f583a0dad" target="_top" xlink:title=" ">
<polygon fill="white" stroke="black" points="133,-57.5 133,-76.5 200,-76.5 200,-57.5 133,-57.5"/>
<text text-anchor="middle" x="166.5" y="-64.5" font-family="Helvetica,sans-Serif" font-size="10.00">SCS::Read</text>
</a>
</g>
</g>
<!-- Node1&#45;&gt;Node2 -->
<g id="edge1" class="edge">
<title>Node1&#45;&gt;Node2</title>
<path fill="none" stroke="midnightblue" d="M85.14,-54.49C97.33,-56.38 110.67,-58.46 122.92,-60.37"/>
<polygon fill="midnightblue" stroke="midnightblue" points="122.48,-63.84 132.9,-61.92 123.55,-56.92 122.48,-63.84"/>
</g>
<!-- Node8 -->
<g id="node8" class="node">
<title>Node8</title>
<g id="a_node8"><a xlink:href="classSCS.html#a67f5b9706b79ac85ef02fb9d3ec2f0b6" target="_top" xlink:title=" ">
<polygon fill="white" stroke="black" points="121,-19.5 121,-38.5 212,-38.5 212,-19.5 121,-19.5"/>
<text text-anchor="middle" x="166.5" y="-26.5" font-family="Helvetica,sans-Serif" font-size="10.00">SCS::SCS2Host</text>
</a>
</g>
</g>
<!-- Node1&#45;&gt;Node8 -->
<g id="edge7" class="edge">
<title>Node1&#45;&gt;Node8</title>
<path fill="none" stroke="midnightblue" d="M85.14,-41.51C93.38,-40.23 102.14,-38.87 110.74,-37.53"/>
<polygon fill="midnightblue" stroke="midnightblue" points="111.36,-40.97 120.71,-35.98 110.29,-34.06 111.36,-40.97"/>
</g>
<!-- Node3 -->
<g id="node3" class="node">
<title>Node3</title>
<g id="a_node3"><a xlink:href="classSCS.html#a7e23a5d866557da06108d326cb2055b9" target="_top" xlink:title=" ">
<polygon fill="white" stroke="black" points="254.5,-114.5 254.5,-133.5 337.5,-133.5 337.5,-114.5 254.5,-114.5"/>
<text text-anchor="middle" x="296" y="-121.5" font-family="Helvetica,sans-Serif" font-size="10.00">SCS::readSCS</text>
</a>
</g>
</g>
<!-- Node2&#45;&gt;Node3 -->
<g id="edge2" class="edge">
<title>Node2&#45;&gt;Node3</title>
<path fill="none" stroke="midnightblue" d="M186.88,-76.53C203.1,-84.41 226.91,-95.77 248,-105 252.2,-106.84 256.63,-108.71 261.02,-110.53"/>
<polygon fill="midnightblue" stroke="midnightblue" points="259.91,-113.86 270.5,-114.4 262.56,-107.38 259.91,-113.86"/>
</g>
<!-- Node4 -->
<g id="node4" class="node">
<title>Node4</title>
<g id="a_node4"><a xlink:href="classSCS.html#a856da9cc4c2a6d86984c3a314bfd87c9" target="_top" xlink:title=" ">
<polygon fill="white" stroke="black" points="250,-76.5 250,-95.5 342,-95.5 342,-76.5 250,-76.5"/>
<text text-anchor="middle" x="296" y="-83.5" font-family="Helvetica,sans-Serif" font-size="10.00">SCS::rFlushSCS</text>
</a>
</g>
</g>
<!-- Node2&#45;&gt;Node4 -->
<g id="edge3" class="edge">
<title>Node2&#45;&gt;Node4</title>
<path fill="none" stroke="midnightblue" d="M200,-71.84C212,-73.63 225.95,-75.71 239.41,-77.72"/>
<polygon fill="midnightblue" stroke="midnightblue" points="239.16,-81.22 249.57,-79.23 240.19,-74.29 239.16,-81.22"/>
</g>
<!-- Node5 -->
<g id="node5" class="node">
<title>Node5</title>
<g id="a_node5"><a xlink:href="classSCS.html#ad860b40280cba5d8ea5214cca6c70119" target="_top" xlink:title=" ">
<polygon fill="white" stroke="black" points="248,-38.5 248,-57.5 344,-57.5 344,-38.5 248,-38.5"/>
<text text-anchor="middle" x="296" y="-45.5" font-family="Helvetica,sans-Serif" font-size="10.00">SCS::wFlushSCS</text>
</a>
</g>
</g>
<!-- Node2&#45;&gt;Node5 -->
<g id="edge4" class="edge">
<title>Node2&#45;&gt;Node5</title>
<path fill="none" stroke="midnightblue" d="M200,-62.16C211.41,-60.46 224.6,-58.49 237.44,-56.58"/>
<polygon fill="midnightblue" stroke="midnightblue" points="238.26,-59.99 247.63,-55.06 237.23,-53.07 238.26,-59.99"/>
</g>
<!-- Node6 -->
<g id="node6" class="node">
<title>Node6</title>
<g id="a_node6"><a xlink:href="classSCS.html#aa4af18b8b9f34649cd1e8aadde6d9b1f" target="_top" xlink:title=" ">
<polygon fill="white" stroke="black" points="256,-0.5 256,-19.5 336,-19.5 336,-0.5 256,-0.5"/>
<text text-anchor="middle" x="296" y="-7.5" font-family="Helvetica,sans-Serif" font-size="10.00">SCS::writeBuf</text>
</a>
</g>
</g>
<!-- Node2&#45;&gt;Node6 -->
<g id="edge5" class="edge">
<title>Node2&#45;&gt;Node6</title>
<path fill="none" stroke="midnightblue" d="M190.76,-57.5C197.65,-54.57 205.17,-51.25 212,-48 228.33,-40.22 231.59,-36.62 248,-29 252.06,-27.11 256.36,-25.23 260.65,-23.41"/>
<polygon fill="midnightblue" stroke="midnightblue" points="262.01,-26.64 269.92,-19.59 259.34,-20.17 262.01,-26.64"/>
</g>
<!-- Node7 -->
<g id="node7" class="node">
<title>Node7</title>
<g id="a_node7"><a xlink:href="classSCS.html#a863a8f5eabdddf9d7500698d4ccff05e" target="_top" xlink:title=" ">
<polygon fill="white" stroke="black" points="380,-0.5 380,-19.5 466,-19.5 466,-0.5 380,-0.5"/>
<text text-anchor="middle" x="423" y="-7.5" font-family="Helvetica,sans-Serif" font-size="10.00">SCS::writeSCS</text>
</a>
</g>
</g>
<!-- Node6&#45;&gt;Node7 -->
<g id="edge6" class="edge">
<title>Node6&#45;&gt;Node7</title>
<path fill="none" stroke="midnightblue" d="M336.21,-10C346.84,-10 358.53,-10 369.76,-10"/>
<polygon fill="midnightblue" stroke="midnightblue" points="369.9,-13.5 379.9,-10 369.9,-6.5 369.9,-13.5"/>
</g>
</g>
</svg>
