<?xml version="1.0" encoding="UTF-8" standalone="no"?>
<!DOCTYPE svg PUBLIC "-//W3C//DTD SVG 1.1//EN"
 "http://www.w3.org/Graphics/SVG/1.1/DTD/svg11.dtd">
<!-- Generated by graphviz version 2.43.0 (0)
 -->
<!-- Title: SMS_STS::SyncWritePwm Pages: 1 -->
<svg width="404pt" height="104pt"
 viewBox="0.00 0.00 404.00 104.00" xmlns="http://www.w3.org/2000/svg" xmlns:xlink="http://www.w3.org/1999/xlink">
<g id="graph0" class="graph" transform="scale(1 1) rotate(0) translate(4 100)">
<title>SMS_STS::SyncWritePwm</title>
<polygon fill="white" stroke="transparent" points="-4,4 -4,-100 400,-100 400,4 -4,4"/>
<!-- Node1 -->
<g id="node1" class="node">
<title>Node1</title>
<g id="a_node1"><a xlink:title=" ">
<polygon fill="#bfbfbf" stroke="black" points="0,-57.5 0,-76.5 137,-76.5 137,-57.5 0,-57.5"/>
<text text-anchor="middle" x="68.5" y="-64.5" font-family="Helvetica,sans-Serif" font-size="10.00">SMS_STS::SyncWritePwm</text>
</a>
</g>
</g>
<!-- Node2 -->
<g id="node2" class="node">
<title>Node2</title>
<g id="a_node2"><a xlink:href="classSCS.html#a4b91c0fcfaec1c55ef885ae2facaa0e7" target="_top" xlink:title=" ">
<polygon fill="white" stroke="black" points="173,-76.5 173,-95.5 264,-95.5 264,-76.5 173,-76.5"/>
<text text-anchor="middle" x="218.5" y="-83.5" font-family="Helvetica,sans-Serif" font-size="10.00">SCS::Host2SCS</text>
</a>
</g>
</g>
<!-- Node1&#45;&gt;Node2 -->
<g id="edge1" class="edge">
<title>Node1&#45;&gt;Node2</title>
<path fill="none" stroke="midnightblue" d="M137,-75.67C145.68,-76.78 154.47,-77.91 162.9,-78.99"/>
<polygon fill="midnightblue" stroke="midnightblue" points="162.61,-82.48 172.97,-80.28 163.5,-75.54 162.61,-82.48"/>
</g>
<!-- Node3 -->
<g id="node3" class="node">
<title>Node3</title>
<g id="a_node3"><a xlink:href="classSCS.html#a09c5261159f42f17d0a6003af7a3aedd" target="_top" xlink:title=" ">
<polygon fill="white" stroke="black" points="175,-38.5 175,-57.5 262,-57.5 262,-38.5 175,-38.5"/>
<text text-anchor="middle" x="218.5" y="-45.5" font-family="Helvetica,sans-Serif" font-size="10.00">SCS::syncWrite</text>
</a>
</g>
</g>
<!-- Node1&#45;&gt;Node3 -->
<g id="edge2" class="edge">
<title>Node1&#45;&gt;Node3</title>
<path fill="none" stroke="midnightblue" d="M137,-58.33C146.31,-57.14 155.75,-55.93 164.74,-54.77"/>
<polygon fill="midnightblue" stroke="midnightblue" points="165.19,-58.24 174.66,-53.5 164.3,-51.3 165.19,-58.24"/>
</g>
<!-- Node4 -->
<g id="node4" class="node">
<title>Node4</title>
<g id="a_node4"><a xlink:href="classSCS.html#a856da9cc4c2a6d86984c3a314bfd87c9" target="_top" xlink:title=" ">
<polygon fill="white" stroke="black" points="302,-76.5 302,-95.5 394,-95.5 394,-76.5 302,-76.5"/>
<text text-anchor="middle" x="348" y="-83.5" font-family="Helvetica,sans-Serif" font-size="10.00">SCS::rFlushSCS</text>
</a>
</g>
</g>
<!-- Node3&#45;&gt;Node4 -->
<g id="edge3" class="edge">
<title>Node3&#45;&gt;Node4</title>
<path fill="none" stroke="midnightblue" d="M251.67,-57.59C267.83,-62.4 287.61,-68.3 304.95,-73.47"/>
<polygon fill="midnightblue" stroke="midnightblue" points="304.25,-76.91 314.84,-76.41 306.25,-70.2 304.25,-76.91"/>
</g>
<!-- Node5 -->
<g id="node5" class="node">
<title>Node5</title>
<g id="a_node5"><a xlink:href="classSCS.html#ad860b40280cba5d8ea5214cca6c70119" target="_top" xlink:title=" ">
<polygon fill="white" stroke="black" points="300,-38.5 300,-57.5 396,-57.5 396,-38.5 300,-38.5"/>
<text text-anchor="middle" x="348" y="-45.5" font-family="Helvetica,sans-Serif" font-size="10.00">SCS::wFlushSCS</text>
</a>
</g>
</g>
<!-- Node3&#45;&gt;Node5 -->
<g id="edge4" class="edge">
<title>Node3&#45;&gt;Node5</title>
<path fill="none" stroke="midnightblue" d="M262.31,-48C271.04,-48 280.35,-48 289.49,-48"/>
<polygon fill="midnightblue" stroke="midnightblue" points="289.7,-51.5 299.7,-48 289.7,-44.5 289.7,-51.5"/>
</g>
<!-- Node6 -->
<g id="node6" class="node">
<title>Node6</title>
<g id="a_node6"><a xlink:href="classSCS.html#a863a8f5eabdddf9d7500698d4ccff05e" target="_top" xlink:title=" ">
<polygon fill="white" stroke="black" points="305,-0.5 305,-19.5 391,-19.5 391,-0.5 305,-0.5"/>
<text text-anchor="middle" x="348" y="-7.5" font-family="Helvetica,sans-Serif" font-size="10.00">SCS::writeSCS</text>
</a>
</g>
</g>
<!-- Node3&#45;&gt;Node6 -->
<g id="edge5" class="edge">
<title>Node3&#45;&gt;Node6</title>
<path fill="none" stroke="midnightblue" d="M251.67,-38.41C267.83,-33.6 287.61,-27.7 304.95,-22.53"/>
<polygon fill="midnightblue" stroke="midnightblue" points="306.25,-25.8 314.84,-19.59 304.25,-19.09 306.25,-25.8"/>
</g>
</g>
</svg>
