<?xml version="1.0" encoding="UTF-8" standalone="no"?>
<!DOCTYPE svg PUBLIC "-//W3C//DTD SVG 1.1//EN"
 "http://www.w3.org/Graphics/SVG/1.1/DTD/svg11.dtd">
<!-- Generated by graphviz version 2.43.0 (0)
 -->
<!-- Title: SMS_STS::ReadSpeed Pages: 1 -->
<svg width="630pt" height="142pt"
 viewBox="0.00 0.00 630.00 142.00" xmlns="http://www.w3.org/2000/svg" xmlns:xlink="http://www.w3.org/1999/xlink">
<g id="graph0" class="graph" transform="scale(1 1) rotate(0) translate(4 138)">
<title>SMS_STS::ReadSpeed</title>
<polygon fill="white" stroke="transparent" points="-4,4 -4,-138 626,-138 626,4 -4,4"/>
<!-- Node1 -->
<g id="node1" class="node">
<title>Node1</title>
<g id="a_node1"><a xlink:title=" ">
<polygon fill="#bfbfbf" stroke="black" points="0,-38.5 0,-57.5 120,-57.5 120,-38.5 0,-38.5"/>
<text text-anchor="middle" x="60" y="-45.5" font-family="Helvetica,sans-Serif" font-size="10.00">SMS_STS::ReadSpeed</text>
</a>
</g>
</g>
<!-- Node2 -->
<g id="node2" class="node">
<title>Node2</title>
<g id="a_node2"><a xlink:href="classSCS.html#a73580046b2ee5dc22b326d2d6d01bb35" target="_top" xlink:title=" ">
<polygon fill="white" stroke="black" points="156,-38.5 156,-57.5 241,-57.5 241,-38.5 156,-38.5"/>
<text text-anchor="middle" x="198.5" y="-45.5" font-family="Helvetica,sans-Serif" font-size="10.00">SCS::readWord</text>
</a>
</g>
</g>
<!-- Node1&#45;&gt;Node2 -->
<g id="edge1" class="edge">
<title>Node1&#45;&gt;Node2</title>
<path fill="none" stroke="midnightblue" d="M120.08,-48C128.49,-48 137.09,-48 145.35,-48"/>
<polygon fill="midnightblue" stroke="midnightblue" points="145.6,-51.5 155.6,-48 145.6,-44.5 145.6,-51.5"/>
</g>
<!-- Node3 -->
<g id="node3" class="node">
<title>Node3</title>
<g id="a_node3"><a xlink:href="classSCS.html#a7d5573c3681d3afaa085f92f583a0dad" target="_top" xlink:title=" ">
<polygon fill="white" stroke="black" points="289,-57.5 289,-76.5 356,-76.5 356,-57.5 289,-57.5"/>
<text text-anchor="middle" x="322.5" y="-64.5" font-family="Helvetica,sans-Serif" font-size="10.00">SCS::Read</text>
</a>
</g>
</g>
<!-- Node2&#45;&gt;Node3 -->
<g id="edge2" class="edge">
<title>Node2&#45;&gt;Node3</title>
<path fill="none" stroke="midnightblue" d="M241.14,-54.49C253.33,-56.38 266.67,-58.46 278.92,-60.37"/>
<polygon fill="midnightblue" stroke="midnightblue" points="278.48,-63.84 288.9,-61.92 279.55,-56.92 278.48,-63.84"/>
</g>
<!-- Node9 -->
<g id="node9" class="node">
<title>Node9</title>
<g id="a_node9"><a xlink:href="classSCS.html#a67f5b9706b79ac85ef02fb9d3ec2f0b6" target="_top" xlink:title=" ">
<polygon fill="white" stroke="black" points="277,-19.5 277,-38.5 368,-38.5 368,-19.5 277,-19.5"/>
<text text-anchor="middle" x="322.5" y="-26.5" font-family="Helvetica,sans-Serif" font-size="10.00">SCS::SCS2Host</text>
</a>
</g>
</g>
<!-- Node2&#45;&gt;Node9 -->
<g id="edge8" class="edge">
<title>Node2&#45;&gt;Node9</title>
<path fill="none" stroke="midnightblue" d="M241.14,-41.51C249.38,-40.23 258.14,-38.87 266.74,-37.53"/>
<polygon fill="midnightblue" stroke="midnightblue" points="267.36,-40.97 276.71,-35.98 266.29,-34.06 267.36,-40.97"/>
</g>
<!-- Node4 -->
<g id="node4" class="node">
<title>Node4</title>
<g id="a_node4"><a xlink:href="classSCS.html#a7e23a5d866557da06108d326cb2055b9" target="_top" xlink:title=" ">
<polygon fill="white" stroke="black" points="410.5,-114.5 410.5,-133.5 493.5,-133.5 493.5,-114.5 410.5,-114.5"/>
<text text-anchor="middle" x="452" y="-121.5" font-family="Helvetica,sans-Serif" font-size="10.00">SCS::readSCS</text>
</a>
</g>
</g>
<!-- Node3&#45;&gt;Node4 -->
<g id="edge3" class="edge">
<title>Node3&#45;&gt;Node4</title>
<path fill="none" stroke="midnightblue" d="M342.88,-76.53C359.1,-84.41 382.91,-95.77 404,-105 408.2,-106.84 412.63,-108.71 417.02,-110.53"/>
<polygon fill="midnightblue" stroke="midnightblue" points="415.91,-113.86 426.5,-114.4 418.56,-107.38 415.91,-113.86"/>
</g>
<!-- Node5 -->
<g id="node5" class="node">
<title>Node5</title>
<g id="a_node5"><a xlink:href="classSCS.html#a856da9cc4c2a6d86984c3a314bfd87c9" target="_top" xlink:title=" ">
<polygon fill="white" stroke="black" points="406,-76.5 406,-95.5 498,-95.5 498,-76.5 406,-76.5"/>
<text text-anchor="middle" x="452" y="-83.5" font-family="Helvetica,sans-Serif" font-size="10.00">SCS::rFlushSCS</text>
</a>
</g>
</g>
<!-- Node3&#45;&gt;Node5 -->
<g id="edge4" class="edge">
<title>Node3&#45;&gt;Node5</title>
<path fill="none" stroke="midnightblue" d="M356,-71.84C368,-73.63 381.95,-75.71 395.41,-77.72"/>
<polygon fill="midnightblue" stroke="midnightblue" points="395.16,-81.22 405.57,-79.23 396.19,-74.29 395.16,-81.22"/>
</g>
<!-- Node6 -->
<g id="node6" class="node">
<title>Node6</title>
<g id="a_node6"><a xlink:href="classSCS.html#ad860b40280cba5d8ea5214cca6c70119" target="_top" xlink:title=" ">
<polygon fill="white" stroke="black" points="404,-38.5 404,-57.5 500,-57.5 500,-38.5 404,-38.5"/>
<text text-anchor="middle" x="452" y="-45.5" font-family="Helvetica,sans-Serif" font-size="10.00">SCS::wFlushSCS</text>
</a>
</g>
</g>
<!-- Node3&#45;&gt;Node6 -->
<g id="edge5" class="edge">
<title>Node3&#45;&gt;Node6</title>
<path fill="none" stroke="midnightblue" d="M356,-62.16C367.41,-60.46 380.6,-58.49 393.44,-56.58"/>
<polygon fill="midnightblue" stroke="midnightblue" points="394.26,-59.99 403.63,-55.06 393.23,-53.07 394.26,-59.99"/>
</g>
<!-- Node7 -->
<g id="node7" class="node">
<title>Node7</title>
<g id="a_node7"><a xlink:href="classSCS.html#aa4af18b8b9f34649cd1e8aadde6d9b1f" target="_top" xlink:title=" ">
<polygon fill="white" stroke="black" points="412,-0.5 412,-19.5 492,-19.5 492,-0.5 412,-0.5"/>
<text text-anchor="middle" x="452" y="-7.5" font-family="Helvetica,sans-Serif" font-size="10.00">SCS::writeBuf</text>
</a>
</g>
</g>
<!-- Node3&#45;&gt;Node7 -->
<g id="edge6" class="edge">
<title>Node3&#45;&gt;Node7</title>
<path fill="none" stroke="midnightblue" d="M346.76,-57.5C353.65,-54.57 361.17,-51.25 368,-48 384.33,-40.22 387.59,-36.62 404,-29 408.06,-27.11 412.36,-25.23 416.65,-23.41"/>
<polygon fill="midnightblue" stroke="midnightblue" points="418.01,-26.64 425.92,-19.59 415.34,-20.17 418.01,-26.64"/>
</g>
<!-- Node8 -->
<g id="node8" class="node">
<title>Node8</title>
<g id="a_node8"><a xlink:href="classSCS.html#a863a8f5eabdddf9d7500698d4ccff05e" target="_top" xlink:title=" ">
<polygon fill="white" stroke="black" points="536,-0.5 536,-19.5 622,-19.5 622,-0.5 536,-0.5"/>
<text text-anchor="middle" x="579" y="-7.5" font-family="Helvetica,sans-Serif" font-size="10.00">SCS::writeSCS</text>
</a>
</g>
</g>
<!-- Node7&#45;&gt;Node8 -->
<g id="edge7" class="edge">
<title>Node7&#45;&gt;Node8</title>
<path fill="none" stroke="midnightblue" d="M492.21,-10C502.84,-10 514.53,-10 525.76,-10"/>
<polygon fill="midnightblue" stroke="midnightblue" points="525.9,-13.5 535.9,-10 525.9,-6.5 525.9,-13.5"/>
</g>
</g>
</svg>
