<?xml version="1.0" encoding="UTF-8" standalone="no"?>
<!DOCTYPE svg PUBLIC "-//W3C//DTD SVG 1.1//EN"
 "http://www.w3.org/Graphics/SVG/1.1/DTD/svg11.dtd">
<!-- Generated by graphviz version 2.43.0 (0)
 -->
<!-- Title: SCS::readWord Pages: 1 -->
<!--zoomable 598 -->
<svg id="main" version="1.1" xmlns="http://www.w3.org/2000/svg" xmlns:xlink="http://www.w3.org/1999/xlink" xml:space="preserve" onload="init(evt)">
<style type="text/css"><![CDATA[
.edge:hover path { stroke: red; }
.edge:hover polygon { stroke: red; fill: red; }
]]></style>
<script type="text/javascript"><![CDATA[
var edges = document.getElementsByTagName('g');
if (edges && edges.length) {
  for (var i=0;i<edges.length;i++) {
    if (edges[i].id.substr(0,4)=='edge') {
      edges[i].setAttribute('class','edge');
    }
  }
}
]]></script>
        <defs>
                <circle id="rim" cx="0" cy="0" r="7"/>
                <circle id="rim2" cx="0" cy="0" r="3.5"/>
                <g id="zoomPlus">
                        <use xlink:href="#rim" fill="#404040">
                                <set attributeName="fill" to="#808080" begin="zoomplus.mouseover" end="zoomplus.mouseout"/>
                        </use>
                        <path d="M-4,0h8M0,-4v8" fill="none" stroke="white" stroke-width="1.5" pointer-events="none"/>
                </g>
                <g id="zoomMin">
                        <use xlink:href="#rim" fill="#404040">
                                <set attributeName="fill" to="#808080" begin="zoomminus.mouseover" end="zoomminus.mouseout"/>
                        </use>
                        <path d="M-4,0h8" fill="none" stroke="white" stroke-width="1.5" pointer-events="none"/>
                </g>
                <g id="dirArrow">
                        <path fill="none" stroke="white" stroke-width="1.5" d="M0,-3.0v7 M-2.5,-0.5L0,-3.0L2.5,-0.5"/>
                </g>
               <g id="resetDef">
                       <use xlink:href="#rim2" fill="#404040">
                               <set attributeName="fill" to="#808080" begin="reset.mouseover" end="reset.mouseout"/>
                       </use>
               </g>
        </defs>

<script type="text/javascript">
var viewWidth = 254;
var viewHeight = 598;
var sectionId = 'dynsection-14';
</script>
<script xlink:href="svgpan.js"/>
<svg id="graph" class="graph">
<g id="viewport">
<title>SCS::readWord</title>
<polygon fill="white" stroke="transparent" points="-4,4 -4,-594 250,-594 250,4 -4,4"/>
<!-- Node1 -->
<g id="node1" class="node">
<title>Node1</title>
<g id="a_node1"><a xlink:title=" ">
<polygon fill="#bfbfbf" stroke="black" points="161,-285.5 161,-304.5 246,-304.5 246,-285.5 161,-285.5"/>
<text text-anchor="middle" x="203.5" y="-292.5" font-family="Helvetica,sans-Serif" font-size="10.00">SCS::readWord</text>
</a>
</g>
</g>
<!-- Node2 -->
<g id="node2" class="node">
<title>Node2</title>
<g id="a_node2"><a xlink:href="classSCSCL.html#a045cbb3fbc583f96ddb3ee8a43d23e3e" target="_top" xlink:title=" ">
<polygon fill="white" stroke="black" points="6.5,-570.5 6.5,-589.5 118.5,-589.5 118.5,-570.5 6.5,-570.5"/>
<text text-anchor="middle" x="62.5" y="-577.5" font-family="Helvetica,sans-Serif" font-size="10.00">SCSCL::ReadCurrent</text>
</a>
</g>
</g>
<!-- Node1&#45;&gt;Node2 -->
<g id="edge1" class="edge">
<title>Node1&#45;&gt;Node2</title>
<path fill="none" stroke="midnightblue" d="M202.73,-314.71C202.18,-363.5 193.87,-491.01 125,-561 121.16,-564.9 116.54,-568.01 111.57,-570.48"/>
<polygon fill="midnightblue" stroke="midnightblue" points="206.23,-314.57 202.73,-304.57 199.23,-314.56 206.23,-314.57"/>
</g>
<!-- Node3 -->
<g id="node3" class="node">
<title>Node3</title>
<g id="a_node3"><a xlink:href="classSMS__STS.html#ad410720e748e4c006e1f0d85fc27823d" target="_top" xlink:title=" ">
<polygon fill="white" stroke="black" points="0,-532.5 0,-551.5 125,-551.5 125,-532.5 0,-532.5"/>
<text text-anchor="middle" x="62.5" y="-539.5" font-family="Helvetica,sans-Serif" font-size="10.00">SMS_STS::ReadCurrent</text>
</a>
</g>
</g>
<!-- Node1&#45;&gt;Node3 -->
<g id="edge2" class="edge">
<title>Node1&#45;&gt;Node3</title>
<path fill="none" stroke="midnightblue" d="M201.57,-315.12C198.42,-359.19 184.71,-464.94 125,-523 120.99,-526.9 116.21,-529.99 111.1,-532.46"/>
<polygon fill="midnightblue" stroke="midnightblue" points="205.08,-315.05 202.18,-304.86 198.09,-314.63 205.08,-315.05"/>
</g>
<!-- Node4 -->
<g id="node4" class="node">
<title>Node4</title>
<g id="a_node4"><a xlink:href="classSMSBL.html#a8a754ff66c53ab9d0ed4c58fabf9389a" target="_top" xlink:title=" ">
<polygon fill="white" stroke="black" points="6.5,-494.5 6.5,-513.5 118.5,-513.5 118.5,-494.5 6.5,-494.5"/>
<text text-anchor="middle" x="62.5" y="-501.5" font-family="Helvetica,sans-Serif" font-size="10.00">SMSBL::ReadCurrent</text>
</a>
</g>
</g>
<!-- Node1&#45;&gt;Node4 -->
<g id="edge3" class="edge">
<title>Node1&#45;&gt;Node4</title>
<path fill="none" stroke="midnightblue" d="M200.03,-314.86C194.18,-353.33 175.95,-438.33 125,-485 120.8,-488.85 115.83,-491.92 110.57,-494.37"/>
<polygon fill="midnightblue" stroke="midnightblue" points="203.56,-314.89 201.47,-304.51 196.62,-313.93 203.56,-314.89"/>
</g>
<!-- Node5 -->
<g id="node5" class="node">
<title>Node5</title>
<g id="a_node5"><a xlink:href="classSMSCL.html#acef30f8e74665d8d7686c0e87ce901fe" target="_top" xlink:title=" ">
<polygon fill="white" stroke="black" points="6,-456.5 6,-475.5 119,-475.5 119,-456.5 6,-456.5"/>
<text text-anchor="middle" x="62.5" y="-463.5" font-family="Helvetica,sans-Serif" font-size="10.00">SMSCL::ReadCurrent</text>
</a>
</g>
</g>
<!-- Node1&#45;&gt;Node5 -->
<g id="edge4" class="edge">
<title>Node1&#45;&gt;Node5</title>
<path fill="none" stroke="midnightblue" d="M197.75,-314.89C188.98,-347.32 167.17,-411.52 125,-447 120.38,-450.89 114.98,-453.98 109.32,-456.44"/>
<polygon fill="midnightblue" stroke="midnightblue" points="201.23,-315.4 200.32,-304.84 194.45,-313.66 201.23,-315.4"/>
</g>
<!-- Node6 -->
<g id="node6" class="node">
<title>Node6</title>
<g id="a_node6"><a xlink:href="classSCSCL.html#ac827054876e33e3a9087329970202c82" target="_top" xlink:title=" ">
<polygon fill="white" stroke="black" points="12,-418.5 12,-437.5 113,-437.5 113,-418.5 12,-418.5"/>
<text text-anchor="middle" x="62.5" y="-425.5" font-family="Helvetica,sans-Serif" font-size="10.00">SCSCL::ReadLoad</text>
</a>
</g>
</g>
<!-- Node1&#45;&gt;Node6 -->
<g id="edge5" class="edge">
<title>Node1&#45;&gt;Node6</title>
<path fill="none" stroke="midnightblue" d="M194.58,-313.82C182.98,-339.13 158.99,-383.86 125,-409 119.79,-412.85 113.78,-415.94 107.61,-418.4"/>
<polygon fill="midnightblue" stroke="midnightblue" points="197.83,-315.13 198.66,-304.56 191.42,-312.3 197.83,-315.13"/>
</g>
<!-- Node7 -->
<g id="node7" class="node">
<title>Node7</title>
<g id="a_node7"><a xlink:href="classSMS__STS.html#aa763dbfe9582317a2795f274f0d42f18" target="_top" xlink:title=" ">
<polygon fill="white" stroke="black" points="6,-380.5 6,-399.5 119,-399.5 119,-380.5 6,-380.5"/>
<text text-anchor="middle" x="62.5" y="-387.5" font-family="Helvetica,sans-Serif" font-size="10.00">SMS_STS::ReadLoad</text>
</a>
</g>
</g>
<!-- Node1&#45;&gt;Node7 -->
<g id="edge6" class="edge">
<title>Node1&#45;&gt;Node7</title>
<path fill="none" stroke="midnightblue" d="M188.7,-312.78C174.47,-329.98 150.78,-355.63 125,-371 118.57,-374.83 111.29,-377.96 104.05,-380.49"/>
<polygon fill="midnightblue" stroke="midnightblue" points="191.7,-314.64 195.24,-304.65 186.24,-310.25 191.7,-314.64"/>
</g>
<!-- Node8 -->
<g id="node8" class="node">
<title>Node8</title>
<g id="a_node8"><a xlink:href="classSMSBL.html#ada1711d273dd3f0e1851cc729d61d2e6" target="_top" xlink:title=" ">
<polygon fill="white" stroke="black" points="12,-342.5 12,-361.5 113,-361.5 113,-342.5 12,-342.5"/>
<text text-anchor="middle" x="62.5" y="-349.5" font-family="Helvetica,sans-Serif" font-size="10.00">SMSBL::ReadLoad</text>
</a>
</g>
</g>
<!-- Node1&#45;&gt;Node8 -->
<g id="edge7" class="edge">
<title>Node1&#45;&gt;Node8</title>
<path fill="none" stroke="midnightblue" d="M175.95,-309.3C161.2,-316.92 142.37,-326.11 125,-333 116.27,-336.46 106.65,-339.7 97.66,-342.48"/>
<polygon fill="midnightblue" stroke="midnightblue" points="177.77,-312.3 185,-304.56 174.52,-306.1 177.77,-312.3"/>
</g>
<!-- Node9 -->
<g id="node9" class="node">
<title>Node9</title>
<g id="a_node9"><a xlink:href="classSMSCL.html#a5399187c895c986998e599ba62a15c92" target="_top" xlink:title=" ">
<polygon fill="white" stroke="black" points="12,-304.5 12,-323.5 113,-323.5 113,-304.5 12,-304.5"/>
<text text-anchor="middle" x="62.5" y="-311.5" font-family="Helvetica,sans-Serif" font-size="10.00">SMSCL::ReadLoad</text>
</a>
</g>
</g>
<!-- Node1&#45;&gt;Node9 -->
<g id="edge8" class="edge">
<title>Node1&#45;&gt;Node9</title>
<path fill="none" stroke="midnightblue" d="M150.67,-302.08C138.35,-303.77 125.23,-305.56 113.01,-307.23"/>
<polygon fill="midnightblue" stroke="midnightblue" points="151.36,-305.52 160.8,-300.7 150.41,-298.59 151.36,-305.52"/>
</g>
<!-- Node10 -->
<g id="node10" class="node">
<title>Node10</title>
<g id="a_node10"><a xlink:href="classSCSCL.html#abd7f3481c6b7e726a08c50a80c49e9ef" target="_top" xlink:title=" ">
<polygon fill="white" stroke="black" points="14,-266.5 14,-285.5 111,-285.5 111,-266.5 14,-266.5"/>
<text text-anchor="middle" x="62.5" y="-273.5" font-family="Helvetica,sans-Serif" font-size="10.00">SCSCL::ReadPos</text>
</a>
</g>
</g>
<!-- Node1&#45;&gt;Node10 -->
<g id="edge9" class="edge">
<title>Node1&#45;&gt;Node10</title>
<path fill="none" stroke="midnightblue" d="M150.61,-287.91C137.64,-286.13 123.78,-284.24 111.03,-282.5"/>
<polygon fill="midnightblue" stroke="midnightblue" points="150.41,-291.41 160.8,-289.3 151.36,-284.48 150.41,-291.41"/>
</g>
<!-- Node11 -->
<g id="node11" class="node">
<title>Node11</title>
<g id="a_node11"><a xlink:href="classSMS__STS.html#a94904508db704e298b35c43c3abe8cf2" target="_top" xlink:title=" ">
<polygon fill="white" stroke="black" points="7.5,-228.5 7.5,-247.5 117.5,-247.5 117.5,-228.5 7.5,-228.5"/>
<text text-anchor="middle" x="62.5" y="-235.5" font-family="Helvetica,sans-Serif" font-size="10.00">SMS_STS::ReadPos</text>
</a>
</g>
</g>
<!-- Node1&#45;&gt;Node11 -->
<g id="edge10" class="edge">
<title>Node1&#45;&gt;Node11</title>
<path fill="none" stroke="midnightblue" d="M175.95,-280.7C161.2,-273.08 142.37,-263.89 125,-257 116.27,-253.54 106.65,-250.3 97.66,-247.52"/>
<polygon fill="midnightblue" stroke="midnightblue" points="174.52,-283.9 185,-285.44 177.77,-277.7 174.52,-283.9"/>
</g>
<!-- Node12 -->
<g id="node12" class="node">
<title>Node12</title>
<g id="a_node12"><a xlink:href="classSMSBL.html#ab30182e17e24e06310858c14452a8225" target="_top" xlink:title=" ">
<polygon fill="white" stroke="black" points="14,-190.5 14,-209.5 111,-209.5 111,-190.5 14,-190.5"/>
<text text-anchor="middle" x="62.5" y="-197.5" font-family="Helvetica,sans-Serif" font-size="10.00">SMSBL::ReadPos</text>
</a>
</g>
</g>
<!-- Node1&#45;&gt;Node12 -->
<g id="edge11" class="edge">
<title>Node1&#45;&gt;Node12</title>
<path fill="none" stroke="midnightblue" d="M188.7,-277.22C174.47,-260.02 150.78,-234.37 125,-219 118.57,-215.17 111.29,-212.04 104.05,-209.51"/>
<polygon fill="midnightblue" stroke="midnightblue" points="186.24,-279.75 195.24,-285.35 191.7,-275.36 186.24,-279.75"/>
</g>
<!-- Node13 -->
<g id="node13" class="node">
<title>Node13</title>
<g id="a_node13"><a xlink:href="classSMSCL.html#a9752b00d1c71089ea047376f5717d3d9" target="_top" xlink:title=" ">
<polygon fill="white" stroke="black" points="13.5,-152.5 13.5,-171.5 111.5,-171.5 111.5,-152.5 13.5,-152.5"/>
<text text-anchor="middle" x="62.5" y="-159.5" font-family="Helvetica,sans-Serif" font-size="10.00">SMSCL::ReadPos</text>
</a>
</g>
</g>
<!-- Node1&#45;&gt;Node13 -->
<g id="edge12" class="edge">
<title>Node1&#45;&gt;Node13</title>
<path fill="none" stroke="midnightblue" d="M194.58,-276.18C182.98,-250.87 158.99,-206.14 125,-181 119.79,-177.15 113.78,-174.06 107.61,-171.6"/>
<polygon fill="midnightblue" stroke="midnightblue" points="191.42,-277.7 198.66,-285.44 197.83,-274.87 191.42,-277.7"/>
</g>
<!-- Node14 -->
<g id="node14" class="node">
<title>Node14</title>
<g id="a_node14"><a xlink:href="classSCSCL.html#a317a058c5e86e268379754c55cbdbb02" target="_top" xlink:title=" ">
<polygon fill="white" stroke="black" points="9,-114.5 9,-133.5 116,-133.5 116,-114.5 9,-114.5"/>
<text text-anchor="middle" x="62.5" y="-121.5" font-family="Helvetica,sans-Serif" font-size="10.00">SCSCL::ReadSpeed</text>
</a>
</g>
</g>
<!-- Node1&#45;&gt;Node14 -->
<g id="edge13" class="edge">
<title>Node1&#45;&gt;Node14</title>
<path fill="none" stroke="midnightblue" d="M197.75,-275.11C188.98,-242.68 167.17,-178.48 125,-143 120.38,-139.11 114.98,-136.02 109.32,-133.56"/>
<polygon fill="midnightblue" stroke="midnightblue" points="194.45,-276.34 200.32,-285.16 201.23,-274.6 194.45,-276.34"/>
</g>
<!-- Node15 -->
<g id="node15" class="node">
<title>Node15</title>
<g id="a_node15"><a xlink:href="classSMS__STS.html#a95175bc74823453d27161f5550b82d72" target="_top" xlink:title=" ">
<polygon fill="white" stroke="black" points="2.5,-76.5 2.5,-95.5 122.5,-95.5 122.5,-76.5 2.5,-76.5"/>
<text text-anchor="middle" x="62.5" y="-83.5" font-family="Helvetica,sans-Serif" font-size="10.00">SMS_STS::ReadSpeed</text>
</a>
</g>
</g>
<!-- Node1&#45;&gt;Node15 -->
<g id="edge14" class="edge">
<title>Node1&#45;&gt;Node15</title>
<path fill="none" stroke="midnightblue" d="M200.03,-275.14C194.18,-236.67 175.95,-151.67 125,-105 120.8,-101.15 115.83,-98.08 110.57,-95.63"/>
<polygon fill="midnightblue" stroke="midnightblue" points="196.62,-276.07 201.47,-285.49 203.56,-275.11 196.62,-276.07"/>
</g>
<!-- Node16 -->
<g id="node16" class="node">
<title>Node16</title>
<g id="a_node16"><a xlink:href="classSMSBL.html#a448f5b844c96922ec0c0b02d4a94e10e" target="_top" xlink:title=" ">
<polygon fill="white" stroke="black" points="9,-38.5 9,-57.5 116,-57.5 116,-38.5 9,-38.5"/>
<text text-anchor="middle" x="62.5" y="-45.5" font-family="Helvetica,sans-Serif" font-size="10.00">SMSBL::ReadSpeed</text>
</a>
</g>
</g>
<!-- Node1&#45;&gt;Node16 -->
<g id="edge15" class="edge">
<title>Node1&#45;&gt;Node16</title>
<path fill="none" stroke="midnightblue" d="M201.57,-274.88C198.42,-230.81 184.71,-125.06 125,-67 120.99,-63.1 116.21,-60.01 111.1,-57.54"/>
<polygon fill="midnightblue" stroke="midnightblue" points="198.09,-275.37 202.18,-285.14 205.08,-274.95 198.09,-275.37"/>
</g>
<!-- Node17 -->
<g id="node17" class="node">
<title>Node17</title>
<g id="a_node17"><a xlink:href="classSMSCL.html#a2566b75189b470b656f35dcec399ad0f" target="_top" xlink:title=" ">
<polygon fill="white" stroke="black" points="8.5,-0.5 8.5,-19.5 116.5,-19.5 116.5,-0.5 8.5,-0.5"/>
<text text-anchor="middle" x="62.5" y="-7.5" font-family="Helvetica,sans-Serif" font-size="10.00">SMSCL::ReadSpeed</text>
</a>
</g>
</g>
<!-- Node1&#45;&gt;Node17 -->
<g id="edge16" class="edge">
<title>Node1&#45;&gt;Node17</title>
<path fill="none" stroke="midnightblue" d="M202.73,-275.29C202.18,-226.5 193.87,-98.99 125,-29 121.16,-25.1 116.54,-21.99 111.57,-19.52"/>
<polygon fill="midnightblue" stroke="midnightblue" points="199.23,-275.44 202.73,-285.43 206.23,-275.43 199.23,-275.44"/>
</g>
</g>
</svg>
        <g id="navigator" transform="translate(0 0)" fill="#404254">
                <rect fill="#f2f5e9" fill-opacity="0.5" stroke="#606060" stroke-width=".5" x="0" y="0" width="60" height="60"/>
                <use id="zoomplus" xlink:href="#zoomPlus" x="17" y="9" onmousedown="handleZoom(evt,'in')"/>
                <use id="zoomminus" xlink:href="#zoomMin" x="42" y="9" onmousedown="handleZoom(evt,'out')"/>
                <use id="reset" xlink:href="#resetDef" x="30" y="36" onmousedown="handleReset()"/>
                <g id="arrowUp" xlink:href="#dirArrow" transform="translate(30 24)" onmousedown="handlePan(0,-1)">
                  <use xlink:href="#rim" fill="#404040">
                        <set attributeName="fill" to="#808080" begin="arrowUp.mouseover" end="arrowUp.mouseout"/>
                  </use>
                  <path fill="none" stroke="white" stroke-width="1.5" d="M0,-3.0v7 M-2.5,-0.5L0,-3.0L2.5,-0.5"/>
                </g>
                <g id="arrowRight" xlink:href="#dirArrow" transform="rotate(90) translate(36 -43)" onmousedown="handlePan(1,0)">
                  <use xlink:href="#rim" fill="#404040">
                        <set attributeName="fill" to="#808080" begin="arrowRight.mouseover" end="arrowRight.mouseout"/>
                  </use>
                  <path fill="none" stroke="white" stroke-width="1.5" d="M0,-3.0v7 M-2.5,-0.5L0,-3.0L2.5,-0.5"/>
                </g>
                <g id="arrowDown" xlink:href="#dirArrow" transform="rotate(180) translate(-30 -48)" onmousedown="handlePan(0,1)">
                  <use xlink:href="#rim" fill="#404040">
                        <set attributeName="fill" to="#808080" begin="arrowDown.mouseover" end="arrowDown.mouseout"/>
                  </use>
                  <path fill="none" stroke="white" stroke-width="1.5" d="M0,-3.0v7 M-2.5,-0.5L0,-3.0L2.5,-0.5"/>
                </g>
                <g id="arrowLeft" xlink:href="#dirArrow" transform="rotate(270) translate(-36 17)" onmousedown="handlePan(-1,0)">
                  <use xlink:href="#rim" fill="#404040">
                        <set attributeName="fill" to="#808080" begin="arrowLeft.mouseover" end="arrowLeft.mouseout"/>
                  </use>
                  <path fill="none" stroke="white" stroke-width="1.5" d="M0,-3.0v7 M-2.5,-0.5L0,-3.0L2.5,-0.5"/>
                </g>
        </g>
        <svg viewBox="0 0 15 15" width="100%" height="30px" preserveAspectRatio="xMaxYMin meet">
         <g id="arrow_out" transform="scale(0.3 0.3)">
          <a xlink:href="classSCS_a73580046b2ee5dc22b326d2d6d01bb35_icgraph_org.svg" target="_base">
           <rect id="button" ry="5" rx="5" y="6" x="6" height="38" width="38"
                fill="#f2f5e9" fill-opacity="0.5" stroke="#606060" stroke-width="1.0"/>
           <path id="arrow"
             d="M 11.500037,31.436501 C 11.940474,20.09759 22.043105,11.32322 32.158766,21.979434 L 37.068811,17.246167 C 37.068811,17.246167 37.088388,32 37.088388,32 L 22.160133,31.978069 C 22.160133,31.978069 26.997745,27.140456 26.997745,27.140456 C 18.528582,18.264221 13.291696,25.230495 11.500037,31.436501 z"
             style="fill:#404040;"/>
          </a>
         </g>
        </svg>
</svg>
