<?xml version="1.0" encoding="UTF-8" standalone="no"?>
<!DOCTYPE svg PUBLIC "-//W3C//DTD SVG 1.1//EN"
 "http://www.w3.org/Graphics/SVG/1.1/DTD/svg11.dtd">
<!-- Generated by graphviz version 2.43.0 (0)
 -->
<!-- Title: SCS::regWrite Pages: 1 -->
<svg width="263pt" height="218pt"
 viewBox="0.00 0.00 263.00 218.00" xmlns="http://www.w3.org/2000/svg" xmlns:xlink="http://www.w3.org/1999/xlink">
<g id="graph0" class="graph" transform="scale(1 1) rotate(0) translate(4 214)">
<title>SCS::regWrite</title>
<polygon fill="white" stroke="transparent" points="-4,4 -4,-214 259,-214 259,4 -4,4"/>
<!-- Node1 -->
<g id="node1" class="node">
<title>Node1</title>
<g id="a_node1"><a xlink:title=" ">
<polygon fill="#bfbfbf" stroke="black" points="175,-95.5 175,-114.5 255,-114.5 255,-95.5 175,-95.5"/>
<text text-anchor="middle" x="215" y="-102.5" font-family="Helvetica,sans-Serif" font-size="10.00">SCS::regWrite</text>
</a>
</g>
</g>
<!-- Node2 -->
<g id="node2" class="node">
<title>Node2</title>
<g id="a_node2"><a xlink:href="classSCSCL.html#aa3506a4b76259bc859544c83b64b1c01" target="_top" xlink:title=" ">
<polygon fill="white" stroke="black" points="12.5,-190.5 12.5,-209.5 126.5,-209.5 126.5,-190.5 12.5,-190.5"/>
<text text-anchor="middle" x="69.5" y="-197.5" font-family="Helvetica,sans-Serif" font-size="10.00">SCSCL::RegWritePos</text>
</a>
</g>
</g>
<!-- Node1&#45;&gt;Node2 -->
<g id="edge1" class="edge">
<title>Node1&#45;&gt;Node2</title>
<path fill="none" stroke="midnightblue" d="M201.08,-122.68C187.5,-140.01 164.59,-165.96 139,-181 132.4,-184.88 124.98,-187.99 117.53,-190.48"/>
<polygon fill="midnightblue" stroke="midnightblue" points="204.03,-124.58 207.3,-114.5 198.46,-120.34 204.03,-124.58"/>
</g>
<!-- Node3 -->
<g id="node3" class="node">
<title>Node3</title>
<g id="a_node3"><a xlink:href="classSMS__STS.html#abc5996ea19a51493c4fb2a991dd710bc" target="_top" xlink:title=" ">
<polygon fill="white" stroke="black" points="0,-152.5 0,-171.5 139,-171.5 139,-152.5 0,-152.5"/>
<text text-anchor="middle" x="69.5" y="-159.5" font-family="Helvetica,sans-Serif" font-size="10.00">SMS_STS::RegWritePosEx</text>
</a>
</g>
</g>
<!-- Node1&#45;&gt;Node3 -->
<g id="edge2" class="edge">
<title>Node1&#45;&gt;Node3</title>
<path fill="none" stroke="midnightblue" d="M188.31,-119.61C174.09,-127.29 155.92,-136.44 139,-143 129.79,-146.57 119.65,-149.76 110.06,-152.47"/>
<polygon fill="midnightblue" stroke="midnightblue" points="190.38,-122.47 197.46,-114.58 187.01,-116.34 190.38,-122.47"/>
</g>
<!-- Node4 -->
<g id="node4" class="node">
<title>Node4</title>
<g id="a_node4"><a xlink:href="classSMSBL.html#a499cfa7e56879d68d237f7ce44358302" target="_top" xlink:title=" ">
<polygon fill="white" stroke="black" points="6.5,-114.5 6.5,-133.5 132.5,-133.5 132.5,-114.5 6.5,-114.5"/>
<text text-anchor="middle" x="69.5" y="-121.5" font-family="Helvetica,sans-Serif" font-size="10.00">SMSBL::RegWritePosEx</text>
</a>
</g>
</g>
<!-- Node1&#45;&gt;Node4 -->
<g id="edge3" class="edge">
<title>Node1&#45;&gt;Node4</title>
<path fill="none" stroke="midnightblue" d="M164.71,-111.53C154.37,-112.9 143.33,-114.36 132.59,-115.78"/>
<polygon fill="midnightblue" stroke="midnightblue" points="165.33,-114.97 174.79,-110.19 164.42,-108.03 165.33,-114.97"/>
</g>
<!-- Node5 -->
<g id="node5" class="node">
<title>Node5</title>
<g id="a_node5"><a xlink:href="classSMSCL.html#aa9395f6a9d9032740ac3e312a7205c7c" target="_top" xlink:title=" ">
<polygon fill="white" stroke="black" points="6,-76.5 6,-95.5 133,-95.5 133,-76.5 6,-76.5"/>
<text text-anchor="middle" x="69.5" y="-83.5" font-family="Helvetica,sans-Serif" font-size="10.00">SMSCL::RegWritePosEx</text>
</a>
</g>
</g>
<!-- Node1&#45;&gt;Node5 -->
<g id="edge4" class="edge">
<title>Node1&#45;&gt;Node5</title>
<path fill="none" stroke="midnightblue" d="M164.84,-98.49C154.64,-97.14 143.76,-95.7 133.14,-94.29"/>
<polygon fill="midnightblue" stroke="midnightblue" points="164.42,-101.97 174.79,-99.81 165.33,-95.03 164.42,-101.97"/>
</g>
<!-- Node6 -->
<g id="node6" class="node">
<title>Node6</title>
<g id="a_node6"><a xlink:href="classSMS__STS.html#a26d3353e8e46edab51f400e74e75f3e5" target="_top" xlink:title=" ">
<polygon fill="white" stroke="black" points="3.5,-38.5 3.5,-57.5 135.5,-57.5 135.5,-38.5 3.5,-38.5"/>
<text text-anchor="middle" x="69.5" y="-45.5" font-family="Helvetica,sans-Serif" font-size="10.00">SMS_STS::RegWritePwm</text>
</a>
</g>
</g>
<!-- Node1&#45;&gt;Node6 -->
<g id="edge5" class="edge">
<title>Node1&#45;&gt;Node6</title>
<path fill="none" stroke="midnightblue" d="M188.31,-90.39C174.09,-82.71 155.92,-73.56 139,-67 129.79,-63.43 119.65,-60.24 110.06,-57.53"/>
<polygon fill="midnightblue" stroke="midnightblue" points="187.01,-93.66 197.46,-95.42 190.38,-87.53 187.01,-93.66"/>
</g>
<!-- Node7 -->
<g id="node7" class="node">
<title>Node7</title>
<g id="a_node7"><a xlink:href="classSMS__STS.html#ac80d59c2006b9c13b380e392e1d381fe" target="_top" xlink:title=" ">
<polygon fill="white" stroke="black" points="6,-0.5 6,-19.5 133,-19.5 133,-0.5 6,-0.5"/>
<text text-anchor="middle" x="69.5" y="-7.5" font-family="Helvetica,sans-Serif" font-size="10.00">SMS_STS::RegWriteSpe</text>
</a>
</g>
</g>
<!-- Node1&#45;&gt;Node7 -->
<g id="edge6" class="edge">
<title>Node1&#45;&gt;Node7</title>
<path fill="none" stroke="midnightblue" d="M201.08,-87.32C187.5,-69.99 164.59,-44.04 139,-29 132.4,-25.12 124.98,-22.01 117.53,-19.52"/>
<polygon fill="midnightblue" stroke="midnightblue" points="198.46,-89.66 207.3,-95.5 204.03,-85.42 198.46,-89.66"/>
</g>
</g>
</svg>
