<?xml version="1.0" encoding="UTF-8" standalone="no"?>
<!DOCTYPE svg PUBLIC "-//W3C//DTD SVG 1.1//EN"
 "http://www.w3.org/Graphics/SVG/1.1/DTD/svg11.dtd">
<!-- Generated by graphviz version 2.43.0 (0)
 -->
<!-- Title: SCS::Read Pages: 1 -->
<svg width="385pt" height="1054pt"
 viewBox="0.00 0.00 385.00 1054.00" xmlns="http://www.w3.org/2000/svg" xmlns:xlink="http://www.w3.org/1999/xlink">
<g id="graph0" class="graph" transform="scale(1 1) rotate(0) translate(4 1050)">
<title>SCS::Read</title>
<polygon fill="white" stroke="transparent" points="-4,4 -4,-1050 381,-1050 381,4 -4,4"/>
<!-- Node1 -->
<g id="node1" class="node">
<title>Node1</title>
<g id="a_node1"><a xlink:title=" ">
<polygon fill="#bfbfbf" stroke="black" points="310,-855.5 310,-874.5 377,-874.5 377,-855.5 310,-855.5"/>
<text text-anchor="middle" x="343.5" y="-862.5" font-family="Helvetica,sans-Serif" font-size="10.00">SCS::Read</text>
</a>
</g>
</g>
<!-- Node2 -->
<g id="node2" class="node">
<title>Node2</title>
<g id="a_node2"><a xlink:href="classSCSCL.html#aa78a8915aa9c9455a1f9c940b7790948" target="_top" xlink:title=" ">
<polygon fill="white" stroke="black" points="167,-950.5 167,-969.5 268,-969.5 268,-950.5 167,-950.5"/>
<text text-anchor="middle" x="217.5" y="-957.5" font-family="Helvetica,sans-Serif" font-size="10.00">SCSCL::FeedBack</text>
</a>
</g>
</g>
<!-- Node1&#45;&gt;Node2 -->
<g id="edge1" class="edge">
<title>Node1&#45;&gt;Node2</title>
<path fill="none" stroke="midnightblue" d="M330.32,-883.16C317.97,-900.28 297.39,-925.56 274,-941 268.22,-944.82 261.6,-947.95 254.98,-950.48"/>
<polygon fill="midnightblue" stroke="midnightblue" points="333.44,-884.8 336.29,-874.6 327.7,-880.79 333.44,-884.8"/>
</g>
<!-- Node3 -->
<g id="node3" class="node">
<title>Node3</title>
<g id="a_node3"><a xlink:href="classSMS__STS.html#a4f03c6cb6adcc1fe9cf5808714bd0ade" target="_top" xlink:title=" ">
<polygon fill="white" stroke="black" points="161,-912.5 161,-931.5 274,-931.5 274,-912.5 161,-912.5"/>
<text text-anchor="middle" x="217.5" y="-919.5" font-family="Helvetica,sans-Serif" font-size="10.00">SMS_STS::FeedBack</text>
</a>
</g>
</g>
<!-- Node1&#45;&gt;Node3 -->
<g id="edge2" class="edge">
<title>Node1&#45;&gt;Node3</title>
<path fill="none" stroke="midnightblue" d="M318.41,-879.74C305.51,-887.27 289.2,-896.25 274,-903 266.18,-906.47 257.52,-909.71 249.41,-912.5"/>
<polygon fill="midnightblue" stroke="midnightblue" points="320.31,-882.68 327.12,-874.56 316.74,-876.66 320.31,-882.68"/>
</g>
<!-- Node4 -->
<g id="node4" class="node">
<title>Node4</title>
<g id="a_node4"><a xlink:href="classSMSBL.html#a09dc2eca1e487a1448e9fe8ba7c3bfe7" target="_top" xlink:title=" ">
<polygon fill="white" stroke="black" points="167,-874.5 167,-893.5 268,-893.5 268,-874.5 167,-874.5"/>
<text text-anchor="middle" x="217.5" y="-881.5" font-family="Helvetica,sans-Serif" font-size="10.00">SMSBL::FeedBack</text>
</a>
</g>
</g>
<!-- Node1&#45;&gt;Node4 -->
<g id="edge3" class="edge">
<title>Node1&#45;&gt;Node4</title>
<path fill="none" stroke="midnightblue" d="M299.98,-871.51C289.73,-873.09 278.69,-874.78 268.15,-876.39"/>
<polygon fill="midnightblue" stroke="midnightblue" points="300.57,-874.97 309.92,-869.99 299.51,-868.05 300.57,-874.97"/>
</g>
<!-- Node5 -->
<g id="node5" class="node">
<title>Node5</title>
<g id="a_node5"><a xlink:href="classSMSCL.html#ae71151bd62559b1fb29227fb926aa8eb" target="_top" xlink:title=" ">
<polygon fill="white" stroke="black" points="167,-836.5 167,-855.5 268,-855.5 268,-836.5 167,-836.5"/>
<text text-anchor="middle" x="217.5" y="-843.5" font-family="Helvetica,sans-Serif" font-size="10.00">SMSCL::FeedBack</text>
</a>
</g>
</g>
<!-- Node1&#45;&gt;Node5 -->
<g id="edge4" class="edge">
<title>Node1&#45;&gt;Node5</title>
<path fill="none" stroke="midnightblue" d="M299.98,-858.49C289.73,-856.91 278.69,-855.22 268.15,-853.61"/>
<polygon fill="midnightblue" stroke="midnightblue" points="299.51,-861.95 309.92,-860.01 300.57,-855.03 299.51,-861.95"/>
</g>
<!-- Node6 -->
<g id="node6" class="node">
<title>Node6</title>
<g id="a_node6"><a xlink:href="classSCS.html#a53f169d695ac021846b259abbe410d4f" target="_top" xlink:title=" ">
<polygon fill="white" stroke="black" points="176,-798.5 176,-817.5 259,-817.5 259,-798.5 176,-798.5"/>
<text text-anchor="middle" x="217.5" y="-805.5" font-family="Helvetica,sans-Serif" font-size="10.00">SCS::readByte</text>
</a>
</g>
</g>
<!-- Node1&#45;&gt;Node6 -->
<g id="edge5" class="edge">
<title>Node1&#45;&gt;Node6</title>
<path fill="none" stroke="midnightblue" d="M318.41,-850.26C305.51,-842.73 289.2,-833.75 274,-827 266.18,-823.53 257.52,-820.29 249.41,-817.5"/>
<polygon fill="midnightblue" stroke="midnightblue" points="316.74,-853.34 327.12,-855.44 320.31,-847.32 316.74,-853.34"/>
</g>
<!-- Node19 -->
<g id="node19" class="node">
<title>Node19</title>
<g id="a_node19"><a xlink:href="classSCS.html#a73580046b2ee5dc22b326d2d6d01bb35" target="_top" xlink:title=" ">
<polygon fill="white" stroke="black" points="175,-304.5 175,-323.5 260,-323.5 260,-304.5 175,-304.5"/>
<text text-anchor="middle" x="217.5" y="-311.5" font-family="Helvetica,sans-Serif" font-size="10.00">SCS::readWord</text>
</a>
</g>
</g>
<!-- Node1&#45;&gt;Node19 -->
<g id="edge18" class="edge">
<title>Node1&#45;&gt;Node19</title>
<path fill="none" stroke="midnightblue" d="M338.13,-845.59C318.09,-756.55 235.33,-388.79 220.71,-323.83"/>
<polygon fill="midnightblue" stroke="midnightblue" points="334.74,-846.45 340.35,-855.44 341.57,-844.91 334.74,-846.45"/>
</g>
<!-- Node7 -->
<g id="node7" class="node">
<title>Node7</title>
<g id="a_node7"><a xlink:href="classSCSCL.html#a12e3b619ee64b8b179bb5b391ed16479" target="_top" xlink:title=" ">
<polygon fill="white" stroke="black" points="10.5,-1026.5 10.5,-1045.5 114.5,-1045.5 114.5,-1026.5 10.5,-1026.5"/>
<text text-anchor="middle" x="62.5" y="-1033.5" font-family="Helvetica,sans-Serif" font-size="10.00">SCSCL::ReadMove</text>
</a>
</g>
</g>
<!-- Node6&#45;&gt;Node7 -->
<g id="edge6" class="edge">
<title>Node6&#45;&gt;Node7</title>
<path fill="none" stroke="midnightblue" d="M166.86,-821.56C164.73,-823.17 162.75,-824.98 161,-827 104.71,-891.95 182.26,-952.91 125,-1017 121.58,-1020.83 117.4,-1023.9 112.84,-1026.36"/>
<polygon fill="midnightblue" stroke="midnightblue" points="168.97,-824.38 175.75,-816.24 165.38,-818.37 168.97,-824.38"/>
</g>
<!-- Node8 -->
<g id="node8" class="node">
<title>Node8</title>
<g id="a_node8"><a xlink:href="classSMS__STS.html#a0e500708d853b4e772fe99c801486287" target="_top" xlink:title=" ">
<polygon fill="white" stroke="black" points="4.5,-988.5 4.5,-1007.5 120.5,-1007.5 120.5,-988.5 4.5,-988.5"/>
<text text-anchor="middle" x="62.5" y="-995.5" font-family="Helvetica,sans-Serif" font-size="10.00">SMS_STS::ReadMove</text>
</a>
</g>
</g>
<!-- Node6&#45;&gt;Node8 -->
<g id="edge7" class="edge">
<title>Node6&#45;&gt;Node8</title>
<path fill="none" stroke="midnightblue" d="M166.97,-821.66C164.81,-823.25 162.8,-825.02 161,-827 114.35,-878.42 172.42,-928.29 125,-979 121.41,-982.84 117.07,-985.9 112.37,-988.36"/>
<polygon fill="midnightblue" stroke="midnightblue" points="169.08,-824.48 175.94,-816.4 165.54,-818.44 169.08,-824.48"/>
</g>
<!-- Node9 -->
<g id="node9" class="node">
<title>Node9</title>
<g id="a_node9"><a xlink:href="classSMSBL.html#af98a280ded75dd9d1e7853c17fa6863d" target="_top" xlink:title=" ">
<polygon fill="white" stroke="black" points="10.5,-950.5 10.5,-969.5 114.5,-969.5 114.5,-950.5 10.5,-950.5"/>
<text text-anchor="middle" x="62.5" y="-957.5" font-family="Helvetica,sans-Serif" font-size="10.00">SMSBL::ReadMove</text>
</a>
</g>
</g>
<!-- Node6&#45;&gt;Node9 -->
<g id="edge8" class="edge">
<title>Node6&#45;&gt;Node9</title>
<path fill="none" stroke="midnightblue" d="M167.03,-821.9C164.87,-823.42 162.84,-825.12 161,-827 123.88,-865.02 162.69,-903.55 125,-941 121.12,-944.86 116.47,-947.94 111.48,-950.39"/>
<polygon fill="midnightblue" stroke="midnightblue" points="169,-824.8 175.94,-816.8 165.52,-818.73 169,-824.8"/>
</g>
<!-- Node10 -->
<g id="node10" class="node">
<title>Node10</title>
<g id="a_node10"><a xlink:href="classSMSCL.html#a9a980c152bee05aa4c97a83f30cb14e7" target="_top" xlink:title=" ">
<polygon fill="white" stroke="black" points="10.5,-912.5 10.5,-931.5 114.5,-931.5 114.5,-912.5 10.5,-912.5"/>
<text text-anchor="middle" x="62.5" y="-919.5" font-family="Helvetica,sans-Serif" font-size="10.00">SMSCL::ReadMove</text>
</a>
</g>
</g>
<!-- Node6&#45;&gt;Node10 -->
<g id="edge9" class="edge">
<title>Node6&#45;&gt;Node10</title>
<path fill="none" stroke="midnightblue" d="M166.65,-822.66C164.65,-823.99 162.76,-825.43 161,-827 133.13,-851.9 153.25,-878.52 125,-903 120.52,-906.88 115.27,-909.97 109.74,-912.42"/>
<polygon fill="midnightblue" stroke="midnightblue" points="168.8,-825.47 175.88,-817.58 165.43,-819.34 168.8,-825.47"/>
</g>
<!-- Node11 -->
<g id="node11" class="node">
<title>Node11</title>
<g id="a_node11"><a xlink:href="classSCSCL.html#a84457530a5f8685b71e494dd44dc6ad9" target="_top" xlink:title=" ">
<polygon fill="white" stroke="black" points="6.5,-874.5 6.5,-893.5 118.5,-893.5 118.5,-874.5 6.5,-874.5"/>
<text text-anchor="middle" x="62.5" y="-881.5" font-family="Helvetica,sans-Serif" font-size="10.00">SCSCL::ReadTemper</text>
</a>
</g>
</g>
<!-- Node6&#45;&gt;Node11 -->
<g id="edge10" class="edge">
<title>Node6&#45;&gt;Node11</title>
<path fill="none" stroke="midnightblue" d="M171,-821.5C167.52,-823.15 164.14,-824.98 161,-827 141.43,-839.58 144.76,-852.72 125,-865 118.83,-868.83 111.83,-871.95 104.82,-874.46"/>
<polygon fill="midnightblue" stroke="midnightblue" points="172.54,-824.65 180.39,-817.52 169.81,-818.2 172.54,-824.65"/>
</g>
<!-- Node12 -->
<g id="node12" class="node">
<title>Node12</title>
<g id="a_node12"><a xlink:href="classSMS__STS.html#affc260eb8fe0efda22ff8b68c7544312" target="_top" xlink:title=" ">
<polygon fill="white" stroke="black" points="0,-836.5 0,-855.5 125,-855.5 125,-836.5 0,-836.5"/>
<text text-anchor="middle" x="62.5" y="-843.5" font-family="Helvetica,sans-Serif" font-size="10.00">SMS_STS::ReadTemper</text>
</a>
</g>
</g>
<!-- Node6&#45;&gt;Node12 -->
<g id="edge11" class="edge">
<title>Node6&#45;&gt;Node12</title>
<path fill="none" stroke="midnightblue" d="M168.02,-820.04C146.65,-825.35 121.89,-831.5 101.83,-836.48"/>
<polygon fill="midnightblue" stroke="midnightblue" points="169.03,-823.4 177.89,-817.59 167.34,-816.6 169.03,-823.4"/>
</g>
<!-- Node13 -->
<g id="node13" class="node">
<title>Node13</title>
<g id="a_node13"><a xlink:href="classSMSBL.html#a499d35723ea918fd3c3f9a3ddbd52b7d" target="_top" xlink:title=" ">
<polygon fill="white" stroke="black" points="6.5,-798.5 6.5,-817.5 118.5,-817.5 118.5,-798.5 6.5,-798.5"/>
<text text-anchor="middle" x="62.5" y="-805.5" font-family="Helvetica,sans-Serif" font-size="10.00">SMSBL::ReadTemper</text>
</a>
</g>
</g>
<!-- Node6&#45;&gt;Node13 -->
<g id="edge12" class="edge">
<title>Node6&#45;&gt;Node13</title>
<path fill="none" stroke="midnightblue" d="M165.73,-808C150.65,-808 134.05,-808 118.69,-808"/>
<polygon fill="midnightblue" stroke="midnightblue" points="165.9,-811.5 175.9,-808 165.9,-804.5 165.9,-811.5"/>
</g>
<!-- Node14 -->
<g id="node14" class="node">
<title>Node14</title>
<g id="a_node14"><a xlink:href="classSMSCL.html#af541fd24d9e3dde6d884977f6b3c168e" target="_top" xlink:title=" ">
<polygon fill="white" stroke="black" points="6,-760.5 6,-779.5 119,-779.5 119,-760.5 6,-760.5"/>
<text text-anchor="middle" x="62.5" y="-767.5" font-family="Helvetica,sans-Serif" font-size="10.00">SMSCL::ReadTemper</text>
</a>
</g>
</g>
<!-- Node6&#45;&gt;Node14 -->
<g id="edge13" class="edge">
<title>Node6&#45;&gt;Node14</title>
<path fill="none" stroke="midnightblue" d="M168.02,-795.96C146.65,-790.65 121.89,-784.5 101.83,-779.52"/>
<polygon fill="midnightblue" stroke="midnightblue" points="167.34,-799.4 177.89,-798.41 169.03,-792.6 167.34,-799.4"/>
</g>
<!-- Node15 -->
<g id="node15" class="node">
<title>Node15</title>
<g id="a_node15"><a xlink:href="classSCSCL.html#adf6d13814b09ba166927a4125ef11ae9" target="_top" xlink:title=" ">
<polygon fill="white" stroke="black" points="6.5,-722.5 6.5,-741.5 118.5,-741.5 118.5,-722.5 6.5,-722.5"/>
<text text-anchor="middle" x="62.5" y="-729.5" font-family="Helvetica,sans-Serif" font-size="10.00">SCSCL::ReadVoltage</text>
</a>
</g>
</g>
<!-- Node6&#45;&gt;Node15 -->
<g id="edge14" class="edge">
<title>Node6&#45;&gt;Node15</title>
<path fill="none" stroke="midnightblue" d="M194.9,-792.31C176.9,-779.8 150.23,-762.52 125,-751 117.07,-747.38 108.26,-744.2 99.85,-741.53"/>
<polygon fill="midnightblue" stroke="midnightblue" points="193.28,-795.45 203.47,-798.37 197.32,-789.74 193.28,-795.45"/>
</g>
<!-- Node16 -->
<g id="node16" class="node">
<title>Node16</title>
<g id="a_node16"><a xlink:href="classSMS__STS.html#a8fa74300d8fd8a59b3c60bd2206698db" target="_top" xlink:title=" ">
<polygon fill="white" stroke="black" points="0,-684.5 0,-703.5 125,-703.5 125,-684.5 0,-684.5"/>
<text text-anchor="middle" x="62.5" y="-691.5" font-family="Helvetica,sans-Serif" font-size="10.00">SMS_STS::ReadVoltage</text>
</a>
</g>
</g>
<!-- Node6&#45;&gt;Node16 -->
<g id="edge15" class="edge">
<title>Node6&#45;&gt;Node16</title>
<path fill="none" stroke="midnightblue" d="M203.86,-790.18C187.84,-768.87 158.27,-733.49 125,-713 118.81,-709.19 111.81,-706.09 104.79,-703.59"/>
<polygon fill="midnightblue" stroke="midnightblue" points="201.13,-792.38 209.87,-798.38 206.78,-788.24 201.13,-792.38"/>
</g>
<!-- Node17 -->
<g id="node17" class="node">
<title>Node17</title>
<g id="a_node17"><a xlink:href="classSMSBL.html#ae7f03e2f859d62ce1eeab487305c3fc4" target="_top" xlink:title=" ">
<polygon fill="white" stroke="black" points="6.5,-646.5 6.5,-665.5 118.5,-665.5 118.5,-646.5 6.5,-646.5"/>
<text text-anchor="middle" x="62.5" y="-653.5" font-family="Helvetica,sans-Serif" font-size="10.00">SMSBL::ReadVoltage</text>
</a>
</g>
</g>
<!-- Node6&#45;&gt;Node17 -->
<g id="edge16" class="edge">
<title>Node6&#45;&gt;Node17</title>
<path fill="none" stroke="midnightblue" d="M208.41,-788.93C195.19,-760.04 166.23,-705.31 125,-675 119.78,-671.16 113.77,-668.09 107.59,-665.63"/>
<polygon fill="midnightblue" stroke="midnightblue" points="205.32,-790.59 212.56,-798.32 211.72,-787.76 205.32,-790.59"/>
</g>
<!-- Node18 -->
<g id="node18" class="node">
<title>Node18</title>
<g id="a_node18"><a xlink:href="classSMSCL.html#a98a5d93ddedcde7e89f6443fd2377950" target="_top" xlink:title=" ">
<polygon fill="white" stroke="black" points="6,-608.5 6,-627.5 119,-627.5 119,-608.5 6,-608.5"/>
<text text-anchor="middle" x="62.5" y="-615.5" font-family="Helvetica,sans-Serif" font-size="10.00">SMSCL::ReadVoltage</text>
</a>
</g>
</g>
<!-- Node6&#45;&gt;Node18 -->
<g id="edge17" class="edge">
<title>Node6&#45;&gt;Node18</title>
<path fill="none" stroke="midnightblue" d="M211.3,-788.1C200.96,-752.49 174.46,-677.78 125,-637 120.26,-633.09 114.71,-629.98 108.93,-627.51"/>
<polygon fill="midnightblue" stroke="midnightblue" points="208.05,-789.49 214.09,-798.2 214.8,-787.62 208.05,-789.49"/>
</g>
<!-- Node20 -->
<g id="node20" class="node">
<title>Node20</title>
<g id="a_node20"><a xlink:href="classSCSCL.html#a045cbb3fbc583f96ddb3ee8a43d23e3e" target="_top" xlink:title=" ">
<polygon fill="white" stroke="black" points="6.5,-570.5 6.5,-589.5 118.5,-589.5 118.5,-570.5 6.5,-570.5"/>
<text text-anchor="middle" x="62.5" y="-577.5" font-family="Helvetica,sans-Serif" font-size="10.00">SCSCL::ReadCurrent</text>
</a>
</g>
</g>
<!-- Node19&#45;&gt;Node20 -->
<g id="edge19" class="edge">
<title>Node19&#45;&gt;Node20</title>
<path fill="none" stroke="midnightblue" d="M214.98,-333.64C210.33,-380.06 192.2,-497.41 125,-561 120.86,-564.92 115.93,-568.03 110.69,-570.5"/>
<polygon fill="midnightblue" stroke="midnightblue" points="218.47,-333.95 215.88,-323.67 211.5,-333.32 218.47,-333.95"/>
</g>
<!-- Node21 -->
<g id="node21" class="node">
<title>Node21</title>
<g id="a_node21"><a xlink:href="classSMS__STS.html#ad410720e748e4c006e1f0d85fc27823d" target="_top" xlink:title=" ">
<polygon fill="white" stroke="black" points="0,-532.5 0,-551.5 125,-551.5 125,-532.5 0,-532.5"/>
<text text-anchor="middle" x="62.5" y="-539.5" font-family="Helvetica,sans-Serif" font-size="10.00">SMS_STS::ReadCurrent</text>
</a>
</g>
</g>
<!-- Node19&#45;&gt;Node21 -->
<g id="edge20" class="edge">
<title>Node19&#45;&gt;Node21</title>
<path fill="none" stroke="midnightblue" d="M213.48,-333.63C206.11,-374.85 183.33,-470.91 125,-523 120.67,-526.87 115.55,-529.95 110.16,-532.41"/>
<polygon fill="midnightblue" stroke="midnightblue" points="216.97,-333.98 215.17,-323.54 210.07,-332.83 216.97,-333.98"/>
</g>
<!-- Node22 -->
<g id="node22" class="node">
<title>Node22</title>
<g id="a_node22"><a xlink:href="classSMSBL.html#a8a754ff66c53ab9d0ed4c58fabf9389a" target="_top" xlink:title=" ">
<polygon fill="white" stroke="black" points="6.5,-494.5 6.5,-513.5 118.5,-513.5 118.5,-494.5 6.5,-494.5"/>
<text text-anchor="middle" x="62.5" y="-501.5" font-family="Helvetica,sans-Serif" font-size="10.00">SMSBL::ReadCurrent</text>
</a>
</g>
</g>
<!-- Node19&#45;&gt;Node22 -->
<g id="edge21" class="edge">
<title>Node19&#45;&gt;Node22</title>
<path fill="none" stroke="midnightblue" d="M211.3,-333.9C200.96,-369.51 174.46,-444.22 125,-485 120.26,-488.91 114.71,-492.02 108.93,-494.49"/>
<polygon fill="midnightblue" stroke="midnightblue" points="214.8,-334.38 214.09,-323.8 208.05,-332.51 214.8,-334.38"/>
</g>
<!-- Node23 -->
<g id="node23" class="node">
<title>Node23</title>
<g id="a_node23"><a xlink:href="classSMSCL.html#acef30f8e74665d8d7686c0e87ce901fe" target="_top" xlink:title=" ">
<polygon fill="white" stroke="black" points="6,-456.5 6,-475.5 119,-475.5 119,-456.5 6,-456.5"/>
<text text-anchor="middle" x="62.5" y="-463.5" font-family="Helvetica,sans-Serif" font-size="10.00">SMSCL::ReadCurrent</text>
</a>
</g>
</g>
<!-- Node19&#45;&gt;Node23 -->
<g id="edge22" class="edge">
<title>Node19&#45;&gt;Node23</title>
<path fill="none" stroke="midnightblue" d="M208.41,-333.07C195.19,-361.96 166.23,-416.69 125,-447 119.78,-450.84 113.77,-453.91 107.59,-456.37"/>
<polygon fill="midnightblue" stroke="midnightblue" points="211.72,-334.24 212.56,-323.68 205.32,-331.41 211.72,-334.24"/>
</g>
<!-- Node24 -->
<g id="node24" class="node">
<title>Node24</title>
<g id="a_node24"><a xlink:href="classSCSCL.html#ac827054876e33e3a9087329970202c82" target="_top" xlink:title=" ">
<polygon fill="white" stroke="black" points="12,-418.5 12,-437.5 113,-437.5 113,-418.5 12,-418.5"/>
<text text-anchor="middle" x="62.5" y="-425.5" font-family="Helvetica,sans-Serif" font-size="10.00">SCSCL::ReadLoad</text>
</a>
</g>
</g>
<!-- Node19&#45;&gt;Node24 -->
<g id="edge23" class="edge">
<title>Node19&#45;&gt;Node24</title>
<path fill="none" stroke="midnightblue" d="M203.86,-331.82C187.84,-353.13 158.27,-388.51 125,-409 118.81,-412.81 111.81,-415.91 104.79,-418.41"/>
<polygon fill="midnightblue" stroke="midnightblue" points="206.78,-333.76 209.87,-323.62 201.13,-329.62 206.78,-333.76"/>
</g>
<!-- Node25 -->
<g id="node25" class="node">
<title>Node25</title>
<g id="a_node25"><a xlink:href="classSMS__STS.html#aa763dbfe9582317a2795f274f0d42f18" target="_top" xlink:title=" ">
<polygon fill="white" stroke="black" points="6,-380.5 6,-399.5 119,-399.5 119,-380.5 6,-380.5"/>
<text text-anchor="middle" x="62.5" y="-387.5" font-family="Helvetica,sans-Serif" font-size="10.00">SMS_STS::ReadLoad</text>
</a>
</g>
</g>
<!-- Node19&#45;&gt;Node25 -->
<g id="edge24" class="edge">
<title>Node19&#45;&gt;Node25</title>
<path fill="none" stroke="midnightblue" d="M194.9,-329.69C176.9,-342.2 150.23,-359.48 125,-371 117.07,-374.62 108.26,-377.8 99.85,-380.47"/>
<polygon fill="midnightblue" stroke="midnightblue" points="197.32,-332.26 203.47,-323.63 193.28,-326.55 197.32,-332.26"/>
</g>
<!-- Node26 -->
<g id="node26" class="node">
<title>Node26</title>
<g id="a_node26"><a xlink:href="classSMSBL.html#ada1711d273dd3f0e1851cc729d61d2e6" target="_top" xlink:title=" ">
<polygon fill="white" stroke="black" points="12,-342.5 12,-361.5 113,-361.5 113,-342.5 12,-342.5"/>
<text text-anchor="middle" x="62.5" y="-349.5" font-family="Helvetica,sans-Serif" font-size="10.00">SMSBL::ReadLoad</text>
</a>
</g>
</g>
<!-- Node19&#45;&gt;Node26 -->
<g id="edge25" class="edge">
<title>Node19&#45;&gt;Node26</title>
<path fill="none" stroke="midnightblue" d="M168.02,-326.04C146.65,-331.35 121.89,-337.5 101.83,-342.48"/>
<polygon fill="midnightblue" stroke="midnightblue" points="169.03,-329.4 177.89,-323.59 167.34,-322.6 169.03,-329.4"/>
</g>
<!-- Node27 -->
<g id="node27" class="node">
<title>Node27</title>
<g id="a_node27"><a xlink:href="classSMSCL.html#a5399187c895c986998e599ba62a15c92" target="_top" xlink:title=" ">
<polygon fill="white" stroke="black" points="12,-304.5 12,-323.5 113,-323.5 113,-304.5 12,-304.5"/>
<text text-anchor="middle" x="62.5" y="-311.5" font-family="Helvetica,sans-Serif" font-size="10.00">SMSCL::ReadLoad</text>
</a>
</g>
</g>
<!-- Node19&#45;&gt;Node27 -->
<g id="edge26" class="edge">
<title>Node19&#45;&gt;Node27</title>
<path fill="none" stroke="midnightblue" d="M164.59,-314C147.96,-314 129.6,-314 113.14,-314"/>
<polygon fill="midnightblue" stroke="midnightblue" points="164.69,-317.5 174.69,-314 164.69,-310.5 164.69,-317.5"/>
</g>
<!-- Node28 -->
<g id="node28" class="node">
<title>Node28</title>
<g id="a_node28"><a xlink:href="classSCSCL.html#abd7f3481c6b7e726a08c50a80c49e9ef" target="_top" xlink:title=" ">
<polygon fill="white" stroke="black" points="14,-266.5 14,-285.5 111,-285.5 111,-266.5 14,-266.5"/>
<text text-anchor="middle" x="62.5" y="-273.5" font-family="Helvetica,sans-Serif" font-size="10.00">SCSCL::ReadPos</text>
</a>
</g>
</g>
<!-- Node19&#45;&gt;Node28 -->
<g id="edge27" class="edge">
<title>Node19&#45;&gt;Node28</title>
<path fill="none" stroke="midnightblue" d="M168.02,-301.96C146.65,-296.65 121.89,-290.5 101.83,-285.52"/>
<polygon fill="midnightblue" stroke="midnightblue" points="167.34,-305.4 177.89,-304.41 169.03,-298.6 167.34,-305.4"/>
</g>
<!-- Node29 -->
<g id="node29" class="node">
<title>Node29</title>
<g id="a_node29"><a xlink:href="classSMS__STS.html#a94904508db704e298b35c43c3abe8cf2" target="_top" xlink:title=" ">
<polygon fill="white" stroke="black" points="7.5,-228.5 7.5,-247.5 117.5,-247.5 117.5,-228.5 7.5,-228.5"/>
<text text-anchor="middle" x="62.5" y="-235.5" font-family="Helvetica,sans-Serif" font-size="10.00">SMS_STS::ReadPos</text>
</a>
</g>
</g>
<!-- Node19&#45;&gt;Node29 -->
<g id="edge28" class="edge">
<title>Node19&#45;&gt;Node29</title>
<path fill="none" stroke="midnightblue" d="M194.9,-298.31C176.9,-285.8 150.23,-268.52 125,-257 117.07,-253.38 108.26,-250.2 99.85,-247.53"/>
<polygon fill="midnightblue" stroke="midnightblue" points="193.28,-301.45 203.47,-304.37 197.32,-295.74 193.28,-301.45"/>
</g>
<!-- Node30 -->
<g id="node30" class="node">
<title>Node30</title>
<g id="a_node30"><a xlink:href="classSMSBL.html#ab30182e17e24e06310858c14452a8225" target="_top" xlink:title=" ">
<polygon fill="white" stroke="black" points="14,-190.5 14,-209.5 111,-209.5 111,-190.5 14,-190.5"/>
<text text-anchor="middle" x="62.5" y="-197.5" font-family="Helvetica,sans-Serif" font-size="10.00">SMSBL::ReadPos</text>
</a>
</g>
</g>
<!-- Node19&#45;&gt;Node30 -->
<g id="edge29" class="edge">
<title>Node19&#45;&gt;Node30</title>
<path fill="none" stroke="midnightblue" d="M203.86,-296.18C187.84,-274.87 158.27,-239.49 125,-219 118.81,-215.19 111.81,-212.09 104.79,-209.59"/>
<polygon fill="midnightblue" stroke="midnightblue" points="201.13,-298.38 209.87,-304.38 206.78,-294.24 201.13,-298.38"/>
</g>
<!-- Node31 -->
<g id="node31" class="node">
<title>Node31</title>
<g id="a_node31"><a xlink:href="classSMSCL.html#a9752b00d1c71089ea047376f5717d3d9" target="_top" xlink:title=" ">
<polygon fill="white" stroke="black" points="13.5,-152.5 13.5,-171.5 111.5,-171.5 111.5,-152.5 13.5,-152.5"/>
<text text-anchor="middle" x="62.5" y="-159.5" font-family="Helvetica,sans-Serif" font-size="10.00">SMSCL::ReadPos</text>
</a>
</g>
</g>
<!-- Node19&#45;&gt;Node31 -->
<g id="edge30" class="edge">
<title>Node19&#45;&gt;Node31</title>
<path fill="none" stroke="midnightblue" d="M208.41,-294.93C195.19,-266.04 166.23,-211.31 125,-181 119.78,-177.16 113.77,-174.09 107.59,-171.63"/>
<polygon fill="midnightblue" stroke="midnightblue" points="205.32,-296.59 212.56,-304.32 211.72,-293.76 205.32,-296.59"/>
</g>
<!-- Node32 -->
<g id="node32" class="node">
<title>Node32</title>
<g id="a_node32"><a xlink:href="classSCSCL.html#a317a058c5e86e268379754c55cbdbb02" target="_top" xlink:title=" ">
<polygon fill="white" stroke="black" points="9,-114.5 9,-133.5 116,-133.5 116,-114.5 9,-114.5"/>
<text text-anchor="middle" x="62.5" y="-121.5" font-family="Helvetica,sans-Serif" font-size="10.00">SCSCL::ReadSpeed</text>
</a>
</g>
</g>
<!-- Node19&#45;&gt;Node32 -->
<g id="edge31" class="edge">
<title>Node19&#45;&gt;Node32</title>
<path fill="none" stroke="midnightblue" d="M211.3,-294.1C200.96,-258.49 174.46,-183.78 125,-143 120.26,-139.09 114.71,-135.98 108.93,-133.51"/>
<polygon fill="midnightblue" stroke="midnightblue" points="208.05,-295.49 214.09,-304.2 214.8,-293.62 208.05,-295.49"/>
</g>
<!-- Node33 -->
<g id="node33" class="node">
<title>Node33</title>
<g id="a_node33"><a xlink:href="classSMS__STS.html#a95175bc74823453d27161f5550b82d72" target="_top" xlink:title=" ">
<polygon fill="white" stroke="black" points="2.5,-76.5 2.5,-95.5 122.5,-95.5 122.5,-76.5 2.5,-76.5"/>
<text text-anchor="middle" x="62.5" y="-83.5" font-family="Helvetica,sans-Serif" font-size="10.00">SMS_STS::ReadSpeed</text>
</a>
</g>
</g>
<!-- Node19&#45;&gt;Node33 -->
<g id="edge32" class="edge">
<title>Node19&#45;&gt;Node33</title>
<path fill="none" stroke="midnightblue" d="M213.48,-294.37C206.11,-253.15 183.33,-157.09 125,-105 120.67,-101.13 115.55,-98.05 110.16,-95.59"/>
<polygon fill="midnightblue" stroke="midnightblue" points="210.07,-295.17 215.17,-304.46 216.97,-294.02 210.07,-295.17"/>
</g>
<!-- Node34 -->
<g id="node34" class="node">
<title>Node34</title>
<g id="a_node34"><a xlink:href="classSMSBL.html#a448f5b844c96922ec0c0b02d4a94e10e" target="_top" xlink:title=" ">
<polygon fill="white" stroke="black" points="9,-38.5 9,-57.5 116,-57.5 116,-38.5 9,-38.5"/>
<text text-anchor="middle" x="62.5" y="-45.5" font-family="Helvetica,sans-Serif" font-size="10.00">SMSBL::ReadSpeed</text>
</a>
</g>
</g>
<!-- Node19&#45;&gt;Node34 -->
<g id="edge33" class="edge">
<title>Node19&#45;&gt;Node34</title>
<path fill="none" stroke="midnightblue" d="M214.98,-294.36C210.33,-247.94 192.2,-130.59 125,-67 120.86,-63.08 115.93,-59.97 110.69,-57.5"/>
<polygon fill="midnightblue" stroke="midnightblue" points="211.5,-294.68 215.88,-304.33 218.47,-294.05 211.5,-294.68"/>
</g>
<!-- Node35 -->
<g id="node35" class="node">
<title>Node35</title>
<g id="a_node35"><a xlink:href="classSMSCL.html#a2566b75189b470b656f35dcec399ad0f" target="_top" xlink:title=" ">
<polygon fill="white" stroke="black" points="8.5,-0.5 8.5,-19.5 116.5,-19.5 116.5,-0.5 8.5,-0.5"/>
<text text-anchor="middle" x="62.5" y="-7.5" font-family="Helvetica,sans-Serif" font-size="10.00">SMSCL::ReadSpeed</text>
</a>
</g>
</g>
<!-- Node19&#45;&gt;Node35 -->
<g id="edge34" class="edge">
<title>Node19&#45;&gt;Node35</title>
<path fill="none" stroke="midnightblue" d="M216.1,-294.19C213.97,-242.85 201.09,-104.25 125,-29 121.11,-25.15 116.45,-22.08 111.47,-19.63"/>
<polygon fill="midnightblue" stroke="midnightblue" points="212.6,-294.39 216.42,-304.28 219.6,-294.17 212.6,-294.39"/>
</g>
</g>
</svg>
