<?xml version="1.0" encoding="UTF-8" standalone="no"?>
<!DOCTYPE svg PUBLIC "-//W3C//DTD SVG 1.1//EN"
 "http://www.w3.org/Graphics/SVG/1.1/DTD/svg11.dtd">
<!-- Generated by graphviz version 2.43.0 (0)
 -->
<!-- Title: SMSCL::ReadSpeed Pages: 1 -->
<svg width="618pt" height="142pt"
 viewBox="0.00 0.00 618.00 142.00" xmlns="http://www.w3.org/2000/svg" xmlns:xlink="http://www.w3.org/1999/xlink">
<g id="graph0" class="graph" transform="scale(1 1) rotate(0) translate(4 138)">
<title>SMSCL::ReadSpeed</title>
<polygon fill="white" stroke="transparent" points="-4,4 -4,-138 614,-138 614,4 -4,4"/>
<!-- Node1 -->
<g id="node1" class="node">
<title>Node1</title>
<g id="a_node1"><a xlink:title=" ">
<polygon fill="#bfbfbf" stroke="black" points="0,-38.5 0,-57.5 108,-57.5 108,-38.5 0,-38.5"/>
<text text-anchor="middle" x="54" y="-45.5" font-family="Helvetica,sans-Serif" font-size="10.00">SMSCL::ReadSpeed</text>
</a>
</g>
</g>
<!-- Node2 -->
<g id="node2" class="node">
<title>Node2</title>
<g id="a_node2"><a xlink:href="classSCS.html#a73580046b2ee5dc22b326d2d6d01bb35" target="_top" xlink:title=" ">
<polygon fill="white" stroke="black" points="144,-38.5 144,-57.5 229,-57.5 229,-38.5 144,-38.5"/>
<text text-anchor="middle" x="186.5" y="-45.5" font-family="Helvetica,sans-Serif" font-size="10.00">SCS::readWord</text>
</a>
</g>
</g>
<!-- Node1&#45;&gt;Node2 -->
<g id="edge1" class="edge">
<title>Node1&#45;&gt;Node2</title>
<path fill="none" stroke="midnightblue" d="M108.08,-48C116.51,-48 125.22,-48 133.62,-48"/>
<polygon fill="midnightblue" stroke="midnightblue" points="133.67,-51.5 143.67,-48 133.67,-44.5 133.67,-51.5"/>
</g>
<!-- Node3 -->
<g id="node3" class="node">
<title>Node3</title>
<g id="a_node3"><a xlink:href="classSCS.html#a7d5573c3681d3afaa085f92f583a0dad" target="_top" xlink:title=" ">
<polygon fill="white" stroke="black" points="277,-57.5 277,-76.5 344,-76.5 344,-57.5 277,-57.5"/>
<text text-anchor="middle" x="310.5" y="-64.5" font-family="Helvetica,sans-Serif" font-size="10.00">SCS::Read</text>
</a>
</g>
</g>
<!-- Node2&#45;&gt;Node3 -->
<g id="edge2" class="edge">
<title>Node2&#45;&gt;Node3</title>
<path fill="none" stroke="midnightblue" d="M229.14,-54.49C241.33,-56.38 254.67,-58.46 266.92,-60.37"/>
<polygon fill="midnightblue" stroke="midnightblue" points="266.48,-63.84 276.9,-61.92 267.55,-56.92 266.48,-63.84"/>
</g>
<!-- Node9 -->
<g id="node9" class="node">
<title>Node9</title>
<g id="a_node9"><a xlink:href="classSCS.html#a67f5b9706b79ac85ef02fb9d3ec2f0b6" target="_top" xlink:title=" ">
<polygon fill="white" stroke="black" points="265,-19.5 265,-38.5 356,-38.5 356,-19.5 265,-19.5"/>
<text text-anchor="middle" x="310.5" y="-26.5" font-family="Helvetica,sans-Serif" font-size="10.00">SCS::SCS2Host</text>
</a>
</g>
</g>
<!-- Node2&#45;&gt;Node9 -->
<g id="edge8" class="edge">
<title>Node2&#45;&gt;Node9</title>
<path fill="none" stroke="midnightblue" d="M229.14,-41.51C237.38,-40.23 246.14,-38.87 254.74,-37.53"/>
<polygon fill="midnightblue" stroke="midnightblue" points="255.36,-40.97 264.71,-35.98 254.29,-34.06 255.36,-40.97"/>
</g>
<!-- Node4 -->
<g id="node4" class="node">
<title>Node4</title>
<g id="a_node4"><a xlink:href="classSCS.html#a7e23a5d866557da06108d326cb2055b9" target="_top" xlink:title=" ">
<polygon fill="white" stroke="black" points="398.5,-114.5 398.5,-133.5 481.5,-133.5 481.5,-114.5 398.5,-114.5"/>
<text text-anchor="middle" x="440" y="-121.5" font-family="Helvetica,sans-Serif" font-size="10.00">SCS::readSCS</text>
</a>
</g>
</g>
<!-- Node3&#45;&gt;Node4 -->
<g id="edge3" class="edge">
<title>Node3&#45;&gt;Node4</title>
<path fill="none" stroke="midnightblue" d="M330.88,-76.53C347.1,-84.41 370.91,-95.77 392,-105 396.2,-106.84 400.63,-108.71 405.02,-110.53"/>
<polygon fill="midnightblue" stroke="midnightblue" points="403.91,-113.86 414.5,-114.4 406.56,-107.38 403.91,-113.86"/>
</g>
<!-- Node5 -->
<g id="node5" class="node">
<title>Node5</title>
<g id="a_node5"><a xlink:href="classSCS.html#a856da9cc4c2a6d86984c3a314bfd87c9" target="_top" xlink:title=" ">
<polygon fill="white" stroke="black" points="394,-76.5 394,-95.5 486,-95.5 486,-76.5 394,-76.5"/>
<text text-anchor="middle" x="440" y="-83.5" font-family="Helvetica,sans-Serif" font-size="10.00">SCS::rFlushSCS</text>
</a>
</g>
</g>
<!-- Node3&#45;&gt;Node5 -->
<g id="edge4" class="edge">
<title>Node3&#45;&gt;Node5</title>
<path fill="none" stroke="midnightblue" d="M344,-71.84C356,-73.63 369.95,-75.71 383.41,-77.72"/>
<polygon fill="midnightblue" stroke="midnightblue" points="383.16,-81.22 393.57,-79.23 384.19,-74.29 383.16,-81.22"/>
</g>
<!-- Node6 -->
<g id="node6" class="node">
<title>Node6</title>
<g id="a_node6"><a xlink:href="classSCS.html#ad860b40280cba5d8ea5214cca6c70119" target="_top" xlink:title=" ">
<polygon fill="white" stroke="black" points="392,-38.5 392,-57.5 488,-57.5 488,-38.5 392,-38.5"/>
<text text-anchor="middle" x="440" y="-45.5" font-family="Helvetica,sans-Serif" font-size="10.00">SCS::wFlushSCS</text>
</a>
</g>
</g>
<!-- Node3&#45;&gt;Node6 -->
<g id="edge5" class="edge">
<title>Node3&#45;&gt;Node6</title>
<path fill="none" stroke="midnightblue" d="M344,-62.16C355.41,-60.46 368.6,-58.49 381.44,-56.58"/>
<polygon fill="midnightblue" stroke="midnightblue" points="382.26,-59.99 391.63,-55.06 381.23,-53.07 382.26,-59.99"/>
</g>
<!-- Node7 -->
<g id="node7" class="node">
<title>Node7</title>
<g id="a_node7"><a xlink:href="classSCS.html#aa4af18b8b9f34649cd1e8aadde6d9b1f" target="_top" xlink:title=" ">
<polygon fill="white" stroke="black" points="400,-0.5 400,-19.5 480,-19.5 480,-0.5 400,-0.5"/>
<text text-anchor="middle" x="440" y="-7.5" font-family="Helvetica,sans-Serif" font-size="10.00">SCS::writeBuf</text>
</a>
</g>
</g>
<!-- Node3&#45;&gt;Node7 -->
<g id="edge6" class="edge">
<title>Node3&#45;&gt;Node7</title>
<path fill="none" stroke="midnightblue" d="M334.76,-57.5C341.65,-54.57 349.17,-51.25 356,-48 372.33,-40.22 375.59,-36.62 392,-29 396.06,-27.11 400.36,-25.23 404.65,-23.41"/>
<polygon fill="midnightblue" stroke="midnightblue" points="406.01,-26.64 413.92,-19.59 403.34,-20.17 406.01,-26.64"/>
</g>
<!-- Node8 -->
<g id="node8" class="node">
<title>Node8</title>
<g id="a_node8"><a xlink:href="classSCS.html#a863a8f5eabdddf9d7500698d4ccff05e" target="_top" xlink:title=" ">
<polygon fill="white" stroke="black" points="524,-0.5 524,-19.5 610,-19.5 610,-0.5 524,-0.5"/>
<text text-anchor="middle" x="567" y="-7.5" font-family="Helvetica,sans-Serif" font-size="10.00">SCS::writeSCS</text>
</a>
</g>
</g>
<!-- Node7&#45;&gt;Node8 -->
<g id="edge7" class="edge">
<title>Node7&#45;&gt;Node8</title>
<path fill="none" stroke="midnightblue" d="M480.21,-10C490.84,-10 502.53,-10 513.76,-10"/>
<polygon fill="midnightblue" stroke="midnightblue" points="513.9,-13.5 523.9,-10 513.9,-6.5 513.9,-13.5"/>
</g>
</g>
</svg>
