<?xml version="1.0" encoding="UTF-8" standalone="no"?>
<!DOCTYPE svg PUBLIC "-//W3C//DTD SVG 1.1//EN"
 "http://www.w3.org/Graphics/SVG/1.1/DTD/svg11.dtd">
<!-- Generated by graphviz version 2.43.0 (0)
 -->
<!-- Title: SMS_STS Pages: 1 -->
<svg width="387pt" height="307pt"
 viewBox="0.00 0.00 387.00 307.00" xmlns="http://www.w3.org/2000/svg" xmlns:xlink="http://www.w3.org/1999/xlink">
<g id="graph0" class="graph" transform="scale(1 1) rotate(0) translate(4 303)">
<title>SMS_STS</title>
<polygon fill="white" stroke="transparent" points="-4,4 -4,-303 383,-303 383,4 -4,4"/>
<!-- Node1 -->
<g id="node1" class="node">
<title>Node1</title>
<g id="a_node1"><a xlink:title=" ">
<polygon fill="#bfbfbf" stroke="black" points="0,-0.5 0,-19.5 63,-19.5 63,-0.5 0,-0.5"/>
<text text-anchor="middle" x="31.5" y="-7.5" font-family="Helvetica,sans-Serif" font-size="10.00">SMS_STS</text>
</a>
</g>
</g>
<!-- Node2 -->
<g id="node2" class="node">
<title>Node2</title>
<g id="a_node2"><a xlink:href="classSCSerial.html" target="_top" xlink:title=" ">
<polygon fill="white" stroke="black" points="115.5,-57.5 115.5,-76.5 171.5,-76.5 171.5,-57.5 115.5,-57.5"/>
<text text-anchor="middle" x="143.5" y="-64.5" font-family="Helvetica,sans-Serif" font-size="10.00">SCSerial</text>
</a>
</g>
</g>
<!-- Node2&#45;&gt;Node1 -->
<g id="edge1" class="edge">
<title>Node2&#45;&gt;Node1</title>
<path fill="none" stroke="midnightblue" d="M116.94,-52.96C95.89,-42.62 67.08,-28.47 48.88,-19.53"/>
<polygon fill="midnightblue" stroke="midnightblue" points="115.48,-56.14 126,-57.41 118.57,-49.86 115.48,-56.14"/>
</g>
<!-- Node3 -->
<g id="node3" class="node">
<title>Node3</title>
<g id="a_node3"><a xlink:href="classSCS.html" target="_top" xlink:title=" ">
<polygon fill="white" stroke="black" points="89.5,-146.5 89.5,-165.5 127.5,-165.5 127.5,-146.5 89.5,-146.5"/>
<text text-anchor="middle" x="108.5" y="-153.5" font-family="Helvetica,sans-Serif" font-size="10.00">SCS</text>
</a>
</g>
</g>
<!-- Node3&#45;&gt;Node2 -->
<g id="edge2" class="edge">
<title>Node3&#45;&gt;Node2</title>
<path fill="none" stroke="midnightblue" d="M115.75,-136.97C123.18,-118.51 134.41,-90.61 140.03,-76.62"/>
<polygon fill="midnightblue" stroke="midnightblue" points="112.47,-135.76 111.98,-146.34 118.96,-138.37 112.47,-135.76"/>
</g>
<!-- Node4 -->
<g id="node4" class="node">
<title>Node4</title>
<g id="a_node4"><a xlink:title=" ">
<polygon fill="white" stroke="#bfbfbf" points="6,-279.5 6,-298.5 83,-298.5 83,-279.5 6,-279.5"/>
<text text-anchor="middle" x="44.5" y="-286.5" font-family="Helvetica,sans-Serif" font-size="10.00">unsigned char</text>
</a>
</g>
</g>
<!-- Node4&#45;&gt;Node1 -->
<g id="edge9" class="edge">
<title>Node4&#45;&gt;Node1</title>
<path fill="none" stroke="#9a32cd" stroke-dasharray="5,2" d="M36.76,-269.65C35.83,-266.8 35.03,-263.85 34.5,-261 17.25,-167.96 27.2,-52.09 30.54,-19.74"/>
<polygon fill="#9a32cd" stroke="#9a32cd" points="33.56,-271.1 40.37,-279.22 40.11,-268.63 33.56,-271.1"/>
<text text-anchor="middle" x="38" y="-109" font-family="Helvetica,sans-Serif" font-size="10.00"> Mem</text>
</g>
<!-- Node4&#45;&gt;Node2 -->
<g id="edge5" class="edge">
<title>Node4&#45;&gt;Node2</title>
<path fill="none" stroke="#9a32cd" stroke-dasharray="5,2" d="M41.31,-269.33C37.41,-241.02 33.55,-186.27 53.5,-146 69.66,-113.39 106.14,-88.75 127.36,-76.54"/>
<polygon fill="#9a32cd" stroke="#9a32cd" points="37.89,-270.07 42.87,-279.42 44.8,-269 37.89,-270.07"/>
<text text-anchor="middle" x="67" y="-153.5" font-family="Helvetica,sans-Serif" font-size="10.00"> txBuf</text>
</g>
<!-- Node4&#45;&gt;Node3 -->
<g id="edge3" class="edge">
<title>Node4&#45;&gt;Node3</title>
<path fill="none" stroke="#9a32cd" stroke-dasharray="5,2" d="M52.2,-269.79C53.35,-266.87 54.49,-263.86 55.5,-261 67.36,-227.31 59.4,-214.18 78.5,-184 83.07,-176.78 90.1,-170.31 96.2,-165.51"/>
<polygon fill="#9a32cd" stroke="#9a32cd" points="48.94,-268.5 48.39,-279.08 55.42,-271.16 48.94,-268.5"/>
<text text-anchor="middle" x="134.5" y="-253" font-family="Helvetica,sans-Serif" font-size="10.00"> End</text>
<text text-anchor="middle" x="134.5" y="-242" font-family="Helvetica,sans-Serif" font-size="10.00">Error</text>
<text text-anchor="middle" x="134.5" y="-231" font-family="Helvetica,sans-Serif" font-size="10.00">Level</text>
<text text-anchor="middle" x="134.5" y="-220" font-family="Helvetica,sans-Serif" font-size="10.00">syncReadRxBuff</text>
<text text-anchor="middle" x="134.5" y="-209" font-family="Helvetica,sans-Serif" font-size="10.00">syncReadRxPacket</text>
<text text-anchor="middle" x="134.5" y="-198" font-family="Helvetica,sans-Serif" font-size="10.00">syncReadRxPacketIndex</text>
<text text-anchor="middle" x="134.5" y="-187" font-family="Helvetica,sans-Serif" font-size="10.00">syncReadRxPacketLen</text>
</g>
<!-- Node5 -->
<g id="node5" class="node">
<title>Node5</title>
<g id="a_node5"><a xlink:title=" ">
<polygon fill="white" stroke="#bfbfbf" points="172.5,-279.5 172.5,-298.5 252.5,-298.5 252.5,-279.5 172.5,-279.5"/>
<text text-anchor="middle" x="212.5" y="-286.5" font-family="Helvetica,sans-Serif" font-size="10.00">unsigned short</text>
</a>
</g>
</g>
<!-- Node5&#45;&gt;Node3 -->
<g id="edge4" class="edge">
<title>Node5&#45;&gt;Node3</title>
<path fill="none" stroke="#9a32cd" stroke-dasharray="5,2" d="M213.79,-269.37C214.33,-246.44 211.68,-207.63 190.5,-184 189.95,-183.39 151.84,-171 127.77,-163.22"/>
<polygon fill="#9a32cd" stroke="#9a32cd" points="210.29,-269.33 213.32,-279.49 217.28,-269.66 210.29,-269.33"/>
<text text-anchor="middle" x="260.5" y="-225.5" font-family="Helvetica,sans-Serif" font-size="10.00"> syncReadRxBuffLen</text>
<text text-anchor="middle" x="260.5" y="-214.5" font-family="Helvetica,sans-Serif" font-size="10.00">syncReadRxBuffMax</text>
</g>
<!-- Node6 -->
<g id="node6" class="node">
<title>Node6</title>
<g id="a_node6"><a xlink:title=" ">
<polygon fill="white" stroke="#bfbfbf" points="146,-146.5 146,-165.5 175,-165.5 175,-146.5 146,-146.5"/>
<text text-anchor="middle" x="160.5" y="-153.5" font-family="Helvetica,sans-Serif" font-size="10.00">int</text>
</a>
</g>
</g>
<!-- Node6&#45;&gt;Node2 -->
<g id="edge6" class="edge">
<title>Node6&#45;&gt;Node2</title>
<path fill="none" stroke="#9a32cd" stroke-dasharray="5,2" d="M156.88,-136.46C153.27,-118 147.89,-90.48 145.19,-76.62"/>
<polygon fill="#9a32cd" stroke="#9a32cd" points="153.45,-137.2 158.81,-146.34 160.33,-135.85 153.45,-137.2"/>
<text text-anchor="middle" x="175.5" y="-120" font-family="Helvetica,sans-Serif" font-size="10.00"> Err</text>
<text text-anchor="middle" x="175.5" y="-109" font-family="Helvetica,sans-Serif" font-size="10.00">fd</text>
<text text-anchor="middle" x="175.5" y="-98" font-family="Helvetica,sans-Serif" font-size="10.00">txBufLen</text>
</g>
<!-- Node7 -->
<g id="node7" class="node">
<title>Node7</title>
<g id="a_node7"><a xlink:title=" ">
<polygon fill="white" stroke="#bfbfbf" points="193.5,-146.5 193.5,-165.5 283.5,-165.5 283.5,-146.5 193.5,-146.5"/>
<text text-anchor="middle" x="238.5" y="-153.5" font-family="Helvetica,sans-Serif" font-size="10.00">unsigned long int</text>
</a>
</g>
</g>
<!-- Node7&#45;&gt;Node2 -->
<g id="edge7" class="edge">
<title>Node7&#45;&gt;Node2</title>
<path fill="none" stroke="#9a32cd" stroke-dasharray="5,2" d="M230.07,-136.85C223.3,-123.85 212.74,-106.66 199.5,-95 190.51,-87.08 178.79,-80.96 168.39,-76.55"/>
<polygon fill="#9a32cd" stroke="#9a32cd" points="227.11,-138.76 234.67,-146.18 233.39,-135.67 227.11,-138.76"/>
<text text-anchor="middle" x="249.5" y="-109" font-family="Helvetica,sans-Serif" font-size="10.00"> IOTimeOut</text>
</g>
<!-- Node8 -->
<g id="node8" class="node">
<title>Node8</title>
<g id="a_node8"><a xlink:title=" ">
<polygon fill="white" stroke="#bfbfbf" points="302,-146.5 302,-165.5 379,-165.5 379,-146.5 302,-146.5"/>
<text text-anchor="middle" x="340.5" y="-153.5" font-family="Helvetica,sans-Serif" font-size="10.00">struct termios</text>
</a>
</g>
</g>
<!-- Node8&#45;&gt;Node2 -->
<g id="edge8" class="edge">
<title>Node8&#45;&gt;Node2</title>
<path fill="none" stroke="#9a32cd" stroke-dasharray="5,2" d="M328.12,-138.27C316.97,-124.46 299.32,-105.48 279.5,-95 245.24,-76.88 200.28,-70.87 171.63,-68.91"/>
<polygon fill="#9a32cd" stroke="#9a32cd" points="325.58,-140.7 334.47,-146.46 331.11,-136.42 325.58,-140.7"/>
<text text-anchor="middle" x="333" y="-114.5" font-family="Helvetica,sans-Serif" font-size="10.00"> curopt</text>
<text text-anchor="middle" x="333" y="-103.5" font-family="Helvetica,sans-Serif" font-size="10.00">orgopt</text>
</g>
</g>
</svg>
