<?xml version="1.0" encoding="UTF-8" standalone="no"?>
<!DOCTYPE svg PUBLIC "-//W3C//DTD SVG 1.1//EN"
 "http://www.w3.org/Graphics/SVG/1.1/DTD/svg11.dtd">
<!-- Generated by graphviz version 2.43.0 (0)
 -->
<!-- Title: SMSCL::ReadMove Pages: 1 -->
<svg width="588pt" height="142pt"
 viewBox="0.00 0.00 588.00 142.00" xmlns="http://www.w3.org/2000/svg" xmlns:xlink="http://www.w3.org/1999/xlink">
<g id="graph0" class="graph" transform="scale(1 1) rotate(0) translate(4 138)">
<title>SMSCL::ReadMove</title>
<polygon fill="white" stroke="transparent" points="-4,4 -4,-138 584,-138 584,4 -4,4"/>
<!-- Node1 -->
<g id="node1" class="node">
<title>Node1</title>
<g id="a_node1"><a xlink:title=" ">
<polygon fill="#bfbfbf" stroke="black" points="0,-57.5 0,-76.5 104,-76.5 104,-57.5 0,-57.5"/>
<text text-anchor="middle" x="52" y="-64.5" font-family="Helvetica,sans-Serif" font-size="10.00">SMSCL::ReadMove</text>
</a>
</g>
</g>
<!-- Node2 -->
<g id="node2" class="node">
<title>Node2</title>
<g id="a_node2"><a xlink:href="classSCS.html#a53f169d695ac021846b259abbe410d4f" target="_top" xlink:title=" ">
<polygon fill="white" stroke="black" points="140,-57.5 140,-76.5 223,-76.5 223,-57.5 140,-57.5"/>
<text text-anchor="middle" x="181.5" y="-64.5" font-family="Helvetica,sans-Serif" font-size="10.00">SCS::readByte</text>
</a>
</g>
</g>
<!-- Node1&#45;&gt;Node2 -->
<g id="edge1" class="edge">
<title>Node1&#45;&gt;Node2</title>
<path fill="none" stroke="midnightblue" d="M104.12,-67C112.6,-67 121.38,-67 129.84,-67"/>
<polygon fill="midnightblue" stroke="midnightblue" points="129.96,-70.5 139.96,-67 129.96,-63.5 129.96,-70.5"/>
</g>
<!-- Node3 -->
<g id="node3" class="node">
<title>Node3</title>
<g id="a_node3"><a xlink:href="classSCS.html#a7d5573c3681d3afaa085f92f583a0dad" target="_top" xlink:title=" ">
<polygon fill="white" stroke="black" points="259,-57.5 259,-76.5 326,-76.5 326,-57.5 259,-57.5"/>
<text text-anchor="middle" x="292.5" y="-64.5" font-family="Helvetica,sans-Serif" font-size="10.00">SCS::Read</text>
</a>
</g>
</g>
<!-- Node2&#45;&gt;Node3 -->
<g id="edge2" class="edge">
<title>Node2&#45;&gt;Node3</title>
<path fill="none" stroke="midnightblue" d="M223.09,-67C231.44,-67 240.25,-67 248.67,-67"/>
<polygon fill="midnightblue" stroke="midnightblue" points="248.7,-70.5 258.7,-67 248.7,-63.5 248.7,-70.5"/>
</g>
<!-- Node4 -->
<g id="node4" class="node">
<title>Node4</title>
<g id="a_node4"><a xlink:href="classSCS.html#a7e23a5d866557da06108d326cb2055b9" target="_top" xlink:title=" ">
<polygon fill="white" stroke="black" points="368.5,-114.5 368.5,-133.5 451.5,-133.5 451.5,-114.5 368.5,-114.5"/>
<text text-anchor="middle" x="410" y="-121.5" font-family="Helvetica,sans-Serif" font-size="10.00">SCS::readSCS</text>
</a>
</g>
</g>
<!-- Node3&#45;&gt;Node4 -->
<g id="edge3" class="edge">
<title>Node3&#45;&gt;Node4</title>
<path fill="none" stroke="midnightblue" d="M309.54,-76.63C323.24,-84.68 343.59,-96.21 362,-105 365.84,-106.83 369.91,-108.65 373.98,-110.4"/>
<polygon fill="midnightblue" stroke="midnightblue" points="372.81,-113.7 383.39,-114.31 375.49,-107.24 372.81,-113.7"/>
</g>
<!-- Node5 -->
<g id="node5" class="node">
<title>Node5</title>
<g id="a_node5"><a xlink:href="classSCS.html#a856da9cc4c2a6d86984c3a314bfd87c9" target="_top" xlink:title=" ">
<polygon fill="white" stroke="black" points="364,-76.5 364,-95.5 456,-95.5 456,-76.5 364,-76.5"/>
<text text-anchor="middle" x="410" y="-83.5" font-family="Helvetica,sans-Serif" font-size="10.00">SCS::rFlushSCS</text>
</a>
</g>
</g>
<!-- Node3&#45;&gt;Node5 -->
<g id="edge4" class="edge">
<title>Node3&#45;&gt;Node5</title>
<path fill="none" stroke="midnightblue" d="M326.29,-72.39C334.81,-73.8 344.23,-75.35 353.57,-76.88"/>
<polygon fill="midnightblue" stroke="midnightblue" points="353.19,-80.37 363.63,-78.54 354.33,-73.46 353.19,-80.37"/>
</g>
<!-- Node6 -->
<g id="node6" class="node">
<title>Node6</title>
<g id="a_node6"><a xlink:href="classSCS.html#ad860b40280cba5d8ea5214cca6c70119" target="_top" xlink:title=" ">
<polygon fill="white" stroke="black" points="362,-38.5 362,-57.5 458,-57.5 458,-38.5 362,-38.5"/>
<text text-anchor="middle" x="410" y="-45.5" font-family="Helvetica,sans-Serif" font-size="10.00">SCS::wFlushSCS</text>
</a>
</g>
</g>
<!-- Node3&#45;&gt;Node6 -->
<g id="edge5" class="edge">
<title>Node3&#45;&gt;Node6</title>
<path fill="none" stroke="midnightblue" d="M326.29,-61.61C334.33,-60.28 343.18,-58.83 352,-57.38"/>
<polygon fill="midnightblue" stroke="midnightblue" points="352.6,-60.82 361.9,-55.75 351.47,-53.92 352.6,-60.82"/>
</g>
<!-- Node7 -->
<g id="node7" class="node">
<title>Node7</title>
<g id="a_node7"><a xlink:href="classSCS.html#aa4af18b8b9f34649cd1e8aadde6d9b1f" target="_top" xlink:title=" ">
<polygon fill="white" stroke="black" points="370,-0.5 370,-19.5 450,-19.5 450,-0.5 370,-0.5"/>
<text text-anchor="middle" x="410" y="-7.5" font-family="Helvetica,sans-Serif" font-size="10.00">SCS::writeBuf</text>
</a>
</g>
</g>
<!-- Node3&#45;&gt;Node7 -->
<g id="edge6" class="edge">
<title>Node3&#45;&gt;Node7</title>
<path fill="none" stroke="midnightblue" d="M309.54,-57.37C323.24,-49.32 343.59,-37.79 362,-29 365.84,-27.17 369.91,-25.35 373.98,-23.6"/>
<polygon fill="midnightblue" stroke="midnightblue" points="375.49,-26.76 383.39,-19.69 372.81,-20.3 375.49,-26.76"/>
</g>
<!-- Node8 -->
<g id="node8" class="node">
<title>Node8</title>
<g id="a_node8"><a xlink:href="classSCS.html#a863a8f5eabdddf9d7500698d4ccff05e" target="_top" xlink:title=" ">
<polygon fill="white" stroke="black" points="494,-0.5 494,-19.5 580,-19.5 580,-0.5 494,-0.5"/>
<text text-anchor="middle" x="537" y="-7.5" font-family="Helvetica,sans-Serif" font-size="10.00">SCS::writeSCS</text>
</a>
</g>
</g>
<!-- Node7&#45;&gt;Node8 -->
<g id="edge7" class="edge">
<title>Node7&#45;&gt;Node8</title>
<path fill="none" stroke="midnightblue" d="M450.21,-10C460.84,-10 472.53,-10 483.76,-10"/>
<polygon fill="midnightblue" stroke="midnightblue" points="483.9,-13.5 493.9,-10 483.9,-6.5 483.9,-13.5"/>
</g>
</g>
</svg>
