<?xml version="1.0" encoding="UTF-8" standalone="no"?>
<!DOCTYPE svg PUBLIC "-//W3C//DTD SVG 1.1//EN"
 "http://www.w3.org/Graphics/SVG/1.1/DTD/svg11.dtd">
<!-- Generated by graphviz version 2.43.0 (0)
 -->
<!-- Title: SMSBL Pages: 1 -->
<svg width="381pt" height="307pt"
 viewBox="0.00 0.00 381.00 307.00" xmlns="http://www.w3.org/2000/svg" xmlns:xlink="http://www.w3.org/1999/xlink">
<g id="graph0" class="graph" transform="scale(1 1) rotate(0) translate(4 303)">
<title>SMSBL</title>
<polygon fill="white" stroke="transparent" points="-4,4 -4,-303 377,-303 377,4 -4,4"/>
<!-- Node1 -->
<g id="node1" class="node">
<title>Node1</title>
<g id="a_node1"><a xlink:title=" ">
<polygon fill="#bfbfbf" stroke="black" points="0.5,-0.5 0.5,-19.5 50.5,-19.5 50.5,-0.5 0.5,-0.5"/>
<text text-anchor="middle" x="25.5" y="-7.5" font-family="Helvetica,sans-Serif" font-size="10.00">SMSBL</text>
</a>
</g>
</g>
<!-- Node2 -->
<g id="node2" class="node">
<title>Node2</title>
<g id="a_node2"><a xlink:href="classSCSerial.html" target="_top" xlink:title=" ">
<polygon fill="white" stroke="black" points="109.5,-57.5 109.5,-76.5 165.5,-76.5 165.5,-57.5 109.5,-57.5"/>
<text text-anchor="middle" x="137.5" y="-64.5" font-family="Helvetica,sans-Serif" font-size="10.00">SCSerial</text>
</a>
</g>
</g>
<!-- Node2&#45;&gt;Node1 -->
<g id="edge1" class="edge">
<title>Node2&#45;&gt;Node1</title>
<path fill="none" stroke="midnightblue" d="M110.94,-52.96C89.89,-42.62 61.08,-28.47 42.88,-19.53"/>
<polygon fill="midnightblue" stroke="midnightblue" points="109.48,-56.14 120,-57.41 112.57,-49.86 109.48,-56.14"/>
</g>
<!-- Node3 -->
<g id="node3" class="node">
<title>Node3</title>
<g id="a_node3"><a xlink:href="classSCS.html" target="_top" xlink:title=" ">
<polygon fill="white" stroke="black" points="83.5,-146.5 83.5,-165.5 121.5,-165.5 121.5,-146.5 83.5,-146.5"/>
<text text-anchor="middle" x="102.5" y="-153.5" font-family="Helvetica,sans-Serif" font-size="10.00">SCS</text>
</a>
</g>
</g>
<!-- Node3&#45;&gt;Node2 -->
<g id="edge2" class="edge">
<title>Node3&#45;&gt;Node2</title>
<path fill="none" stroke="midnightblue" d="M109.75,-136.97C117.18,-118.51 128.41,-90.61 134.03,-76.62"/>
<polygon fill="midnightblue" stroke="midnightblue" points="106.47,-135.76 105.98,-146.34 112.96,-138.37 106.47,-135.76"/>
</g>
<!-- Node4 -->
<g id="node4" class="node">
<title>Node4</title>
<g id="a_node4"><a xlink:title=" ">
<polygon fill="white" stroke="#bfbfbf" points="0,-279.5 0,-298.5 77,-298.5 77,-279.5 0,-279.5"/>
<text text-anchor="middle" x="38.5" y="-286.5" font-family="Helvetica,sans-Serif" font-size="10.00">unsigned char</text>
</a>
</g>
</g>
<!-- Node4&#45;&gt;Node1 -->
<g id="edge9" class="edge">
<title>Node4&#45;&gt;Node1</title>
<path fill="none" stroke="#9a32cd" stroke-dasharray="5,2" d="M30.76,-269.65C29.83,-266.8 29.03,-263.85 28.5,-261 11.25,-167.96 21.2,-52.09 24.54,-19.74"/>
<polygon fill="#9a32cd" stroke="#9a32cd" points="27.56,-271.1 34.37,-279.22 34.11,-268.63 27.56,-271.1"/>
<text text-anchor="middle" x="32" y="-109" font-family="Helvetica,sans-Serif" font-size="10.00"> Mem</text>
</g>
<!-- Node4&#45;&gt;Node2 -->
<g id="edge5" class="edge">
<title>Node4&#45;&gt;Node2</title>
<path fill="none" stroke="#9a32cd" stroke-dasharray="5,2" d="M35.31,-269.33C31.41,-241.02 27.55,-186.27 47.5,-146 63.66,-113.39 100.14,-88.75 121.36,-76.54"/>
<polygon fill="#9a32cd" stroke="#9a32cd" points="31.89,-270.07 36.87,-279.42 38.8,-269 31.89,-270.07"/>
<text text-anchor="middle" x="61" y="-153.5" font-family="Helvetica,sans-Serif" font-size="10.00"> txBuf</text>
</g>
<!-- Node4&#45;&gt;Node3 -->
<g id="edge3" class="edge">
<title>Node4&#45;&gt;Node3</title>
<path fill="none" stroke="#9a32cd" stroke-dasharray="5,2" d="M46.2,-269.79C47.35,-266.87 48.49,-263.86 49.5,-261 61.36,-227.31 53.4,-214.18 72.5,-184 77.07,-176.78 84.1,-170.31 90.2,-165.51"/>
<polygon fill="#9a32cd" stroke="#9a32cd" points="42.94,-268.5 42.39,-279.08 49.42,-271.16 42.94,-268.5"/>
<text text-anchor="middle" x="128.5" y="-253" font-family="Helvetica,sans-Serif" font-size="10.00"> End</text>
<text text-anchor="middle" x="128.5" y="-242" font-family="Helvetica,sans-Serif" font-size="10.00">Error</text>
<text text-anchor="middle" x="128.5" y="-231" font-family="Helvetica,sans-Serif" font-size="10.00">Level</text>
<text text-anchor="middle" x="128.5" y="-220" font-family="Helvetica,sans-Serif" font-size="10.00">syncReadRxBuff</text>
<text text-anchor="middle" x="128.5" y="-209" font-family="Helvetica,sans-Serif" font-size="10.00">syncReadRxPacket</text>
<text text-anchor="middle" x="128.5" y="-198" font-family="Helvetica,sans-Serif" font-size="10.00">syncReadRxPacketIndex</text>
<text text-anchor="middle" x="128.5" y="-187" font-family="Helvetica,sans-Serif" font-size="10.00">syncReadRxPacketLen</text>
</g>
<!-- Node5 -->
<g id="node5" class="node">
<title>Node5</title>
<g id="a_node5"><a xlink:title=" ">
<polygon fill="white" stroke="#bfbfbf" points="166.5,-279.5 166.5,-298.5 246.5,-298.5 246.5,-279.5 166.5,-279.5"/>
<text text-anchor="middle" x="206.5" y="-286.5" font-family="Helvetica,sans-Serif" font-size="10.00">unsigned short</text>
</a>
</g>
</g>
<!-- Node5&#45;&gt;Node3 -->
<g id="edge4" class="edge">
<title>Node5&#45;&gt;Node3</title>
<path fill="none" stroke="#9a32cd" stroke-dasharray="5,2" d="M207.79,-269.37C208.33,-246.44 205.68,-207.63 184.5,-184 183.95,-183.39 145.84,-171 121.77,-163.22"/>
<polygon fill="#9a32cd" stroke="#9a32cd" points="204.29,-269.33 207.32,-279.49 211.28,-269.66 204.29,-269.33"/>
<text text-anchor="middle" x="254.5" y="-225.5" font-family="Helvetica,sans-Serif" font-size="10.00"> syncReadRxBuffLen</text>
<text text-anchor="middle" x="254.5" y="-214.5" font-family="Helvetica,sans-Serif" font-size="10.00">syncReadRxBuffMax</text>
</g>
<!-- Node6 -->
<g id="node6" class="node">
<title>Node6</title>
<g id="a_node6"><a xlink:title=" ">
<polygon fill="white" stroke="#bfbfbf" points="140,-146.5 140,-165.5 169,-165.5 169,-146.5 140,-146.5"/>
<text text-anchor="middle" x="154.5" y="-153.5" font-family="Helvetica,sans-Serif" font-size="10.00">int</text>
</a>
</g>
</g>
<!-- Node6&#45;&gt;Node2 -->
<g id="edge6" class="edge">
<title>Node6&#45;&gt;Node2</title>
<path fill="none" stroke="#9a32cd" stroke-dasharray="5,2" d="M150.88,-136.46C147.27,-118 141.89,-90.48 139.19,-76.62"/>
<polygon fill="#9a32cd" stroke="#9a32cd" points="147.45,-137.2 152.81,-146.34 154.33,-135.85 147.45,-137.2"/>
<text text-anchor="middle" x="169.5" y="-120" font-family="Helvetica,sans-Serif" font-size="10.00"> Err</text>
<text text-anchor="middle" x="169.5" y="-109" font-family="Helvetica,sans-Serif" font-size="10.00">fd</text>
<text text-anchor="middle" x="169.5" y="-98" font-family="Helvetica,sans-Serif" font-size="10.00">txBufLen</text>
</g>
<!-- Node7 -->
<g id="node7" class="node">
<title>Node7</title>
<g id="a_node7"><a xlink:title=" ">
<polygon fill="white" stroke="#bfbfbf" points="187.5,-146.5 187.5,-165.5 277.5,-165.5 277.5,-146.5 187.5,-146.5"/>
<text text-anchor="middle" x="232.5" y="-153.5" font-family="Helvetica,sans-Serif" font-size="10.00">unsigned long int</text>
</a>
</g>
</g>
<!-- Node7&#45;&gt;Node2 -->
<g id="edge7" class="edge">
<title>Node7&#45;&gt;Node2</title>
<path fill="none" stroke="#9a32cd" stroke-dasharray="5,2" d="M224.07,-136.85C217.3,-123.85 206.74,-106.66 193.5,-95 184.51,-87.08 172.79,-80.96 162.39,-76.55"/>
<polygon fill="#9a32cd" stroke="#9a32cd" points="221.11,-138.76 228.67,-146.18 227.39,-135.67 221.11,-138.76"/>
<text text-anchor="middle" x="243.5" y="-109" font-family="Helvetica,sans-Serif" font-size="10.00"> IOTimeOut</text>
</g>
<!-- Node8 -->
<g id="node8" class="node">
<title>Node8</title>
<g id="a_node8"><a xlink:title=" ">
<polygon fill="white" stroke="#bfbfbf" points="296,-146.5 296,-165.5 373,-165.5 373,-146.5 296,-146.5"/>
<text text-anchor="middle" x="334.5" y="-153.5" font-family="Helvetica,sans-Serif" font-size="10.00">struct termios</text>
</a>
</g>
</g>
<!-- Node8&#45;&gt;Node2 -->
<g id="edge8" class="edge">
<title>Node8&#45;&gt;Node2</title>
<path fill="none" stroke="#9a32cd" stroke-dasharray="5,2" d="M322.12,-138.27C310.97,-124.46 293.32,-105.48 273.5,-95 239.24,-76.88 194.28,-70.87 165.63,-68.91"/>
<polygon fill="#9a32cd" stroke="#9a32cd" points="319.58,-140.7 328.47,-146.46 325.11,-136.42 319.58,-140.7"/>
<text text-anchor="middle" x="327" y="-114.5" font-family="Helvetica,sans-Serif" font-size="10.00"> curopt</text>
<text text-anchor="middle" x="327" y="-103.5" font-family="Helvetica,sans-Serif" font-size="10.00">orgopt</text>
</g>
</g>
</svg>
