<?xml version="1.0" encoding="UTF-8" standalone="no"?>
<!DOCTYPE svg PUBLIC "-//W3C//DTD SVG 1.1//EN"
 "http://www.w3.org/Graphics/SVG/1.1/DTD/svg11.dtd">
<!-- Generated by graphviz version 2.43.0 (0)
 -->
<!-- Title: SCS::Host2SCS Pages: 1 -->
<svg width="278pt" height="826pt"
 viewBox="0.00 0.00 278.00 826.00" xmlns="http://www.w3.org/2000/svg" xmlns:xlink="http://www.w3.org/1999/xlink">
<g id="graph0" class="graph" transform="scale(1 1) rotate(0) translate(4 822)">
<title>SCS::Host2SCS</title>
<polygon fill="white" stroke="transparent" points="-4,4 -4,-822 274,-822 274,4 -4,4"/>
<!-- Node1 -->
<g id="node1" class="node">
<title>Node1</title>
<g id="a_node1"><a xlink:title=" ">
<polygon fill="#bfbfbf" stroke="black" points="179,-399.5 179,-418.5 270,-418.5 270,-399.5 179,-399.5"/>
<text text-anchor="middle" x="224.5" y="-406.5" font-family="Helvetica,sans-Serif" font-size="10.00">SCS::Host2SCS</text>
</a>
</g>
</g>
<!-- Node2 -->
<g id="node2" class="node">
<title>Node2</title>
<g id="a_node2"><a xlink:href="classSCSCL.html#aa3506a4b76259bc859544c83b64b1c01" target="_top" xlink:title=" ">
<polygon fill="white" stroke="black" points="14.5,-798.5 14.5,-817.5 128.5,-817.5 128.5,-798.5 14.5,-798.5"/>
<text text-anchor="middle" x="71.5" y="-805.5" font-family="Helvetica,sans-Serif" font-size="10.00">SCSCL::RegWritePos</text>
</a>
</g>
</g>
<!-- Node1&#45;&gt;Node2 -->
<g id="edge1" class="edge">
<title>Node1&#45;&gt;Node2</title>
<path fill="none" stroke="midnightblue" d="M222,-428.68C216.25,-498.91 193.4,-735.77 143,-789 138.9,-793.33 133.93,-796.7 128.55,-799.34"/>
<polygon fill="midnightblue" stroke="midnightblue" points="225.5,-428.81 222.8,-418.57 218.52,-428.26 225.5,-428.81"/>
</g>
<!-- Node3 -->
<g id="node3" class="node">
<title>Node3</title>
<g id="a_node3"><a xlink:href="classSMS__STS.html#abc5996ea19a51493c4fb2a991dd710bc" target="_top" xlink:title=" ">
<polygon fill="white" stroke="black" points="2,-760.5 2,-779.5 141,-779.5 141,-760.5 2,-760.5"/>
<text text-anchor="middle" x="71.5" y="-767.5" font-family="Helvetica,sans-Serif" font-size="10.00">SMS_STS::RegWritePosEx</text>
</a>
</g>
</g>
<!-- Node1&#45;&gt;Node3 -->
<g id="edge2" class="edge">
<title>Node1&#45;&gt;Node3</title>
<path fill="none" stroke="midnightblue" d="M221.49,-428.8C214.41,-494.52 188.64,-703.88 143,-751 139.3,-754.82 134.91,-757.91 130.17,-760.38"/>
<polygon fill="midnightblue" stroke="midnightblue" points="224.99,-428.9 222.56,-418.59 218.03,-428.17 224.99,-428.9"/>
</g>
<!-- Node4 -->
<g id="node4" class="node">
<title>Node4</title>
<g id="a_node4"><a xlink:href="classSMSBL.html#a499cfa7e56879d68d237f7ce44358302" target="_top" xlink:title=" ">
<polygon fill="white" stroke="black" points="8.5,-722.5 8.5,-741.5 134.5,-741.5 134.5,-722.5 8.5,-722.5"/>
<text text-anchor="middle" x="71.5" y="-729.5" font-family="Helvetica,sans-Serif" font-size="10.00">SMSBL::RegWritePosEx</text>
</a>
</g>
</g>
<!-- Node1&#45;&gt;Node4 -->
<g id="edge3" class="edge">
<title>Node1&#45;&gt;Node4</title>
<path fill="none" stroke="midnightblue" d="M220.84,-428.95C212.33,-489.88 183.89,-671.93 143,-713 139.15,-716.86 134.61,-719.96 129.71,-722.45"/>
<polygon fill="midnightblue" stroke="midnightblue" points="224.35,-429.13 222.24,-418.74 217.41,-428.18 224.35,-429.13"/>
</g>
<!-- Node5 -->
<g id="node5" class="node">
<title>Node5</title>
<g id="a_node5"><a xlink:href="classSMSCL.html#aa9395f6a9d9032740ac3e312a7205c7c" target="_top" xlink:title=" ">
<polygon fill="white" stroke="black" points="8,-684.5 8,-703.5 135,-703.5 135,-684.5 8,-684.5"/>
<text text-anchor="middle" x="71.5" y="-691.5" font-family="Helvetica,sans-Serif" font-size="10.00">SMSCL::RegWritePosEx</text>
</a>
</g>
</g>
<!-- Node1&#45;&gt;Node5 -->
<g id="edge4" class="edge">
<title>Node1&#45;&gt;Node5</title>
<path fill="none" stroke="midnightblue" d="M223.63,-428.89C222.83,-478.08 213.7,-606.43 143,-675 139,-678.88 134.29,-681.99 129.23,-684.48"/>
<polygon fill="midnightblue" stroke="midnightblue" points="227.13,-428.67 223.69,-418.65 220.13,-428.63 227.13,-428.67"/>
</g>
<!-- Node6 -->
<g id="node6" class="node">
<title>Node6</title>
<g id="a_node6"><a xlink:href="classSMS__STS.html#a26d3353e8e46edab51f400e74e75f3e5" target="_top" xlink:title=" ">
<polygon fill="white" stroke="black" points="5.5,-646.5 5.5,-665.5 137.5,-665.5 137.5,-646.5 5.5,-646.5"/>
<text text-anchor="middle" x="71.5" y="-653.5" font-family="Helvetica,sans-Serif" font-size="10.00">SMS_STS::RegWritePwm</text>
</a>
</g>
</g>
<!-- Node1&#45;&gt;Node6 -->
<g id="edge5" class="edge">
<title>Node1&#45;&gt;Node6</title>
<path fill="none" stroke="midnightblue" d="M222.45,-429.02C219.02,-473.28 204.47,-580.04 143,-637 138.82,-640.88 133.92,-643.98 128.7,-646.46"/>
<polygon fill="midnightblue" stroke="midnightblue" points="225.95,-429.16 223.12,-418.95 218.96,-428.7 225.95,-429.16"/>
</g>
<!-- Node7 -->
<g id="node7" class="node">
<title>Node7</title>
<g id="a_node7"><a xlink:href="classSMS__STS.html#ac80d59c2006b9c13b380e392e1d381fe" target="_top" xlink:title=" ">
<polygon fill="white" stroke="black" points="8,-608.5 8,-627.5 135,-627.5 135,-608.5 8,-608.5"/>
<text text-anchor="middle" x="71.5" y="-615.5" font-family="Helvetica,sans-Serif" font-size="10.00">SMS_STS::RegWriteSpe</text>
</a>
</g>
</g>
<!-- Node1&#45;&gt;Node7 -->
<g id="edge6" class="edge">
<title>Node1&#45;&gt;Node7</title>
<path fill="none" stroke="midnightblue" d="M220.92,-428.54C214.77,-467.09 195.61,-553.17 143,-599 138.6,-602.83 133.51,-605.9 128.11,-608.35"/>
<polygon fill="midnightblue" stroke="midnightblue" points="224.39,-429 222.38,-418.6 217.46,-427.98 224.39,-429"/>
</g>
<!-- Node8 -->
<g id="node8" class="node">
<title>Node8</title>
<g id="a_node8"><a xlink:href="classSCSCL.html#a8842a571f69fd2aa7df7325cba935887" target="_top" xlink:title=" ">
<polygon fill="white" stroke="black" points="12,-570.5 12,-589.5 131,-589.5 131,-570.5 12,-570.5"/>
<text text-anchor="middle" x="71.5" y="-577.5" font-family="Helvetica,sans-Serif" font-size="10.00">SCSCL::SyncWritePos</text>
</a>
</g>
</g>
<!-- Node1&#45;&gt;Node8 -->
<g id="edge7" class="edge">
<title>Node1&#45;&gt;Node8</title>
<path fill="none" stroke="midnightblue" d="M218.61,-428.61C209.47,-461.15 186.64,-526.18 143,-561 138.14,-564.87 132.57,-567.96 126.72,-570.42"/>
<polygon fill="midnightblue" stroke="midnightblue" points="222.1,-429.12 221.29,-418.55 215.34,-427.32 222.1,-429.12"/>
</g>
<!-- Node9 -->
<g id="node9" class="node">
<title>Node9</title>
<g id="a_node9"><a xlink:href="classSMS__STS.html#ae46cbc3f740119af06541dcda7de4efd" target="_top" xlink:title=" ">
<polygon fill="white" stroke="black" points="0,-532.5 0,-551.5 143,-551.5 143,-532.5 0,-532.5"/>
<text text-anchor="middle" x="71.5" y="-539.5" font-family="Helvetica,sans-Serif" font-size="10.00">SMS_STS::SyncWritePosEx</text>
</a>
</g>
</g>
<!-- Node1&#45;&gt;Node9 -->
<g id="edge8" class="edge">
<title>Node1&#45;&gt;Node9</title>
<path fill="none" stroke="midnightblue" d="M215.21,-428C203.09,-453.52 178.09,-498.49 143,-523 137.49,-526.85 131.24,-529.91 124.8,-532.36"/>
<polygon fill="midnightblue" stroke="midnightblue" points="218.5,-429.21 219.48,-418.66 212.14,-426.3 218.5,-429.21"/>
</g>
<!-- Node10 -->
<g id="node10" class="node">
<title>Node10</title>
<g id="a_node10"><a xlink:href="classSMSBL.html#a609e9dfce27e58f79dcbb61d5aa770aa" target="_top" xlink:title=" ">
<polygon fill="white" stroke="black" points="6,-494.5 6,-513.5 137,-513.5 137,-494.5 6,-494.5"/>
<text text-anchor="middle" x="71.5" y="-501.5" font-family="Helvetica,sans-Serif" font-size="10.00">SMSBL::SyncWritePosEx</text>
</a>
</g>
</g>
<!-- Node1&#45;&gt;Node10 -->
<g id="edge9" class="edge">
<title>Node1&#45;&gt;Node10</title>
<path fill="none" stroke="midnightblue" d="M209.38,-426.68C194.6,-444.02 169.86,-469.98 143,-485 136.14,-488.84 128.47,-491.93 120.78,-494.41"/>
<polygon fill="midnightblue" stroke="midnightblue" points="212.47,-428.44 216.15,-418.5 207.08,-423.97 212.47,-428.44"/>
</g>
<!-- Node11 -->
<g id="node11" class="node">
<title>Node11</title>
<g id="a_node11"><a xlink:href="classSMSCL.html#a38223dcc9357b6501dae3fa3e6e0749e" target="_top" xlink:title=" ">
<polygon fill="white" stroke="black" points="6,-456.5 6,-475.5 137,-475.5 137,-456.5 6,-456.5"/>
<text text-anchor="middle" x="71.5" y="-463.5" font-family="Helvetica,sans-Serif" font-size="10.00">SMSCL::SyncWritePosEx</text>
</a>
</g>
</g>
<!-- Node1&#45;&gt;Node11 -->
<g id="edge10" class="edge">
<title>Node1&#45;&gt;Node11</title>
<path fill="none" stroke="midnightblue" d="M196.7,-423.12C181.29,-430.87 161.38,-440.25 143,-447 133.36,-450.54 122.77,-453.74 112.78,-456.47"/>
<polygon fill="midnightblue" stroke="midnightblue" points="198.35,-426.21 205.67,-418.54 195.17,-419.97 198.35,-426.21"/>
</g>
<!-- Node12 -->
<g id="node12" class="node">
<title>Node12</title>
<g id="a_node12"><a xlink:href="classSMS__STS.html#af50b854cff7c2530d7431fd80a46cbc7" target="_top" xlink:title=" ">
<polygon fill="white" stroke="black" points="3,-418.5 3,-437.5 140,-437.5 140,-418.5 3,-418.5"/>
<text text-anchor="middle" x="71.5" y="-425.5" font-family="Helvetica,sans-Serif" font-size="10.00">SMS_STS::SyncWritePwm</text>
</a>
</g>
</g>
<!-- Node1&#45;&gt;Node12 -->
<g id="edge11" class="edge">
<title>Node1&#45;&gt;Node12</title>
<path fill="none" stroke="midnightblue" d="M168.44,-415.93C159.25,-417.08 149.61,-418.3 140.15,-419.49"/>
<polygon fill="midnightblue" stroke="midnightblue" points="169.12,-419.37 178.6,-414.65 168.25,-412.43 169.12,-419.37"/>
</g>
<!-- Node13 -->
<g id="node13" class="node">
<title>Node13</title>
<g id="a_node13"><a xlink:href="classSMS__STS.html#a49f1260120eabb4ad999ab4615f37342" target="_top" xlink:title=" ">
<polygon fill="white" stroke="black" points="6,-380.5 6,-399.5 137,-399.5 137,-380.5 6,-380.5"/>
<text text-anchor="middle" x="71.5" y="-387.5" font-family="Helvetica,sans-Serif" font-size="10.00">SMS_STS::SyncWriteSpe</text>
</a>
</g>
</g>
<!-- Node1&#45;&gt;Node13 -->
<g id="edge12" class="edge">
<title>Node1&#45;&gt;Node13</title>
<path fill="none" stroke="midnightblue" d="M168.58,-402.09C158.34,-400.8 147.56,-399.44 137.06,-398.12"/>
<polygon fill="midnightblue" stroke="midnightblue" points="168.25,-405.57 178.6,-403.35 169.12,-398.63 168.25,-405.57"/>
</g>
<!-- Node14 -->
<g id="node14" class="node">
<title>Node14</title>
<g id="a_node14"><a xlink:href="classSCSCL.html#a4882d52674205a5abc593b78f9f81c50" target="_top" xlink:title=" ">
<polygon fill="white" stroke="black" points="23.5,-342.5 23.5,-361.5 119.5,-361.5 119.5,-342.5 23.5,-342.5"/>
<text text-anchor="middle" x="71.5" y="-349.5" font-family="Helvetica,sans-Serif" font-size="10.00">SCSCL::WritePos</text>
</a>
</g>
</g>
<!-- Node1&#45;&gt;Node14 -->
<g id="edge13" class="edge">
<title>Node1&#45;&gt;Node14</title>
<path fill="none" stroke="midnightblue" d="M196.7,-394.88C181.29,-387.13 161.38,-377.75 143,-371 133.36,-367.46 122.77,-364.26 112.78,-361.53"/>
<polygon fill="midnightblue" stroke="midnightblue" points="195.17,-398.03 205.67,-399.46 198.35,-391.79 195.17,-398.03"/>
</g>
<!-- Node15 -->
<g id="node15" class="node">
<title>Node15</title>
<g id="a_node15"><a xlink:href="classSMS__STS.html#a45a16d8560e8267770a4de848356da51" target="_top" xlink:title=" ">
<polygon fill="white" stroke="black" points="11,-304.5 11,-323.5 132,-323.5 132,-304.5 11,-304.5"/>
<text text-anchor="middle" x="71.5" y="-311.5" font-family="Helvetica,sans-Serif" font-size="10.00">SMS_STS::WritePosEx</text>
</a>
</g>
</g>
<!-- Node1&#45;&gt;Node15 -->
<g id="edge14" class="edge">
<title>Node1&#45;&gt;Node15</title>
<path fill="none" stroke="midnightblue" d="M209.38,-391.32C194.6,-373.98 169.86,-348.02 143,-333 136.14,-329.16 128.47,-326.07 120.78,-323.59"/>
<polygon fill="midnightblue" stroke="midnightblue" points="207.08,-394.03 216.15,-399.5 212.47,-389.56 207.08,-394.03"/>
</g>
<!-- Node16 -->
<g id="node16" class="node">
<title>Node16</title>
<g id="a_node16"><a xlink:href="classSMSBL.html#ae0e7fe9d3da55ee2065a024af2dc1563" target="_top" xlink:title=" ">
<polygon fill="white" stroke="black" points="17.5,-266.5 17.5,-285.5 125.5,-285.5 125.5,-266.5 17.5,-266.5"/>
<text text-anchor="middle" x="71.5" y="-273.5" font-family="Helvetica,sans-Serif" font-size="10.00">SMSBL::WritePosEx</text>
</a>
</g>
</g>
<!-- Node1&#45;&gt;Node16 -->
<g id="edge15" class="edge">
<title>Node1&#45;&gt;Node16</title>
<path fill="none" stroke="midnightblue" d="M215.21,-390C203.09,-364.48 178.09,-319.51 143,-295 137.49,-291.15 131.24,-288.09 124.8,-285.64"/>
<polygon fill="midnightblue" stroke="midnightblue" points="212.14,-391.7 219.48,-399.34 218.5,-388.79 212.14,-391.7"/>
</g>
<!-- Node17 -->
<g id="node17" class="node">
<title>Node17</title>
<g id="a_node17"><a xlink:href="classSMSCL.html#a9fa6f85374721a87e16c913325225c98" target="_top" xlink:title=" ">
<polygon fill="white" stroke="black" points="17,-228.5 17,-247.5 126,-247.5 126,-228.5 17,-228.5"/>
<text text-anchor="middle" x="71.5" y="-235.5" font-family="Helvetica,sans-Serif" font-size="10.00">SMSCL::WritePosEx</text>
</a>
</g>
</g>
<!-- Node1&#45;&gt;Node17 -->
<g id="edge16" class="edge">
<title>Node1&#45;&gt;Node17</title>
<path fill="none" stroke="midnightblue" d="M218.61,-389.39C209.47,-356.85 186.64,-291.82 143,-257 138.05,-253.05 132.34,-249.91 126.36,-247.43"/>
<polygon fill="midnightblue" stroke="midnightblue" points="215.34,-390.68 221.29,-399.45 222.1,-388.88 215.34,-390.68"/>
</g>
<!-- Node18 -->
<g id="node18" class="node">
<title>Node18</title>
<g id="a_node18"><a xlink:href="classSMS__STS.html#a78002513f351d644081ec91b4b058741" target="_top" xlink:title=" ">
<polygon fill="white" stroke="black" points="14.5,-190.5 14.5,-209.5 128.5,-209.5 128.5,-190.5 14.5,-190.5"/>
<text text-anchor="middle" x="71.5" y="-197.5" font-family="Helvetica,sans-Serif" font-size="10.00">SMS_STS::WritePwm</text>
</a>
</g>
</g>
<!-- Node1&#45;&gt;Node18 -->
<g id="edge17" class="edge">
<title>Node1&#45;&gt;Node18</title>
<path fill="none" stroke="midnightblue" d="M220.92,-389.46C214.77,-350.91 195.61,-264.83 143,-219 138.6,-215.17 133.51,-212.1 128.11,-209.65"/>
<polygon fill="midnightblue" stroke="midnightblue" points="217.46,-390.02 222.38,-399.4 224.39,-389 217.46,-390.02"/>
</g>
<!-- Node19 -->
<g id="node19" class="node">
<title>Node19</title>
<g id="a_node19"><a xlink:href="classSCSCL.html#ab8504abcb365ab4bd0756f14c8c49c58" target="_top" xlink:title=" ">
<polygon fill="white" stroke="black" points="19.5,-152.5 19.5,-171.5 123.5,-171.5 123.5,-152.5 19.5,-152.5"/>
<text text-anchor="middle" x="71.5" y="-159.5" font-family="Helvetica,sans-Serif" font-size="10.00">SCSCL::WritePWM</text>
</a>
</g>
</g>
<!-- Node1&#45;&gt;Node19 -->
<g id="edge18" class="edge">
<title>Node1&#45;&gt;Node19</title>
<path fill="none" stroke="midnightblue" d="M222.45,-388.98C219.02,-344.72 204.47,-237.96 143,-181 137.51,-175.92 130.81,-172.17 123.75,-169.41"/>
<polygon fill="midnightblue" stroke="midnightblue" points="218.96,-389.3 223.12,-399.05 225.95,-388.84 218.96,-389.3"/>
</g>
<!-- Node20 -->
<g id="node20" class="node">
<title>Node20</title>
<g id="a_node20"><a xlink:href="classSMS__STS.html#a5ed19565b4ab24b45a3fabe9b1fa11b9" target="_top" xlink:title=" ">
<polygon fill="white" stroke="black" points="17,-114.5 17,-133.5 126,-133.5 126,-114.5 17,-114.5"/>
<text text-anchor="middle" x="71.5" y="-121.5" font-family="Helvetica,sans-Serif" font-size="10.00">SMS_STS::WriteSpe</text>
</a>
</g>
</g>
<!-- Node1&#45;&gt;Node20 -->
<g id="edge19" class="edge">
<title>Node1&#45;&gt;Node20</title>
<path fill="none" stroke="midnightblue" d="M223.63,-389.11C222.83,-339.92 213.7,-211.57 143,-143 138.18,-138.32 132.33,-134.77 126.09,-132.07"/>
<polygon fill="midnightblue" stroke="midnightblue" points="220.13,-389.37 223.69,-399.35 227.13,-389.33 220.13,-389.37"/>
</g>
<!-- Node21 -->
<g id="node21" class="node">
<title>Node21</title>
<g id="a_node21"><a xlink:href="classSMSBL.html#aaee8d1d76810cf8b200a60e50cc907f8" target="_top" xlink:title=" ">
<polygon fill="white" stroke="black" points="23.5,-76.5 23.5,-95.5 119.5,-95.5 119.5,-76.5 23.5,-76.5"/>
<text text-anchor="middle" x="71.5" y="-83.5" font-family="Helvetica,sans-Serif" font-size="10.00">SMSBL::WriteSpe</text>
</a>
</g>
</g>
<!-- Node1&#45;&gt;Node21 -->
<g id="edge20" class="edge">
<title>Node1&#45;&gt;Node21</title>
<path fill="none" stroke="midnightblue" d="M220.84,-389.05C212.33,-328.12 183.89,-146.07 143,-105 136.65,-98.62 128.4,-94.32 119.79,-91.43"/>
<polygon fill="midnightblue" stroke="midnightblue" points="217.41,-389.82 222.24,-399.26 224.35,-388.87 217.41,-389.82"/>
</g>
<!-- Node22 -->
<g id="node22" class="node">
<title>Node22</title>
<g id="a_node22"><a xlink:href="classSMSCL.html#a64ffd4a24864944b515319892cda0028" target="_top" xlink:title=" ">
<polygon fill="white" stroke="black" points="23,-38.5 23,-57.5 120,-57.5 120,-38.5 23,-38.5"/>
<text text-anchor="middle" x="71.5" y="-45.5" font-family="Helvetica,sans-Serif" font-size="10.00">SMSCL::WriteSpe</text>
</a>
</g>
</g>
<!-- Node1&#45;&gt;Node22 -->
<g id="edge21" class="edge">
<title>Node1&#45;&gt;Node22</title>
<path fill="none" stroke="midnightblue" d="M221.49,-389.2C214.41,-323.48 188.64,-114.12 143,-67 136.83,-60.63 128.76,-56.32 120.29,-53.42"/>
<polygon fill="midnightblue" stroke="midnightblue" points="218.03,-389.83 222.56,-399.41 224.99,-389.1 218.03,-389.83"/>
</g>
<!-- Node23 -->
<g id="node23" class="node">
<title>Node23</title>
<g id="a_node23"><a xlink:href="classSCS.html#a04395f04b587c2f206c18cce822d928b" target="_top" xlink:title=" ">
<polygon fill="white" stroke="black" points="28,-0.5 28,-19.5 115,-19.5 115,-0.5 28,-0.5"/>
<text text-anchor="middle" x="71.5" y="-7.5" font-family="Helvetica,sans-Serif" font-size="10.00">SCS::writeWord</text>
</a>
</g>
</g>
<!-- Node1&#45;&gt;Node23 -->
<g id="edge22" class="edge">
<title>Node1&#45;&gt;Node23</title>
<path fill="none" stroke="midnightblue" d="M222,-389.32C216.25,-319.09 193.4,-82.23 143,-29 135.68,-21.27 125.57,-16.56 115.29,-13.73"/>
<polygon fill="midnightblue" stroke="midnightblue" points="218.52,-389.74 222.8,-399.43 225.5,-389.19 218.52,-389.74"/>
</g>
</g>
</svg>
