<?xml version="1.0" encoding="UTF-8" standalone="no"?>
<!DOCTYPE svg PUBLIC "-//W3C//DTD SVG 1.1//EN"
 "http://www.w3.org/Graphics/SVG/1.1/DTD/svg11.dtd">
<!-- Generated by graphviz version 2.43.0 (0)
 -->
<!-- Title: SMSCL::ReadVoltage Pages: 1 -->
<svg width="597pt" height="142pt"
 viewBox="0.00 0.00 597.00 142.00" xmlns="http://www.w3.org/2000/svg" xmlns:xlink="http://www.w3.org/1999/xlink">
<g id="graph0" class="graph" transform="scale(1 1) rotate(0) translate(4 138)">
<title>SMSCL::ReadVoltage</title>
<polygon fill="white" stroke="transparent" points="-4,4 -4,-138 593,-138 593,4 -4,4"/>
<!-- Node1 -->
<g id="node1" class="node">
<title>Node1</title>
<g id="a_node1"><a xlink:title=" ">
<polygon fill="#bfbfbf" stroke="black" points="0,-57.5 0,-76.5 113,-76.5 113,-57.5 0,-57.5"/>
<text text-anchor="middle" x="56.5" y="-64.5" font-family="Helvetica,sans-Serif" font-size="10.00">SMSCL::ReadVoltage</text>
</a>
</g>
</g>
<!-- Node2 -->
<g id="node2" class="node">
<title>Node2</title>
<g id="a_node2"><a xlink:href="classSCS.html#a53f169d695ac021846b259abbe410d4f" target="_top" xlink:title=" ">
<polygon fill="white" stroke="black" points="149,-57.5 149,-76.5 232,-76.5 232,-57.5 149,-57.5"/>
<text text-anchor="middle" x="190.5" y="-64.5" font-family="Helvetica,sans-Serif" font-size="10.00">SCS::readByte</text>
</a>
</g>
</g>
<!-- Node1&#45;&gt;Node2 -->
<g id="edge1" class="edge">
<title>Node1&#45;&gt;Node2</title>
<path fill="none" stroke="midnightblue" d="M113.1,-67C121.61,-67 130.37,-67 138.77,-67"/>
<polygon fill="midnightblue" stroke="midnightblue" points="138.81,-70.5 148.81,-67 138.81,-63.5 138.81,-70.5"/>
</g>
<!-- Node3 -->
<g id="node3" class="node">
<title>Node3</title>
<g id="a_node3"><a xlink:href="classSCS.html#a7d5573c3681d3afaa085f92f583a0dad" target="_top" xlink:title=" ">
<polygon fill="white" stroke="black" points="268,-57.5 268,-76.5 335,-76.5 335,-57.5 268,-57.5"/>
<text text-anchor="middle" x="301.5" y="-64.5" font-family="Helvetica,sans-Serif" font-size="10.00">SCS::Read</text>
</a>
</g>
</g>
<!-- Node2&#45;&gt;Node3 -->
<g id="edge2" class="edge">
<title>Node2&#45;&gt;Node3</title>
<path fill="none" stroke="midnightblue" d="M232.09,-67C240.44,-67 249.25,-67 257.67,-67"/>
<polygon fill="midnightblue" stroke="midnightblue" points="257.7,-70.5 267.7,-67 257.7,-63.5 257.7,-70.5"/>
</g>
<!-- Node4 -->
<g id="node4" class="node">
<title>Node4</title>
<g id="a_node4"><a xlink:href="classSCS.html#a7e23a5d866557da06108d326cb2055b9" target="_top" xlink:title=" ">
<polygon fill="white" stroke="black" points="377.5,-114.5 377.5,-133.5 460.5,-133.5 460.5,-114.5 377.5,-114.5"/>
<text text-anchor="middle" x="419" y="-121.5" font-family="Helvetica,sans-Serif" font-size="10.00">SCS::readSCS</text>
</a>
</g>
</g>
<!-- Node3&#45;&gt;Node4 -->
<g id="edge3" class="edge">
<title>Node3&#45;&gt;Node4</title>
<path fill="none" stroke="midnightblue" d="M318.54,-76.63C332.24,-84.68 352.59,-96.21 371,-105 374.84,-106.83 378.91,-108.65 382.98,-110.4"/>
<polygon fill="midnightblue" stroke="midnightblue" points="381.81,-113.7 392.39,-114.31 384.49,-107.24 381.81,-113.7"/>
</g>
<!-- Node5 -->
<g id="node5" class="node">
<title>Node5</title>
<g id="a_node5"><a xlink:href="classSCS.html#a856da9cc4c2a6d86984c3a314bfd87c9" target="_top" xlink:title=" ">
<polygon fill="white" stroke="black" points="373,-76.5 373,-95.5 465,-95.5 465,-76.5 373,-76.5"/>
<text text-anchor="middle" x="419" y="-83.5" font-family="Helvetica,sans-Serif" font-size="10.00">SCS::rFlushSCS</text>
</a>
</g>
</g>
<!-- Node3&#45;&gt;Node5 -->
<g id="edge4" class="edge">
<title>Node3&#45;&gt;Node5</title>
<path fill="none" stroke="midnightblue" d="M335.29,-72.39C343.81,-73.8 353.23,-75.35 362.57,-76.88"/>
<polygon fill="midnightblue" stroke="midnightblue" points="362.19,-80.37 372.63,-78.54 363.33,-73.46 362.19,-80.37"/>
</g>
<!-- Node6 -->
<g id="node6" class="node">
<title>Node6</title>
<g id="a_node6"><a xlink:href="classSCS.html#ad860b40280cba5d8ea5214cca6c70119" target="_top" xlink:title=" ">
<polygon fill="white" stroke="black" points="371,-38.5 371,-57.5 467,-57.5 467,-38.5 371,-38.5"/>
<text text-anchor="middle" x="419" y="-45.5" font-family="Helvetica,sans-Serif" font-size="10.00">SCS::wFlushSCS</text>
</a>
</g>
</g>
<!-- Node3&#45;&gt;Node6 -->
<g id="edge5" class="edge">
<title>Node3&#45;&gt;Node6</title>
<path fill="none" stroke="midnightblue" d="M335.29,-61.61C343.33,-60.28 352.18,-58.83 361,-57.38"/>
<polygon fill="midnightblue" stroke="midnightblue" points="361.6,-60.82 370.9,-55.75 360.47,-53.92 361.6,-60.82"/>
</g>
<!-- Node7 -->
<g id="node7" class="node">
<title>Node7</title>
<g id="a_node7"><a xlink:href="classSCS.html#aa4af18b8b9f34649cd1e8aadde6d9b1f" target="_top" xlink:title=" ">
<polygon fill="white" stroke="black" points="379,-0.5 379,-19.5 459,-19.5 459,-0.5 379,-0.5"/>
<text text-anchor="middle" x="419" y="-7.5" font-family="Helvetica,sans-Serif" font-size="10.00">SCS::writeBuf</text>
</a>
</g>
</g>
<!-- Node3&#45;&gt;Node7 -->
<g id="edge6" class="edge">
<title>Node3&#45;&gt;Node7</title>
<path fill="none" stroke="midnightblue" d="M318.54,-57.37C332.24,-49.32 352.59,-37.79 371,-29 374.84,-27.17 378.91,-25.35 382.98,-23.6"/>
<polygon fill="midnightblue" stroke="midnightblue" points="384.49,-26.76 392.39,-19.69 381.81,-20.3 384.49,-26.76"/>
</g>
<!-- Node8 -->
<g id="node8" class="node">
<title>Node8</title>
<g id="a_node8"><a xlink:href="classSCS.html#a863a8f5eabdddf9d7500698d4ccff05e" target="_top" xlink:title=" ">
<polygon fill="white" stroke="black" points="503,-0.5 503,-19.5 589,-19.5 589,-0.5 503,-0.5"/>
<text text-anchor="middle" x="546" y="-7.5" font-family="Helvetica,sans-Serif" font-size="10.00">SCS::writeSCS</text>
</a>
</g>
</g>
<!-- Node7&#45;&gt;Node8 -->
<g id="edge7" class="edge">
<title>Node7&#45;&gt;Node8</title>
<path fill="none" stroke="midnightblue" d="M459.21,-10C469.84,-10 481.53,-10 492.76,-10"/>
<polygon fill="midnightblue" stroke="midnightblue" points="492.9,-13.5 502.9,-10 492.9,-6.5 492.9,-13.5"/>
</g>
</g>
</svg>
