<?xml version="1.0" encoding="UTF-8" standalone="no"?>
<!DOCTYPE svg PUBLIC "-//W3C//DTD SVG 1.1//EN"
 "http://www.w3.org/Graphics/SVG/1.1/DTD/svg11.dtd">
<!-- Generated by graphviz version 2.43.0 (0)
 -->
<!-- Title: SMSCL::SyncWritePosEx Pages: 1 -->
<svg width="398pt" height="104pt"
 viewBox="0.00 0.00 398.00 104.00" xmlns="http://www.w3.org/2000/svg" xmlns:xlink="http://www.w3.org/1999/xlink">
<g id="graph0" class="graph" transform="scale(1 1) rotate(0) translate(4 100)">
<title>SMSCL::SyncWritePosEx</title>
<polygon fill="white" stroke="transparent" points="-4,4 -4,-100 394,-100 394,4 -4,4"/>
<!-- Node1 -->
<g id="node1" class="node">
<title>Node1</title>
<g id="a_node1"><a xlink:title=" ">
<polygon fill="#bfbfbf" stroke="black" points="0,-57.5 0,-76.5 131,-76.5 131,-57.5 0,-57.5"/>
<text text-anchor="middle" x="65.5" y="-64.5" font-family="Helvetica,sans-Serif" font-size="10.00">SMSCL::SyncWritePosEx</text>
</a>
</g>
</g>
<!-- Node2 -->
<g id="node2" class="node">
<title>Node2</title>
<g id="a_node2"><a xlink:href="classSCS.html#a4b91c0fcfaec1c55ef885ae2facaa0e7" target="_top" xlink:title=" ">
<polygon fill="white" stroke="black" points="167,-76.5 167,-95.5 258,-95.5 258,-76.5 167,-76.5"/>
<text text-anchor="middle" x="212.5" y="-83.5" font-family="Helvetica,sans-Serif" font-size="10.00">SCS::Host2SCS</text>
</a>
</g>
</g>
<!-- Node1&#45;&gt;Node2 -->
<g id="edge1" class="edge">
<title>Node1&#45;&gt;Node2</title>
<path fill="none" stroke="midnightblue" d="M131.37,-75.5C139.74,-76.6 148.26,-77.71 156.46,-78.79"/>
<polygon fill="midnightblue" stroke="midnightblue" points="156.27,-82.29 166.64,-80.12 157.18,-75.35 156.27,-82.29"/>
</g>
<!-- Node3 -->
<g id="node3" class="node">
<title>Node3</title>
<g id="a_node3"><a xlink:href="classSCS.html#a09c5261159f42f17d0a6003af7a3aedd" target="_top" xlink:title=" ">
<polygon fill="white" stroke="black" points="169,-38.5 169,-57.5 256,-57.5 256,-38.5 169,-38.5"/>
<text text-anchor="middle" x="212.5" y="-45.5" font-family="Helvetica,sans-Serif" font-size="10.00">SCS::syncWrite</text>
</a>
</g>
</g>
<!-- Node1&#45;&gt;Node3 -->
<g id="edge2" class="edge">
<title>Node1&#45;&gt;Node3</title>
<path fill="none" stroke="midnightblue" d="M131.37,-58.5C140.47,-57.31 149.74,-56.09 158.59,-54.93"/>
<polygon fill="midnightblue" stroke="midnightblue" points="159.28,-58.37 168.74,-53.6 158.37,-51.43 159.28,-58.37"/>
</g>
<!-- Node4 -->
<g id="node4" class="node">
<title>Node4</title>
<g id="a_node4"><a xlink:href="classSCS.html#a856da9cc4c2a6d86984c3a314bfd87c9" target="_top" xlink:title=" ">
<polygon fill="white" stroke="black" points="296,-76.5 296,-95.5 388,-95.5 388,-76.5 296,-76.5"/>
<text text-anchor="middle" x="342" y="-83.5" font-family="Helvetica,sans-Serif" font-size="10.00">SCS::rFlushSCS</text>
</a>
</g>
</g>
<!-- Node3&#45;&gt;Node4 -->
<g id="edge3" class="edge">
<title>Node3&#45;&gt;Node4</title>
<path fill="none" stroke="midnightblue" d="M245.67,-57.59C261.83,-62.4 281.61,-68.3 298.95,-73.47"/>
<polygon fill="midnightblue" stroke="midnightblue" points="298.25,-76.91 308.84,-76.41 300.25,-70.2 298.25,-76.91"/>
</g>
<!-- Node5 -->
<g id="node5" class="node">
<title>Node5</title>
<g id="a_node5"><a xlink:href="classSCS.html#ad860b40280cba5d8ea5214cca6c70119" target="_top" xlink:title=" ">
<polygon fill="white" stroke="black" points="294,-38.5 294,-57.5 390,-57.5 390,-38.5 294,-38.5"/>
<text text-anchor="middle" x="342" y="-45.5" font-family="Helvetica,sans-Serif" font-size="10.00">SCS::wFlushSCS</text>
</a>
</g>
</g>
<!-- Node3&#45;&gt;Node5 -->
<g id="edge4" class="edge">
<title>Node3&#45;&gt;Node5</title>
<path fill="none" stroke="midnightblue" d="M256.31,-48C265.04,-48 274.35,-48 283.49,-48"/>
<polygon fill="midnightblue" stroke="midnightblue" points="283.7,-51.5 293.7,-48 283.7,-44.5 283.7,-51.5"/>
</g>
<!-- Node6 -->
<g id="node6" class="node">
<title>Node6</title>
<g id="a_node6"><a xlink:href="classSCS.html#a863a8f5eabdddf9d7500698d4ccff05e" target="_top" xlink:title=" ">
<polygon fill="white" stroke="black" points="299,-0.5 299,-19.5 385,-19.5 385,-0.5 299,-0.5"/>
<text text-anchor="middle" x="342" y="-7.5" font-family="Helvetica,sans-Serif" font-size="10.00">SCS::writeSCS</text>
</a>
</g>
</g>
<!-- Node3&#45;&gt;Node6 -->
<g id="edge5" class="edge">
<title>Node3&#45;&gt;Node6</title>
<path fill="none" stroke="midnightblue" d="M245.67,-38.41C261.83,-33.6 281.61,-27.7 298.95,-22.53"/>
<polygon fill="midnightblue" stroke="midnightblue" points="300.25,-25.8 308.84,-19.59 298.25,-19.09 300.25,-25.8"/>
</g>
</g>
</svg>
