<?xml version="1.0" encoding="UTF-8" standalone="no"?>
<!DOCTYPE svg PUBLIC "-//W3C//DTD SVG 1.1//EN"
 "http://www.w3.org/Graphics/SVG/1.1/DTD/svg11.dtd">
<!-- Generated by graphviz version 2.43.0 (0)
 -->
<!-- Title: Graphical Class Hierarchy Pages: 1 -->
<svg width="237pt" height="142pt"
 viewBox="0.00 0.00 237.00 142.00" xmlns="http://www.w3.org/2000/svg" xmlns:xlink="http://www.w3.org/1999/xlink">
<g id="graph0" class="graph" transform="scale(1 1) rotate(0) translate(4 138)">
<title>Graphical Class Hierarchy</title>
<polygon fill="white" stroke="transparent" points="-4,4 -4,-138 233,-138 233,4 -4,4"/>
<!-- Node0 -->
<g id="node1" class="node">
<title>Node0</title>
<g id="a_node1"><a xlink:href="classSCS.html" target="_top" xlink:title=" ">
<polygon fill="white" stroke="black" points="0,-57.5 0,-76.5 38,-76.5 38,-57.5 0,-57.5"/>
<text text-anchor="middle" x="19" y="-64.5" font-family="Helvetica,sans-Serif" font-size="10.00">SCS</text>
</a>
</g>
</g>
<!-- Node1 -->
<g id="node2" class="node">
<title>Node1</title>
<g id="a_node2"><a xlink:href="classSCSerial.html" target="_top" xlink:title=" ">
<polygon fill="white" stroke="black" points="74,-57.5 74,-76.5 130,-76.5 130,-57.5 74,-57.5"/>
<text text-anchor="middle" x="102" y="-64.5" font-family="Helvetica,sans-Serif" font-size="10.00">SCSerial</text>
</a>
</g>
</g>
<!-- Node0&#45;&gt;Node1 -->
<g id="edge1" class="edge">
<title>Node0&#45;&gt;Node1</title>
<path fill="none" stroke="midnightblue" d="M48.6,-67C56.78,-67 65.68,-67 73.77,-67"/>
<polygon fill="midnightblue" stroke="midnightblue" points="48.38,-63.5 38.38,-67 48.38,-70.5 48.38,-63.5"/>
</g>
<!-- Node2 -->
<g id="node3" class="node">
<title>Node2</title>
<g id="a_node3"><a xlink:href="classSCSCL.html" target="_top" xlink:title=" ">
<polygon fill="white" stroke="black" points="172.5,-114.5 172.5,-133.5 222.5,-133.5 222.5,-114.5 172.5,-114.5"/>
<text text-anchor="middle" x="197.5" y="-121.5" font-family="Helvetica,sans-Serif" font-size="10.00">SCSCL</text>
</a>
</g>
</g>
<!-- Node1&#45;&gt;Node2 -->
<g id="edge2" class="edge">
<title>Node1&#45;&gt;Node2</title>
<path fill="none" stroke="midnightblue" d="M127.64,-82.02C144.5,-92.3 166.36,-105.62 180.87,-114.47"/>
<polygon fill="midnightblue" stroke="midnightblue" points="129.22,-78.89 118.86,-76.67 125.58,-84.86 129.22,-78.89"/>
</g>
<!-- Node3 -->
<g id="node4" class="node">
<title>Node3</title>
<g id="a_node4"><a xlink:href="classSMSBL.html" target="_top" xlink:title=" ">
<polygon fill="white" stroke="black" points="172.5,-76.5 172.5,-95.5 222.5,-95.5 222.5,-76.5 172.5,-76.5"/>
<text text-anchor="middle" x="197.5" y="-83.5" font-family="Helvetica,sans-Serif" font-size="10.00">SMSBL</text>
</a>
</g>
</g>
<!-- Node1&#45;&gt;Node3 -->
<g id="edge3" class="edge">
<title>Node1&#45;&gt;Node3</title>
<path fill="none" stroke="midnightblue" d="M140.14,-74.55C151,-76.75 162.57,-79.1 172.38,-81.1"/>
<polygon fill="midnightblue" stroke="midnightblue" points="140.54,-71.06 130.04,-72.5 139.15,-77.92 140.54,-71.06"/>
</g>
<!-- Node4 -->
<g id="node5" class="node">
<title>Node4</title>
<g id="a_node5"><a xlink:href="classSMSCL.html" target="_top" xlink:title=" ">
<polygon fill="white" stroke="black" points="172,-38.5 172,-57.5 223,-57.5 223,-38.5 172,-38.5"/>
<text text-anchor="middle" x="197.5" y="-45.5" font-family="Helvetica,sans-Serif" font-size="10.00">SMSCL</text>
</a>
</g>
</g>
<!-- Node1&#45;&gt;Node4 -->
<g id="edge4" class="edge">
<title>Node1&#45;&gt;Node4</title>
<path fill="none" stroke="midnightblue" d="M139.98,-59.49C150.65,-57.32 162.02,-55.01 171.75,-53.03"/>
<polygon fill="midnightblue" stroke="midnightblue" points="139.15,-56.08 130.04,-61.5 140.54,-62.94 139.15,-56.08"/>
</g>
<!-- Node5 -->
<g id="node6" class="node">
<title>Node5</title>
<g id="a_node6"><a xlink:href="classSMS__STS.html" target="_top" xlink:title=" ">
<polygon fill="white" stroke="black" points="166,-0.5 166,-19.5 229,-19.5 229,-0.5 166,-0.5"/>
<text text-anchor="middle" x="197.5" y="-7.5" font-family="Helvetica,sans-Serif" font-size="10.00">SMS_STS</text>
</a>
</g>
</g>
<!-- Node1&#45;&gt;Node5 -->
<g id="edge5" class="edge">
<title>Node1&#45;&gt;Node5</title>
<path fill="none" stroke="midnightblue" d="M127.64,-51.98C144.5,-41.7 166.36,-28.38 180.87,-19.53"/>
<polygon fill="midnightblue" stroke="midnightblue" points="125.58,-49.14 118.86,-57.33 129.22,-55.11 125.58,-49.14"/>
</g>
</g>
</svg>
