<?xml version="1.0" encoding="UTF-8" standalone="no"?>
<!DOCTYPE svg PUBLIC "-//W3C//DTD SVG 1.1//EN"
 "http://www.w3.org/Graphics/SVG/1.1/DTD/svg11.dtd">
<!-- Generated by graphviz version 2.43.0 (0)
 -->
<!-- Title: scservo_sdk/SCS.cpp Pages: 1 -->
<svg width="257pt" height="140pt"
 viewBox="0.00 0.00 256.50 140.00" xmlns="http://www.w3.org/2000/svg" xmlns:xlink="http://www.w3.org/1999/xlink">
<g id="graph0" class="graph" transform="scale(1 1) rotate(0) translate(4 136)">
<title>scservo_sdk/SCS.cpp</title>
<polygon fill="white" stroke="transparent" points="-4,4 -4,-136 252.5,-136 252.5,4 -4,4"/>
<!-- Node1 -->
<g id="node1" class="node">
<title>Node1</title>
<g id="a_node1"><a xlink:title=" ">
<polygon fill="#bfbfbf" stroke="black" points="65.5,-112.5 65.5,-131.5 180.5,-131.5 180.5,-112.5 65.5,-112.5"/>
<text text-anchor="middle" x="123" y="-119.5" font-family="Helvetica,sans-Serif" font-size="10.00">scservo_sdk/SCS.cpp</text>
</a>
</g>
</g>
<!-- Node2 -->
<g id="node2" class="node">
<title>Node2</title>
<g id="a_node2"><a xlink:title=" ">
<polygon fill="white" stroke="#bfbfbf" points="0,-56.5 0,-75.5 46,-75.5 46,-56.5 0,-56.5"/>
<text text-anchor="middle" x="23" y="-63.5" font-family="Helvetica,sans-Serif" font-size="10.00">stdio.h</text>
</a>
</g>
</g>
<!-- Node1&#45;&gt;Node2 -->
<g id="edge1" class="edge">
<title>Node1&#45;&gt;Node2</title>
<path fill="none" stroke="midnightblue" d="M106.93,-112.32C91.04,-103.74 66.49,-90.49 48.04,-80.52"/>
<polygon fill="midnightblue" stroke="midnightblue" points="49.49,-77.33 39.03,-75.65 46.16,-83.49 49.49,-77.33"/>
</g>
<!-- Node3 -->
<g id="node3" class="node">
<title>Node3</title>
<g id="a_node3"><a xlink:title=" ">
<polygon fill="white" stroke="#bfbfbf" points="64.5,-56.5 64.5,-75.5 113.5,-75.5 113.5,-56.5 64.5,-56.5"/>
<text text-anchor="middle" x="89" y="-63.5" font-family="Helvetica,sans-Serif" font-size="10.00">string.h</text>
</a>
</g>
</g>
<!-- Node1&#45;&gt;Node3 -->
<g id="edge2" class="edge">
<title>Node1&#45;&gt;Node3</title>
<path fill="none" stroke="midnightblue" d="M117.39,-112.08C112.63,-104.53 105.68,-93.49 99.85,-84.23"/>
<polygon fill="midnightblue" stroke="midnightblue" points="102.8,-82.35 94.51,-75.75 96.88,-86.08 102.8,-82.35"/>
</g>
<!-- Node4 -->
<g id="node4" class="node">
<title>Node4</title>
<g id="a_node4"><a xlink:title=" ">
<polygon fill="white" stroke="#bfbfbf" points="132,-56.5 132,-75.5 184,-75.5 184,-56.5 132,-56.5"/>
<text text-anchor="middle" x="158" y="-63.5" font-family="Helvetica,sans-Serif" font-size="10.00">stddef.h</text>
</a>
</g>
</g>
<!-- Node1&#45;&gt;Node4 -->
<g id="edge3" class="edge">
<title>Node1&#45;&gt;Node4</title>
<path fill="none" stroke="midnightblue" d="M128.78,-112.08C133.67,-104.53 140.83,-93.49 146.83,-84.23"/>
<polygon fill="midnightblue" stroke="midnightblue" points="149.83,-86.05 152.33,-75.75 143.95,-82.24 149.83,-86.05"/>
</g>
<!-- Node5 -->
<g id="node5" class="node">
<title>Node5</title>
<g id="a_node5"><a xlink:href="SCS_8h.html" target="_top" xlink:title=" ">
<polygon fill="white" stroke="black" points="202,-56.5 202,-75.5 248,-75.5 248,-56.5 202,-56.5"/>
<text text-anchor="middle" x="225" y="-63.5" font-family="Helvetica,sans-Serif" font-size="10.00">SCS.h</text>
</a>
</g>
</g>
<!-- Node1&#45;&gt;Node5 -->
<g id="edge4" class="edge">
<title>Node1&#45;&gt;Node5</title>
<path fill="none" stroke="midnightblue" d="M139.39,-112.32C155.67,-103.7 180.87,-90.36 199.72,-80.39"/>
<polygon fill="midnightblue" stroke="midnightblue" points="201.45,-83.43 208.65,-75.65 198.18,-77.24 201.45,-83.43"/>
</g>
<!-- Node6 -->
<g id="node6" class="node">
<title>Node6</title>
<g id="a_node6"><a xlink:href="INST_8h.html" target="_top" xlink:title=" ">
<polygon fill="white" stroke="black" points="201.5,-0.5 201.5,-19.5 248.5,-19.5 248.5,-0.5 201.5,-0.5"/>
<text text-anchor="middle" x="225" y="-7.5" font-family="Helvetica,sans-Serif" font-size="10.00">INST.h</text>
</a>
</g>
</g>
<!-- Node5&#45;&gt;Node6 -->
<g id="edge5" class="edge">
<title>Node5&#45;&gt;Node6</title>
<path fill="none" stroke="midnightblue" d="M225,-56.08C225,-49.01 225,-38.86 225,-29.99"/>
<polygon fill="midnightblue" stroke="midnightblue" points="228.5,-29.75 225,-19.75 221.5,-29.75 228.5,-29.75"/>
</g>
</g>
</svg>
