<?xml version="1.0" encoding="UTF-8" standalone="no"?>
<!DOCTYPE svg PUBLIC "-//W3C//DTD SVG 1.1//EN"
 "http://www.w3.org/Graphics/SVG/1.1/DTD/svg11.dtd">
<!-- Generated by graphviz version 2.43.0 (0)
 -->
<!-- Title: scservo_sdk/SCSCL.cpp Pages: 1 -->
<svg width="482pt" height="252pt"
 viewBox="0.00 0.00 481.50 252.00" xmlns="http://www.w3.org/2000/svg" xmlns:xlink="http://www.w3.org/1999/xlink">
<g id="graph0" class="graph" transform="scale(1 1) rotate(0) translate(4 248)">
<title>scservo_sdk/SCSCL.cpp</title>
<polygon fill="white" stroke="transparent" points="-4,4 -4,-248 477.5,-248 477.5,4 -4,4"/>
<!-- Node1 -->
<g id="node1" class="node">
<title>Node1</title>
<g id="a_node1"><a xlink:title=" ">
<polygon fill="#bfbfbf" stroke="black" points="162.5,-224.5 162.5,-243.5 290.5,-243.5 290.5,-224.5 162.5,-224.5"/>
<text text-anchor="middle" x="226.5" y="-231.5" font-family="Helvetica,sans-Serif" font-size="10.00">scservo_sdk/SCSCL.cpp</text>
</a>
</g>
</g>
<!-- Node2 -->
<g id="node2" class="node">
<title>Node2</title>
<g id="a_node2"><a xlink:href="SCSCL_8h.html" target="_top" xlink:title=" ">
<polygon fill="white" stroke="black" points="197,-168.5 197,-187.5 256,-187.5 256,-168.5 197,-168.5"/>
<text text-anchor="middle" x="226.5" y="-175.5" font-family="Helvetica,sans-Serif" font-size="10.00">SCSCL.h</text>
</a>
</g>
</g>
<!-- Node1&#45;&gt;Node2 -->
<g id="edge1" class="edge">
<title>Node1&#45;&gt;Node2</title>
<path fill="none" stroke="midnightblue" d="M226.5,-224.08C226.5,-217.01 226.5,-206.86 226.5,-197.99"/>
<polygon fill="midnightblue" stroke="midnightblue" points="230,-197.75 226.5,-187.75 223,-197.75 230,-197.75"/>
</g>
<!-- Node3 -->
<g id="node3" class="node">
<title>Node3</title>
<g id="a_node3"><a xlink:href="SCSerial_8h.html" target="_top" xlink:title=" ">
<polygon fill="white" stroke="black" points="194.5,-112.5 194.5,-131.5 258.5,-131.5 258.5,-112.5 194.5,-112.5"/>
<text text-anchor="middle" x="226.5" y="-119.5" font-family="Helvetica,sans-Serif" font-size="10.00">SCSerial.h</text>
</a>
</g>
</g>
<!-- Node2&#45;&gt;Node3 -->
<g id="edge2" class="edge">
<title>Node2&#45;&gt;Node3</title>
<path fill="none" stroke="midnightblue" d="M226.5,-168.08C226.5,-161.01 226.5,-150.86 226.5,-141.99"/>
<polygon fill="midnightblue" stroke="midnightblue" points="230,-141.75 226.5,-131.75 223,-141.75 230,-141.75"/>
</g>
<!-- Node4 -->
<g id="node4" class="node">
<title>Node4</title>
<g id="a_node4"><a xlink:href="SCS_8h.html" target="_top" xlink:title=" ">
<polygon fill="white" stroke="black" points="0.5,-56.5 0.5,-75.5 46.5,-75.5 46.5,-56.5 0.5,-56.5"/>
<text text-anchor="middle" x="23.5" y="-63.5" font-family="Helvetica,sans-Serif" font-size="10.00">SCS.h</text>
</a>
</g>
</g>
<!-- Node3&#45;&gt;Node4 -->
<g id="edge3" class="edge">
<title>Node3&#45;&gt;Node4</title>
<path fill="none" stroke="midnightblue" d="M194.31,-112.7C161.85,-104.3 110.07,-90.78 56.27,-76.18"/>
<polygon fill="midnightblue" stroke="midnightblue" points="57.13,-72.78 46.56,-73.54 55.29,-79.54 57.13,-72.78"/>
</g>
<!-- Node6 -->
<g id="node6" class="node">
<title>Node6</title>
<g id="a_node6"><a xlink:title=" ">
<polygon fill="white" stroke="#bfbfbf" points="64.5,-56.5 64.5,-75.5 110.5,-75.5 110.5,-56.5 64.5,-56.5"/>
<text text-anchor="middle" x="87.5" y="-63.5" font-family="Helvetica,sans-Serif" font-size="10.00">stdio.h</text>
</a>
</g>
</g>
<!-- Node3&#45;&gt;Node6 -->
<g id="edge5" class="edge">
<title>Node3&#45;&gt;Node6</title>
<path fill="none" stroke="midnightblue" d="M204.48,-112.44C181.4,-103.48 144.94,-89.31 118.86,-79.18"/>
<polygon fill="midnightblue" stroke="midnightblue" points="120.01,-75.88 109.42,-75.52 117.48,-82.4 120.01,-75.88"/>
</g>
<!-- Node7 -->
<g id="node7" class="node">
<title>Node7</title>
<g id="a_node7"><a xlink:title=" ">
<polygon fill="white" stroke="#bfbfbf" points="129,-56.5 129,-75.5 186,-75.5 186,-56.5 129,-56.5"/>
<text text-anchor="middle" x="157.5" y="-63.5" font-family="Helvetica,sans-Serif" font-size="10.00">termios.h</text>
</a>
</g>
</g>
<!-- Node3&#45;&gt;Node7 -->
<g id="edge6" class="edge">
<title>Node3&#45;&gt;Node7</title>
<path fill="none" stroke="midnightblue" d="M215.41,-112.32C205.01,-104.18 189.24,-91.84 176.78,-82.09"/>
<polygon fill="midnightblue" stroke="midnightblue" points="178.82,-79.24 168.79,-75.83 174.51,-84.75 178.82,-79.24"/>
</g>
<!-- Node8 -->
<g id="node8" class="node">
<title>Node8</title>
<g id="a_node8"><a xlink:title=" ">
<polygon fill="white" stroke="#bfbfbf" points="204.5,-56.5 204.5,-75.5 248.5,-75.5 248.5,-56.5 204.5,-56.5"/>
<text text-anchor="middle" x="226.5" y="-63.5" font-family="Helvetica,sans-Serif" font-size="10.00">fcntl.h</text>
</a>
</g>
</g>
<!-- Node3&#45;&gt;Node8 -->
<g id="edge7" class="edge">
<title>Node3&#45;&gt;Node8</title>
<path fill="none" stroke="midnightblue" d="M226.5,-112.08C226.5,-105.01 226.5,-94.86 226.5,-85.99"/>
<polygon fill="midnightblue" stroke="midnightblue" points="230,-85.75 226.5,-75.75 223,-85.75 230,-85.75"/>
</g>
<!-- Node9 -->
<g id="node9" class="node">
<title>Node9</title>
<g id="a_node9"><a xlink:title=" ">
<polygon fill="white" stroke="#bfbfbf" points="267,-56.5 267,-75.5 318,-75.5 318,-56.5 267,-56.5"/>
<text text-anchor="middle" x="292.5" y="-63.5" font-family="Helvetica,sans-Serif" font-size="10.00">unistd.h</text>
</a>
</g>
</g>
<!-- Node3&#45;&gt;Node9 -->
<g id="edge8" class="edge">
<title>Node3&#45;&gt;Node9</title>
<path fill="none" stroke="midnightblue" d="M237.1,-112.32C246.96,-104.26 261.85,-92.08 273.72,-82.37"/>
<polygon fill="midnightblue" stroke="midnightblue" points="276.18,-84.88 281.7,-75.83 271.75,-79.46 276.18,-84.88"/>
</g>
<!-- Node10 -->
<g id="node10" class="node">
<title>Node10</title>
<g id="a_node10"><a xlink:title=" ">
<polygon fill="white" stroke="#bfbfbf" points="336,-56.5 336,-75.5 385,-75.5 385,-56.5 336,-56.5"/>
<text text-anchor="middle" x="360.5" y="-63.5" font-family="Helvetica,sans-Serif" font-size="10.00">string.h</text>
</a>
</g>
</g>
<!-- Node3&#45;&gt;Node10 -->
<g id="edge9" class="edge">
<title>Node3&#45;&gt;Node10</title>
<path fill="none" stroke="midnightblue" d="M247.73,-112.44C269.88,-103.52 304.82,-89.44 329.94,-79.32"/>
<polygon fill="midnightblue" stroke="midnightblue" points="331.4,-82.5 339.37,-75.52 328.78,-76.01 331.4,-82.5"/>
</g>
<!-- Node11 -->
<g id="node11" class="node">
<title>Node11</title>
<g id="a_node11"><a xlink:title=" ">
<polygon fill="white" stroke="#bfbfbf" points="403.5,-56.5 403.5,-75.5 473.5,-75.5 473.5,-56.5 403.5,-56.5"/>
<text text-anchor="middle" x="438.5" y="-63.5" font-family="Helvetica,sans-Serif" font-size="10.00">sys/select.h</text>
</a>
</g>
</g>
<!-- Node3&#45;&gt;Node11 -->
<g id="edge10" class="edge">
<title>Node3&#45;&gt;Node11</title>
<path fill="none" stroke="midnightblue" d="M258.7,-112.8C295.11,-103.52 354.59,-88.37 395.09,-78.06"/>
<polygon fill="midnightblue" stroke="midnightblue" points="396.12,-81.41 404.95,-75.55 394.39,-74.62 396.12,-81.41"/>
</g>
<!-- Node5 -->
<g id="node5" class="node">
<title>Node5</title>
<g id="a_node5"><a xlink:href="INST_8h.html" target="_top" xlink:title=" ">
<polygon fill="white" stroke="black" points="0,-0.5 0,-19.5 47,-19.5 47,-0.5 0,-0.5"/>
<text text-anchor="middle" x="23.5" y="-7.5" font-family="Helvetica,sans-Serif" font-size="10.00">INST.h</text>
</a>
</g>
</g>
<!-- Node4&#45;&gt;Node5 -->
<g id="edge4" class="edge">
<title>Node4&#45;&gt;Node5</title>
<path fill="none" stroke="midnightblue" d="M23.5,-56.08C23.5,-49.01 23.5,-38.86 23.5,-29.99"/>
<polygon fill="midnightblue" stroke="midnightblue" points="27,-29.75 23.5,-19.75 20,-29.75 27,-29.75"/>
</g>
</g>
</svg>
