<?xml version="1.0" encoding="UTF-8" standalone="no"?>
<!DOCTYPE svg PUBLIC "-//W3C//DTD SVG 1.1//EN"
 "http://www.w3.org/Graphics/SVG/1.1/DTD/svg11.dtd">
<!-- Generated by graphviz version 2.43.0 (0)
 -->
<!-- Title: scservo_sdk/SCSerial.h Pages: 1 -->
<svg width="792pt" height="140pt"
 viewBox="0.00 0.00 791.50 140.00" xmlns="http://www.w3.org/2000/svg" xmlns:xlink="http://www.w3.org/1999/xlink">
<g id="graph0" class="graph" transform="scale(1 1) rotate(0) translate(4 136)">
<title>scservo_sdk/SCSerial.h</title>
<polygon fill="white" stroke="transparent" points="-4,4 -4,-136 787.5,-136 787.5,4 -4,4"/>
<!-- Node1 -->
<g id="node1" class="node">
<title>Node1</title>
<g id="a_node1"><a xlink:title=" ">
<polygon fill="#bfbfbf" stroke="black" points="376,-112.5 376,-131.5 498,-131.5 498,-112.5 376,-112.5"/>
<text text-anchor="middle" x="437" y="-119.5" font-family="Helvetica,sans-Serif" font-size="10.00">scservo_sdk/SCSerial.h</text>
</a>
</g>
</g>
<!-- Node2 -->
<g id="node2" class="node">
<title>Node2</title>
<g id="a_node2"><a xlink:href="SCSCL_8h.html" target="_top" xlink:title=" ">
<polygon fill="white" stroke="black" points="94.5,-56.5 94.5,-75.5 211.5,-75.5 211.5,-56.5 94.5,-56.5"/>
<text text-anchor="middle" x="153" y="-63.5" font-family="Helvetica,sans-Serif" font-size="10.00">scservo_sdk/SCSCL.h</text>
</a>
</g>
</g>
<!-- Node1&#45;&gt;Node2 -->
<g id="edge1" class="edge">
<title>Node1&#45;&gt;Node2</title>
<path fill="none" stroke="midnightblue" d="M381.97,-110.54C328.3,-100.33 247.66,-85 197.79,-75.52"/>
<polygon fill="midnightblue" stroke="midnightblue" points="381.52,-114.01 392,-112.44 382.83,-107.14 381.52,-114.01"/>
</g>
<!-- Node5 -->
<g id="node5" class="node">
<title>Node5</title>
<g id="a_node5"><a xlink:href="SCSerial_8cpp.html" target="_top" xlink:title=" ">
<polygon fill="white" stroke="black" points="650.5,-56.5 650.5,-75.5 783.5,-75.5 783.5,-56.5 650.5,-56.5"/>
<text text-anchor="middle" x="717" y="-63.5" font-family="Helvetica,sans-Serif" font-size="10.00">scservo_sdk/SCSerial.cpp</text>
</a>
</g>
</g>
<!-- Node1&#45;&gt;Node5 -->
<g id="edge4" class="edge">
<title>Node1&#45;&gt;Node5</title>
<path fill="none" stroke="midnightblue" d="M491.25,-110.54C544.17,-100.33 623.67,-85 672.84,-75.52"/>
<polygon fill="midnightblue" stroke="midnightblue" points="490.52,-107.11 481.37,-112.44 491.85,-113.99 490.52,-107.11"/>
</g>
<!-- Node6 -->
<g id="node6" class="node">
<title>Node6</title>
<g id="a_node6"><a xlink:href="SMS__STS_8h.html" target="_top" xlink:title=" ">
<polygon fill="white" stroke="black" points="230,-56.5 230,-75.5 360,-75.5 360,-56.5 230,-56.5"/>
<text text-anchor="middle" x="295" y="-63.5" font-family="Helvetica,sans-Serif" font-size="10.00">scservo_sdk/SMS_STS.h</text>
</a>
</g>
</g>
<!-- Node1&#45;&gt;Node6 -->
<g id="edge5" class="edge">
<title>Node1&#45;&gt;Node6</title>
<path fill="none" stroke="midnightblue" d="M404.84,-108.77C378.17,-98.63 340.93,-84.47 317.4,-75.52"/>
<polygon fill="midnightblue" stroke="midnightblue" points="403.91,-112.16 414.5,-112.44 406.4,-105.62 403.91,-112.16"/>
</g>
<!-- Node8 -->
<g id="node8" class="node">
<title>Node8</title>
<g id="a_node8"><a xlink:href="SMSBL_8h.html" target="_top" xlink:title=" ">
<polygon fill="white" stroke="black" points="378.5,-56.5 378.5,-75.5 495.5,-75.5 495.5,-56.5 378.5,-56.5"/>
<text text-anchor="middle" x="437" y="-63.5" font-family="Helvetica,sans-Serif" font-size="10.00">scservo_sdk/SMSBL.h</text>
</a>
</g>
</g>
<!-- Node1&#45;&gt;Node8 -->
<g id="edge8" class="edge">
<title>Node1&#45;&gt;Node8</title>
<path fill="none" stroke="midnightblue" d="M437,-101.8C437,-92.91 437,-82.78 437,-75.75"/>
<polygon fill="midnightblue" stroke="midnightblue" points="433.5,-102.08 437,-112.08 440.5,-102.08 433.5,-102.08"/>
</g>
<!-- Node10 -->
<g id="node10" class="node">
<title>Node10</title>
<g id="a_node10"><a xlink:href="SMSCL_8h.html" target="_top" xlink:title=" ">
<polygon fill="white" stroke="black" points="514,-56.5 514,-75.5 632,-75.5 632,-56.5 514,-56.5"/>
<text text-anchor="middle" x="573" y="-63.5" font-family="Helvetica,sans-Serif" font-size="10.00">scservo_sdk/SMSCL.h</text>
</a>
</g>
</g>
<!-- Node1&#45;&gt;Node10 -->
<g id="edge11" class="edge">
<title>Node1&#45;&gt;Node10</title>
<path fill="none" stroke="midnightblue" d="M468.13,-108.64C493.66,-98.5 529.11,-84.43 551.55,-75.52"/>
<polygon fill="midnightblue" stroke="midnightblue" points="466.55,-105.5 458.55,-112.44 469.14,-112.01 466.55,-105.5"/>
</g>
<!-- Node3 -->
<g id="node3" class="node">
<title>Node3</title>
<g id="a_node3"><a xlink:href="SCSCL_8cpp.html" target="_top" xlink:title=" ">
<polygon fill="white" stroke="black" points="0,-0.5 0,-19.5 128,-19.5 128,-0.5 0,-0.5"/>
<text text-anchor="middle" x="64" y="-7.5" font-family="Helvetica,sans-Serif" font-size="10.00">scservo_sdk/SCSCL.cpp</text>
</a>
</g>
</g>
<!-- Node2&#45;&gt;Node3 -->
<g id="edge2" class="edge">
<title>Node2&#45;&gt;Node3</title>
<path fill="none" stroke="midnightblue" d="M129.76,-50.9C113.44,-41 92.13,-28.07 78.26,-19.65"/>
<polygon fill="midnightblue" stroke="midnightblue" points="128.34,-54.13 138.7,-56.32 131.97,-48.14 128.34,-54.13"/>
</g>
<!-- Node4 -->
<g id="node4" class="node">
<title>Node4</title>
<g id="a_node4"><a xlink:href="SCServo_8h.html" target="_top" xlink:title=" ">
<polygon fill="white" stroke="black" points="304.5,-0.5 304.5,-19.5 427.5,-19.5 427.5,-0.5 304.5,-0.5"/>
<text text-anchor="middle" x="366" y="-7.5" font-family="Helvetica,sans-Serif" font-size="10.00">scservo_sdk/SCServo.h</text>
</a>
</g>
</g>
<!-- Node2&#45;&gt;Node4 -->
<g id="edge3" class="edge">
<title>Node2&#45;&gt;Node4</title>
<path fill="none" stroke="midnightblue" d="M196.55,-53.96C236.78,-43.76 295.7,-28.82 332.41,-19.52"/>
<polygon fill="midnightblue" stroke="midnightblue" points="195.58,-50.59 186.75,-56.44 197.3,-57.38 195.58,-50.59"/>
</g>
<!-- Node6&#45;&gt;Node4 -->
<g id="edge6" class="edge">
<title>Node6&#45;&gt;Node4</title>
<path fill="none" stroke="midnightblue" d="M314.59,-50.1C327.37,-40.38 343.61,-28.03 354.39,-19.83"/>
<polygon fill="midnightblue" stroke="midnightblue" points="312.25,-47.48 306.41,-56.32 316.49,-53.06 312.25,-47.48"/>
</g>
<!-- Node7 -->
<g id="node7" class="node">
<title>Node7</title>
<g id="a_node7"><a xlink:href="SMS__STS_8cpp.html" target="_top" xlink:title=" ">
<polygon fill="white" stroke="black" points="146,-0.5 146,-19.5 286,-19.5 286,-0.5 146,-0.5"/>
<text text-anchor="middle" x="216" y="-7.5" font-family="Helvetica,sans-Serif" font-size="10.00">scservo_sdk/SMS_STS.cpp</text>
</a>
</g>
</g>
<!-- Node6&#45;&gt;Node7 -->
<g id="edge7" class="edge">
<title>Node6&#45;&gt;Node7</title>
<path fill="none" stroke="midnightblue" d="M273.97,-50.62C259.53,-40.76 240.86,-27.99 228.66,-19.65"/>
<polygon fill="midnightblue" stroke="midnightblue" points="272.08,-53.57 282.31,-56.32 276.03,-47.79 272.08,-53.57"/>
</g>
<!-- Node8&#45;&gt;Node4 -->
<g id="edge9" class="edge">
<title>Node8&#45;&gt;Node4</title>
<path fill="none" stroke="midnightblue" d="M417.41,-50.1C404.63,-40.38 388.39,-28.03 377.61,-19.83"/>
<polygon fill="midnightblue" stroke="midnightblue" points="415.51,-53.06 425.59,-56.32 419.75,-47.48 415.51,-53.06"/>
</g>
<!-- Node9 -->
<g id="node9" class="node">
<title>Node9</title>
<g id="a_node9"><a xlink:href="SMSBL_8cpp.html" target="_top" xlink:title=" ">
<polygon fill="white" stroke="black" points="446,-0.5 446,-19.5 574,-19.5 574,-0.5 446,-0.5"/>
<text text-anchor="middle" x="510" y="-7.5" font-family="Helvetica,sans-Serif" font-size="10.00">scservo_sdk/SMSBL.cpp</text>
</a>
</g>
</g>
<!-- Node8&#45;&gt;Node9 -->
<g id="edge10" class="edge">
<title>Node8&#45;&gt;Node9</title>
<path fill="none" stroke="midnightblue" d="M457.14,-50.1C470.28,-40.38 486.98,-28.03 498.06,-19.83"/>
<polygon fill="midnightblue" stroke="midnightblue" points="454.69,-47.56 448.73,-56.32 458.85,-53.19 454.69,-47.56"/>
</g>
<!-- Node10&#45;&gt;Node4 -->
<g id="edge12" class="edge">
<title>Node10&#45;&gt;Node4</title>
<path fill="none" stroke="midnightblue" d="M530.18,-53.83C491.09,-43.63 434.17,-28.78 398.65,-19.52"/>
<polygon fill="midnightblue" stroke="midnightblue" points="529.64,-57.31 540.2,-56.44 531.41,-50.53 529.64,-57.31"/>
</g>
<!-- Node11 -->
<g id="node11" class="node">
<title>Node11</title>
<g id="a_node11"><a xlink:href="SMSCL_8cpp.html" target="_top" xlink:title=" ">
<polygon fill="white" stroke="black" points="592,-0.5 592,-19.5 720,-19.5 720,-0.5 592,-0.5"/>
<text text-anchor="middle" x="656" y="-7.5" font-family="Helvetica,sans-Serif" font-size="10.00">scservo_sdk/SMSCL.cpp</text>
</a>
</g>
</g>
<!-- Node10&#45;&gt;Node11 -->
<g id="edge13" class="edge">
<title>Node10&#45;&gt;Node11</title>
<path fill="none" stroke="midnightblue" d="M595.1,-50.62C610.26,-40.76 629.88,-27.99 642.7,-19.65"/>
<polygon fill="midnightblue" stroke="midnightblue" points="592.81,-47.94 586.34,-56.32 596.63,-53.8 592.81,-47.94"/>
</g>
</g>
</svg>
