<?xml version="1.0" encoding="UTF-8" standalone="no"?>
<!DOCTYPE svg PUBLIC "-//W3C//DTD SVG 1.1//EN"
 "http://www.w3.org/Graphics/SVG/1.1/DTD/svg11.dtd">
<!-- Generated by graphviz version 2.43.0 (0)
 -->
<!-- Title: src/so101_system.cpp Pages: 1 -->
<svg width="887pt" height="106pt"
 viewBox="0.00 0.00 886.50 106.00" xmlns="http://www.w3.org/2000/svg" xmlns:xlink="http://www.w3.org/1999/xlink">
<g id="graph0" class="graph" transform="scale(1 1) rotate(0) translate(4 102)">
<title>src/so101_system.cpp</title>
<polygon fill="white" stroke="transparent" points="-4,4 -4,-102 882.5,-102 882.5,4 -4,4"/>
<!-- Node1 -->
<g id="node1" class="node">
<title>Node1</title>
<g id="a_node1"><a xlink:title=" ">
<polygon fill="#bfbfbf" stroke="black" points="326.5,-78.5 326.5,-97.5 442.5,-97.5 442.5,-78.5 326.5,-78.5"/>
<text text-anchor="middle" x="384.5" y="-85.5" font-family="Helvetica,sans-Serif" font-size="10.00">src/so101_system.cpp</text>
</a>
</g>
</g>
<!-- Node2 -->
<g id="node2" class="node">
<title>Node2</title>
<g id="a_node2"><a xlink:title=" ">
<polygon fill="white" stroke="#bfbfbf" points="0,-6 0,-36 117,-36 117,-6 0,-6"/>
<text text-anchor="start" x="8" y="-24" font-family="Helvetica,sans-Serif" font-size="10.00">so101_hardware/so101</text>
<text text-anchor="middle" x="58.5" y="-13" font-family="Helvetica,sans-Serif" font-size="10.00">_system.hpp</text>
</a>
</g>
</g>
<!-- Node1&#45;&gt;Node2 -->
<g id="edge1" class="edge">
<title>Node1&#45;&gt;Node2</title>
<path fill="none" stroke="midnightblue" d="M326.48,-78.8C273.94,-70.93 194.58,-57.89 126.5,-42 122.2,-41 117.78,-39.88 113.34,-38.71"/>
<polygon fill="midnightblue" stroke="midnightblue" points="114.24,-35.32 103.67,-36.06 112.39,-42.08 114.24,-35.32"/>
</g>
<!-- Node3 -->
<g id="node3" class="node">
<title>Node3</title>
<g id="a_node3"><a xlink:title=" ">
<polygon fill="white" stroke="#bfbfbf" points="135.5,-11.5 135.5,-30.5 179.5,-30.5 179.5,-11.5 135.5,-11.5"/>
<text text-anchor="middle" x="157.5" y="-18.5" font-family="Helvetica,sans-Serif" font-size="10.00">cmath</text>
</a>
</g>
</g>
<!-- Node1&#45;&gt;Node3 -->
<g id="edge2" class="edge">
<title>Node1&#45;&gt;Node3</title>
<path fill="none" stroke="midnightblue" d="M326.25,-79.07C286.38,-72.35 232.89,-60.73 188.5,-42 184.69,-40.39 180.83,-38.33 177.19,-36.13"/>
<polygon fill="midnightblue" stroke="midnightblue" points="179.03,-33.15 168.74,-30.61 175.2,-39.01 179.03,-33.15"/>
</g>
<!-- Node4 -->
<g id="node4" class="node">
<title>Node4</title>
<g id="a_node4"><a xlink:title=" ">
<polygon fill="white" stroke="#bfbfbf" points="197.5,-11.5 197.5,-30.5 247.5,-30.5 247.5,-11.5 197.5,-11.5"/>
<text text-anchor="middle" x="222.5" y="-18.5" font-family="Helvetica,sans-Serif" font-size="10.00">fstream</text>
</a>
</g>
</g>
<!-- Node1&#45;&gt;Node4 -->
<g id="edge3" class="edge">
<title>Node1&#45;&gt;Node4</title>
<path fill="none" stroke="midnightblue" d="M355.14,-78.46C328.78,-70.38 289.29,-57.23 256.5,-42 252.52,-40.15 248.4,-37.97 244.46,-35.75"/>
<polygon fill="midnightblue" stroke="midnightblue" points="246.13,-32.67 235.74,-30.6 242.57,-38.7 246.13,-32.67"/>
</g>
<!-- Node5 -->
<g id="node5" class="node">
<title>Node5</title>
<g id="a_node5"><a xlink:title=" ">
<polygon fill="white" stroke="#bfbfbf" points="265.5,-11.5 265.5,-30.5 305.5,-30.5 305.5,-11.5 265.5,-11.5"/>
<text text-anchor="middle" x="285.5" y="-18.5" font-family="Helvetica,sans-Serif" font-size="10.00">limits</text>
</a>
</g>
</g>
<!-- Node1&#45;&gt;Node5 -->
<g id="edge4" class="edge">
<title>Node1&#45;&gt;Node5</title>
<path fill="none" stroke="midnightblue" d="M370.73,-78.34C356.56,-69.37 333.86,-54.89 314.5,-42 311.84,-40.23 309.05,-38.34 306.3,-36.47"/>
<polygon fill="midnightblue" stroke="midnightblue" points="308.08,-33.44 297.86,-30.65 304.11,-39.21 308.08,-33.44"/>
</g>
<!-- Node6 -->
<g id="node6" class="node">
<title>Node6</title>
<g id="a_node6"><a xlink:title=" ">
<polygon fill="white" stroke="#bfbfbf" points="323.5,-11.5 323.5,-30.5 375.5,-30.5 375.5,-11.5 323.5,-11.5"/>
<text text-anchor="middle" x="349.5" y="-18.5" font-family="Helvetica,sans-Serif" font-size="10.00">memory</text>
</a>
</g>
</g>
<!-- Node1&#45;&gt;Node6 -->
<g id="edge5" class="edge">
<title>Node1&#45;&gt;Node6</title>
<path fill="none" stroke="midnightblue" d="M379.78,-78.23C374.48,-68.39 365.74,-52.16 359.01,-39.66"/>
<polygon fill="midnightblue" stroke="midnightblue" points="361.97,-37.77 354.15,-30.63 355.8,-41.09 361.97,-37.77"/>
</g>
<!-- Node7 -->
<g id="node7" class="node">
<title>Node7</title>
<g id="a_node7"><a xlink:title=" ">
<polygon fill="white" stroke="#bfbfbf" points="393.5,-11.5 393.5,-30.5 445.5,-30.5 445.5,-11.5 393.5,-11.5"/>
<text text-anchor="middle" x="419.5" y="-18.5" font-family="Helvetica,sans-Serif" font-size="10.00">sstream</text>
</a>
</g>
</g>
<!-- Node1&#45;&gt;Node7 -->
<g id="edge6" class="edge">
<title>Node1&#45;&gt;Node7</title>
<path fill="none" stroke="midnightblue" d="M389.22,-78.23C394.52,-68.39 403.26,-52.16 409.99,-39.66"/>
<polygon fill="midnightblue" stroke="midnightblue" points="413.2,-41.09 414.85,-30.63 407.03,-37.77 413.2,-41.09"/>
</g>
<!-- Node8 -->
<g id="node8" class="node">
<title>Node8</title>
<g id="a_node8"><a xlink:title=" ">
<polygon fill="white" stroke="#bfbfbf" points="463.5,-11.5 463.5,-30.5 507.5,-30.5 507.5,-11.5 463.5,-11.5"/>
<text text-anchor="middle" x="485.5" y="-18.5" font-family="Helvetica,sans-Serif" font-size="10.00">vector</text>
</a>
</g>
</g>
<!-- Node1&#45;&gt;Node8 -->
<g id="edge7" class="edge">
<title>Node1&#45;&gt;Node8</title>
<path fill="none" stroke="midnightblue" d="M397.92,-78.38C412.02,-69.33 434.82,-54.67 454.5,-42 457.5,-40.07 460.66,-38.03 463.77,-36.03"/>
<polygon fill="midnightblue" stroke="midnightblue" points="465.72,-38.93 472.23,-30.57 461.93,-33.05 465.72,-38.93"/>
</g>
<!-- Node9 -->
<g id="node9" class="node">
<title>Node9</title>
<g id="a_node9"><a xlink:title=" ">
<polygon fill="white" stroke="#bfbfbf" points="526,-0.5 526,-41.5 655,-41.5 655,-0.5 526,-0.5"/>
<text text-anchor="start" x="534" y="-29.5" font-family="Helvetica,sans-Serif" font-size="10.00">hardware_interface</text>
<text text-anchor="start" x="534" y="-18.5" font-family="Helvetica,sans-Serif" font-size="10.00">/types/hardware_interface</text>
<text text-anchor="middle" x="590.5" y="-7.5" font-family="Helvetica,sans-Serif" font-size="10.00">_type_values.hpp</text>
</a>
</g>
</g>
<!-- Node1&#45;&gt;Node9 -->
<g id="edge8" class="edge">
<title>Node1&#45;&gt;Node9</title>
<path fill="none" stroke="midnightblue" d="M411.86,-78.37C438.98,-69.81 481.71,-56.33 518.57,-44.69"/>
<polygon fill="midnightblue" stroke="midnightblue" points="519.82,-47.97 528.3,-41.63 517.71,-41.3 519.82,-47.97"/>
</g>
<!-- Node10 -->
<g id="node10" class="node">
<title>Node10</title>
<g id="a_node10"><a xlink:title=" ">
<polygon fill="white" stroke="#bfbfbf" points="673,-11.5 673,-30.5 764,-30.5 764,-11.5 673,-11.5"/>
<text text-anchor="middle" x="718.5" y="-18.5" font-family="Helvetica,sans-Serif" font-size="10.00">rclcpp/rclcpp.hpp</text>
</a>
</g>
</g>
<!-- Node1&#45;&gt;Node10 -->
<g id="edge9" class="edge">
<title>Node1&#45;&gt;Node10</title>
<path fill="none" stroke="midnightblue" d="M442.56,-81.02C499.68,-74.36 589.03,-61.84 664.5,-42 672.52,-39.89 681.02,-37.05 688.83,-34.17"/>
<polygon fill="midnightblue" stroke="midnightblue" points="690.2,-37.4 698.29,-30.56 687.7,-30.86 690.2,-37.4"/>
</g>
<!-- Node11 -->
<g id="node11" class="node">
<title>Node11</title>
<g id="a_node11"><a xlink:title=" ">
<polygon fill="white" stroke="#bfbfbf" points="782.5,-6 782.5,-36 878.5,-36 878.5,-6 782.5,-6"/>
<text text-anchor="start" x="790.5" y="-24" font-family="Helvetica,sans-Serif" font-size="10.00">pluginlib/class_list</text>
<text text-anchor="middle" x="830.5" y="-13" font-family="Helvetica,sans-Serif" font-size="10.00">_macros.hpp</text>
</a>
</g>
</g>
<!-- Node1&#45;&gt;Node11 -->
<g id="edge10" class="edge">
<title>Node1&#45;&gt;Node11</title>
<path fill="none" stroke="midnightblue" d="M442.52,-84.32C519.15,-79.86 657.89,-68.62 773.5,-42 777.14,-41.16 780.87,-40.17 784.59,-39.09"/>
<polygon fill="midnightblue" stroke="midnightblue" points="785.87,-42.35 794.37,-36.03 783.78,-35.67 785.87,-42.35"/>
</g>
</g>
</svg>
